G04 #@! TF.GenerationSoftware,KiCad,Pcbnew,7.0.10*
G04 #@! TF.CreationDate,2024-02-01T09:42:09+01:00*
G04 #@! TF.ProjectId,LoRa-APRS-Gateway-RPI-RA01,4c6f5261-2d41-4505-9253-2d4761746577,rev?*
G04 #@! TF.SameCoordinates,Original*
G04 #@! TF.FileFunction,Copper,L1,Top*
G04 #@! TF.FilePolarity,Positive*
%FSLAX46Y46*%
G04 Gerber Fmt 4.6, Leading zero omitted, Abs format (unit mm)*
G04 Created by KiCad (PCBNEW 7.0.10) date 2024-02-01 09:42:09*
%MOMM*%
%LPD*%
G01*
G04 APERTURE LIST*
G04 #@! TA.AperFunction,ComponentPad*
%ADD10C,1.600000*%
G04 #@! TD*
G04 #@! TA.AperFunction,ComponentPad*
%ADD11O,1.600000X1.600000*%
G04 #@! TD*
G04 #@! TA.AperFunction,ComponentPad*
%ADD12C,2.000000*%
G04 #@! TD*
G04 #@! TA.AperFunction,ComponentPad*
%ADD13C,2.050000*%
G04 #@! TD*
G04 #@! TA.AperFunction,ComponentPad*
%ADD14C,2.250000*%
G04 #@! TD*
G04 #@! TA.AperFunction,SMDPad,CuDef*
%ADD15R,1.500000X1.000000*%
G04 #@! TD*
G04 #@! TA.AperFunction,ComponentPad*
%ADD16R,1.700000X1.700000*%
G04 #@! TD*
G04 #@! TA.AperFunction,ComponentPad*
%ADD17O,1.700000X1.700000*%
G04 #@! TD*
G04 #@! TA.AperFunction,ViaPad*
%ADD18C,0.800000*%
G04 #@! TD*
G04 #@! TA.AperFunction,Conductor*
%ADD19C,0.250000*%
G04 #@! TD*
G04 #@! TA.AperFunction,Conductor*
%ADD20C,0.750000*%
G04 #@! TD*
G04 #@! TA.AperFunction,Conductor*
%ADD21C,0.500000*%
G04 #@! TD*
G04 APERTURE END LIST*
D10*
X100450000Y-140941000D03*
D11*
X100450000Y-148561000D03*
D10*
X107450000Y-140941000D03*
D11*
X107450000Y-148561000D03*
D12*
X114450000Y-133191000D03*
X120950000Y-133191000D03*
X114450000Y-137691000D03*
X120950000Y-137691000D03*
X122950000Y-124191000D03*
X122950000Y-117691000D03*
X127450000Y-124191000D03*
X127450000Y-117691000D03*
D13*
X95950000Y-96291000D03*
D14*
X93410000Y-98831000D03*
X98490000Y-98831000D03*
X93410000Y-93751000D03*
X98490000Y-93751000D03*
D12*
X93950000Y-133191000D03*
X100450000Y-133191000D03*
X93950000Y-137691000D03*
X100450000Y-137691000D03*
X122950000Y-114291000D03*
X122950000Y-107791000D03*
X127450000Y-114291000D03*
X127450000Y-107791000D03*
X104160000Y-133191000D03*
X110660000Y-133191000D03*
X104160000Y-137691000D03*
X110660000Y-137691000D03*
D10*
X103950000Y-140941000D03*
D11*
X103950000Y-148561000D03*
D10*
X110950000Y-140941000D03*
D11*
X110950000Y-148561000D03*
D10*
X114450000Y-140941000D03*
D11*
X114450000Y-148561000D03*
D15*
X121599669Y-95641882D03*
X121599669Y-96941882D03*
X121599669Y-98241882D03*
X118849669Y-98241882D03*
X118849669Y-96941882D03*
X118849669Y-95641882D03*
D16*
X83450000Y-130071000D03*
D17*
X83450000Y-132611000D03*
X83450000Y-135151000D03*
X83450000Y-137691000D03*
D10*
X87450000Y-148561000D03*
D11*
X87450000Y-140941000D03*
D10*
X90950000Y-148561000D03*
D11*
X90950000Y-140941000D03*
D16*
X103640000Y-104812857D03*
D17*
X106180000Y-104812857D03*
X108720000Y-104812857D03*
X111260000Y-104812857D03*
D12*
X95950000Y-128312857D03*
X118950000Y-128312857D03*
D16*
X130687680Y-99573080D03*
D17*
X133227680Y-99573080D03*
X130687680Y-102113080D03*
X133227680Y-102113080D03*
X130687680Y-104653080D03*
X133227680Y-104653080D03*
X130687680Y-107193080D03*
X133227680Y-107193080D03*
X130687680Y-109733080D03*
X133227680Y-109733080D03*
X130687680Y-112273080D03*
X133227680Y-112273080D03*
X130687680Y-114813080D03*
X133227680Y-114813080D03*
X130687680Y-117353080D03*
X133227680Y-117353080D03*
X130687680Y-119893080D03*
X133227680Y-119893080D03*
X130687680Y-122433080D03*
X133227680Y-122433080D03*
X130687680Y-124973080D03*
X133227680Y-124973080D03*
X130687680Y-127513080D03*
X133227680Y-127513080D03*
X130687680Y-130053080D03*
X133227680Y-130053080D03*
X130687680Y-132593080D03*
X133227680Y-132593080D03*
X130687680Y-135133080D03*
X133227680Y-135133080D03*
X130687680Y-137673080D03*
X133227680Y-137673080D03*
X130687680Y-140213080D03*
X133227680Y-140213080D03*
X130687680Y-142753080D03*
X133227680Y-142753080D03*
X130687680Y-145293080D03*
X133227680Y-145293080D03*
X130687680Y-147833080D03*
X133227680Y-147833080D03*
D18*
X110950000Y-142973000D03*
X113262000Y-105021000D03*
X104880000Y-102227000D03*
X109990000Y-106336857D03*
X102370000Y-130019000D03*
X104910000Y-131162000D03*
X94750000Y-119986000D03*
X93480000Y-121891000D03*
X92210000Y-124177000D03*
X96020000Y-123161000D03*
X128270000Y-141491000D03*
X124470000Y-142753080D03*
D19*
X120225000Y-98241882D02*
X120225000Y-99191000D01*
D20*
X118849669Y-98241882D02*
X120225000Y-98241882D01*
X120225000Y-98241882D02*
X121599669Y-98241882D01*
D21*
X83450000Y-137691000D02*
X86570000Y-137691000D01*
X111260000Y-107841000D02*
X101910000Y-117191000D01*
X111260000Y-104812857D02*
X111260000Y-107841000D01*
X101910000Y-117191000D02*
X89289000Y-117191000D01*
X86570000Y-137691000D02*
X88400000Y-135861000D01*
X88400000Y-118080000D02*
X89289000Y-117191000D01*
X88400000Y-135861000D02*
X88400000Y-118080000D01*
X87450000Y-115191000D02*
X100910000Y-115191000D01*
X86450000Y-133441000D02*
X86450000Y-116191000D01*
X108720000Y-107381000D02*
X108720000Y-104812857D01*
X83450000Y-135151000D02*
X84740000Y-135151000D01*
X84740000Y-135151000D02*
X86450000Y-133441000D01*
X100910000Y-115191000D02*
X108720000Y-107381000D01*
X86450000Y-116191000D02*
X87450000Y-115191000D01*
D19*
X125573600Y-130019000D02*
X102370000Y-130019000D01*
X125573600Y-130019000D02*
X130687680Y-135133080D01*
X130687680Y-137673080D02*
X124176600Y-131162000D01*
X124176600Y-131162000D02*
X104846500Y-131162000D01*
D21*
X103640000Y-99986857D02*
X103640000Y-104812857D01*
X105035857Y-98591000D02*
X103640000Y-99986857D01*
X115676551Y-98591000D02*
X105035857Y-98591000D01*
X117325669Y-96941882D02*
X115676551Y-98591000D01*
X118849669Y-96941882D02*
X117325669Y-96941882D01*
X123900000Y-99941000D02*
X122650000Y-101191000D01*
X106499857Y-101191000D02*
X106180000Y-101510857D01*
X106180000Y-101510857D02*
X106180000Y-104812857D01*
X123150882Y-96941882D02*
X123900000Y-97691000D01*
X121599669Y-96941882D02*
X123150882Y-96941882D01*
X123900000Y-97691000D02*
X123900000Y-99941000D01*
X122650000Y-101191000D02*
X106499857Y-101191000D01*
D19*
X130687680Y-122433080D02*
X128240600Y-119986000D01*
X128240600Y-119986000D02*
X94750000Y-119986000D01*
X130687680Y-124973080D02*
X127605600Y-121891000D01*
X127605600Y-121891000D02*
X93480000Y-121891000D01*
X117483000Y-124177000D02*
X92210000Y-124177000D01*
X120819080Y-127513080D02*
X117483000Y-124177000D01*
X130687680Y-127513080D02*
X120819080Y-127513080D01*
X133227680Y-127513080D02*
X131927680Y-126213080D01*
X131927680Y-126213080D02*
X121298476Y-126213080D01*
X96020000Y-123161000D02*
X118246396Y-123161000D01*
X121298476Y-126213080D02*
X118246396Y-123161000D01*
X128270000Y-141491000D02*
X127132080Y-140353080D01*
X118867680Y-140353080D02*
X118005600Y-139491000D01*
X110660000Y-137691000D02*
X112460000Y-139491000D01*
X118005600Y-139491000D02*
X112460000Y-139491000D01*
X127132080Y-140353080D02*
X118867680Y-140353080D01*
X129012080Y-144011000D02*
X128272080Y-144751000D01*
X100450000Y-143731000D02*
X100450000Y-140941000D01*
X93950000Y-137691000D02*
X100450000Y-137691000D01*
X128272080Y-144751000D02*
X101470000Y-144751000D01*
X133227680Y-142753080D02*
X131969760Y-144011000D01*
X131969760Y-144011000D02*
X129012080Y-144011000D01*
X101470000Y-144751000D02*
X100450000Y-143731000D01*
X130687680Y-142753080D02*
X124470000Y-142753080D01*
D20*
X118849669Y-95641882D02*
X121599669Y-95641882D01*
D21*
X127700000Y-97184213D02*
X126157669Y-95641882D01*
X122950000Y-107791000D02*
X122950000Y-106376787D01*
X126157669Y-95641882D02*
X121599669Y-95641882D01*
X127700000Y-104305400D02*
X127700000Y-99573080D01*
X124035787Y-105291000D02*
X126714400Y-105291000D01*
X122950000Y-106376787D02*
X124035787Y-105291000D01*
X127700000Y-99573080D02*
X127700000Y-97184213D01*
X126714400Y-105291000D02*
X127700000Y-104305400D01*
X130687680Y-99573080D02*
X127700000Y-99573080D01*
G04 #@! TA.AperFunction,Conductor*
G36*
X110073225Y-105488526D02*
G01*
X110095480Y-105514210D01*
X110128607Y-105564915D01*
X110184275Y-105650122D01*
X110184279Y-105650127D01*
X110240784Y-105711506D01*
X110336760Y-105815763D01*
X110452892Y-105906153D01*
X110494362Y-105963776D01*
X110501500Y-106005583D01*
X110501500Y-107474629D01*
X110481498Y-107542750D01*
X110464595Y-107563724D01*
X101632724Y-116395595D01*
X101570412Y-116429621D01*
X101543629Y-116432500D01*
X89353441Y-116432500D01*
X89335182Y-116431170D01*
X89311212Y-116427659D01*
X89311211Y-116427659D01*
X89288786Y-116429621D01*
X89261354Y-116432021D01*
X89250373Y-116432500D01*
X89244816Y-116432500D01*
X89213713Y-116436135D01*
X89210070Y-116436507D01*
X89134575Y-116443112D01*
X89127389Y-116444596D01*
X89127376Y-116444533D01*
X89120003Y-116446168D01*
X89120018Y-116446231D01*
X89112881Y-116447922D01*
X89041633Y-116473853D01*
X89038176Y-116475055D01*
X88995341Y-116489250D01*
X88966262Y-116498886D01*
X88966260Y-116498886D01*
X88966260Y-116498887D01*
X88959612Y-116501987D01*
X88959583Y-116501926D01*
X88952792Y-116505214D01*
X88952822Y-116505273D01*
X88946269Y-116508563D01*
X88882920Y-116550229D01*
X88879830Y-116552197D01*
X88815351Y-116591968D01*
X88809588Y-116596525D01*
X88809547Y-116596473D01*
X88803704Y-116601233D01*
X88803746Y-116601283D01*
X88798128Y-116605996D01*
X88746087Y-116661156D01*
X88743534Y-116663783D01*
X87909225Y-117498092D01*
X87895376Y-117510062D01*
X87875943Y-117524529D01*
X87843771Y-117562870D01*
X87836360Y-117570958D01*
X87832420Y-117574898D01*
X87832414Y-117574905D01*
X87812997Y-117599460D01*
X87810689Y-117602294D01*
X87761964Y-117660364D01*
X87757935Y-117666491D01*
X87757880Y-117666455D01*
X87753825Y-117672820D01*
X87753882Y-117672855D01*
X87750030Y-117679098D01*
X87717996Y-117747794D01*
X87716401Y-117751087D01*
X87682394Y-117818805D01*
X87679882Y-117825707D01*
X87679820Y-117825684D01*
X87677343Y-117832810D01*
X87677404Y-117832831D01*
X87675096Y-117839795D01*
X87659759Y-117914064D01*
X87658967Y-117917637D01*
X87641500Y-117991340D01*
X87640648Y-117998634D01*
X87640581Y-117998626D01*
X87639814Y-118006126D01*
X87639881Y-118006132D01*
X87639241Y-118013442D01*
X87641447Y-118089258D01*
X87641500Y-118092922D01*
X87641500Y-135494629D01*
X87621498Y-135562750D01*
X87604595Y-135583724D01*
X86292724Y-136895595D01*
X86230412Y-136929621D01*
X86203629Y-136932500D01*
X84645372Y-136932500D01*
X84577251Y-136912498D01*
X84539890Y-136875417D01*
X84525723Y-136853734D01*
X84525722Y-136853732D01*
X84373240Y-136688094D01*
X84373239Y-136688093D01*
X84373237Y-136688091D01*
X84287077Y-136621030D01*
X84195576Y-136549811D01*
X84162319Y-136531813D01*
X84111929Y-136481802D01*
X84096576Y-136412485D01*
X84121136Y-136345872D01*
X84162320Y-136310186D01*
X84195576Y-136292189D01*
X84373240Y-136153906D01*
X84525722Y-135988268D01*
X84536565Y-135971670D01*
X84539890Y-135966583D01*
X84593895Y-135920495D01*
X84645372Y-135909500D01*
X84675559Y-135909500D01*
X84693819Y-135910830D01*
X84699489Y-135911660D01*
X84717789Y-135914341D01*
X84767646Y-135909978D01*
X84778627Y-135909500D01*
X84784175Y-135909500D01*
X84784180Y-135909500D01*
X84815287Y-135905863D01*
X84818889Y-135905495D01*
X84894426Y-135898887D01*
X84894430Y-135898885D01*
X84901618Y-135897402D01*
X84901631Y-135897468D01*
X84908987Y-135895836D01*
X84908972Y-135895771D01*
X84916102Y-135894080D01*
X84916113Y-135894079D01*
X84987400Y-135868132D01*
X84990769Y-135866961D01*
X85062738Y-135843114D01*
X85062747Y-135843108D01*
X85069389Y-135840012D01*
X85069418Y-135840074D01*
X85076203Y-135836789D01*
X85076173Y-135836729D01*
X85082724Y-135833437D01*
X85082732Y-135833435D01*
X85146091Y-135791761D01*
X85149161Y-135789806D01*
X85213651Y-135750030D01*
X85213659Y-135750021D01*
X85219408Y-135745477D01*
X85219450Y-135745531D01*
X85225289Y-135740775D01*
X85225246Y-135740723D01*
X85230864Y-135736007D01*
X85230874Y-135736001D01*
X85282961Y-135680790D01*
X85285448Y-135678231D01*
X86940778Y-134022901D01*
X86954617Y-134010941D01*
X86974058Y-133996469D01*
X87006227Y-133958130D01*
X87013645Y-133950034D01*
X87017580Y-133946101D01*
X87037044Y-133921483D01*
X87039241Y-133918785D01*
X87088032Y-133860640D01*
X87088034Y-133860634D01*
X87088037Y-133860632D01*
X87092066Y-133854508D01*
X87092122Y-133854545D01*
X87096171Y-133848190D01*
X87096113Y-133848155D01*
X87099963Y-133841912D01*
X87099964Y-133841909D01*
X87099967Y-133841906D01*
X87132018Y-133773170D01*
X87133570Y-133769963D01*
X87167609Y-133702188D01*
X87167610Y-133702181D01*
X87170119Y-133695291D01*
X87170183Y-133695314D01*
X87172658Y-133688193D01*
X87172593Y-133688172D01*
X87174899Y-133681210D01*
X87174902Y-133681206D01*
X87190229Y-133606972D01*
X87191021Y-133603399D01*
X87208500Y-133529655D01*
X87209352Y-133522368D01*
X87209418Y-133522375D01*
X87210184Y-133514877D01*
X87210118Y-133514872D01*
X87210756Y-133507565D01*
X87210758Y-133507558D01*
X87208553Y-133431774D01*
X87208500Y-133428110D01*
X87208500Y-116557371D01*
X87228502Y-116489250D01*
X87245405Y-116468276D01*
X87727276Y-115986405D01*
X87789588Y-115952379D01*
X87816371Y-115949500D01*
X100845559Y-115949500D01*
X100863819Y-115950830D01*
X100869489Y-115951660D01*
X100887789Y-115954341D01*
X100937646Y-115949978D01*
X100948627Y-115949500D01*
X100954175Y-115949500D01*
X100954180Y-115949500D01*
X100985287Y-115945863D01*
X100988889Y-115945495D01*
X101064426Y-115938887D01*
X101064430Y-115938885D01*
X101071618Y-115937402D01*
X101071631Y-115937468D01*
X101078987Y-115935836D01*
X101078972Y-115935771D01*
X101086102Y-115934080D01*
X101086113Y-115934079D01*
X101157400Y-115908132D01*
X101160769Y-115906961D01*
X101232738Y-115883114D01*
X101232747Y-115883108D01*
X101239389Y-115880012D01*
X101239418Y-115880074D01*
X101246203Y-115876789D01*
X101246173Y-115876729D01*
X101252724Y-115873437D01*
X101252732Y-115873435D01*
X101316091Y-115831761D01*
X101319161Y-115829806D01*
X101383651Y-115790030D01*
X101383659Y-115790021D01*
X101389408Y-115785477D01*
X101389450Y-115785531D01*
X101395289Y-115780775D01*
X101395246Y-115780723D01*
X101400864Y-115776007D01*
X101400874Y-115776001D01*
X101452961Y-115720790D01*
X101455448Y-115718231D01*
X109210778Y-107962901D01*
X109224617Y-107950941D01*
X109244058Y-107936469D01*
X109276227Y-107898130D01*
X109283645Y-107890034D01*
X109287581Y-107886100D01*
X109307025Y-107861507D01*
X109309265Y-107858757D01*
X109358032Y-107800640D01*
X109358033Y-107800636D01*
X109358036Y-107800634D01*
X109362070Y-107794502D01*
X109362127Y-107794539D01*
X109366171Y-107788191D01*
X109366112Y-107788155D01*
X109369965Y-107781907D01*
X109369967Y-107781905D01*
X109402035Y-107713132D01*
X109403557Y-107709989D01*
X109437609Y-107642188D01*
X109437609Y-107642184D01*
X109437611Y-107642182D01*
X109440119Y-107635291D01*
X109440184Y-107635314D01*
X109442658Y-107628197D01*
X109442594Y-107628176D01*
X109444903Y-107621207D01*
X109460238Y-107546936D01*
X109461022Y-107543397D01*
X109478500Y-107469656D01*
X109478500Y-107469655D01*
X109479352Y-107462368D01*
X109479419Y-107462375D01*
X109480185Y-107454877D01*
X109480119Y-107454872D01*
X109480757Y-107447565D01*
X109480759Y-107447558D01*
X109478553Y-107371740D01*
X109478500Y-107368076D01*
X109478500Y-106005583D01*
X109498502Y-105937462D01*
X109527106Y-105906154D01*
X109643240Y-105815763D01*
X109795722Y-105650125D01*
X109884518Y-105514211D01*
X109938520Y-105468125D01*
X110008868Y-105458549D01*
X110073225Y-105488526D01*
G37*
G04 #@! TD.AperFunction*
G04 #@! TA.AperFunction,Conductor*
G36*
X120633766Y-128123159D02*
G01*
X120640932Y-128126260D01*
X120640933Y-128126260D01*
X120640935Y-128126261D01*
X120684610Y-128133178D01*
X120696221Y-128135582D01*
X120739050Y-128146580D01*
X120759304Y-128146580D01*
X120779014Y-128148131D01*
X120781221Y-128148480D01*
X120799023Y-128151300D01*
X120843041Y-128147138D01*
X120854899Y-128146580D01*
X129410642Y-128146580D01*
X129478763Y-128166582D01*
X129516125Y-128203665D01*
X129611955Y-128350345D01*
X129611959Y-128350350D01*
X129764442Y-128515988D01*
X129807584Y-128549567D01*
X129942104Y-128654269D01*
X129975885Y-128672550D01*
X130026276Y-128722562D01*
X130041629Y-128791879D01*
X130017069Y-128858492D01*
X129975889Y-128894176D01*
X129942384Y-128912308D01*
X129942378Y-128912312D01*
X129764777Y-129050545D01*
X129612354Y-129216121D01*
X129489260Y-129404531D01*
X129398859Y-129610623D01*
X129398856Y-129610630D01*
X129351135Y-129799079D01*
X129351136Y-129799080D01*
X130256564Y-129799080D01*
X130228187Y-129843236D01*
X130187680Y-129981191D01*
X130187680Y-130124969D01*
X130228187Y-130262924D01*
X130256564Y-130307080D01*
X129351135Y-130307080D01*
X129398856Y-130495529D01*
X129398859Y-130495536D01*
X129489260Y-130701628D01*
X129612354Y-130890038D01*
X129764777Y-131055614D01*
X129942378Y-131193847D01*
X129942384Y-131193851D01*
X129975887Y-131211982D01*
X130026277Y-131261995D01*
X130041629Y-131331312D01*
X130017068Y-131397925D01*
X129975887Y-131433608D01*
X129942110Y-131451887D01*
X129942104Y-131451891D01*
X129764442Y-131590171D01*
X129611959Y-131755809D01*
X129611955Y-131755814D01*
X129488821Y-131944286D01*
X129398383Y-132150466D01*
X129398382Y-132150467D01*
X129343117Y-132368704D01*
X129343116Y-132368710D01*
X129343116Y-132368712D01*
X129331902Y-132504038D01*
X129325474Y-132581615D01*
X129299914Y-132647851D01*
X129242602Y-132689754D01*
X129171734Y-132694020D01*
X129110809Y-132660304D01*
X126080844Y-129630339D01*
X126070879Y-129617901D01*
X126070652Y-129618090D01*
X126065601Y-129611984D01*
X126065600Y-129611982D01*
X126063983Y-129610464D01*
X126015949Y-129565357D01*
X126013105Y-129562600D01*
X125993377Y-129542871D01*
X125993371Y-129542866D01*
X125990167Y-129540380D01*
X125981156Y-129532683D01*
X125948925Y-129502417D01*
X125948919Y-129502413D01*
X125931163Y-129492651D01*
X125914647Y-129481802D01*
X125898641Y-129469386D01*
X125858064Y-129451827D01*
X125847407Y-129446605D01*
X125808663Y-129425306D01*
X125808660Y-129425305D01*
X125789036Y-129420266D01*
X125770336Y-129413864D01*
X125751745Y-129405819D01*
X125751743Y-129405818D01*
X125751741Y-129405818D01*
X125708074Y-129398901D01*
X125696455Y-129396495D01*
X125653630Y-129385500D01*
X125633376Y-129385500D01*
X125613666Y-129383949D01*
X125593657Y-129380780D01*
X125549639Y-129384941D01*
X125537781Y-129385500D01*
X120286884Y-129385500D01*
X120218763Y-129365498D01*
X120172270Y-129311842D01*
X120162166Y-129241568D01*
X120179451Y-129193665D01*
X120298240Y-128999820D01*
X120389105Y-128780451D01*
X120444535Y-128549568D01*
X120463165Y-128312857D01*
X120458114Y-128248682D01*
X120472708Y-128179203D01*
X120522550Y-128128643D01*
X120591814Y-128113056D01*
X120633766Y-128123159D01*
G37*
G04 #@! TD.AperFunction*
G04 #@! TA.AperFunction,Conductor*
G36*
X123066181Y-97930316D02*
G01*
X123072764Y-97936445D01*
X123104595Y-97968276D01*
X123138621Y-98030588D01*
X123141500Y-98057371D01*
X123141500Y-99574629D01*
X123121498Y-99642750D01*
X123104595Y-99663724D01*
X122372724Y-100395595D01*
X122310412Y-100429621D01*
X122283629Y-100432500D01*
X106564298Y-100432500D01*
X106546038Y-100431170D01*
X106522069Y-100427659D01*
X106522068Y-100427659D01*
X106499643Y-100429621D01*
X106472211Y-100432021D01*
X106461230Y-100432500D01*
X106455671Y-100432500D01*
X106424566Y-100436135D01*
X106420924Y-100436507D01*
X106345434Y-100443112D01*
X106338243Y-100444597D01*
X106338229Y-100444532D01*
X106330865Y-100446165D01*
X106330881Y-100446229D01*
X106323744Y-100447920D01*
X106252515Y-100473844D01*
X106249059Y-100475045D01*
X106177125Y-100498883D01*
X106170472Y-100501986D01*
X106170443Y-100501925D01*
X106163649Y-100505214D01*
X106163679Y-100505273D01*
X106157126Y-100508563D01*
X106093777Y-100550229D01*
X106090687Y-100552197D01*
X106026208Y-100591968D01*
X106020445Y-100596525D01*
X106020404Y-100596473D01*
X106014561Y-100601233D01*
X106014603Y-100601283D01*
X106008985Y-100605996D01*
X105956944Y-100661156D01*
X105954391Y-100663783D01*
X105689225Y-100928949D01*
X105675376Y-100940919D01*
X105655943Y-100955386D01*
X105623771Y-100993727D01*
X105616360Y-101001815D01*
X105612420Y-101005755D01*
X105612414Y-101005762D01*
X105592997Y-101030317D01*
X105590689Y-101033151D01*
X105541964Y-101091221D01*
X105537935Y-101097348D01*
X105537880Y-101097312D01*
X105533825Y-101103677D01*
X105533882Y-101103712D01*
X105530030Y-101109955D01*
X105497996Y-101178651D01*
X105496401Y-101181944D01*
X105462394Y-101249662D01*
X105459882Y-101256564D01*
X105459820Y-101256541D01*
X105457343Y-101263667D01*
X105457404Y-101263688D01*
X105455096Y-101270652D01*
X105439759Y-101344921D01*
X105438967Y-101348494D01*
X105421500Y-101422197D01*
X105420648Y-101429491D01*
X105420581Y-101429483D01*
X105419814Y-101436983D01*
X105419881Y-101436989D01*
X105419241Y-101444299D01*
X105421447Y-101520115D01*
X105421500Y-101523779D01*
X105421500Y-103620130D01*
X105401498Y-103688251D01*
X105372891Y-103719561D01*
X105256765Y-103809946D01*
X105256759Y-103809951D01*
X105195754Y-103876220D01*
X105134901Y-103912790D01*
X105063936Y-103910655D01*
X105005391Y-103870493D01*
X104984999Y-103834914D01*
X104960265Y-103768601D01*
X104940889Y-103716653D01*
X104940888Y-103716651D01*
X104940887Y-103716649D01*
X104853261Y-103599595D01*
X104736207Y-103511969D01*
X104736202Y-103511967D01*
X104599204Y-103460868D01*
X104599196Y-103460866D01*
X104538649Y-103454357D01*
X104538638Y-103454357D01*
X104524500Y-103454357D01*
X104456379Y-103434355D01*
X104409886Y-103380699D01*
X104398500Y-103328357D01*
X104398500Y-100353228D01*
X104418502Y-100285107D01*
X104435405Y-100264133D01*
X105313133Y-99386405D01*
X105375445Y-99352379D01*
X105402228Y-99349500D01*
X115612110Y-99349500D01*
X115630370Y-99350830D01*
X115636040Y-99351660D01*
X115654340Y-99354341D01*
X115704197Y-99349978D01*
X115715178Y-99349500D01*
X115720726Y-99349500D01*
X115720731Y-99349500D01*
X115751838Y-99345863D01*
X115755440Y-99345495D01*
X115830977Y-99338887D01*
X115830981Y-99338885D01*
X115838169Y-99337402D01*
X115838182Y-99337468D01*
X115845538Y-99335836D01*
X115845523Y-99335771D01*
X115852653Y-99334080D01*
X115852664Y-99334079D01*
X115923951Y-99308132D01*
X115927320Y-99306961D01*
X115999289Y-99283114D01*
X115999298Y-99283108D01*
X116005940Y-99280012D01*
X116005969Y-99280074D01*
X116012754Y-99276789D01*
X116012724Y-99276729D01*
X116019275Y-99273437D01*
X116019283Y-99273435D01*
X116082642Y-99231761D01*
X116085712Y-99229806D01*
X116150202Y-99190030D01*
X116150210Y-99190021D01*
X116155959Y-99185477D01*
X116156001Y-99185531D01*
X116161840Y-99180775D01*
X116161797Y-99180723D01*
X116167415Y-99176007D01*
X116167425Y-99176001D01*
X116219512Y-99120790D01*
X116221999Y-99118231D01*
X116844349Y-98495882D01*
X117591669Y-98495882D01*
X117591669Y-98790479D01*
X117598174Y-98850975D01*
X117649224Y-98987846D01*
X117649224Y-98987847D01*
X117736764Y-99104786D01*
X117853703Y-99192326D01*
X117990575Y-99243376D01*
X118051071Y-99249881D01*
X118051084Y-99249882D01*
X118595669Y-99249882D01*
X118595669Y-98495882D01*
X117591669Y-98495882D01*
X116844349Y-98495882D01*
X117382917Y-97957314D01*
X117445225Y-97923291D01*
X117516040Y-97928356D01*
X117561103Y-97957317D01*
X117591668Y-97987882D01*
X118977669Y-97987882D01*
X119045790Y-98007884D01*
X119092283Y-98061540D01*
X119103669Y-98113882D01*
X119103669Y-99249882D01*
X119648254Y-99249882D01*
X119648266Y-99249881D01*
X119708762Y-99243376D01*
X119845633Y-99192326D01*
X119845634Y-99192326D01*
X119962573Y-99104786D01*
X120050113Y-98987847D01*
X120050113Y-98987846D01*
X120101162Y-98850978D01*
X120102045Y-98847244D01*
X120103524Y-98844645D01*
X120103918Y-98843591D01*
X120104088Y-98843654D01*
X120137176Y-98785548D01*
X120200084Y-98752639D01*
X120270799Y-98758965D01*
X120326867Y-98802518D01*
X120347293Y-98847244D01*
X120348175Y-98850978D01*
X120399224Y-98987846D01*
X120399224Y-98987847D01*
X120486764Y-99104786D01*
X120603703Y-99192326D01*
X120740575Y-99243376D01*
X120801071Y-99249881D01*
X120801084Y-99249882D01*
X121345669Y-99249882D01*
X121345669Y-98495882D01*
X121853669Y-98495882D01*
X121853669Y-99249882D01*
X122398254Y-99249882D01*
X122398266Y-99249881D01*
X122458762Y-99243376D01*
X122595633Y-99192326D01*
X122595634Y-99192326D01*
X122712573Y-99104786D01*
X122800113Y-98987847D01*
X122800113Y-98987846D01*
X122851163Y-98850975D01*
X122857668Y-98790479D01*
X122857669Y-98790467D01*
X122857669Y-98495882D01*
X121853669Y-98495882D01*
X121345669Y-98495882D01*
X121345669Y-98113882D01*
X121365671Y-98045761D01*
X121419327Y-97999268D01*
X121471669Y-97987882D01*
X122857670Y-97987882D01*
X122873322Y-97972229D01*
X122877671Y-97957419D01*
X122931327Y-97910926D01*
X123001601Y-97900822D01*
X123066181Y-97930316D01*
G37*
G04 #@! TD.AperFunction*
G04 #@! TA.AperFunction,Conductor*
G36*
X135791621Y-91311502D02*
G01*
X135838114Y-91365158D01*
X135849500Y-91417500D01*
X135849500Y-155964500D01*
X135829498Y-156032621D01*
X135775842Y-156079114D01*
X135723500Y-156090500D01*
X79676500Y-156090500D01*
X79608379Y-156070498D01*
X79561886Y-156016842D01*
X79550500Y-155964500D01*
X79550500Y-148561000D01*
X86136502Y-148561000D01*
X86156457Y-148789087D01*
X86168924Y-148835614D01*
X86215715Y-149010240D01*
X86215717Y-149010246D01*
X86282767Y-149154035D01*
X86312477Y-149217749D01*
X86443802Y-149405300D01*
X86605700Y-149567198D01*
X86793251Y-149698523D01*
X87000757Y-149795284D01*
X87221913Y-149854543D01*
X87450000Y-149874498D01*
X87678087Y-149854543D01*
X87899243Y-149795284D01*
X88106749Y-149698523D01*
X88294300Y-149567198D01*
X88456198Y-149405300D01*
X88587523Y-149217749D01*
X88684284Y-149010243D01*
X88743543Y-148789087D01*
X88763498Y-148561000D01*
X89636502Y-148561000D01*
X89656457Y-148789087D01*
X89668924Y-148835614D01*
X89715715Y-149010240D01*
X89715717Y-149010246D01*
X89782767Y-149154035D01*
X89812477Y-149217749D01*
X89943802Y-149405300D01*
X90105700Y-149567198D01*
X90293251Y-149698523D01*
X90500757Y-149795284D01*
X90721913Y-149854543D01*
X90950000Y-149874498D01*
X91178087Y-149854543D01*
X91399243Y-149795284D01*
X91606749Y-149698523D01*
X91794300Y-149567198D01*
X91956198Y-149405300D01*
X92087523Y-149217749D01*
X92184284Y-149010243D01*
X92243543Y-148789087D01*
X92263498Y-148561000D01*
X92243543Y-148332913D01*
X92236600Y-148307000D01*
X99163917Y-148307000D01*
X100138314Y-148307000D01*
X100122359Y-148322955D01*
X100064835Y-148435852D01*
X100045014Y-148561000D01*
X100064835Y-148686148D01*
X100122359Y-148799045D01*
X100138314Y-148815000D01*
X99163918Y-148815000D01*
X99216186Y-149010068D01*
X99216188Y-149010073D01*
X99312912Y-149217498D01*
X99444184Y-149404974D01*
X99444189Y-149404980D01*
X99606019Y-149566810D01*
X99606025Y-149566815D01*
X99793501Y-149698087D01*
X100000926Y-149794811D01*
X100000931Y-149794813D01*
X100196000Y-149847081D01*
X100196000Y-148872686D01*
X100211955Y-148888641D01*
X100324852Y-148946165D01*
X100418519Y-148961000D01*
X100481481Y-148961000D01*
X100575148Y-148946165D01*
X100688045Y-148888641D01*
X100704000Y-148872686D01*
X100704000Y-149847081D01*
X100899068Y-149794813D01*
X100899073Y-149794811D01*
X101106498Y-149698087D01*
X101293974Y-149566815D01*
X101293980Y-149566810D01*
X101455810Y-149404980D01*
X101455815Y-149404974D01*
X101587087Y-149217498D01*
X101683811Y-149010073D01*
X101683813Y-149010068D01*
X101736082Y-148815000D01*
X100761686Y-148815000D01*
X100777641Y-148799045D01*
X100835165Y-148686148D01*
X100854986Y-148561000D01*
X100835165Y-148435852D01*
X100777641Y-148322955D01*
X100761686Y-148307000D01*
X101736082Y-148307000D01*
X102663917Y-148307000D01*
X103638314Y-148307000D01*
X103622359Y-148322955D01*
X103564835Y-148435852D01*
X103545014Y-148561000D01*
X103564835Y-148686148D01*
X103622359Y-148799045D01*
X103638314Y-148815000D01*
X102663918Y-148815000D01*
X102716186Y-149010068D01*
X102716188Y-149010073D01*
X102812912Y-149217498D01*
X102944184Y-149404974D01*
X102944189Y-149404980D01*
X103106019Y-149566810D01*
X103106025Y-149566815D01*
X103293501Y-149698087D01*
X103500926Y-149794811D01*
X103500931Y-149794813D01*
X103696000Y-149847081D01*
X103696000Y-148872686D01*
X103711955Y-148888641D01*
X103824852Y-148946165D01*
X103918519Y-148961000D01*
X103981481Y-148961000D01*
X104075148Y-148946165D01*
X104188045Y-148888641D01*
X104204000Y-148872686D01*
X104204000Y-149847081D01*
X104399068Y-149794813D01*
X104399073Y-149794811D01*
X104606498Y-149698087D01*
X104793974Y-149566815D01*
X104793980Y-149566810D01*
X104955810Y-149404980D01*
X104955815Y-149404974D01*
X105087087Y-149217498D01*
X105183811Y-149010073D01*
X105183813Y-149010068D01*
X105236082Y-148815000D01*
X104261686Y-148815000D01*
X104277641Y-148799045D01*
X104335165Y-148686148D01*
X104354986Y-148561000D01*
X104335165Y-148435852D01*
X104277641Y-148322955D01*
X104261686Y-148307000D01*
X105236082Y-148307000D01*
X106163917Y-148307000D01*
X107138314Y-148307000D01*
X107122359Y-148322955D01*
X107064835Y-148435852D01*
X107045014Y-148561000D01*
X107064835Y-148686148D01*
X107122359Y-148799045D01*
X107138314Y-148815000D01*
X106163918Y-148815000D01*
X106216186Y-149010068D01*
X106216188Y-149010073D01*
X106312912Y-149217498D01*
X106444184Y-149404974D01*
X106444189Y-149404980D01*
X106606019Y-149566810D01*
X106606025Y-149566815D01*
X106793501Y-149698087D01*
X107000926Y-149794811D01*
X107000931Y-149794813D01*
X107196000Y-149847081D01*
X107196000Y-148872686D01*
X107211955Y-148888641D01*
X107324852Y-148946165D01*
X107418519Y-148961000D01*
X107481481Y-148961000D01*
X107575148Y-148946165D01*
X107688045Y-148888641D01*
X107704000Y-148872686D01*
X107704000Y-149847081D01*
X107899068Y-149794813D01*
X107899073Y-149794811D01*
X108106498Y-149698087D01*
X108293974Y-149566815D01*
X108293980Y-149566810D01*
X108455810Y-149404980D01*
X108455815Y-149404974D01*
X108587087Y-149217498D01*
X108683811Y-149010073D01*
X108683813Y-149010068D01*
X108736082Y-148815000D01*
X107761686Y-148815000D01*
X107777641Y-148799045D01*
X107835165Y-148686148D01*
X107854986Y-148561000D01*
X107835165Y-148435852D01*
X107777641Y-148322955D01*
X107761686Y-148307000D01*
X108736082Y-148307000D01*
X109663917Y-148307000D01*
X110638314Y-148307000D01*
X110622359Y-148322955D01*
X110564835Y-148435852D01*
X110545014Y-148561000D01*
X110564835Y-148686148D01*
X110622359Y-148799045D01*
X110638314Y-148815000D01*
X109663918Y-148815000D01*
X109716186Y-149010068D01*
X109716188Y-149010073D01*
X109812912Y-149217498D01*
X109944184Y-149404974D01*
X109944189Y-149404980D01*
X110106019Y-149566810D01*
X110106025Y-149566815D01*
X110293501Y-149698087D01*
X110500926Y-149794811D01*
X110500931Y-149794813D01*
X110696000Y-149847081D01*
X110696000Y-148872686D01*
X110711955Y-148888641D01*
X110824852Y-148946165D01*
X110918519Y-148961000D01*
X110981481Y-148961000D01*
X111075148Y-148946165D01*
X111188045Y-148888641D01*
X111204000Y-148872686D01*
X111204000Y-149847081D01*
X111399068Y-149794813D01*
X111399073Y-149794811D01*
X111606498Y-149698087D01*
X111793974Y-149566815D01*
X111793980Y-149566810D01*
X111955810Y-149404980D01*
X111955815Y-149404974D01*
X112087087Y-149217498D01*
X112183811Y-149010073D01*
X112183813Y-149010068D01*
X112236082Y-148815000D01*
X111261686Y-148815000D01*
X111277641Y-148799045D01*
X111335165Y-148686148D01*
X111354986Y-148561000D01*
X111335165Y-148435852D01*
X111277641Y-148322955D01*
X111261686Y-148307000D01*
X112236082Y-148307000D01*
X113163917Y-148307000D01*
X114138314Y-148307000D01*
X114122359Y-148322955D01*
X114064835Y-148435852D01*
X114045014Y-148561000D01*
X114064835Y-148686148D01*
X114122359Y-148799045D01*
X114138314Y-148815000D01*
X113163918Y-148815000D01*
X113216186Y-149010068D01*
X113216188Y-149010073D01*
X113312912Y-149217498D01*
X113444184Y-149404974D01*
X113444189Y-149404980D01*
X113606019Y-149566810D01*
X113606025Y-149566815D01*
X113793501Y-149698087D01*
X114000926Y-149794811D01*
X114000931Y-149794813D01*
X114196000Y-149847081D01*
X114196000Y-148872686D01*
X114211955Y-148888641D01*
X114324852Y-148946165D01*
X114418519Y-148961000D01*
X114481481Y-148961000D01*
X114575148Y-148946165D01*
X114688045Y-148888641D01*
X114704000Y-148872686D01*
X114704000Y-149847081D01*
X114899068Y-149794813D01*
X114899073Y-149794811D01*
X115106498Y-149698087D01*
X115293974Y-149566815D01*
X115293980Y-149566810D01*
X115455810Y-149404980D01*
X115455815Y-149404974D01*
X115587087Y-149217498D01*
X115683811Y-149010073D01*
X115683813Y-149010068D01*
X115736082Y-148815000D01*
X114761686Y-148815000D01*
X114777641Y-148799045D01*
X114835165Y-148686148D01*
X114854986Y-148561000D01*
X114835165Y-148435852D01*
X114777641Y-148322955D01*
X114761686Y-148307000D01*
X115736082Y-148307000D01*
X115683813Y-148111931D01*
X115683811Y-148111926D01*
X115587087Y-147904501D01*
X115455815Y-147717025D01*
X115455810Y-147717019D01*
X115293980Y-147555189D01*
X115293974Y-147555184D01*
X115106498Y-147423912D01*
X114899073Y-147327188D01*
X114899071Y-147327187D01*
X114704000Y-147274917D01*
X114704000Y-148249314D01*
X114688045Y-148233359D01*
X114575148Y-148175835D01*
X114481481Y-148161000D01*
X114418519Y-148161000D01*
X114324852Y-148175835D01*
X114211955Y-148233359D01*
X114196000Y-148249314D01*
X114196000Y-147274917D01*
X114195999Y-147274917D01*
X114000928Y-147327187D01*
X114000926Y-147327188D01*
X113793501Y-147423912D01*
X113606025Y-147555184D01*
X113606019Y-147555189D01*
X113444189Y-147717019D01*
X113444184Y-147717025D01*
X113312912Y-147904501D01*
X113216188Y-148111926D01*
X113216186Y-148111931D01*
X113163917Y-148307000D01*
X112236082Y-148307000D01*
X112183813Y-148111931D01*
X112183811Y-148111926D01*
X112087087Y-147904501D01*
X111955815Y-147717025D01*
X111955810Y-147717019D01*
X111793980Y-147555189D01*
X111793974Y-147555184D01*
X111606498Y-147423912D01*
X111399073Y-147327188D01*
X111399071Y-147327187D01*
X111204000Y-147274917D01*
X111204000Y-148249314D01*
X111188045Y-148233359D01*
X111075148Y-148175835D01*
X110981481Y-148161000D01*
X110918519Y-148161000D01*
X110824852Y-148175835D01*
X110711955Y-148233359D01*
X110696000Y-148249314D01*
X110696000Y-147274917D01*
X110695999Y-147274917D01*
X110500928Y-147327187D01*
X110500926Y-147327188D01*
X110293501Y-147423912D01*
X110106025Y-147555184D01*
X110106019Y-147555189D01*
X109944189Y-147717019D01*
X109944184Y-147717025D01*
X109812912Y-147904501D01*
X109716188Y-148111926D01*
X109716186Y-148111931D01*
X109663917Y-148307000D01*
X108736082Y-148307000D01*
X108683813Y-148111931D01*
X108683811Y-148111926D01*
X108587087Y-147904501D01*
X108455815Y-147717025D01*
X108455810Y-147717019D01*
X108293980Y-147555189D01*
X108293974Y-147555184D01*
X108106498Y-147423912D01*
X107899073Y-147327188D01*
X107899071Y-147327187D01*
X107704000Y-147274917D01*
X107704000Y-148249314D01*
X107688045Y-148233359D01*
X107575148Y-148175835D01*
X107481481Y-148161000D01*
X107418519Y-148161000D01*
X107324852Y-148175835D01*
X107211955Y-148233359D01*
X107196000Y-148249314D01*
X107196000Y-147274917D01*
X107195999Y-147274917D01*
X107000928Y-147327187D01*
X107000926Y-147327188D01*
X106793501Y-147423912D01*
X106606025Y-147555184D01*
X106606019Y-147555189D01*
X106444189Y-147717019D01*
X106444184Y-147717025D01*
X106312912Y-147904501D01*
X106216188Y-148111926D01*
X106216186Y-148111931D01*
X106163917Y-148307000D01*
X105236082Y-148307000D01*
X105183813Y-148111931D01*
X105183811Y-148111926D01*
X105087087Y-147904501D01*
X104955815Y-147717025D01*
X104955810Y-147717019D01*
X104793980Y-147555189D01*
X104793974Y-147555184D01*
X104606498Y-147423912D01*
X104399073Y-147327188D01*
X104399071Y-147327187D01*
X104204000Y-147274917D01*
X104204000Y-148249314D01*
X104188045Y-148233359D01*
X104075148Y-148175835D01*
X103981481Y-148161000D01*
X103918519Y-148161000D01*
X103824852Y-148175835D01*
X103711955Y-148233359D01*
X103696000Y-148249314D01*
X103696000Y-147274917D01*
X103695999Y-147274917D01*
X103500928Y-147327187D01*
X103500926Y-147327188D01*
X103293501Y-147423912D01*
X103106025Y-147555184D01*
X103106019Y-147555189D01*
X102944189Y-147717019D01*
X102944184Y-147717025D01*
X102812912Y-147904501D01*
X102716188Y-148111926D01*
X102716186Y-148111931D01*
X102663917Y-148307000D01*
X101736082Y-148307000D01*
X101683813Y-148111931D01*
X101683811Y-148111926D01*
X101587087Y-147904501D01*
X101455815Y-147717025D01*
X101455810Y-147717019D01*
X101293980Y-147555189D01*
X101293974Y-147555184D01*
X101106498Y-147423912D01*
X100899073Y-147327188D01*
X100899071Y-147327187D01*
X100704000Y-147274917D01*
X100704000Y-148249314D01*
X100688045Y-148233359D01*
X100575148Y-148175835D01*
X100481481Y-148161000D01*
X100418519Y-148161000D01*
X100324852Y-148175835D01*
X100211955Y-148233359D01*
X100196000Y-148249314D01*
X100196000Y-147274917D01*
X100195999Y-147274917D01*
X100000928Y-147327187D01*
X100000926Y-147327188D01*
X99793501Y-147423912D01*
X99606025Y-147555184D01*
X99606019Y-147555189D01*
X99444189Y-147717019D01*
X99444184Y-147717025D01*
X99312912Y-147904501D01*
X99216188Y-148111926D01*
X99216186Y-148111931D01*
X99163917Y-148307000D01*
X92236600Y-148307000D01*
X92184284Y-148111757D01*
X92087523Y-147904251D01*
X91956198Y-147716700D01*
X91794300Y-147554802D01*
X91606749Y-147423477D01*
X91536293Y-147390623D01*
X91399246Y-147326717D01*
X91399240Y-147326715D01*
X91305771Y-147301670D01*
X91178087Y-147267457D01*
X90950000Y-147247502D01*
X90721913Y-147267457D01*
X90500759Y-147326715D01*
X90500753Y-147326717D01*
X90293250Y-147423477D01*
X90105703Y-147554799D01*
X90105697Y-147554804D01*
X89943804Y-147716697D01*
X89943799Y-147716703D01*
X89812477Y-147904250D01*
X89715717Y-148111753D01*
X89715715Y-148111759D01*
X89676521Y-148258032D01*
X89656457Y-148332913D01*
X89636502Y-148561000D01*
X88763498Y-148561000D01*
X88743543Y-148332913D01*
X88684284Y-148111757D01*
X88587523Y-147904251D01*
X88456198Y-147716700D01*
X88294300Y-147554802D01*
X88106749Y-147423477D01*
X88036293Y-147390623D01*
X87899246Y-147326717D01*
X87899240Y-147326715D01*
X87805771Y-147301670D01*
X87678087Y-147267457D01*
X87450000Y-147247502D01*
X87221913Y-147267457D01*
X87000759Y-147326715D01*
X87000753Y-147326717D01*
X86793250Y-147423477D01*
X86605703Y-147554799D01*
X86605697Y-147554804D01*
X86443804Y-147716697D01*
X86443799Y-147716703D01*
X86312477Y-147904250D01*
X86215717Y-148111753D01*
X86215715Y-148111759D01*
X86176521Y-148258032D01*
X86156457Y-148332913D01*
X86136502Y-148561000D01*
X79550500Y-148561000D01*
X79550500Y-140941000D01*
X86136502Y-140941000D01*
X86143718Y-141023485D01*
X86156457Y-141169086D01*
X86215715Y-141390240D01*
X86215717Y-141390246D01*
X86293907Y-141557925D01*
X86312477Y-141597749D01*
X86443802Y-141785300D01*
X86605700Y-141947198D01*
X86793251Y-142078523D01*
X87000757Y-142175284D01*
X87221913Y-142234543D01*
X87450000Y-142254498D01*
X87678087Y-142234543D01*
X87899243Y-142175284D01*
X88106749Y-142078523D01*
X88294300Y-141947198D01*
X88456198Y-141785300D01*
X88587523Y-141597749D01*
X88684284Y-141390243D01*
X88743543Y-141169087D01*
X88763498Y-140941000D01*
X89636502Y-140941000D01*
X89643718Y-141023485D01*
X89656457Y-141169086D01*
X89715715Y-141390240D01*
X89715717Y-141390246D01*
X89793907Y-141557925D01*
X89812477Y-141597749D01*
X89943802Y-141785300D01*
X90105700Y-141947198D01*
X90293251Y-142078523D01*
X90500757Y-142175284D01*
X90721913Y-142234543D01*
X90950000Y-142254498D01*
X91178087Y-142234543D01*
X91399243Y-142175284D01*
X91606749Y-142078523D01*
X91794300Y-141947198D01*
X91956198Y-141785300D01*
X92087523Y-141597749D01*
X92184284Y-141390243D01*
X92243543Y-141169087D01*
X92263498Y-140941000D01*
X92243543Y-140712913D01*
X92184284Y-140491757D01*
X92087523Y-140284251D01*
X91956198Y-140096700D01*
X91794300Y-139934802D01*
X91711680Y-139876951D01*
X91606749Y-139803477D01*
X91399246Y-139706717D01*
X91399240Y-139706715D01*
X91305771Y-139681670D01*
X91178087Y-139647457D01*
X90950000Y-139627502D01*
X90721913Y-139647457D01*
X90500759Y-139706715D01*
X90500753Y-139706717D01*
X90293250Y-139803477D01*
X90105703Y-139934799D01*
X90105697Y-139934804D01*
X89943804Y-140096697D01*
X89943799Y-140096703D01*
X89812477Y-140284250D01*
X89715717Y-140491753D01*
X89715716Y-140491757D01*
X89656457Y-140712913D01*
X89636502Y-140941000D01*
X88763498Y-140941000D01*
X88743543Y-140712913D01*
X88684284Y-140491757D01*
X88587523Y-140284251D01*
X88456198Y-140096700D01*
X88294300Y-139934802D01*
X88211680Y-139876951D01*
X88106749Y-139803477D01*
X87899246Y-139706717D01*
X87899240Y-139706715D01*
X87805771Y-139681670D01*
X87678087Y-139647457D01*
X87450000Y-139627502D01*
X87221913Y-139647457D01*
X87000759Y-139706715D01*
X87000753Y-139706717D01*
X86793250Y-139803477D01*
X86605703Y-139934799D01*
X86605697Y-139934804D01*
X86443804Y-140096697D01*
X86443799Y-140096703D01*
X86312477Y-140284250D01*
X86215717Y-140491753D01*
X86215716Y-140491757D01*
X86156457Y-140712913D01*
X86136502Y-140941000D01*
X79550500Y-140941000D01*
X79550500Y-137691000D01*
X82086844Y-137691000D01*
X82105437Y-137915375D01*
X82160702Y-138133612D01*
X82160703Y-138133613D01*
X82160704Y-138133616D01*
X82225851Y-138282138D01*
X82251141Y-138339793D01*
X82374275Y-138528265D01*
X82374279Y-138528270D01*
X82526762Y-138693908D01*
X82552021Y-138713568D01*
X82704424Y-138832189D01*
X82902426Y-138939342D01*
X82902427Y-138939342D01*
X82902428Y-138939343D01*
X82976402Y-138964738D01*
X83115365Y-139012444D01*
X83337431Y-139049500D01*
X83337435Y-139049500D01*
X83562565Y-139049500D01*
X83562569Y-139049500D01*
X83784635Y-139012444D01*
X83997574Y-138939342D01*
X84195576Y-138832189D01*
X84373240Y-138693906D01*
X84525722Y-138528268D01*
X84536565Y-138511670D01*
X84539890Y-138506583D01*
X84593895Y-138460495D01*
X84645372Y-138449500D01*
X86505559Y-138449500D01*
X86523819Y-138450830D01*
X86529489Y-138451660D01*
X86547789Y-138454341D01*
X86597646Y-138449978D01*
X86608627Y-138449500D01*
X86614175Y-138449500D01*
X86614180Y-138449500D01*
X86645287Y-138445863D01*
X86648889Y-138445495D01*
X86724426Y-138438887D01*
X86724430Y-138438885D01*
X86731618Y-138437402D01*
X86731631Y-138437468D01*
X86738987Y-138435836D01*
X86738972Y-138435771D01*
X86746102Y-138434080D01*
X86746113Y-138434079D01*
X86817400Y-138408132D01*
X86820769Y-138406961D01*
X86892738Y-138383114D01*
X86892747Y-138383108D01*
X86899389Y-138380012D01*
X86899418Y-138380074D01*
X86906203Y-138376789D01*
X86906173Y-138376729D01*
X86912724Y-138373437D01*
X86912732Y-138373435D01*
X86976091Y-138331761D01*
X86979161Y-138329806D01*
X86992023Y-138321873D01*
X87043651Y-138290030D01*
X87043659Y-138290021D01*
X87049408Y-138285477D01*
X87049450Y-138285531D01*
X87055289Y-138280775D01*
X87055246Y-138280723D01*
X87060864Y-138276007D01*
X87060874Y-138276001D01*
X87112961Y-138220790D01*
X87115448Y-138218231D01*
X87642679Y-137691000D01*
X92436835Y-137691000D01*
X92455465Y-137927710D01*
X92510894Y-138158592D01*
X92599884Y-138373433D01*
X92601760Y-138377963D01*
X92693867Y-138528268D01*
X92725825Y-138580417D01*
X92725826Y-138580419D01*
X92880030Y-138760969D01*
X93060580Y-138915173D01*
X93060584Y-138915176D01*
X93263037Y-139039240D01*
X93482406Y-139130105D01*
X93713289Y-139185535D01*
X93950000Y-139204165D01*
X94186711Y-139185535D01*
X94417594Y-139130105D01*
X94636963Y-139039240D01*
X94839416Y-138915176D01*
X95019969Y-138760969D01*
X95174176Y-138580416D01*
X95294134Y-138384662D01*
X95346780Y-138337034D01*
X95401565Y-138324500D01*
X98998435Y-138324500D01*
X99066556Y-138344502D01*
X99105865Y-138384662D01*
X99193869Y-138528270D01*
X99225825Y-138580417D01*
X99225826Y-138580419D01*
X99380030Y-138760969D01*
X99560580Y-138915173D01*
X99560584Y-138915176D01*
X99763037Y-139039240D01*
X99982406Y-139130105D01*
X100213289Y-139185535D01*
X100450000Y-139204165D01*
X100686711Y-139185535D01*
X100917594Y-139130105D01*
X101136963Y-139039240D01*
X101339416Y-138915176D01*
X101519969Y-138760969D01*
X101674176Y-138580416D01*
X101798240Y-138377963D01*
X101889105Y-138158594D01*
X101944535Y-137927711D01*
X101963165Y-137691000D01*
X102646835Y-137691000D01*
X102665465Y-137927710D01*
X102720894Y-138158592D01*
X102809884Y-138373433D01*
X102811760Y-138377963D01*
X102903867Y-138528268D01*
X102935825Y-138580417D01*
X102935826Y-138580419D01*
X103090030Y-138760969D01*
X103270580Y-138915173D01*
X103270584Y-138915176D01*
X103473037Y-139039240D01*
X103692406Y-139130105D01*
X103923289Y-139185535D01*
X104160000Y-139204165D01*
X104396711Y-139185535D01*
X104627594Y-139130105D01*
X104846963Y-139039240D01*
X105049416Y-138915176D01*
X105229969Y-138760969D01*
X105384176Y-138580416D01*
X105508240Y-138377963D01*
X105599105Y-138158594D01*
X105654535Y-137927711D01*
X105673165Y-137691000D01*
X105654535Y-137454289D01*
X105599105Y-137223406D01*
X105508240Y-137004037D01*
X105384176Y-136801584D01*
X105384173Y-136801580D01*
X105229969Y-136621030D01*
X105049419Y-136466826D01*
X105049417Y-136466825D01*
X105049416Y-136466824D01*
X104846963Y-136342760D01*
X104845117Y-136341995D01*
X104627592Y-136251894D01*
X104469651Y-136213976D01*
X104396711Y-136196465D01*
X104160000Y-136177835D01*
X103923289Y-136196465D01*
X103692407Y-136251894D01*
X103473038Y-136342759D01*
X103270582Y-136466825D01*
X103270580Y-136466826D01*
X103090030Y-136621030D01*
X102935826Y-136801580D01*
X102935825Y-136801582D01*
X102811759Y-137004038D01*
X102720894Y-137223407D01*
X102665465Y-137454289D01*
X102646835Y-137691000D01*
X101963165Y-137691000D01*
X101944535Y-137454289D01*
X101889105Y-137223406D01*
X101798240Y-137004037D01*
X101674176Y-136801584D01*
X101674173Y-136801580D01*
X101519969Y-136621030D01*
X101339419Y-136466826D01*
X101339417Y-136466825D01*
X101339416Y-136466824D01*
X101136963Y-136342760D01*
X101135117Y-136341995D01*
X100917592Y-136251894D01*
X100759651Y-136213976D01*
X100686711Y-136196465D01*
X100450000Y-136177835D01*
X100213289Y-136196465D01*
X99982407Y-136251894D01*
X99763038Y-136342759D01*
X99560582Y-136466825D01*
X99560580Y-136466826D01*
X99380030Y-136621030D01*
X99225826Y-136801580D01*
X99225825Y-136801582D01*
X99225824Y-136801584D01*
X99105865Y-136997337D01*
X99053220Y-137044966D01*
X98998435Y-137057500D01*
X95401565Y-137057500D01*
X95333444Y-137037498D01*
X95294134Y-136997337D01*
X95174176Y-136801584D01*
X95174173Y-136801580D01*
X95019969Y-136621030D01*
X94839419Y-136466826D01*
X94839417Y-136466825D01*
X94839416Y-136466824D01*
X94636963Y-136342760D01*
X94635117Y-136341995D01*
X94417592Y-136251894D01*
X94259651Y-136213976D01*
X94186711Y-136196465D01*
X93950000Y-136177835D01*
X93713289Y-136196465D01*
X93482407Y-136251894D01*
X93263038Y-136342759D01*
X93060582Y-136466825D01*
X93060580Y-136466826D01*
X92880030Y-136621030D01*
X92725826Y-136801580D01*
X92725825Y-136801582D01*
X92601759Y-137004038D01*
X92510894Y-137223407D01*
X92455465Y-137454289D01*
X92436835Y-137691000D01*
X87642679Y-137691000D01*
X88890778Y-136442901D01*
X88904617Y-136430941D01*
X88924058Y-136416469D01*
X88956227Y-136378130D01*
X88963645Y-136370034D01*
X88967581Y-136366100D01*
X88987025Y-136341507D01*
X88989265Y-136338757D01*
X89038032Y-136280640D01*
X89038033Y-136280636D01*
X89038036Y-136280634D01*
X89042070Y-136274502D01*
X89042127Y-136274539D01*
X89046171Y-136268191D01*
X89046112Y-136268155D01*
X89049965Y-136261907D01*
X89049967Y-136261905D01*
X89082035Y-136193132D01*
X89083557Y-136189989D01*
X89117609Y-136122188D01*
X89117609Y-136122184D01*
X89117611Y-136122182D01*
X89120119Y-136115291D01*
X89120184Y-136115314D01*
X89122658Y-136108197D01*
X89122594Y-136108176D01*
X89124903Y-136101207D01*
X89140238Y-136026936D01*
X89141022Y-136023397D01*
X89158500Y-135949656D01*
X89158500Y-135949655D01*
X89159352Y-135942368D01*
X89159419Y-135942375D01*
X89160185Y-135934877D01*
X89160119Y-135934872D01*
X89160757Y-135927565D01*
X89160759Y-135927558D01*
X89158553Y-135851740D01*
X89158500Y-135848076D01*
X89158500Y-133191000D01*
X92436835Y-133191000D01*
X92455465Y-133427711D01*
X92460326Y-133447958D01*
X92510894Y-133658592D01*
X92594585Y-133860640D01*
X92601760Y-133877963D01*
X92686603Y-134016414D01*
X92725825Y-134080417D01*
X92725826Y-134080419D01*
X92880030Y-134260969D01*
X93060580Y-134415173D01*
X93060584Y-134415176D01*
X93263037Y-134539240D01*
X93482406Y-134630105D01*
X93713289Y-134685535D01*
X93950000Y-134704165D01*
X94186711Y-134685535D01*
X94417594Y-134630105D01*
X94636963Y-134539240D01*
X94839416Y-134415176D01*
X95019969Y-134260969D01*
X95174176Y-134080416D01*
X95298240Y-133877963D01*
X95389105Y-133658594D01*
X95444535Y-133427711D01*
X95463165Y-133191000D01*
X98936835Y-133191000D01*
X98955465Y-133427711D01*
X98960326Y-133447958D01*
X99010894Y-133658592D01*
X99094585Y-133860640D01*
X99101760Y-133877963D01*
X99186603Y-134016414D01*
X99225825Y-134080417D01*
X99225826Y-134080419D01*
X99380030Y-134260969D01*
X99560580Y-134415173D01*
X99560584Y-134415176D01*
X99763037Y-134539240D01*
X99982406Y-134630105D01*
X100213289Y-134685535D01*
X100450000Y-134704165D01*
X100686711Y-134685535D01*
X100917594Y-134630105D01*
X101136963Y-134539240D01*
X101339416Y-134415176D01*
X101519969Y-134260969D01*
X101674176Y-134080416D01*
X101798240Y-133877963D01*
X101889105Y-133658594D01*
X101944535Y-133427711D01*
X101963165Y-133191000D01*
X101944535Y-132954289D01*
X101889105Y-132723406D01*
X101798240Y-132504037D01*
X101674176Y-132301584D01*
X101655914Y-132280202D01*
X101519969Y-132121030D01*
X101339419Y-131966826D01*
X101339417Y-131966825D01*
X101339416Y-131966824D01*
X101136963Y-131842760D01*
X101132391Y-131840866D01*
X100917592Y-131751894D01*
X100759651Y-131713976D01*
X100686711Y-131696465D01*
X100450000Y-131677835D01*
X100213289Y-131696465D01*
X99982407Y-131751894D01*
X99763038Y-131842759D01*
X99560582Y-131966825D01*
X99560580Y-131966826D01*
X99380030Y-132121030D01*
X99225826Y-132301580D01*
X99225825Y-132301582D01*
X99101759Y-132504038D01*
X99010894Y-132723407D01*
X98987502Y-132820844D01*
X98955465Y-132954289D01*
X98936835Y-133191000D01*
X95463165Y-133191000D01*
X95444535Y-132954289D01*
X95389105Y-132723406D01*
X95298240Y-132504037D01*
X95174176Y-132301584D01*
X95155914Y-132280202D01*
X95019969Y-132121030D01*
X94839419Y-131966826D01*
X94839417Y-131966825D01*
X94839416Y-131966824D01*
X94636963Y-131842760D01*
X94632391Y-131840866D01*
X94417592Y-131751894D01*
X94259651Y-131713976D01*
X94186711Y-131696465D01*
X93950000Y-131677835D01*
X93713289Y-131696465D01*
X93482407Y-131751894D01*
X93263038Y-131842759D01*
X93060582Y-131966825D01*
X93060580Y-131966826D01*
X92880030Y-132121030D01*
X92725826Y-132301580D01*
X92725825Y-132301582D01*
X92601759Y-132504038D01*
X92510894Y-132723407D01*
X92487502Y-132820844D01*
X92455465Y-132954289D01*
X92436835Y-133191000D01*
X89158500Y-133191000D01*
X89158500Y-128312857D01*
X94436835Y-128312857D01*
X94455465Y-128549567D01*
X94510894Y-128780449D01*
X94565512Y-128912308D01*
X94601760Y-128999820D01*
X94707497Y-129172367D01*
X94725825Y-129202274D01*
X94725826Y-129202276D01*
X94880030Y-129382826D01*
X95060580Y-129537030D01*
X95060584Y-129537033D01*
X95263037Y-129661097D01*
X95482406Y-129751962D01*
X95713289Y-129807392D01*
X95950000Y-129826022D01*
X96186711Y-129807392D01*
X96417594Y-129751962D01*
X96636963Y-129661097D01*
X96839416Y-129537033D01*
X97019969Y-129382826D01*
X97174176Y-129202273D01*
X97298240Y-128999820D01*
X97389105Y-128780451D01*
X97444535Y-128549568D01*
X97463165Y-128312857D01*
X97444535Y-128076146D01*
X97389105Y-127845263D01*
X97298240Y-127625894D01*
X97174176Y-127423441D01*
X97174173Y-127423437D01*
X97019969Y-127242887D01*
X96839419Y-127088683D01*
X96839417Y-127088682D01*
X96839416Y-127088681D01*
X96636963Y-126964617D01*
X96431665Y-126879580D01*
X96417592Y-126873751D01*
X96219779Y-126826261D01*
X96186711Y-126818322D01*
X95950000Y-126799692D01*
X95713289Y-126818322D01*
X95482407Y-126873751D01*
X95263038Y-126964616D01*
X95060582Y-127088682D01*
X95060580Y-127088683D01*
X94880030Y-127242887D01*
X94725826Y-127423437D01*
X94725825Y-127423439D01*
X94601759Y-127625895D01*
X94510894Y-127845264D01*
X94455465Y-128076146D01*
X94436835Y-128312857D01*
X89158500Y-128312857D01*
X89158500Y-118446371D01*
X89178502Y-118378250D01*
X89195405Y-118357276D01*
X89566276Y-117986405D01*
X89628588Y-117952379D01*
X89655371Y-117949500D01*
X101845559Y-117949500D01*
X101863819Y-117950830D01*
X101869489Y-117951660D01*
X101887789Y-117954341D01*
X101937646Y-117949978D01*
X101948627Y-117949500D01*
X101954175Y-117949500D01*
X101954180Y-117949500D01*
X101985287Y-117945863D01*
X101988889Y-117945495D01*
X102064426Y-117938887D01*
X102064430Y-117938885D01*
X102071618Y-117937402D01*
X102071631Y-117937468D01*
X102078987Y-117935836D01*
X102078972Y-117935771D01*
X102086102Y-117934080D01*
X102086113Y-117934079D01*
X102157400Y-117908132D01*
X102160769Y-117906961D01*
X102232738Y-117883114D01*
X102232747Y-117883108D01*
X102239389Y-117880012D01*
X102239418Y-117880074D01*
X102246203Y-117876789D01*
X102246173Y-117876729D01*
X102252724Y-117873437D01*
X102252732Y-117873435D01*
X102316091Y-117831761D01*
X102319161Y-117829806D01*
X102325807Y-117825707D01*
X102383651Y-117790030D01*
X102383659Y-117790021D01*
X102389408Y-117785477D01*
X102389450Y-117785531D01*
X102395289Y-117780775D01*
X102395246Y-117780723D01*
X102400864Y-117776007D01*
X102400874Y-117776001D01*
X102452961Y-117720790D01*
X102455448Y-117718231D01*
X105882679Y-114291000D01*
X121436835Y-114291000D01*
X121453657Y-114504745D01*
X121455465Y-114527710D01*
X121510894Y-114758592D01*
X121586483Y-114941080D01*
X121601760Y-114977963D01*
X121703433Y-115143878D01*
X121725825Y-115180417D01*
X121725826Y-115180419D01*
X121880030Y-115360969D01*
X122059181Y-115513978D01*
X122060584Y-115515176D01*
X122263037Y-115639240D01*
X122482406Y-115730105D01*
X122713289Y-115785535D01*
X122950000Y-115804165D01*
X123186711Y-115785535D01*
X123417594Y-115730105D01*
X123636963Y-115639240D01*
X123839416Y-115515176D01*
X124019969Y-115360969D01*
X124174176Y-115180416D01*
X124298240Y-114977963D01*
X124389105Y-114758594D01*
X124444535Y-114527711D01*
X124463165Y-114291000D01*
X125936835Y-114291000D01*
X125953657Y-114504745D01*
X125955465Y-114527710D01*
X126010894Y-114758592D01*
X126086483Y-114941080D01*
X126101760Y-114977963D01*
X126203433Y-115143878D01*
X126225825Y-115180417D01*
X126225826Y-115180419D01*
X126380030Y-115360969D01*
X126559181Y-115513978D01*
X126560584Y-115515176D01*
X126763037Y-115639240D01*
X126982406Y-115730105D01*
X127213289Y-115785535D01*
X127450000Y-115804165D01*
X127686711Y-115785535D01*
X127917594Y-115730105D01*
X128136963Y-115639240D01*
X128339416Y-115515176D01*
X128519969Y-115360969D01*
X128674176Y-115180416D01*
X128798240Y-114977963D01*
X128889105Y-114758594D01*
X128944535Y-114527711D01*
X128963165Y-114291000D01*
X128944535Y-114054289D01*
X128889105Y-113823406D01*
X128798240Y-113604037D01*
X128674176Y-113401584D01*
X128566907Y-113275988D01*
X128519969Y-113221030D01*
X128339419Y-113066826D01*
X128339417Y-113066825D01*
X128339416Y-113066824D01*
X128136963Y-112942760D01*
X128102170Y-112928348D01*
X127917592Y-112851894D01*
X127759651Y-112813976D01*
X127686711Y-112796465D01*
X127450000Y-112777835D01*
X127213289Y-112796465D01*
X126982407Y-112851894D01*
X126763038Y-112942759D01*
X126560582Y-113066825D01*
X126560580Y-113066826D01*
X126380030Y-113221030D01*
X126225826Y-113401580D01*
X126225825Y-113401582D01*
X126101759Y-113604038D01*
X126010894Y-113823407D01*
X125974305Y-113975814D01*
X125955465Y-114054289D01*
X125936835Y-114291000D01*
X124463165Y-114291000D01*
X124444535Y-114054289D01*
X124389105Y-113823406D01*
X124298240Y-113604037D01*
X124174176Y-113401584D01*
X124066907Y-113275988D01*
X124019969Y-113221030D01*
X123839419Y-113066826D01*
X123839417Y-113066825D01*
X123839416Y-113066824D01*
X123636963Y-112942760D01*
X123602170Y-112928348D01*
X123417592Y-112851894D01*
X123259651Y-112813976D01*
X123186711Y-112796465D01*
X122950000Y-112777835D01*
X122713289Y-112796465D01*
X122482407Y-112851894D01*
X122263038Y-112942759D01*
X122060582Y-113066825D01*
X122060580Y-113066826D01*
X121880030Y-113221030D01*
X121725826Y-113401580D01*
X121725825Y-113401582D01*
X121601759Y-113604038D01*
X121510894Y-113823407D01*
X121474305Y-113975814D01*
X121455465Y-114054289D01*
X121436835Y-114291000D01*
X105882679Y-114291000D01*
X111750778Y-108422901D01*
X111764617Y-108410941D01*
X111784058Y-108396469D01*
X111816227Y-108358130D01*
X111823645Y-108350034D01*
X111827581Y-108346100D01*
X111847025Y-108321507D01*
X111849265Y-108318757D01*
X111898032Y-108260640D01*
X111898033Y-108260636D01*
X111898036Y-108260634D01*
X111902070Y-108254502D01*
X111902127Y-108254539D01*
X111906171Y-108248191D01*
X111906112Y-108248155D01*
X111909965Y-108241907D01*
X111909967Y-108241905D01*
X111942035Y-108173132D01*
X111943557Y-108169989D01*
X111977609Y-108102188D01*
X111977609Y-108102184D01*
X111977611Y-108102182D01*
X111980119Y-108095291D01*
X111980184Y-108095314D01*
X111982658Y-108088197D01*
X111982594Y-108088176D01*
X111984903Y-108081207D01*
X112000238Y-108006936D01*
X112001022Y-108003397D01*
X112018500Y-107929656D01*
X112018500Y-107929655D01*
X112019352Y-107922368D01*
X112019419Y-107922375D01*
X112020185Y-107914877D01*
X112020119Y-107914872D01*
X112020757Y-107907565D01*
X112020759Y-107907558D01*
X112018553Y-107831740D01*
X112018500Y-107828076D01*
X112018500Y-106005583D01*
X112038502Y-105937462D01*
X112067106Y-105906154D01*
X112183240Y-105815763D01*
X112335722Y-105650125D01*
X112458860Y-105461648D01*
X112549296Y-105255473D01*
X112604564Y-105037225D01*
X112623156Y-104812857D01*
X112604564Y-104588489D01*
X112574444Y-104469549D01*
X112549297Y-104370244D01*
X112549296Y-104370243D01*
X112549296Y-104370241D01*
X112458860Y-104164066D01*
X112452140Y-104153781D01*
X112335724Y-103975591D01*
X112335720Y-103975586D01*
X112206220Y-103834914D01*
X112183240Y-103809951D01*
X112183239Y-103809950D01*
X112183237Y-103809948D01*
X112063367Y-103716649D01*
X112005576Y-103671668D01*
X111807574Y-103564515D01*
X111807572Y-103564514D01*
X111807571Y-103564513D01*
X111594639Y-103491414D01*
X111594630Y-103491412D01*
X111550476Y-103484044D01*
X111372569Y-103454357D01*
X111147431Y-103454357D01*
X110999211Y-103479090D01*
X110925369Y-103491412D01*
X110925360Y-103491414D01*
X110712428Y-103564513D01*
X110712426Y-103564515D01*
X110514426Y-103671667D01*
X110514424Y-103671668D01*
X110336762Y-103809948D01*
X110184279Y-103975586D01*
X110095483Y-104111500D01*
X110041479Y-104157588D01*
X109971131Y-104167163D01*
X109906774Y-104137186D01*
X109884517Y-104111500D01*
X109795720Y-103975586D01*
X109666220Y-103834914D01*
X109643240Y-103809951D01*
X109643239Y-103809950D01*
X109643237Y-103809948D01*
X109523367Y-103716649D01*
X109465576Y-103671668D01*
X109267574Y-103564515D01*
X109267572Y-103564514D01*
X109267571Y-103564513D01*
X109054639Y-103491414D01*
X109054630Y-103491412D01*
X109010476Y-103484044D01*
X108832569Y-103454357D01*
X108607431Y-103454357D01*
X108459211Y-103479090D01*
X108385369Y-103491412D01*
X108385360Y-103491414D01*
X108172428Y-103564513D01*
X108172426Y-103564515D01*
X107974426Y-103671667D01*
X107974424Y-103671668D01*
X107796762Y-103809948D01*
X107644279Y-103975586D01*
X107555483Y-104111500D01*
X107501479Y-104157588D01*
X107431131Y-104167163D01*
X107366774Y-104137186D01*
X107344517Y-104111500D01*
X107255720Y-103975586D01*
X107189791Y-103903969D01*
X107103240Y-103809951D01*
X107103234Y-103809946D01*
X106987109Y-103719561D01*
X106945638Y-103661936D01*
X106938500Y-103620130D01*
X106938500Y-102075500D01*
X106958502Y-102007379D01*
X107012158Y-101960886D01*
X107064500Y-101949500D01*
X122585559Y-101949500D01*
X122603819Y-101950830D01*
X122609489Y-101951660D01*
X122627789Y-101954341D01*
X122677646Y-101949978D01*
X122688627Y-101949500D01*
X122694175Y-101949500D01*
X122694180Y-101949500D01*
X122725287Y-101945863D01*
X122728889Y-101945495D01*
X122804426Y-101938887D01*
X122804430Y-101938885D01*
X122811618Y-101937402D01*
X122811631Y-101937468D01*
X122818987Y-101935836D01*
X122818972Y-101935771D01*
X122826102Y-101934080D01*
X122826113Y-101934079D01*
X122897400Y-101908132D01*
X122900769Y-101906961D01*
X122972738Y-101883114D01*
X122972747Y-101883108D01*
X122979389Y-101880012D01*
X122979418Y-101880074D01*
X122986203Y-101876789D01*
X122986173Y-101876729D01*
X122992724Y-101873437D01*
X122992732Y-101873435D01*
X123056091Y-101831761D01*
X123059161Y-101829806D01*
X123123651Y-101790030D01*
X123123659Y-101790021D01*
X123129408Y-101785477D01*
X123129450Y-101785531D01*
X123135289Y-101780775D01*
X123135246Y-101780723D01*
X123140864Y-101776007D01*
X123140874Y-101776001D01*
X123192961Y-101720790D01*
X123195448Y-101718231D01*
X124390778Y-100522901D01*
X124404617Y-100510941D01*
X124424058Y-100496469D01*
X124456227Y-100458130D01*
X124463645Y-100450034D01*
X124467581Y-100446100D01*
X124487025Y-100421507D01*
X124489265Y-100418757D01*
X124538032Y-100360640D01*
X124538033Y-100360636D01*
X124538036Y-100360634D01*
X124542070Y-100354502D01*
X124542127Y-100354539D01*
X124546171Y-100348191D01*
X124546112Y-100348155D01*
X124549965Y-100341907D01*
X124549967Y-100341905D01*
X124582035Y-100273132D01*
X124583557Y-100269989D01*
X124617609Y-100202188D01*
X124617609Y-100202184D01*
X124617611Y-100202182D01*
X124620119Y-100195291D01*
X124620184Y-100195314D01*
X124622658Y-100188197D01*
X124622594Y-100188176D01*
X124624903Y-100181207D01*
X124640238Y-100106936D01*
X124641022Y-100103397D01*
X124658500Y-100029656D01*
X124658500Y-100029655D01*
X124659352Y-100022368D01*
X124659419Y-100022375D01*
X124660185Y-100014877D01*
X124660119Y-100014872D01*
X124660757Y-100007565D01*
X124660759Y-100007558D01*
X124658553Y-99931740D01*
X124658500Y-99928076D01*
X124658500Y-97755441D01*
X124659830Y-97737182D01*
X124660940Y-97729600D01*
X124663341Y-97713211D01*
X124658979Y-97663352D01*
X124658500Y-97652372D01*
X124658500Y-97646813D01*
X124654866Y-97615734D01*
X124654496Y-97612122D01*
X124647887Y-97536574D01*
X124647885Y-97536570D01*
X124646403Y-97529388D01*
X124646469Y-97529374D01*
X124644837Y-97522012D01*
X124644772Y-97522028D01*
X124643081Y-97514893D01*
X124634210Y-97490520D01*
X124617139Y-97443620D01*
X124615952Y-97440203D01*
X124592114Y-97368262D01*
X124592109Y-97368255D01*
X124589012Y-97361611D01*
X124589074Y-97361581D01*
X124585788Y-97354795D01*
X124585728Y-97354826D01*
X124582433Y-97348265D01*
X124540782Y-97284939D01*
X124538812Y-97281846D01*
X124499032Y-97217351D01*
X124494478Y-97211592D01*
X124494531Y-97211549D01*
X124489766Y-97205700D01*
X124489715Y-97205744D01*
X124484998Y-97200122D01*
X124429826Y-97148070D01*
X124427197Y-97145516D01*
X123897158Y-96615477D01*
X123863132Y-96553165D01*
X123868197Y-96482350D01*
X123910744Y-96425514D01*
X123977264Y-96400703D01*
X123986253Y-96400382D01*
X125791298Y-96400382D01*
X125859419Y-96420384D01*
X125880393Y-96437287D01*
X126904595Y-97461489D01*
X126938621Y-97523801D01*
X126941500Y-97550584D01*
X126941500Y-99547334D01*
X126941287Y-99554661D01*
X126937628Y-99617478D01*
X126937628Y-99617483D01*
X126939586Y-99628587D01*
X126941500Y-99650466D01*
X126941500Y-103939029D01*
X126921498Y-104007150D01*
X126904595Y-104028124D01*
X126437124Y-104495595D01*
X126374812Y-104529621D01*
X126348029Y-104532500D01*
X124100228Y-104532500D01*
X124081969Y-104531170D01*
X124057999Y-104527659D01*
X124057998Y-104527659D01*
X124035573Y-104529621D01*
X124008141Y-104532021D01*
X123997160Y-104532500D01*
X123991603Y-104532500D01*
X123960500Y-104536135D01*
X123956857Y-104536507D01*
X123881362Y-104543112D01*
X123874176Y-104544596D01*
X123874163Y-104544533D01*
X123866790Y-104546168D01*
X123866805Y-104546231D01*
X123859668Y-104547922D01*
X123788420Y-104573853D01*
X123784963Y-104575055D01*
X123744424Y-104588489D01*
X123713049Y-104598886D01*
X123713047Y-104598886D01*
X123713047Y-104598887D01*
X123706399Y-104601987D01*
X123706370Y-104601926D01*
X123699579Y-104605214D01*
X123699609Y-104605273D01*
X123693056Y-104608563D01*
X123629707Y-104650229D01*
X123626617Y-104652197D01*
X123562138Y-104691968D01*
X123556375Y-104696525D01*
X123556334Y-104696473D01*
X123550491Y-104701233D01*
X123550533Y-104701283D01*
X123544915Y-104705996D01*
X123492874Y-104761156D01*
X123490321Y-104763783D01*
X122459225Y-105794879D01*
X122445376Y-105806849D01*
X122425943Y-105821316D01*
X122393771Y-105859657D01*
X122386360Y-105867745D01*
X122382420Y-105871685D01*
X122382414Y-105871692D01*
X122362997Y-105896247D01*
X122360689Y-105899081D01*
X122311964Y-105957151D01*
X122307935Y-105963278D01*
X122307880Y-105963242D01*
X122303825Y-105969607D01*
X122303882Y-105969642D01*
X122300030Y-105975885D01*
X122267996Y-106044581D01*
X122266401Y-106047874D01*
X122232394Y-106115592D01*
X122229882Y-106122494D01*
X122229820Y-106122471D01*
X122227343Y-106129597D01*
X122227404Y-106129618D01*
X122225096Y-106136582D01*
X122209759Y-106210851D01*
X122208967Y-106214424D01*
X122191500Y-106288127D01*
X122190648Y-106295421D01*
X122190581Y-106295413D01*
X122189814Y-106302913D01*
X122189881Y-106302919D01*
X122189241Y-106310229D01*
X122191447Y-106386045D01*
X122191500Y-106389709D01*
X122191500Y-106416035D01*
X122171498Y-106484156D01*
X122131336Y-106523466D01*
X122097358Y-106544289D01*
X122060582Y-106566825D01*
X122060580Y-106566826D01*
X121880030Y-106721030D01*
X121725826Y-106901580D01*
X121725825Y-106901582D01*
X121601759Y-107104038D01*
X121510894Y-107323407D01*
X121462060Y-107526819D01*
X121455465Y-107554289D01*
X121436835Y-107791000D01*
X121455465Y-108027711D01*
X121471695Y-108095314D01*
X121510894Y-108258592D01*
X121578956Y-108422908D01*
X121601760Y-108477963D01*
X121660720Y-108574177D01*
X121725825Y-108680417D01*
X121725826Y-108680419D01*
X121880030Y-108860969D01*
X122060580Y-109015173D01*
X122060584Y-109015176D01*
X122263037Y-109139240D01*
X122482406Y-109230105D01*
X122713289Y-109285535D01*
X122950000Y-109304165D01*
X123186711Y-109285535D01*
X123417594Y-109230105D01*
X123636963Y-109139240D01*
X123839416Y-109015176D01*
X124019969Y-108860969D01*
X124174176Y-108680416D01*
X124298240Y-108477963D01*
X124389105Y-108258594D01*
X124444535Y-108027711D01*
X124463165Y-107791000D01*
X125936835Y-107791000D01*
X125955465Y-108027711D01*
X125971695Y-108095314D01*
X126010894Y-108258592D01*
X126078956Y-108422908D01*
X126101760Y-108477963D01*
X126160720Y-108574177D01*
X126225825Y-108680417D01*
X126225826Y-108680419D01*
X126380030Y-108860969D01*
X126560580Y-109015173D01*
X126560584Y-109015176D01*
X126763037Y-109139240D01*
X126982406Y-109230105D01*
X127213289Y-109285535D01*
X127450000Y-109304165D01*
X127686711Y-109285535D01*
X127917594Y-109230105D01*
X128136963Y-109139240D01*
X128339416Y-109015176D01*
X128519969Y-108860969D01*
X128674176Y-108680416D01*
X128798240Y-108477963D01*
X128889105Y-108258594D01*
X128944535Y-108027711D01*
X128963165Y-107791000D01*
X128944535Y-107554289D01*
X128889105Y-107323406D01*
X128798240Y-107104037D01*
X128674176Y-106901584D01*
X128674173Y-106901580D01*
X128519969Y-106721030D01*
X128339419Y-106566826D01*
X128339417Y-106566825D01*
X128339416Y-106566824D01*
X128136963Y-106442760D01*
X128004437Y-106387866D01*
X127917592Y-106351894D01*
X127744042Y-106310229D01*
X127686711Y-106296465D01*
X127450000Y-106277835D01*
X127213289Y-106296465D01*
X126982407Y-106351894D01*
X126763038Y-106442759D01*
X126560582Y-106566825D01*
X126560580Y-106566826D01*
X126380030Y-106721030D01*
X126225826Y-106901580D01*
X126225825Y-106901582D01*
X126101759Y-107104038D01*
X126010894Y-107323407D01*
X125962060Y-107526819D01*
X125955465Y-107554289D01*
X125936835Y-107791000D01*
X124463165Y-107791000D01*
X124444535Y-107554289D01*
X124389105Y-107323406D01*
X124298240Y-107104037D01*
X124174176Y-106901584D01*
X124019969Y-106721031D01*
X123939410Y-106652227D01*
X123900601Y-106592776D01*
X123900095Y-106521781D01*
X123932144Y-106467322D01*
X124313064Y-106086404D01*
X124375376Y-106052379D01*
X124402159Y-106049500D01*
X126649959Y-106049500D01*
X126668219Y-106050830D01*
X126673889Y-106051660D01*
X126692189Y-106054341D01*
X126742046Y-106049978D01*
X126753027Y-106049500D01*
X126758575Y-106049500D01*
X126758580Y-106049500D01*
X126789687Y-106045863D01*
X126793289Y-106045495D01*
X126868826Y-106038887D01*
X126868830Y-106038885D01*
X126876018Y-106037402D01*
X126876031Y-106037468D01*
X126883387Y-106035836D01*
X126883372Y-106035771D01*
X126890502Y-106034080D01*
X126890513Y-106034079D01*
X126961800Y-106008132D01*
X126965169Y-106006961D01*
X127037138Y-105983114D01*
X127037147Y-105983108D01*
X127043789Y-105980012D01*
X127043818Y-105980074D01*
X127050603Y-105976789D01*
X127050573Y-105976729D01*
X127057124Y-105973437D01*
X127057132Y-105973435D01*
X127120491Y-105931761D01*
X127123561Y-105929806D01*
X127134466Y-105923080D01*
X127188051Y-105890030D01*
X127188059Y-105890021D01*
X127193808Y-105885477D01*
X127193850Y-105885531D01*
X127199689Y-105880775D01*
X127199646Y-105880723D01*
X127205264Y-105876007D01*
X127205274Y-105876001D01*
X127257361Y-105820790D01*
X127259848Y-105818231D01*
X128190778Y-104887301D01*
X128204617Y-104875341D01*
X128224058Y-104860869D01*
X128256227Y-104822530D01*
X128263645Y-104814434D01*
X128267581Y-104810500D01*
X128287025Y-104785907D01*
X128289265Y-104783157D01*
X128338032Y-104725040D01*
X128338033Y-104725036D01*
X128338036Y-104725034D01*
X128342070Y-104718902D01*
X128342127Y-104718939D01*
X128346171Y-104712591D01*
X128346112Y-104712555D01*
X128349965Y-104706307D01*
X128349967Y-104706305D01*
X128382035Y-104637532D01*
X128383557Y-104634389D01*
X128417609Y-104566588D01*
X128417609Y-104566584D01*
X128417611Y-104566582D01*
X128420119Y-104559691D01*
X128420184Y-104559714D01*
X128422658Y-104552597D01*
X128422594Y-104552576D01*
X128424903Y-104545607D01*
X128440238Y-104471336D01*
X128441022Y-104467797D01*
X128458500Y-104394056D01*
X128458500Y-104394055D01*
X128459352Y-104386768D01*
X128459419Y-104386775D01*
X128460185Y-104379277D01*
X128460119Y-104379272D01*
X128460757Y-104371965D01*
X128460759Y-104371958D01*
X128458553Y-104296140D01*
X128458500Y-104292476D01*
X128458500Y-100457580D01*
X128478502Y-100389459D01*
X128532158Y-100342966D01*
X128584500Y-100331580D01*
X129203180Y-100331580D01*
X129271301Y-100351582D01*
X129317794Y-100405238D01*
X129329180Y-100457580D01*
X129329180Y-100471729D01*
X129335689Y-100532276D01*
X129335691Y-100532284D01*
X129386790Y-100669282D01*
X129386792Y-100669287D01*
X129474418Y-100786341D01*
X129591471Y-100873966D01*
X129591472Y-100873966D01*
X129591476Y-100873969D01*
X129706490Y-100916867D01*
X129763322Y-100959412D01*
X129788133Y-101025932D01*
X129773042Y-101095306D01*
X129755155Y-101120259D01*
X129611960Y-101275809D01*
X129611955Y-101275814D01*
X129488821Y-101464286D01*
X129398383Y-101670466D01*
X129398382Y-101670467D01*
X129343117Y-101888704D01*
X129343116Y-101888710D01*
X129343116Y-101888712D01*
X129333283Y-102007379D01*
X129324524Y-102113080D01*
X129343117Y-102337455D01*
X129398382Y-102555692D01*
X129398383Y-102555693D01*
X129488821Y-102761873D01*
X129611955Y-102950345D01*
X129611959Y-102950350D01*
X129764442Y-103115988D01*
X129819011Y-103158461D01*
X129942104Y-103254269D01*
X129975360Y-103272266D01*
X130025751Y-103322280D01*
X130041103Y-103391596D01*
X130016542Y-103458209D01*
X129975360Y-103493893D01*
X129942106Y-103511890D01*
X129942104Y-103511891D01*
X129764442Y-103650171D01*
X129611959Y-103815809D01*
X129611955Y-103815814D01*
X129488821Y-104004286D01*
X129398383Y-104210466D01*
X129398382Y-104210467D01*
X129343117Y-104428704D01*
X129343116Y-104428710D01*
X129343116Y-104428712D01*
X129324524Y-104653080D01*
X129341912Y-104862924D01*
X129343117Y-104877455D01*
X129398382Y-105095692D01*
X129398383Y-105095693D01*
X129398384Y-105095696D01*
X129488820Y-105301871D01*
X129488821Y-105301873D01*
X129611955Y-105490345D01*
X129611959Y-105490350D01*
X129764442Y-105655988D01*
X129819011Y-105698461D01*
X129942104Y-105794269D01*
X129974833Y-105811981D01*
X129975360Y-105812266D01*
X130025751Y-105862280D01*
X130041103Y-105931596D01*
X130016542Y-105998209D01*
X129975360Y-106033893D01*
X129942106Y-106051890D01*
X129942104Y-106051891D01*
X129764442Y-106190171D01*
X129611959Y-106355809D01*
X129611955Y-106355814D01*
X129488821Y-106544286D01*
X129398383Y-106750466D01*
X129398382Y-106750467D01*
X129343117Y-106968704D01*
X129343116Y-106968710D01*
X129343116Y-106968712D01*
X129324524Y-107193080D01*
X129339328Y-107371740D01*
X129343117Y-107417455D01*
X129398382Y-107635692D01*
X129398383Y-107635693D01*
X129398384Y-107635696D01*
X129470732Y-107800634D01*
X129488821Y-107841873D01*
X129611955Y-108030345D01*
X129611959Y-108030350D01*
X129764442Y-108195988D01*
X129819011Y-108238461D01*
X129942104Y-108334269D01*
X129975885Y-108352550D01*
X130026276Y-108402562D01*
X130041629Y-108471879D01*
X130017069Y-108538492D01*
X129975889Y-108574176D01*
X129942384Y-108592308D01*
X129942378Y-108592312D01*
X129764777Y-108730545D01*
X129612354Y-108896121D01*
X129489260Y-109084531D01*
X129398859Y-109290623D01*
X129398856Y-109290630D01*
X129351135Y-109479079D01*
X129351136Y-109479080D01*
X130256564Y-109479080D01*
X130228187Y-109523236D01*
X130187680Y-109661191D01*
X130187680Y-109804969D01*
X130228187Y-109942924D01*
X130256564Y-109987080D01*
X129351135Y-109987080D01*
X129398856Y-110175529D01*
X129398859Y-110175536D01*
X129489260Y-110381628D01*
X129612354Y-110570038D01*
X129764777Y-110735614D01*
X129942378Y-110873847D01*
X129942384Y-110873851D01*
X129975887Y-110891982D01*
X130026277Y-110941995D01*
X130041629Y-111011312D01*
X130017068Y-111077925D01*
X129975887Y-111113608D01*
X129942110Y-111131887D01*
X129942104Y-111131891D01*
X129764442Y-111270171D01*
X129611959Y-111435809D01*
X129611955Y-111435814D01*
X129488821Y-111624286D01*
X129398383Y-111830466D01*
X129398382Y-111830467D01*
X129343117Y-112048704D01*
X129324524Y-112273080D01*
X129343117Y-112497455D01*
X129398382Y-112715692D01*
X129398383Y-112715693D01*
X129398384Y-112715696D01*
X129458126Y-112851895D01*
X129488821Y-112921873D01*
X129611955Y-113110345D01*
X129611959Y-113110350D01*
X129764442Y-113275988D01*
X129819011Y-113318461D01*
X129942104Y-113414269D01*
X129975360Y-113432266D01*
X130025751Y-113482280D01*
X130041103Y-113551596D01*
X130016542Y-113618209D01*
X129975360Y-113653893D01*
X129942106Y-113671890D01*
X129942104Y-113671891D01*
X129764442Y-113810171D01*
X129611959Y-113975809D01*
X129611955Y-113975814D01*
X129488821Y-114164286D01*
X129398383Y-114370466D01*
X129398382Y-114370467D01*
X129343117Y-114588704D01*
X129343116Y-114588710D01*
X129343116Y-114588712D01*
X129324524Y-114813080D01*
X129341912Y-115022924D01*
X129343117Y-115037455D01*
X129398382Y-115255692D01*
X129398383Y-115255693D01*
X129398384Y-115255696D01*
X129488820Y-115461871D01*
X129488821Y-115461873D01*
X129611955Y-115650345D01*
X129611959Y-115650350D01*
X129764442Y-115815988D01*
X129819011Y-115858461D01*
X129942104Y-115954269D01*
X129974833Y-115971981D01*
X129975360Y-115972266D01*
X130025751Y-116022280D01*
X130041103Y-116091596D01*
X130016542Y-116158209D01*
X129975360Y-116193893D01*
X129942106Y-116211890D01*
X129942104Y-116211891D01*
X129764442Y-116350171D01*
X129611959Y-116515809D01*
X129611955Y-116515814D01*
X129488821Y-116704286D01*
X129398383Y-116910466D01*
X129398382Y-116910467D01*
X129343117Y-117128704D01*
X129343116Y-117128710D01*
X129343116Y-117128712D01*
X129324524Y-117353080D01*
X129342905Y-117574905D01*
X129343117Y-117577455D01*
X129398382Y-117795692D01*
X129398383Y-117795693D01*
X129398384Y-117795696D01*
X129487397Y-117998626D01*
X129488821Y-118001873D01*
X129611955Y-118190345D01*
X129611959Y-118190350D01*
X129764442Y-118355988D01*
X129793044Y-118378250D01*
X129942104Y-118494269D01*
X129975360Y-118512266D01*
X130025751Y-118562280D01*
X130041103Y-118631596D01*
X130016542Y-118698209D01*
X129975360Y-118733893D01*
X129942106Y-118751890D01*
X129942104Y-118751891D01*
X129764442Y-118890171D01*
X129611959Y-119055809D01*
X129611955Y-119055814D01*
X129488821Y-119244286D01*
X129398383Y-119450466D01*
X129398382Y-119450467D01*
X129343117Y-119668704D01*
X129343116Y-119668710D01*
X129343116Y-119668712D01*
X129327100Y-119861988D01*
X129325474Y-119881615D01*
X129299914Y-119947851D01*
X129242602Y-119989754D01*
X129171734Y-119994020D01*
X129110809Y-119960304D01*
X128747844Y-119597339D01*
X128737879Y-119584901D01*
X128737652Y-119585090D01*
X128732601Y-119578984D01*
X128732600Y-119578982D01*
X128682948Y-119532356D01*
X128680105Y-119529600D01*
X128660377Y-119509871D01*
X128660371Y-119509866D01*
X128657167Y-119507380D01*
X128648156Y-119499683D01*
X128615925Y-119469417D01*
X128615919Y-119469413D01*
X128598163Y-119459651D01*
X128581647Y-119448802D01*
X128565641Y-119436386D01*
X128525064Y-119418827D01*
X128514407Y-119413605D01*
X128475663Y-119392306D01*
X128475660Y-119392305D01*
X128456036Y-119387266D01*
X128437336Y-119380864D01*
X128418745Y-119372819D01*
X128418743Y-119372818D01*
X128418741Y-119372818D01*
X128375074Y-119365901D01*
X128363455Y-119363495D01*
X128320630Y-119352500D01*
X128300376Y-119352500D01*
X128280666Y-119350949D01*
X128260657Y-119347780D01*
X128216639Y-119351941D01*
X128204781Y-119352500D01*
X128014129Y-119352500D01*
X127946008Y-119332498D01*
X127899515Y-119278842D01*
X127889411Y-119208568D01*
X127918905Y-119143988D01*
X127965909Y-119110092D01*
X128136963Y-119039240D01*
X128339416Y-118915176D01*
X128519969Y-118760969D01*
X128674176Y-118580416D01*
X128798240Y-118377963D01*
X128889105Y-118158594D01*
X128944535Y-117927711D01*
X128963165Y-117691000D01*
X128944535Y-117454289D01*
X128889105Y-117223406D01*
X128798240Y-117004037D01*
X128674176Y-116801584D01*
X128674173Y-116801580D01*
X128519969Y-116621030D01*
X128339419Y-116466826D01*
X128339417Y-116466825D01*
X128339416Y-116466824D01*
X128136963Y-116342760D01*
X127917594Y-116251895D01*
X127917592Y-116251894D01*
X127750948Y-116211887D01*
X127686711Y-116196465D01*
X127450000Y-116177835D01*
X127213289Y-116196465D01*
X126982407Y-116251894D01*
X126763038Y-116342759D01*
X126560582Y-116466825D01*
X126560580Y-116466826D01*
X126380030Y-116621030D01*
X126225826Y-116801580D01*
X126225825Y-116801582D01*
X126101759Y-117004038D01*
X126010894Y-117223407D01*
X125979763Y-117353080D01*
X125955465Y-117454289D01*
X125936835Y-117691000D01*
X125955465Y-117927711D01*
X125961387Y-117952379D01*
X126010894Y-118158592D01*
X126024047Y-118190345D01*
X126101760Y-118377963D01*
X126214710Y-118562280D01*
X126225825Y-118580417D01*
X126225826Y-118580419D01*
X126380030Y-118760969D01*
X126531310Y-118890174D01*
X126560584Y-118915176D01*
X126763037Y-119039240D01*
X126934090Y-119110092D01*
X126989370Y-119154639D01*
X127011791Y-119222002D01*
X126994233Y-119290794D01*
X126942271Y-119339172D01*
X126885871Y-119352500D01*
X123514129Y-119352500D01*
X123446008Y-119332498D01*
X123399515Y-119278842D01*
X123389411Y-119208568D01*
X123418905Y-119143988D01*
X123465909Y-119110092D01*
X123636963Y-119039240D01*
X123839416Y-118915176D01*
X124019969Y-118760969D01*
X124174176Y-118580416D01*
X124298240Y-118377963D01*
X124389105Y-118158594D01*
X124444535Y-117927711D01*
X124463165Y-117691000D01*
X124444535Y-117454289D01*
X124389105Y-117223406D01*
X124298240Y-117004037D01*
X124174176Y-116801584D01*
X124174173Y-116801580D01*
X124019969Y-116621030D01*
X123839419Y-116466826D01*
X123839417Y-116466825D01*
X123839416Y-116466824D01*
X123636963Y-116342760D01*
X123417594Y-116251895D01*
X123417592Y-116251894D01*
X123250948Y-116211887D01*
X123186711Y-116196465D01*
X122950000Y-116177835D01*
X122713289Y-116196465D01*
X122482407Y-116251894D01*
X122263038Y-116342759D01*
X122060582Y-116466825D01*
X122060580Y-116466826D01*
X121880030Y-116621030D01*
X121725826Y-116801580D01*
X121725825Y-116801582D01*
X121601759Y-117004038D01*
X121510894Y-117223407D01*
X121479763Y-117353080D01*
X121455465Y-117454289D01*
X121436835Y-117691000D01*
X121455465Y-117927711D01*
X121461387Y-117952379D01*
X121510894Y-118158592D01*
X121524047Y-118190345D01*
X121601760Y-118377963D01*
X121714710Y-118562280D01*
X121725825Y-118580417D01*
X121725826Y-118580419D01*
X121880030Y-118760969D01*
X122031310Y-118890174D01*
X122060584Y-118915176D01*
X122263037Y-119039240D01*
X122434090Y-119110092D01*
X122489370Y-119154639D01*
X122511791Y-119222002D01*
X122494233Y-119290794D01*
X122442271Y-119339172D01*
X122385871Y-119352500D01*
X95458200Y-119352500D01*
X95390079Y-119332498D01*
X95364563Y-119310810D01*
X95361252Y-119307133D01*
X95206752Y-119194882D01*
X95032288Y-119117206D01*
X94845487Y-119077500D01*
X94654513Y-119077500D01*
X94467711Y-119117206D01*
X94293247Y-119194882D01*
X94138744Y-119307135D01*
X94010965Y-119449048D01*
X94010958Y-119449058D01*
X93915476Y-119614438D01*
X93915473Y-119614445D01*
X93856457Y-119796072D01*
X93836496Y-119986000D01*
X93856457Y-120175927D01*
X93870160Y-120218099D01*
X93915473Y-120357556D01*
X93915476Y-120357561D01*
X94010958Y-120522941D01*
X94010965Y-120522951D01*
X94138744Y-120664864D01*
X94138747Y-120664866D01*
X94293248Y-120777118D01*
X94467712Y-120854794D01*
X94654513Y-120894500D01*
X94845487Y-120894500D01*
X95032288Y-120854794D01*
X95206752Y-120777118D01*
X95361253Y-120664866D01*
X95364563Y-120661190D01*
X95425009Y-120623950D01*
X95458200Y-120619500D01*
X127926006Y-120619500D01*
X127994127Y-120639502D01*
X128015101Y-120656405D01*
X129337812Y-121979117D01*
X129371838Y-122041429D01*
X129370862Y-122099142D01*
X129343116Y-122208708D01*
X129325474Y-122421615D01*
X129299914Y-122487851D01*
X129242602Y-122529754D01*
X129171734Y-122534020D01*
X129110809Y-122500304D01*
X128112844Y-121502339D01*
X128102879Y-121489901D01*
X128102652Y-121490090D01*
X128097601Y-121483984D01*
X128097600Y-121483982D01*
X128047948Y-121437356D01*
X128045105Y-121434600D01*
X128025377Y-121414871D01*
X128025371Y-121414866D01*
X128022167Y-121412380D01*
X128013156Y-121404683D01*
X127980925Y-121374417D01*
X127980919Y-121374413D01*
X127963163Y-121364651D01*
X127946647Y-121353802D01*
X127930641Y-121341386D01*
X127890064Y-121323827D01*
X127879407Y-121318605D01*
X127840663Y-121297306D01*
X127840660Y-121297305D01*
X127821036Y-121292266D01*
X127802336Y-121285864D01*
X127783745Y-121277819D01*
X127783743Y-121277818D01*
X127783741Y-121277818D01*
X127740074Y-121270901D01*
X127728455Y-121268495D01*
X127685630Y-121257500D01*
X127665376Y-121257500D01*
X127645666Y-121255949D01*
X127625657Y-121252780D01*
X127581639Y-121256941D01*
X127569781Y-121257500D01*
X94188200Y-121257500D01*
X94120079Y-121237498D01*
X94094563Y-121215810D01*
X94091252Y-121212133D01*
X93936752Y-121099882D01*
X93762288Y-121022206D01*
X93575487Y-120982500D01*
X93384513Y-120982500D01*
X93197711Y-121022206D01*
X93023247Y-121099882D01*
X92868744Y-121212135D01*
X92740965Y-121354048D01*
X92740958Y-121354058D01*
X92645476Y-121519438D01*
X92645473Y-121519445D01*
X92586457Y-121701072D01*
X92566496Y-121891000D01*
X92586457Y-122080927D01*
X92592376Y-122099142D01*
X92645473Y-122262556D01*
X92645476Y-122262561D01*
X92740958Y-122427941D01*
X92740965Y-122427951D01*
X92868744Y-122569864D01*
X92868747Y-122569866D01*
X93023248Y-122682118D01*
X93197712Y-122759794D01*
X93384513Y-122799500D01*
X93575487Y-122799500D01*
X93762288Y-122759794D01*
X93936752Y-122682118D01*
X94091253Y-122569866D01*
X94094563Y-122566190D01*
X94155009Y-122528950D01*
X94188200Y-122524500D01*
X95120200Y-122524500D01*
X95188321Y-122544502D01*
X95234814Y-122598158D01*
X95244918Y-122668432D01*
X95229319Y-122713500D01*
X95185476Y-122789438D01*
X95185473Y-122789445D01*
X95126457Y-122971072D01*
X95106496Y-123161000D01*
X95126457Y-123350928D01*
X95135437Y-123378564D01*
X95137465Y-123449531D01*
X95100802Y-123510329D01*
X95037090Y-123541655D01*
X95015604Y-123543500D01*
X92918200Y-123543500D01*
X92850079Y-123523498D01*
X92824563Y-123501810D01*
X92821252Y-123498133D01*
X92666752Y-123385882D01*
X92492288Y-123308206D01*
X92305487Y-123268500D01*
X92114513Y-123268500D01*
X91927711Y-123308206D01*
X91753247Y-123385882D01*
X91598744Y-123498135D01*
X91470965Y-123640048D01*
X91470958Y-123640058D01*
X91391361Y-123777925D01*
X91375473Y-123805444D01*
X91366881Y-123831887D01*
X91316457Y-123987072D01*
X91296496Y-124177000D01*
X91316457Y-124366927D01*
X91333814Y-124420344D01*
X91375473Y-124548556D01*
X91375476Y-124548561D01*
X91470958Y-124713941D01*
X91470965Y-124713951D01*
X91598744Y-124855864D01*
X91598747Y-124855866D01*
X91753248Y-124968118D01*
X91927712Y-125045794D01*
X92114513Y-125085500D01*
X92305487Y-125085500D01*
X92492288Y-125045794D01*
X92666752Y-124968118D01*
X92821253Y-124855866D01*
X92824563Y-124852190D01*
X92885009Y-124814950D01*
X92918200Y-124810500D01*
X117168406Y-124810500D01*
X117236527Y-124830502D01*
X117257501Y-124847405D01*
X118997571Y-126587475D01*
X119031597Y-126649787D01*
X119026532Y-126720602D01*
X118983985Y-126777438D01*
X118918362Y-126802182D01*
X118713289Y-126818322D01*
X118482407Y-126873751D01*
X118263038Y-126964616D01*
X118060582Y-127088682D01*
X118060580Y-127088683D01*
X117880030Y-127242887D01*
X117725826Y-127423437D01*
X117725825Y-127423439D01*
X117601759Y-127625895D01*
X117510894Y-127845264D01*
X117455465Y-128076146D01*
X117436835Y-128312857D01*
X117455465Y-128549567D01*
X117510894Y-128780449D01*
X117565512Y-128912308D01*
X117601760Y-128999820D01*
X117720549Y-129193665D01*
X117739087Y-129262199D01*
X117717631Y-129329875D01*
X117662991Y-129375208D01*
X117613116Y-129385500D01*
X103078200Y-129385500D01*
X103010079Y-129365498D01*
X102984563Y-129343810D01*
X102981252Y-129340133D01*
X102826752Y-129227882D01*
X102652288Y-129150206D01*
X102465487Y-129110500D01*
X102274513Y-129110500D01*
X102087711Y-129150206D01*
X101913247Y-129227882D01*
X101758744Y-129340135D01*
X101630965Y-129482048D01*
X101630958Y-129482058D01*
X101535476Y-129647438D01*
X101535473Y-129647445D01*
X101476457Y-129829072D01*
X101456496Y-130019000D01*
X101476457Y-130208927D01*
X101498722Y-130277448D01*
X101535473Y-130390556D01*
X101535476Y-130390561D01*
X101630958Y-130555941D01*
X101630965Y-130555951D01*
X101758744Y-130697864D01*
X101758747Y-130697866D01*
X101913248Y-130810118D01*
X102087712Y-130887794D01*
X102274513Y-130927500D01*
X102465487Y-130927500D01*
X102652288Y-130887794D01*
X102826752Y-130810118D01*
X102981253Y-130697866D01*
X102984563Y-130694190D01*
X103045009Y-130656950D01*
X103078200Y-130652500D01*
X103946870Y-130652500D01*
X104014991Y-130672502D01*
X104061484Y-130726158D01*
X104071588Y-130796432D01*
X104066704Y-130817430D01*
X104050405Y-130867595D01*
X104016457Y-130972072D01*
X103996496Y-131162000D01*
X104016457Y-131351928D01*
X104073900Y-131528716D01*
X104075928Y-131599683D01*
X104039265Y-131660481D01*
X103975553Y-131691807D01*
X103963956Y-131693263D01*
X103923295Y-131696464D01*
X103923291Y-131696464D01*
X103923289Y-131696465D01*
X103838573Y-131716803D01*
X103692407Y-131751894D01*
X103473038Y-131842759D01*
X103270582Y-131966825D01*
X103270580Y-131966826D01*
X103090030Y-132121030D01*
X102935826Y-132301580D01*
X102935825Y-132301582D01*
X102811759Y-132504038D01*
X102720894Y-132723407D01*
X102697502Y-132820844D01*
X102665465Y-132954289D01*
X102646835Y-133191000D01*
X102665465Y-133427711D01*
X102670326Y-133447958D01*
X102720894Y-133658592D01*
X102804585Y-133860640D01*
X102811760Y-133877963D01*
X102896603Y-134016414D01*
X102935825Y-134080417D01*
X102935826Y-134080419D01*
X103090030Y-134260969D01*
X103270580Y-134415173D01*
X103270584Y-134415176D01*
X103473037Y-134539240D01*
X103692406Y-134630105D01*
X103923289Y-134685535D01*
X104160000Y-134704165D01*
X104396711Y-134685535D01*
X104627594Y-134630105D01*
X104846963Y-134539240D01*
X105049416Y-134415176D01*
X105229969Y-134260969D01*
X105384176Y-134080416D01*
X105508240Y-133877963D01*
X105599105Y-133658594D01*
X105654535Y-133427711D01*
X105673165Y-133191000D01*
X105654535Y-132954289D01*
X105599105Y-132723406D01*
X105508240Y-132504037D01*
X105384176Y-132301584D01*
X105273334Y-132171804D01*
X105244304Y-132107017D01*
X105254909Y-132036817D01*
X105301784Y-131983494D01*
X105317898Y-131974869D01*
X105366752Y-131953118D01*
X105521253Y-131840866D01*
X105524563Y-131837190D01*
X105585009Y-131799950D01*
X105618200Y-131795500D01*
X109629641Y-131795500D01*
X109697762Y-131815502D01*
X109744255Y-131869158D01*
X109754359Y-131939432D01*
X109724865Y-132004012D01*
X109711471Y-132017311D01*
X109590030Y-132121030D01*
X109435826Y-132301580D01*
X109435825Y-132301582D01*
X109311759Y-132504038D01*
X109220894Y-132723407D01*
X109197502Y-132820844D01*
X109165465Y-132954289D01*
X109146835Y-133191000D01*
X109165465Y-133427711D01*
X109170326Y-133447958D01*
X109220894Y-133658592D01*
X109304585Y-133860640D01*
X109311760Y-133877963D01*
X109396603Y-134016414D01*
X109435825Y-134080417D01*
X109435826Y-134080419D01*
X109590030Y-134260969D01*
X109770580Y-134415173D01*
X109770584Y-134415176D01*
X109973037Y-134539240D01*
X110192406Y-134630105D01*
X110423289Y-134685535D01*
X110660000Y-134704165D01*
X110896711Y-134685535D01*
X111127594Y-134630105D01*
X111346963Y-134539240D01*
X111549416Y-134415176D01*
X111729969Y-134260969D01*
X111884176Y-134080416D01*
X112008240Y-133877963D01*
X112099105Y-133658594D01*
X112154535Y-133427711D01*
X112173165Y-133191000D01*
X112154535Y-132954289D01*
X112099105Y-132723406D01*
X112008240Y-132504037D01*
X111884176Y-132301584D01*
X111865914Y-132280202D01*
X111729969Y-132121030D01*
X111608529Y-132017311D01*
X111569719Y-131957861D01*
X111569212Y-131886866D01*
X111607169Y-131826867D01*
X111671537Y-131796914D01*
X111690359Y-131795500D01*
X113419641Y-131795500D01*
X113487762Y-131815502D01*
X113534255Y-131869158D01*
X113544359Y-131939432D01*
X113514865Y-132004012D01*
X113501471Y-132017311D01*
X113380030Y-132121030D01*
X113225826Y-132301580D01*
X113225825Y-132301582D01*
X113101759Y-132504038D01*
X113010894Y-132723407D01*
X112987502Y-132820844D01*
X112955465Y-132954289D01*
X112936835Y-133191000D01*
X112955465Y-133427711D01*
X112960326Y-133447958D01*
X113010894Y-133658592D01*
X113094585Y-133860640D01*
X113101760Y-133877963D01*
X113186603Y-134016414D01*
X113225825Y-134080417D01*
X113225826Y-134080419D01*
X113380030Y-134260969D01*
X113560580Y-134415173D01*
X113560584Y-134415176D01*
X113763037Y-134539240D01*
X113982406Y-134630105D01*
X114213289Y-134685535D01*
X114450000Y-134704165D01*
X114686711Y-134685535D01*
X114917594Y-134630105D01*
X115136963Y-134539240D01*
X115339416Y-134415176D01*
X115519969Y-134260969D01*
X115674176Y-134080416D01*
X115798240Y-133877963D01*
X115889105Y-133658594D01*
X115944535Y-133427711D01*
X115963165Y-133191000D01*
X115944535Y-132954289D01*
X115889105Y-132723406D01*
X115798240Y-132504037D01*
X115674176Y-132301584D01*
X115655914Y-132280202D01*
X115519969Y-132121030D01*
X115398529Y-132017311D01*
X115359719Y-131957861D01*
X115359212Y-131886866D01*
X115397169Y-131826867D01*
X115461537Y-131796914D01*
X115480359Y-131795500D01*
X119919641Y-131795500D01*
X119987762Y-131815502D01*
X120034255Y-131869158D01*
X120044359Y-131939432D01*
X120014865Y-132004012D01*
X120001471Y-132017311D01*
X119880030Y-132121030D01*
X119725826Y-132301580D01*
X119725825Y-132301582D01*
X119601759Y-132504038D01*
X119510894Y-132723407D01*
X119487502Y-132820844D01*
X119455465Y-132954289D01*
X119436835Y-133191000D01*
X119455465Y-133427711D01*
X119460326Y-133447958D01*
X119510894Y-133658592D01*
X119594585Y-133860640D01*
X119601760Y-133877963D01*
X119686603Y-134016414D01*
X119725825Y-134080417D01*
X119725826Y-134080419D01*
X119880030Y-134260969D01*
X120060580Y-134415173D01*
X120060584Y-134415176D01*
X120263037Y-134539240D01*
X120482406Y-134630105D01*
X120713289Y-134685535D01*
X120950000Y-134704165D01*
X121186711Y-134685535D01*
X121417594Y-134630105D01*
X121636963Y-134539240D01*
X121839416Y-134415176D01*
X122019969Y-134260969D01*
X122174176Y-134080416D01*
X122298240Y-133877963D01*
X122389105Y-133658594D01*
X122444535Y-133427711D01*
X122463165Y-133191000D01*
X122444535Y-132954289D01*
X122389105Y-132723406D01*
X122298240Y-132504037D01*
X122174176Y-132301584D01*
X122155914Y-132280202D01*
X122019969Y-132121030D01*
X121898529Y-132017311D01*
X121859719Y-131957861D01*
X121859212Y-131886866D01*
X121897169Y-131826867D01*
X121961537Y-131796914D01*
X121980359Y-131795500D01*
X123862006Y-131795500D01*
X123930127Y-131815502D01*
X123951101Y-131832405D01*
X129337812Y-137219116D01*
X129371838Y-137281428D01*
X129370862Y-137339141D01*
X129343116Y-137448708D01*
X129324524Y-137673080D01*
X129343117Y-137897455D01*
X129398382Y-138115692D01*
X129398383Y-138115693D01*
X129398384Y-138115696D01*
X129474855Y-138290033D01*
X129488821Y-138321873D01*
X129611955Y-138510345D01*
X129611959Y-138510350D01*
X129764442Y-138675988D01*
X129787463Y-138693906D01*
X129942104Y-138814269D01*
X129975360Y-138832266D01*
X130025751Y-138882280D01*
X130041103Y-138951596D01*
X130016542Y-139018209D01*
X129975360Y-139053893D01*
X129942106Y-139071890D01*
X129942104Y-139071891D01*
X129764442Y-139210171D01*
X129611959Y-139375809D01*
X129611955Y-139375814D01*
X129488821Y-139564286D01*
X129398383Y-139770466D01*
X129398382Y-139770467D01*
X129343117Y-139988704D01*
X129343116Y-139988710D01*
X129343116Y-139988712D01*
X129324524Y-140213080D01*
X129341912Y-140422924D01*
X129343117Y-140437455D01*
X129398382Y-140655692D01*
X129398383Y-140655693D01*
X129398384Y-140655696D01*
X129488820Y-140861871D01*
X129488821Y-140861873D01*
X129611955Y-141050345D01*
X129611959Y-141050350D01*
X129764442Y-141215988D01*
X129819011Y-141258461D01*
X129942104Y-141354269D01*
X129974833Y-141371981D01*
X129975360Y-141372266D01*
X130025751Y-141422280D01*
X130041103Y-141491596D01*
X130016542Y-141558209D01*
X129975360Y-141593893D01*
X129942106Y-141611890D01*
X129942104Y-141611891D01*
X129764442Y-141750171D01*
X129611959Y-141915809D01*
X129611955Y-141915814D01*
X129516125Y-142062495D01*
X129462122Y-142108584D01*
X129410642Y-142119580D01*
X129174373Y-142119580D01*
X129106252Y-142099578D01*
X129059759Y-142045922D01*
X129049655Y-141975648D01*
X129065253Y-141930581D01*
X129091981Y-141884286D01*
X129104527Y-141862556D01*
X129163542Y-141680928D01*
X129183504Y-141491000D01*
X129163542Y-141301072D01*
X129104527Y-141119444D01*
X129009040Y-140954056D01*
X129009038Y-140954054D01*
X129009034Y-140954048D01*
X128881255Y-140812135D01*
X128726752Y-140699882D01*
X128552288Y-140622206D01*
X128365487Y-140582500D01*
X128309595Y-140582500D01*
X128241474Y-140562498D01*
X128220499Y-140545595D01*
X127943336Y-140268432D01*
X127639321Y-139964416D01*
X127629359Y-139951981D01*
X127629132Y-139952170D01*
X127624081Y-139946064D01*
X127624080Y-139946062D01*
X127612091Y-139934804D01*
X127574428Y-139899436D01*
X127571584Y-139896679D01*
X127551857Y-139876951D01*
X127551851Y-139876946D01*
X127548647Y-139874460D01*
X127539636Y-139866763D01*
X127507405Y-139836497D01*
X127507399Y-139836493D01*
X127489643Y-139826731D01*
X127473127Y-139815882D01*
X127457121Y-139803466D01*
X127416544Y-139785907D01*
X127405887Y-139780685D01*
X127367143Y-139759386D01*
X127367140Y-139759385D01*
X127347516Y-139754346D01*
X127328816Y-139747944D01*
X127310225Y-139739899D01*
X127310223Y-139739898D01*
X127310221Y-139739898D01*
X127266554Y-139732981D01*
X127254935Y-139730575D01*
X127212110Y-139719580D01*
X127191856Y-139719580D01*
X127172146Y-139718029D01*
X127152137Y-139714860D01*
X127108119Y-139719021D01*
X127096261Y-139719580D01*
X119182275Y-139719580D01*
X119114154Y-139699578D01*
X119093180Y-139682675D01*
X118512844Y-139102339D01*
X118502879Y-139089901D01*
X118502652Y-139090090D01*
X118497601Y-139083984D01*
X118497600Y-139083982D01*
X118447948Y-139037356D01*
X118445105Y-139034600D01*
X118425377Y-139014871D01*
X118425371Y-139014866D01*
X118422167Y-139012380D01*
X118413156Y-139004683D01*
X118380925Y-138974417D01*
X118380919Y-138974413D01*
X118363163Y-138964651D01*
X118346647Y-138953802D01*
X118330641Y-138941386D01*
X118290064Y-138923827D01*
X118279407Y-138918605D01*
X118240663Y-138897306D01*
X118240660Y-138897305D01*
X118221036Y-138892266D01*
X118202336Y-138885864D01*
X118183745Y-138877819D01*
X118183743Y-138877818D01*
X118183741Y-138877818D01*
X118140074Y-138870901D01*
X118128455Y-138868495D01*
X118085630Y-138857500D01*
X118065376Y-138857500D01*
X118045666Y-138855949D01*
X118025657Y-138852780D01*
X117981639Y-138856941D01*
X117969781Y-138857500D01*
X115710839Y-138857500D01*
X115642718Y-138837498D01*
X115596225Y-138783842D01*
X115586121Y-138713568D01*
X115615028Y-138649670D01*
X115674173Y-138580419D01*
X115674176Y-138580416D01*
X115798240Y-138377963D01*
X115889105Y-138158594D01*
X115944535Y-137927711D01*
X115963165Y-137691000D01*
X119436835Y-137691000D01*
X119455465Y-137927710D01*
X119510894Y-138158592D01*
X119599884Y-138373433D01*
X119601760Y-138377963D01*
X119693867Y-138528268D01*
X119725825Y-138580417D01*
X119725826Y-138580419D01*
X119880030Y-138760969D01*
X120060580Y-138915173D01*
X120060584Y-138915176D01*
X120263037Y-139039240D01*
X120482406Y-139130105D01*
X120713289Y-139185535D01*
X120950000Y-139204165D01*
X121186711Y-139185535D01*
X121417594Y-139130105D01*
X121636963Y-139039240D01*
X121839416Y-138915176D01*
X122019969Y-138760969D01*
X122174176Y-138580416D01*
X122298240Y-138377963D01*
X122389105Y-138158594D01*
X122444535Y-137927711D01*
X122463165Y-137691000D01*
X122444535Y-137454289D01*
X122389105Y-137223406D01*
X122298240Y-137004037D01*
X122174176Y-136801584D01*
X122174173Y-136801580D01*
X122019969Y-136621030D01*
X121839419Y-136466826D01*
X121839417Y-136466825D01*
X121839416Y-136466824D01*
X121636963Y-136342760D01*
X121635117Y-136341995D01*
X121417592Y-136251894D01*
X121259651Y-136213976D01*
X121186711Y-136196465D01*
X120950000Y-136177835D01*
X120713289Y-136196465D01*
X120482407Y-136251894D01*
X120263038Y-136342759D01*
X120060582Y-136466825D01*
X120060580Y-136466826D01*
X119880030Y-136621030D01*
X119725826Y-136801580D01*
X119725825Y-136801582D01*
X119601759Y-137004038D01*
X119510894Y-137223407D01*
X119455465Y-137454289D01*
X119436835Y-137691000D01*
X115963165Y-137691000D01*
X115944535Y-137454289D01*
X115889105Y-137223406D01*
X115798240Y-137004037D01*
X115674176Y-136801584D01*
X115674173Y-136801580D01*
X115519969Y-136621030D01*
X115339419Y-136466826D01*
X115339417Y-136466825D01*
X115339416Y-136466824D01*
X115136963Y-136342760D01*
X115135117Y-136341995D01*
X114917592Y-136251894D01*
X114759651Y-136213976D01*
X114686711Y-136196465D01*
X114450000Y-136177835D01*
X114213289Y-136196465D01*
X113982407Y-136251894D01*
X113763038Y-136342759D01*
X113560582Y-136466825D01*
X113560580Y-136466826D01*
X113380030Y-136621030D01*
X113225826Y-136801580D01*
X113225825Y-136801582D01*
X113101759Y-137004038D01*
X113010894Y-137223407D01*
X112955465Y-137454289D01*
X112936835Y-137691000D01*
X112955465Y-137927710D01*
X113010894Y-138158592D01*
X113099884Y-138373433D01*
X113101760Y-138377963D01*
X113193867Y-138528268D01*
X113225825Y-138580417D01*
X113225826Y-138580419D01*
X113284972Y-138649670D01*
X113314003Y-138714460D01*
X113303398Y-138784660D01*
X113256523Y-138837982D01*
X113189161Y-138857500D01*
X112774595Y-138857500D01*
X112706474Y-138837498D01*
X112685500Y-138820595D01*
X112134363Y-138269458D01*
X112100337Y-138207146D01*
X112100938Y-138150955D01*
X112154535Y-137927711D01*
X112173165Y-137691000D01*
X112154535Y-137454289D01*
X112099105Y-137223406D01*
X112008240Y-137004037D01*
X111884176Y-136801584D01*
X111884173Y-136801580D01*
X111729969Y-136621030D01*
X111549419Y-136466826D01*
X111549417Y-136466825D01*
X111549416Y-136466824D01*
X111346963Y-136342760D01*
X111345117Y-136341995D01*
X111127592Y-136251894D01*
X110969651Y-136213976D01*
X110896711Y-136196465D01*
X110660000Y-136177835D01*
X110423289Y-136196465D01*
X110192407Y-136251894D01*
X109973038Y-136342759D01*
X109770582Y-136466825D01*
X109770580Y-136466826D01*
X109590030Y-136621030D01*
X109435826Y-136801580D01*
X109435825Y-136801582D01*
X109311759Y-137004038D01*
X109220894Y-137223407D01*
X109165465Y-137454289D01*
X109146835Y-137691000D01*
X109165465Y-137927710D01*
X109220894Y-138158592D01*
X109309884Y-138373433D01*
X109311760Y-138377963D01*
X109403867Y-138528268D01*
X109435825Y-138580417D01*
X109435826Y-138580419D01*
X109590030Y-138760969D01*
X109770580Y-138915173D01*
X109770584Y-138915176D01*
X109973037Y-139039240D01*
X110192406Y-139130105D01*
X110423289Y-139185535D01*
X110660000Y-139204165D01*
X110896711Y-139185535D01*
X111119953Y-139131939D01*
X111190858Y-139135486D01*
X111238459Y-139165363D01*
X111607044Y-139533948D01*
X111641070Y-139596260D01*
X111636005Y-139667075D01*
X111593458Y-139723911D01*
X111526938Y-139748722D01*
X111464700Y-139737238D01*
X111399251Y-139706719D01*
X111399240Y-139706715D01*
X111305771Y-139681670D01*
X111178087Y-139647457D01*
X110950000Y-139627502D01*
X110721913Y-139647457D01*
X110500759Y-139706715D01*
X110500753Y-139706717D01*
X110293250Y-139803477D01*
X110105703Y-139934799D01*
X110105697Y-139934804D01*
X109943804Y-140096697D01*
X109943799Y-140096703D01*
X109812477Y-140284250D01*
X109715717Y-140491753D01*
X109715716Y-140491757D01*
X109656457Y-140712913D01*
X109636502Y-140941000D01*
X109643718Y-141023485D01*
X109656457Y-141169086D01*
X109715715Y-141390240D01*
X109715717Y-141390246D01*
X109793907Y-141557925D01*
X109812477Y-141597749D01*
X109943802Y-141785300D01*
X110105700Y-141947198D01*
X110293251Y-142078523D01*
X110500757Y-142175284D01*
X110721913Y-142234543D01*
X110950000Y-142254498D01*
X111178087Y-142234543D01*
X111399243Y-142175284D01*
X111606749Y-142078523D01*
X111794300Y-141947198D01*
X111956198Y-141785300D01*
X112087523Y-141597749D01*
X112184284Y-141390243D01*
X112243543Y-141169087D01*
X112263498Y-140941000D01*
X112243543Y-140712913D01*
X112184284Y-140491757D01*
X112087523Y-140284251D01*
X112082377Y-140276902D01*
X112059689Y-140209630D01*
X112076973Y-140140769D01*
X112128742Y-140092184D01*
X112198559Y-140079300D01*
X112216975Y-140083822D01*
X112217258Y-140082723D01*
X112226439Y-140085080D01*
X112244562Y-140089733D01*
X112263263Y-140096135D01*
X112281855Y-140104181D01*
X112325522Y-140111096D01*
X112337125Y-140113498D01*
X112379970Y-140124500D01*
X112400231Y-140124500D01*
X112419939Y-140126050D01*
X112439943Y-140129219D01*
X112483954Y-140125058D01*
X112495811Y-140124500D01*
X113189190Y-140124500D01*
X113257311Y-140144502D01*
X113303804Y-140198158D01*
X113313908Y-140268432D01*
X113303385Y-140303747D01*
X113272390Y-140370216D01*
X113215717Y-140491753D01*
X113215716Y-140491757D01*
X113156457Y-140712913D01*
X113136502Y-140941000D01*
X113143718Y-141023485D01*
X113156457Y-141169086D01*
X113215715Y-141390240D01*
X113215717Y-141390246D01*
X113293907Y-141557925D01*
X113312477Y-141597749D01*
X113443802Y-141785300D01*
X113605700Y-141947198D01*
X113793251Y-142078523D01*
X114000757Y-142175284D01*
X114221913Y-142234543D01*
X114450000Y-142254498D01*
X114678087Y-142234543D01*
X114899243Y-142175284D01*
X115106749Y-142078523D01*
X115294300Y-141947198D01*
X115456198Y-141785300D01*
X115587523Y-141597749D01*
X115684284Y-141390243D01*
X115743543Y-141169087D01*
X115763498Y-140941000D01*
X115743543Y-140712913D01*
X115684284Y-140491757D01*
X115596614Y-140303748D01*
X115585954Y-140233558D01*
X115614934Y-140168746D01*
X115674354Y-140129889D01*
X115710810Y-140124500D01*
X117691006Y-140124500D01*
X117759127Y-140144502D01*
X117780101Y-140161405D01*
X118360433Y-140741737D01*
X118370400Y-140754177D01*
X118370627Y-140753990D01*
X118375679Y-140760097D01*
X118425346Y-140806737D01*
X118428190Y-140809494D01*
X118447906Y-140829211D01*
X118451103Y-140831691D01*
X118460124Y-140839396D01*
X118492359Y-140869666D01*
X118492360Y-140869666D01*
X118492362Y-140869668D01*
X118510109Y-140879424D01*
X118526639Y-140890282D01*
X118542639Y-140902693D01*
X118583216Y-140920252D01*
X118593867Y-140925470D01*
X118632620Y-140946775D01*
X118652242Y-140951813D01*
X118670943Y-140958215D01*
X118683494Y-140963647D01*
X118689532Y-140966260D01*
X118689533Y-140966260D01*
X118689535Y-140966261D01*
X118733210Y-140973178D01*
X118744821Y-140975582D01*
X118787650Y-140986580D01*
X118807904Y-140986580D01*
X118827614Y-140988131D01*
X118829821Y-140988480D01*
X118847623Y-140991300D01*
X118891641Y-140987138D01*
X118903499Y-140986580D01*
X126817485Y-140986580D01*
X126885606Y-141006582D01*
X126906581Y-141023485D01*
X127322878Y-141439783D01*
X127356903Y-141502095D01*
X127359092Y-141515707D01*
X127376457Y-141680927D01*
X127406526Y-141773470D01*
X127435473Y-141862556D01*
X127435473Y-141862557D01*
X127435474Y-141862558D01*
X127474747Y-141930581D01*
X127491484Y-141999576D01*
X127468263Y-142066668D01*
X127412456Y-142110555D01*
X127365627Y-142119580D01*
X125178200Y-142119580D01*
X125110079Y-142099578D01*
X125084563Y-142077890D01*
X125081252Y-142074213D01*
X124926752Y-141961962D01*
X124752288Y-141884286D01*
X124565487Y-141844580D01*
X124374513Y-141844580D01*
X124187711Y-141884286D01*
X124013247Y-141961962D01*
X123858744Y-142074215D01*
X123730965Y-142216128D01*
X123730958Y-142216138D01*
X123635476Y-142381518D01*
X123635473Y-142381525D01*
X123576457Y-142563152D01*
X123556496Y-142753080D01*
X123576457Y-142943007D01*
X123606526Y-143035550D01*
X123635473Y-143124636D01*
X123635476Y-143124641D01*
X123730958Y-143290021D01*
X123730965Y-143290031D01*
X123858744Y-143431944D01*
X123858747Y-143431946D01*
X124013248Y-143544198D01*
X124187712Y-143621874D01*
X124374513Y-143661580D01*
X124565487Y-143661580D01*
X124752288Y-143621874D01*
X124926752Y-143544198D01*
X125081253Y-143431946D01*
X125084563Y-143428270D01*
X125145009Y-143391030D01*
X125178200Y-143386580D01*
X128436405Y-143386580D01*
X128504526Y-143406582D01*
X128551019Y-143460238D01*
X128561123Y-143530512D01*
X128531629Y-143595092D01*
X128525500Y-143601675D01*
X128046580Y-144080595D01*
X127984268Y-144114621D01*
X127957485Y-144117500D01*
X101784595Y-144117500D01*
X101716474Y-144097498D01*
X101695499Y-144080595D01*
X101120404Y-143505499D01*
X101086379Y-143443187D01*
X101083500Y-143416404D01*
X101083500Y-142160393D01*
X101103502Y-142092272D01*
X101137230Y-142057180D01*
X101294291Y-141947204D01*
X101294300Y-141947198D01*
X101456198Y-141785300D01*
X101587523Y-141597749D01*
X101684284Y-141390243D01*
X101743543Y-141169087D01*
X101763498Y-140941000D01*
X102636502Y-140941000D01*
X102643718Y-141023485D01*
X102656457Y-141169086D01*
X102715715Y-141390240D01*
X102715717Y-141390246D01*
X102793907Y-141557925D01*
X102812477Y-141597749D01*
X102943802Y-141785300D01*
X103105700Y-141947198D01*
X103293251Y-142078523D01*
X103500757Y-142175284D01*
X103721913Y-142234543D01*
X103950000Y-142254498D01*
X104178087Y-142234543D01*
X104399243Y-142175284D01*
X104606749Y-142078523D01*
X104794300Y-141947198D01*
X104956198Y-141785300D01*
X105087523Y-141597749D01*
X105184284Y-141390243D01*
X105243543Y-141169087D01*
X105263498Y-140941000D01*
X106136502Y-140941000D01*
X106143718Y-141023485D01*
X106156457Y-141169086D01*
X106215715Y-141390240D01*
X106215717Y-141390246D01*
X106293907Y-141557925D01*
X106312477Y-141597749D01*
X106443802Y-141785300D01*
X106605700Y-141947198D01*
X106793251Y-142078523D01*
X107000757Y-142175284D01*
X107221913Y-142234543D01*
X107450000Y-142254498D01*
X107678087Y-142234543D01*
X107899243Y-142175284D01*
X108106749Y-142078523D01*
X108294300Y-141947198D01*
X108456198Y-141785300D01*
X108587523Y-141597749D01*
X108684284Y-141390243D01*
X108743543Y-141169087D01*
X108763498Y-140941000D01*
X108743543Y-140712913D01*
X108684284Y-140491757D01*
X108587523Y-140284251D01*
X108456198Y-140096700D01*
X108294300Y-139934802D01*
X108211680Y-139876951D01*
X108106749Y-139803477D01*
X107899246Y-139706717D01*
X107899240Y-139706715D01*
X107805771Y-139681670D01*
X107678087Y-139647457D01*
X107450000Y-139627502D01*
X107221913Y-139647457D01*
X107000759Y-139706715D01*
X107000753Y-139706717D01*
X106793250Y-139803477D01*
X106605703Y-139934799D01*
X106605697Y-139934804D01*
X106443804Y-140096697D01*
X106443799Y-140096703D01*
X106312477Y-140284250D01*
X106215717Y-140491753D01*
X106215716Y-140491757D01*
X106156457Y-140712913D01*
X106136502Y-140941000D01*
X105263498Y-140941000D01*
X105243543Y-140712913D01*
X105184284Y-140491757D01*
X105087523Y-140284251D01*
X104956198Y-140096700D01*
X104794300Y-139934802D01*
X104711680Y-139876951D01*
X104606749Y-139803477D01*
X104399246Y-139706717D01*
X104399240Y-139706715D01*
X104305771Y-139681670D01*
X104178087Y-139647457D01*
X103950000Y-139627502D01*
X103721913Y-139647457D01*
X103500759Y-139706715D01*
X103500753Y-139706717D01*
X103293250Y-139803477D01*
X103105703Y-139934799D01*
X103105697Y-139934804D01*
X102943804Y-140096697D01*
X102943799Y-140096703D01*
X102812477Y-140284250D01*
X102715717Y-140491753D01*
X102715716Y-140491757D01*
X102656457Y-140712913D01*
X102636502Y-140941000D01*
X101763498Y-140941000D01*
X101743543Y-140712913D01*
X101684284Y-140491757D01*
X101587523Y-140284251D01*
X101456198Y-140096700D01*
X101294300Y-139934802D01*
X101211680Y-139876951D01*
X101106749Y-139803477D01*
X100899246Y-139706717D01*
X100899240Y-139706715D01*
X100805771Y-139681670D01*
X100678087Y-139647457D01*
X100450000Y-139627502D01*
X100221913Y-139647457D01*
X100000759Y-139706715D01*
X100000753Y-139706717D01*
X99793250Y-139803477D01*
X99605703Y-139934799D01*
X99605697Y-139934804D01*
X99443804Y-140096697D01*
X99443799Y-140096703D01*
X99312477Y-140284250D01*
X99215717Y-140491753D01*
X99215716Y-140491757D01*
X99156457Y-140712913D01*
X99136502Y-140941000D01*
X99143718Y-141023485D01*
X99156457Y-141169086D01*
X99215715Y-141390240D01*
X99215717Y-141390246D01*
X99293907Y-141557925D01*
X99312477Y-141597749D01*
X99443802Y-141785300D01*
X99605700Y-141947198D01*
X99605703Y-141947200D01*
X99605708Y-141947204D01*
X99762770Y-142057180D01*
X99807099Y-142112637D01*
X99816500Y-142160393D01*
X99816500Y-143647146D01*
X99814751Y-143662988D01*
X99815044Y-143663016D01*
X99814298Y-143670907D01*
X99816438Y-143738984D01*
X99816500Y-143742943D01*
X99816500Y-143770851D01*
X99816501Y-143770869D01*
X99817007Y-143774877D01*
X99817937Y-143786696D01*
X99819326Y-143830888D01*
X99819327Y-143830893D01*
X99824977Y-143850339D01*
X99828986Y-143869697D01*
X99831525Y-143889793D01*
X99831526Y-143889800D01*
X99847800Y-143930903D01*
X99851644Y-143942129D01*
X99863982Y-143984593D01*
X99874294Y-144002031D01*
X99882988Y-144019779D01*
X99890444Y-144038609D01*
X99890450Y-144038620D01*
X99916432Y-144074381D01*
X99922949Y-144084301D01*
X99945458Y-144122362D01*
X99945459Y-144122363D01*
X99945461Y-144122366D01*
X99959779Y-144136684D01*
X99972617Y-144151714D01*
X99984526Y-144168104D01*
X99984530Y-144168109D01*
X100018598Y-144196292D01*
X100027378Y-144204282D01*
X100962752Y-145139656D01*
X100972722Y-145152100D01*
X100972950Y-145151913D01*
X100978001Y-145158019D01*
X101027649Y-145204641D01*
X101030494Y-145207399D01*
X101050223Y-145227129D01*
X101050224Y-145227130D01*
X101050228Y-145227133D01*
X101050230Y-145227135D01*
X101053435Y-145229621D01*
X101062442Y-145237314D01*
X101094679Y-145267586D01*
X101112428Y-145277343D01*
X101128953Y-145288198D01*
X101144959Y-145300614D01*
X101185542Y-145318175D01*
X101196193Y-145323393D01*
X101234940Y-145344695D01*
X101234948Y-145344697D01*
X101254558Y-145349732D01*
X101273267Y-145356137D01*
X101291855Y-145364181D01*
X101335530Y-145371098D01*
X101347141Y-145373502D01*
X101389970Y-145384500D01*
X101410224Y-145384500D01*
X101429934Y-145386051D01*
X101432141Y-145386400D01*
X101449943Y-145389220D01*
X101493961Y-145385058D01*
X101505819Y-145384500D01*
X128188227Y-145384500D01*
X128204068Y-145386249D01*
X128204096Y-145385956D01*
X128211982Y-145386700D01*
X128211989Y-145386702D01*
X128280066Y-145384562D01*
X128284025Y-145384500D01*
X128311931Y-145384500D01*
X128311936Y-145384500D01*
X128315947Y-145383992D01*
X128327779Y-145383061D01*
X128371969Y-145381673D01*
X128391427Y-145376019D01*
X128410774Y-145372013D01*
X128430877Y-145369474D01*
X128471990Y-145353195D01*
X128483210Y-145349353D01*
X128507993Y-145342154D01*
X128525671Y-145337019D01*
X128525675Y-145337017D01*
X128543106Y-145326708D01*
X128560860Y-145318009D01*
X128579697Y-145310552D01*
X128615472Y-145284558D01*
X128625378Y-145278051D01*
X128663442Y-145255542D01*
X128677765Y-145241218D01*
X128692804Y-145228374D01*
X128709187Y-145216472D01*
X128737379Y-145182392D01*
X128745347Y-145173635D01*
X129186671Y-144732312D01*
X129248980Y-144698290D01*
X129319796Y-144703355D01*
X129376631Y-144745902D01*
X129401442Y-144812422D01*
X129397908Y-144852342D01*
X129343116Y-145068710D01*
X129324928Y-145288199D01*
X129324524Y-145293080D01*
X129332490Y-145389219D01*
X129343117Y-145517455D01*
X129398382Y-145735692D01*
X129398383Y-145735693D01*
X129488821Y-145941873D01*
X129611955Y-146130345D01*
X129611959Y-146130350D01*
X129764442Y-146295988D01*
X129819011Y-146338461D01*
X129942104Y-146434269D01*
X129975885Y-146452550D01*
X130026276Y-146502562D01*
X130041629Y-146571879D01*
X130017069Y-146638492D01*
X129975889Y-146674176D01*
X129942384Y-146692308D01*
X129942378Y-146692312D01*
X129764777Y-146830545D01*
X129612354Y-146996121D01*
X129489260Y-147184531D01*
X129398859Y-147390623D01*
X129398856Y-147390630D01*
X129351135Y-147579079D01*
X129351136Y-147579080D01*
X130256564Y-147579080D01*
X130228187Y-147623236D01*
X130187680Y-147761191D01*
X130187680Y-147904969D01*
X130228187Y-148042924D01*
X130256564Y-148087080D01*
X129351135Y-148087080D01*
X129398856Y-148275529D01*
X129398859Y-148275536D01*
X129489260Y-148481628D01*
X129612354Y-148670038D01*
X129764777Y-148835614D01*
X129942378Y-148973847D01*
X129942379Y-148973848D01*
X130140308Y-149080962D01*
X130140310Y-149080963D01*
X130353163Y-149154035D01*
X130353172Y-149154037D01*
X130433680Y-149167471D01*
X130433680Y-148266754D01*
X130545365Y-148317760D01*
X130651917Y-148333080D01*
X130723443Y-148333080D01*
X130829995Y-148317760D01*
X130941680Y-148266754D01*
X130941680Y-149167470D01*
X131022187Y-149154037D01*
X131022196Y-149154035D01*
X131235049Y-149080963D01*
X131235051Y-149080962D01*
X131432980Y-148973848D01*
X131432981Y-148973847D01*
X131610582Y-148835614D01*
X131763007Y-148670035D01*
X131851897Y-148533979D01*
X131905900Y-148487890D01*
X131976248Y-148478315D01*
X132040605Y-148508292D01*
X132062863Y-148533978D01*
X132151959Y-148670350D01*
X132304442Y-148835988D01*
X132359011Y-148878461D01*
X132482104Y-148974269D01*
X132680106Y-149081422D01*
X132680107Y-149081422D01*
X132680108Y-149081423D01*
X132791907Y-149119803D01*
X132893045Y-149154524D01*
X133115111Y-149191580D01*
X133115115Y-149191580D01*
X133340245Y-149191580D01*
X133340249Y-149191580D01*
X133562315Y-149154524D01*
X133775254Y-149081422D01*
X133973256Y-148974269D01*
X134150920Y-148835986D01*
X134303402Y-148670348D01*
X134303607Y-148670035D01*
X134310121Y-148660063D01*
X134426540Y-148481871D01*
X134516976Y-148275696D01*
X134572244Y-148057448D01*
X134590836Y-147833080D01*
X134572244Y-147608712D01*
X134517018Y-147390630D01*
X134516977Y-147390467D01*
X134516976Y-147390466D01*
X134516976Y-147390464D01*
X134426540Y-147184289D01*
X134392496Y-147132180D01*
X134303404Y-146995814D01*
X134303400Y-146995809D01*
X134187250Y-146869639D01*
X134150920Y-146830174D01*
X134150919Y-146830173D01*
X134150917Y-146830171D01*
X134069062Y-146766461D01*
X133973256Y-146691891D01*
X133939999Y-146673893D01*
X133889609Y-146623882D01*
X133874256Y-146554565D01*
X133898816Y-146487952D01*
X133940000Y-146452266D01*
X133973256Y-146434269D01*
X134150920Y-146295986D01*
X134303402Y-146130348D01*
X134426540Y-145941871D01*
X134516976Y-145735696D01*
X134572244Y-145517448D01*
X134590836Y-145293080D01*
X134572244Y-145068712D01*
X134516976Y-144850464D01*
X134426540Y-144644289D01*
X134419820Y-144634004D01*
X134303404Y-144455814D01*
X134303400Y-144455809D01*
X134150917Y-144290171D01*
X134035163Y-144200076D01*
X133973256Y-144151891D01*
X133939999Y-144133893D01*
X133889609Y-144083882D01*
X133874256Y-144014565D01*
X133898816Y-143947952D01*
X133940000Y-143912266D01*
X133973256Y-143894269D01*
X134150920Y-143755986D01*
X134303402Y-143590348D01*
X134426540Y-143401871D01*
X134516976Y-143195696D01*
X134572244Y-142977448D01*
X134590836Y-142753080D01*
X134572244Y-142528712D01*
X134534971Y-142381524D01*
X134516977Y-142310467D01*
X134516976Y-142310466D01*
X134516976Y-142310464D01*
X134426540Y-142104289D01*
X134409293Y-142077890D01*
X134303404Y-141915814D01*
X134303400Y-141915809D01*
X134150917Y-141750171D01*
X134061952Y-141680927D01*
X133973256Y-141611891D01*
X133939472Y-141593608D01*
X133889082Y-141543596D01*
X133873730Y-141474279D01*
X133898290Y-141407666D01*
X133939473Y-141371981D01*
X133972980Y-141353847D01*
X133972981Y-141353847D01*
X134150582Y-141215614D01*
X134303005Y-141050038D01*
X134426099Y-140861628D01*
X134516500Y-140655536D01*
X134516503Y-140655529D01*
X134564224Y-140467080D01*
X133658796Y-140467080D01*
X133687173Y-140422924D01*
X133727680Y-140284969D01*
X133727680Y-140141191D01*
X133687173Y-140003236D01*
X133658796Y-139959080D01*
X134564224Y-139959080D01*
X134564224Y-139959079D01*
X134516503Y-139770630D01*
X134516500Y-139770623D01*
X134426099Y-139564531D01*
X134303005Y-139376121D01*
X134150582Y-139210545D01*
X133972981Y-139072312D01*
X133972980Y-139072311D01*
X133939471Y-139054177D01*
X133889081Y-139004163D01*
X133873730Y-138934846D01*
X133898292Y-138868233D01*
X133939470Y-138832552D01*
X133973256Y-138814269D01*
X134150920Y-138675986D01*
X134303402Y-138510348D01*
X134426540Y-138321871D01*
X134516976Y-138115696D01*
X134572244Y-137897448D01*
X134590836Y-137673080D01*
X134572244Y-137448712D01*
X134529882Y-137281428D01*
X134516977Y-137230467D01*
X134516976Y-137230466D01*
X134516976Y-137230464D01*
X134426540Y-137024289D01*
X134413309Y-137004037D01*
X134303404Y-136835814D01*
X134303400Y-136835809D01*
X134150917Y-136670171D01*
X133996279Y-136549811D01*
X133973256Y-136531891D01*
X133939472Y-136513608D01*
X133889082Y-136463596D01*
X133873730Y-136394279D01*
X133898290Y-136327666D01*
X133939473Y-136291981D01*
X133972980Y-136273847D01*
X133972981Y-136273847D01*
X134150582Y-136135614D01*
X134303005Y-135970038D01*
X134426099Y-135781628D01*
X134516500Y-135575536D01*
X134516503Y-135575529D01*
X134564224Y-135387080D01*
X133658796Y-135387080D01*
X133687173Y-135342924D01*
X133727680Y-135204969D01*
X133727680Y-135061191D01*
X133687173Y-134923236D01*
X133658796Y-134879080D01*
X134564224Y-134879080D01*
X134564224Y-134879079D01*
X134516503Y-134690630D01*
X134516500Y-134690623D01*
X134426099Y-134484531D01*
X134303005Y-134296121D01*
X134150582Y-134130545D01*
X133972981Y-133992312D01*
X133972980Y-133992311D01*
X133939471Y-133974177D01*
X133889081Y-133924163D01*
X133873730Y-133854846D01*
X133898292Y-133788233D01*
X133939470Y-133752552D01*
X133973256Y-133734269D01*
X134150920Y-133595986D01*
X134303402Y-133430348D01*
X134305126Y-133427710D01*
X134310121Y-133420063D01*
X134426540Y-133241871D01*
X134516976Y-133035696D01*
X134572244Y-132817448D01*
X134590836Y-132593080D01*
X134572244Y-132368712D01*
X134516976Y-132150464D01*
X134426540Y-131944289D01*
X134419820Y-131934004D01*
X134303404Y-131755814D01*
X134303400Y-131755809D01*
X134159674Y-131599683D01*
X134150920Y-131590174D01*
X134150919Y-131590173D01*
X134150917Y-131590171D01*
X134065955Y-131524042D01*
X133973256Y-131451891D01*
X133939999Y-131433893D01*
X133889609Y-131383882D01*
X133874256Y-131314565D01*
X133898816Y-131247952D01*
X133940000Y-131212266D01*
X133940527Y-131211981D01*
X133973256Y-131194269D01*
X134150920Y-131055986D01*
X134303402Y-130890348D01*
X134303607Y-130890035D01*
X134355819Y-130810117D01*
X134426540Y-130701871D01*
X134516976Y-130495696D01*
X134572244Y-130277448D01*
X134590836Y-130053080D01*
X134572244Y-129828712D01*
X134518907Y-129618090D01*
X134516977Y-129610467D01*
X134516976Y-129610466D01*
X134516976Y-129610464D01*
X134426540Y-129404289D01*
X134409277Y-129377866D01*
X134303404Y-129215814D01*
X134303400Y-129215809D01*
X134187250Y-129089639D01*
X134150920Y-129050174D01*
X134150919Y-129050173D01*
X134150917Y-129050171D01*
X134054070Y-128974792D01*
X133973256Y-128911891D01*
X133939999Y-128893893D01*
X133889609Y-128843882D01*
X133874256Y-128774565D01*
X133898816Y-128707952D01*
X133940000Y-128672266D01*
X133973256Y-128654269D01*
X134150920Y-128515986D01*
X134303402Y-128350348D01*
X134426540Y-128161871D01*
X134516976Y-127955696D01*
X134572244Y-127737448D01*
X134590836Y-127513080D01*
X134572244Y-127288712D01*
X134521590Y-127088683D01*
X134516977Y-127070467D01*
X134516976Y-127070466D01*
X134516976Y-127070464D01*
X134426540Y-126864289D01*
X134414970Y-126846580D01*
X134303404Y-126675814D01*
X134303400Y-126675809D01*
X134150917Y-126510171D01*
X134069062Y-126446461D01*
X133973256Y-126371891D01*
X133939999Y-126353893D01*
X133889609Y-126303882D01*
X133874256Y-126234565D01*
X133898816Y-126167952D01*
X133940000Y-126132266D01*
X133973256Y-126114269D01*
X134150920Y-125975986D01*
X134303402Y-125810348D01*
X134426540Y-125621871D01*
X134516976Y-125415696D01*
X134572244Y-125197448D01*
X134590836Y-124973080D01*
X134572244Y-124748712D01*
X134549423Y-124658594D01*
X134516977Y-124530467D01*
X134516976Y-124530466D01*
X134516976Y-124530464D01*
X134426540Y-124324289D01*
X134415435Y-124307292D01*
X134303404Y-124135814D01*
X134303400Y-124135809D01*
X134150917Y-123970171D01*
X134069062Y-123906461D01*
X133973256Y-123831891D01*
X133939472Y-123813608D01*
X133889082Y-123763596D01*
X133873730Y-123694279D01*
X133898290Y-123627666D01*
X133939473Y-123591981D01*
X133972980Y-123573847D01*
X133972981Y-123573847D01*
X134150582Y-123435614D01*
X134303005Y-123270038D01*
X134426099Y-123081628D01*
X134516500Y-122875536D01*
X134516503Y-122875529D01*
X134564224Y-122687080D01*
X133658796Y-122687080D01*
X133687173Y-122642924D01*
X133727680Y-122504969D01*
X133727680Y-122361191D01*
X133687173Y-122223236D01*
X133658796Y-122179080D01*
X134564224Y-122179080D01*
X134564224Y-122179079D01*
X134516503Y-121990630D01*
X134516500Y-121990623D01*
X134426099Y-121784531D01*
X134303005Y-121596121D01*
X134150582Y-121430545D01*
X133972981Y-121292312D01*
X133972980Y-121292311D01*
X133939471Y-121274177D01*
X133889081Y-121224163D01*
X133873730Y-121154846D01*
X133898292Y-121088233D01*
X133939470Y-121052552D01*
X133973256Y-121034269D01*
X134150920Y-120895986D01*
X134303402Y-120730348D01*
X134426540Y-120541871D01*
X134516976Y-120335696D01*
X134572244Y-120117448D01*
X134590836Y-119893080D01*
X134572244Y-119668712D01*
X134558502Y-119614445D01*
X134516977Y-119450467D01*
X134516976Y-119450466D01*
X134516976Y-119450464D01*
X134426540Y-119244289D01*
X134411979Y-119222002D01*
X134303404Y-119055814D01*
X134303400Y-119055809D01*
X134150917Y-118890171D01*
X134069062Y-118826461D01*
X133973256Y-118751891D01*
X133939999Y-118733893D01*
X133889609Y-118683882D01*
X133874256Y-118614565D01*
X133898816Y-118547952D01*
X133940000Y-118512266D01*
X133973256Y-118494269D01*
X134150920Y-118355986D01*
X134303402Y-118190348D01*
X134426540Y-118001871D01*
X134516976Y-117795696D01*
X134572244Y-117577448D01*
X134590836Y-117353080D01*
X134572244Y-117128712D01*
X134516976Y-116910464D01*
X134426540Y-116704289D01*
X134419820Y-116694004D01*
X134303404Y-116515814D01*
X134303400Y-116515809D01*
X134150917Y-116350171D01*
X134069062Y-116286461D01*
X133973256Y-116211891D01*
X133939472Y-116193608D01*
X133889082Y-116143596D01*
X133873730Y-116074279D01*
X133898290Y-116007666D01*
X133939473Y-115971981D01*
X133972980Y-115953847D01*
X133972981Y-115953847D01*
X134150582Y-115815614D01*
X134303005Y-115650038D01*
X134426099Y-115461628D01*
X134516500Y-115255536D01*
X134516503Y-115255529D01*
X134564224Y-115067080D01*
X133658796Y-115067080D01*
X133687173Y-115022924D01*
X133727680Y-114884969D01*
X133727680Y-114741191D01*
X133687173Y-114603236D01*
X133658796Y-114559080D01*
X134564224Y-114559080D01*
X134564224Y-114559079D01*
X134516503Y-114370630D01*
X134516500Y-114370623D01*
X134426099Y-114164531D01*
X134303005Y-113976121D01*
X134150582Y-113810545D01*
X133972981Y-113672312D01*
X133972980Y-113672311D01*
X133939471Y-113654177D01*
X133889081Y-113604163D01*
X133873730Y-113534846D01*
X133898292Y-113468233D01*
X133939470Y-113432552D01*
X133973256Y-113414269D01*
X134150920Y-113275986D01*
X134303402Y-113110348D01*
X134426540Y-112921871D01*
X134516976Y-112715696D01*
X134572244Y-112497448D01*
X134590836Y-112273080D01*
X134572244Y-112048712D01*
X134516976Y-111830464D01*
X134426540Y-111624289D01*
X134419820Y-111614004D01*
X134303404Y-111435814D01*
X134303400Y-111435809D01*
X134150917Y-111270171D01*
X134069062Y-111206461D01*
X133973256Y-111131891D01*
X133939999Y-111113893D01*
X133889609Y-111063882D01*
X133874256Y-110994565D01*
X133898816Y-110927952D01*
X133940000Y-110892266D01*
X133940527Y-110891981D01*
X133973256Y-110874269D01*
X134150920Y-110735986D01*
X134303402Y-110570348D01*
X134303607Y-110570035D01*
X134392496Y-110433979D01*
X134426540Y-110381871D01*
X134516976Y-110175696D01*
X134572244Y-109957448D01*
X134590836Y-109733080D01*
X134572244Y-109508712D01*
X134520446Y-109304165D01*
X134516977Y-109290467D01*
X134516976Y-109290466D01*
X134516976Y-109290464D01*
X134426540Y-109084289D01*
X134392496Y-109032180D01*
X134303404Y-108895814D01*
X134303400Y-108895809D01*
X134187250Y-108769639D01*
X134150920Y-108730174D01*
X134150919Y-108730173D01*
X134150917Y-108730171D01*
X134069062Y-108666461D01*
X133973256Y-108591891D01*
X133939999Y-108573893D01*
X133889609Y-108523882D01*
X133874256Y-108454565D01*
X133898816Y-108387952D01*
X133940000Y-108352266D01*
X133944156Y-108350017D01*
X133973256Y-108334269D01*
X134150920Y-108195986D01*
X134303402Y-108030348D01*
X134305126Y-108027710D01*
X134321039Y-108003353D01*
X134426540Y-107841871D01*
X134516976Y-107635696D01*
X134572244Y-107417448D01*
X134590836Y-107193080D01*
X134572244Y-106968712D01*
X134516976Y-106750464D01*
X134426540Y-106544289D01*
X134411835Y-106521781D01*
X134303404Y-106355814D01*
X134303400Y-106355809D01*
X134150917Y-106190171D01*
X134052724Y-106113744D01*
X133973256Y-106051891D01*
X133939472Y-106033608D01*
X133889082Y-105983596D01*
X133873730Y-105914279D01*
X133898290Y-105847666D01*
X133939473Y-105811981D01*
X133972980Y-105793847D01*
X133972981Y-105793847D01*
X134150582Y-105655614D01*
X134303005Y-105490038D01*
X134426099Y-105301628D01*
X134516500Y-105095536D01*
X134516503Y-105095529D01*
X134564224Y-104907080D01*
X133658796Y-104907080D01*
X133687173Y-104862924D01*
X133727680Y-104724969D01*
X133727680Y-104581191D01*
X133687173Y-104443236D01*
X133658796Y-104399080D01*
X134564224Y-104399080D01*
X134564224Y-104399079D01*
X134516503Y-104210630D01*
X134516500Y-104210623D01*
X134426099Y-104004531D01*
X134303005Y-103816121D01*
X134150582Y-103650545D01*
X133972981Y-103512312D01*
X133972980Y-103512311D01*
X133939471Y-103494177D01*
X133889081Y-103444163D01*
X133873730Y-103374846D01*
X133898292Y-103308233D01*
X133939470Y-103272552D01*
X133973256Y-103254269D01*
X134150920Y-103115986D01*
X134303402Y-102950348D01*
X134426540Y-102761871D01*
X134516976Y-102555696D01*
X134572244Y-102337448D01*
X134590836Y-102113080D01*
X134572244Y-101888712D01*
X134569225Y-101876789D01*
X134516977Y-101670467D01*
X134516976Y-101670466D01*
X134516976Y-101670464D01*
X134426540Y-101464289D01*
X134413480Y-101444299D01*
X134303404Y-101275814D01*
X134303400Y-101275809D01*
X134150917Y-101110171D01*
X134042687Y-101025932D01*
X133973256Y-100971891D01*
X133939999Y-100953893D01*
X133889609Y-100903882D01*
X133874256Y-100834565D01*
X133898816Y-100767952D01*
X133940000Y-100732266D01*
X133973256Y-100714269D01*
X134150920Y-100575986D01*
X134303402Y-100410348D01*
X134426540Y-100221871D01*
X134516976Y-100015696D01*
X134572244Y-99797448D01*
X134590836Y-99573080D01*
X134572244Y-99348712D01*
X134555632Y-99283114D01*
X134516977Y-99130467D01*
X134516976Y-99130466D01*
X134516976Y-99130464D01*
X134426540Y-98924289D01*
X134409180Y-98897717D01*
X134303404Y-98735814D01*
X134303400Y-98735809D01*
X134187250Y-98609639D01*
X134150920Y-98570174D01*
X134150919Y-98570173D01*
X134150917Y-98570171D01*
X134031047Y-98476872D01*
X133973256Y-98431891D01*
X133775254Y-98324738D01*
X133775252Y-98324737D01*
X133775251Y-98324736D01*
X133562319Y-98251637D01*
X133562310Y-98251635D01*
X133518156Y-98244267D01*
X133340249Y-98214580D01*
X133115111Y-98214580D01*
X132966891Y-98239313D01*
X132893049Y-98251635D01*
X132893040Y-98251637D01*
X132680108Y-98324736D01*
X132680106Y-98324738D01*
X132482106Y-98431890D01*
X132482104Y-98431891D01*
X132304442Y-98570171D01*
X132243434Y-98636443D01*
X132182581Y-98673013D01*
X132111616Y-98670878D01*
X132053071Y-98630716D01*
X132032679Y-98595137D01*
X131988569Y-98476877D01*
X131988567Y-98476872D01*
X131900941Y-98359818D01*
X131783887Y-98272192D01*
X131783882Y-98272190D01*
X131646884Y-98221091D01*
X131646876Y-98221089D01*
X131586329Y-98214580D01*
X131586318Y-98214580D01*
X129789042Y-98214580D01*
X129789030Y-98214580D01*
X129728483Y-98221089D01*
X129728475Y-98221091D01*
X129591477Y-98272190D01*
X129591472Y-98272192D01*
X129474418Y-98359818D01*
X129386792Y-98476872D01*
X129386790Y-98476877D01*
X129335691Y-98613875D01*
X129335689Y-98613883D01*
X129329180Y-98674430D01*
X129329180Y-98688580D01*
X129309178Y-98756701D01*
X129255522Y-98803194D01*
X129203180Y-98814580D01*
X128584500Y-98814580D01*
X128516379Y-98794578D01*
X128469886Y-98740922D01*
X128458500Y-98688580D01*
X128458500Y-97248648D01*
X128459831Y-97230385D01*
X128461740Y-97217351D01*
X128463341Y-97206424D01*
X128458979Y-97156564D01*
X128458500Y-97145584D01*
X128458500Y-97140038D01*
X128458500Y-97140033D01*
X128454863Y-97108925D01*
X128454492Y-97105293D01*
X128447887Y-97029786D01*
X128447886Y-97029782D01*
X128446403Y-97022600D01*
X128446469Y-97022586D01*
X128444839Y-97015232D01*
X128444773Y-97015248D01*
X128443079Y-97008103D01*
X128443079Y-97008100D01*
X128417137Y-96936825D01*
X128415963Y-96933447D01*
X128392115Y-96861477D01*
X128389014Y-96854828D01*
X128389076Y-96854799D01*
X128385791Y-96848013D01*
X128385731Y-96848044D01*
X128382434Y-96841479D01*
X128340777Y-96778143D01*
X128338807Y-96775052D01*
X128299029Y-96710561D01*
X128299028Y-96710560D01*
X128294476Y-96704803D01*
X128294529Y-96704760D01*
X128289766Y-96698913D01*
X128289715Y-96698957D01*
X128284998Y-96693335D01*
X128229826Y-96641283D01*
X128227197Y-96638729D01*
X126739577Y-95151109D01*
X126727605Y-95137257D01*
X126713138Y-95117824D01*
X126713136Y-95117822D01*
X126674798Y-95085652D01*
X126666696Y-95078227D01*
X126662775Y-95074306D01*
X126638197Y-95054871D01*
X126635360Y-95052560D01*
X126577304Y-95003846D01*
X126571175Y-94999815D01*
X126571210Y-94999760D01*
X126564856Y-94995711D01*
X126564822Y-94995768D01*
X126558575Y-94991915D01*
X126489874Y-94959878D01*
X126486578Y-94958283D01*
X126418857Y-94924273D01*
X126418855Y-94924272D01*
X126418852Y-94924271D01*
X126411958Y-94921762D01*
X126411980Y-94921699D01*
X126404858Y-94919223D01*
X126404838Y-94919286D01*
X126397880Y-94916980D01*
X126323611Y-94901644D01*
X126320036Y-94900851D01*
X126246325Y-94883382D01*
X126239036Y-94882530D01*
X126239043Y-94882462D01*
X126231546Y-94881696D01*
X126231541Y-94881763D01*
X126224228Y-94881123D01*
X126224227Y-94881123D01*
X126178208Y-94882462D01*
X126148410Y-94883329D01*
X126144746Y-94883382D01*
X122854424Y-94883382D01*
X122786303Y-94863380D01*
X122753556Y-94832891D01*
X122712930Y-94778620D01*
X122595876Y-94690994D01*
X122595871Y-94690992D01*
X122458873Y-94639893D01*
X122458865Y-94639891D01*
X122398318Y-94633382D01*
X122398307Y-94633382D01*
X120801031Y-94633382D01*
X120801019Y-94633382D01*
X120740472Y-94639891D01*
X120740464Y-94639893D01*
X120603466Y-94690992D01*
X120603461Y-94690994D01*
X120547016Y-94733250D01*
X120480496Y-94758061D01*
X120471507Y-94758382D01*
X119977831Y-94758382D01*
X119909710Y-94738380D01*
X119902322Y-94733250D01*
X119845876Y-94690994D01*
X119845871Y-94690992D01*
X119708873Y-94639893D01*
X119708865Y-94639891D01*
X119648318Y-94633382D01*
X119648307Y-94633382D01*
X118051031Y-94633382D01*
X118051019Y-94633382D01*
X117990472Y-94639891D01*
X117990464Y-94639893D01*
X117853466Y-94690992D01*
X117853461Y-94690994D01*
X117736407Y-94778620D01*
X117648781Y-94895674D01*
X117648779Y-94895679D01*
X117597680Y-95032677D01*
X117597678Y-95032685D01*
X117591169Y-95093232D01*
X117591169Y-96057382D01*
X117571167Y-96125503D01*
X117517511Y-96171996D01*
X117465169Y-96183382D01*
X117390110Y-96183382D01*
X117371850Y-96182052D01*
X117347881Y-96178541D01*
X117347880Y-96178541D01*
X117307750Y-96182052D01*
X117298023Y-96182903D01*
X117287042Y-96183382D01*
X117281485Y-96183382D01*
X117250382Y-96187017D01*
X117246739Y-96187389D01*
X117171244Y-96193994D01*
X117164058Y-96195478D01*
X117164045Y-96195415D01*
X117156672Y-96197050D01*
X117156687Y-96197113D01*
X117149550Y-96198804D01*
X117078302Y-96224735D01*
X117074845Y-96225937D01*
X117030086Y-96240769D01*
X117002931Y-96249768D01*
X117002929Y-96249768D01*
X117002929Y-96249769D01*
X116996281Y-96252869D01*
X116996252Y-96252808D01*
X116989461Y-96256096D01*
X116989491Y-96256155D01*
X116982938Y-96259445D01*
X116919589Y-96301111D01*
X116916499Y-96303079D01*
X116852020Y-96342850D01*
X116846257Y-96347407D01*
X116846216Y-96347355D01*
X116840373Y-96352115D01*
X116840415Y-96352165D01*
X116834797Y-96356878D01*
X116782756Y-96412038D01*
X116780203Y-96414665D01*
X115399273Y-97795596D01*
X115336963Y-97829620D01*
X115310180Y-97832500D01*
X105100298Y-97832500D01*
X105082039Y-97831170D01*
X105058069Y-97827659D01*
X105058068Y-97827659D01*
X105017938Y-97831170D01*
X105008211Y-97832021D01*
X104997230Y-97832500D01*
X104991673Y-97832500D01*
X104960570Y-97836135D01*
X104956927Y-97836507D01*
X104881432Y-97843112D01*
X104874246Y-97844596D01*
X104874233Y-97844533D01*
X104866860Y-97846168D01*
X104866875Y-97846231D01*
X104859738Y-97847922D01*
X104788490Y-97873853D01*
X104785033Y-97875055D01*
X104740274Y-97889887D01*
X104713119Y-97898886D01*
X104713117Y-97898886D01*
X104713117Y-97898887D01*
X104706469Y-97901987D01*
X104706440Y-97901926D01*
X104699649Y-97905214D01*
X104699679Y-97905273D01*
X104693126Y-97908563D01*
X104629777Y-97950229D01*
X104626687Y-97952197D01*
X104562208Y-97991968D01*
X104556445Y-97996525D01*
X104556404Y-97996473D01*
X104550561Y-98001233D01*
X104550603Y-98001283D01*
X104544985Y-98005996D01*
X104492944Y-98061156D01*
X104490391Y-98063783D01*
X103149225Y-99404949D01*
X103135376Y-99416919D01*
X103115943Y-99431386D01*
X103083771Y-99469727D01*
X103076360Y-99477815D01*
X103072420Y-99481755D01*
X103072414Y-99481762D01*
X103052997Y-99506317D01*
X103050689Y-99509151D01*
X103001964Y-99567221D01*
X102997935Y-99573348D01*
X102997880Y-99573312D01*
X102993825Y-99579677D01*
X102993882Y-99579712D01*
X102990030Y-99585955D01*
X102957996Y-99654651D01*
X102956401Y-99657944D01*
X102922394Y-99725662D01*
X102919882Y-99732564D01*
X102919820Y-99732541D01*
X102917343Y-99739667D01*
X102917404Y-99739688D01*
X102915096Y-99746652D01*
X102899759Y-99820921D01*
X102898967Y-99824494D01*
X102881500Y-99898197D01*
X102880648Y-99905491D01*
X102880581Y-99905483D01*
X102879814Y-99912983D01*
X102879881Y-99912989D01*
X102879241Y-99920299D01*
X102881447Y-99996115D01*
X102881500Y-99999779D01*
X102881500Y-103328357D01*
X102861498Y-103396478D01*
X102807842Y-103442971D01*
X102755500Y-103454357D01*
X102741350Y-103454357D01*
X102680803Y-103460866D01*
X102680795Y-103460868D01*
X102543797Y-103511967D01*
X102543792Y-103511969D01*
X102426738Y-103599595D01*
X102339112Y-103716649D01*
X102339110Y-103716654D01*
X102288011Y-103853652D01*
X102288009Y-103853660D01*
X102281500Y-103914207D01*
X102281500Y-105711506D01*
X102288009Y-105772053D01*
X102288011Y-105772061D01*
X102339110Y-105909059D01*
X102339112Y-105909064D01*
X102426738Y-106026118D01*
X102543792Y-106113744D01*
X102543794Y-106113745D01*
X102543796Y-106113746D01*
X102577878Y-106126458D01*
X102680795Y-106164845D01*
X102680803Y-106164847D01*
X102741350Y-106171356D01*
X102741355Y-106171356D01*
X102741362Y-106171357D01*
X102741368Y-106171357D01*
X104538632Y-106171357D01*
X104538638Y-106171357D01*
X104538645Y-106171356D01*
X104538649Y-106171356D01*
X104599196Y-106164847D01*
X104599199Y-106164846D01*
X104599201Y-106164846D01*
X104736204Y-106113746D01*
X104806399Y-106061199D01*
X104853261Y-106026118D01*
X104940886Y-105909065D01*
X104940885Y-105909065D01*
X104940889Y-105909061D01*
X104984999Y-105790796D01*
X105027545Y-105733964D01*
X105094066Y-105709153D01*
X105163440Y-105724245D01*
X105195753Y-105749492D01*
X105253279Y-105811982D01*
X105256762Y-105815765D01*
X105298116Y-105847952D01*
X105434424Y-105954046D01*
X105632426Y-106061199D01*
X105632427Y-106061199D01*
X105632428Y-106061200D01*
X105744227Y-106099580D01*
X105845365Y-106134301D01*
X106067431Y-106171357D01*
X106067435Y-106171357D01*
X106292565Y-106171357D01*
X106292569Y-106171357D01*
X106514635Y-106134301D01*
X106727574Y-106061199D01*
X106925576Y-105954046D01*
X107103240Y-105815763D01*
X107255722Y-105650125D01*
X107344518Y-105514211D01*
X107398520Y-105468125D01*
X107468868Y-105458549D01*
X107533225Y-105488526D01*
X107555480Y-105514210D01*
X107588607Y-105564915D01*
X107644275Y-105650122D01*
X107644279Y-105650127D01*
X107700784Y-105711506D01*
X107796760Y-105815763D01*
X107912892Y-105906153D01*
X107954362Y-105963776D01*
X107961500Y-106005583D01*
X107961500Y-107014629D01*
X107941498Y-107082750D01*
X107924595Y-107103724D01*
X100632724Y-114395595D01*
X100570412Y-114429621D01*
X100543629Y-114432500D01*
X87514441Y-114432500D01*
X87496182Y-114431170D01*
X87472212Y-114427659D01*
X87472211Y-114427659D01*
X87449786Y-114429621D01*
X87422354Y-114432021D01*
X87411373Y-114432500D01*
X87405816Y-114432500D01*
X87374713Y-114436135D01*
X87371070Y-114436507D01*
X87295575Y-114443112D01*
X87288389Y-114444596D01*
X87288376Y-114444533D01*
X87281003Y-114446168D01*
X87281018Y-114446231D01*
X87273881Y-114447922D01*
X87202633Y-114473853D01*
X87199176Y-114475055D01*
X87177368Y-114482282D01*
X87127262Y-114498886D01*
X87127260Y-114498886D01*
X87127260Y-114498887D01*
X87120612Y-114501987D01*
X87120583Y-114501926D01*
X87113792Y-114505214D01*
X87113822Y-114505273D01*
X87107269Y-114508563D01*
X87043920Y-114550229D01*
X87040830Y-114552197D01*
X86976351Y-114591968D01*
X86970588Y-114596525D01*
X86970547Y-114596473D01*
X86964704Y-114601233D01*
X86964746Y-114601283D01*
X86959128Y-114605996D01*
X86907087Y-114661156D01*
X86904534Y-114663783D01*
X85959225Y-115609092D01*
X85945376Y-115621062D01*
X85925943Y-115635529D01*
X85893771Y-115673870D01*
X85886360Y-115681958D01*
X85882420Y-115685898D01*
X85882414Y-115685905D01*
X85862997Y-115710460D01*
X85860689Y-115713294D01*
X85811964Y-115771364D01*
X85807935Y-115777491D01*
X85807880Y-115777455D01*
X85803825Y-115783820D01*
X85803882Y-115783855D01*
X85800030Y-115790098D01*
X85767996Y-115858794D01*
X85766401Y-115862087D01*
X85732394Y-115929805D01*
X85729882Y-115936707D01*
X85729820Y-115936684D01*
X85727343Y-115943810D01*
X85727404Y-115943831D01*
X85725096Y-115950795D01*
X85709759Y-116025064D01*
X85708967Y-116028637D01*
X85691500Y-116102340D01*
X85690648Y-116109634D01*
X85690581Y-116109626D01*
X85689814Y-116117126D01*
X85689881Y-116117132D01*
X85689241Y-116124442D01*
X85691447Y-116200258D01*
X85691500Y-116203922D01*
X85691500Y-133074628D01*
X85671498Y-133142749D01*
X85654595Y-133163723D01*
X84608447Y-134209870D01*
X84546135Y-134243896D01*
X84475319Y-134238831D01*
X84426652Y-134206114D01*
X84373237Y-134148091D01*
X84286288Y-134080416D01*
X84195576Y-134009811D01*
X84161792Y-133991528D01*
X84111402Y-133941516D01*
X84096050Y-133872199D01*
X84120610Y-133805586D01*
X84161793Y-133769901D01*
X84195300Y-133751767D01*
X84195301Y-133751767D01*
X84372902Y-133613534D01*
X84525325Y-133447958D01*
X84648419Y-133259548D01*
X84738820Y-133053456D01*
X84738823Y-133053449D01*
X84786544Y-132865000D01*
X83881116Y-132865000D01*
X83909493Y-132820844D01*
X83950000Y-132682889D01*
X83950000Y-132539111D01*
X83909493Y-132401156D01*
X83881116Y-132357000D01*
X84786544Y-132357000D01*
X84786544Y-132356999D01*
X84738823Y-132168550D01*
X84738820Y-132168543D01*
X84648419Y-131962451D01*
X84525325Y-131774041D01*
X84382018Y-131618367D01*
X84350598Y-131554702D01*
X84358585Y-131484156D01*
X84403444Y-131429127D01*
X84430679Y-131414977D01*
X84546204Y-131371889D01*
X84663261Y-131284261D01*
X84730626Y-131194272D01*
X84750887Y-131167207D01*
X84750887Y-131167206D01*
X84750889Y-131167204D01*
X84801989Y-131030201D01*
X84808239Y-130972072D01*
X84808499Y-130969649D01*
X84808500Y-130969632D01*
X84808500Y-129172367D01*
X84808499Y-129172350D01*
X84801990Y-129111803D01*
X84801988Y-129111795D01*
X84772924Y-129033875D01*
X84750889Y-128974796D01*
X84750888Y-128974794D01*
X84750887Y-128974792D01*
X84663261Y-128857738D01*
X84546207Y-128770112D01*
X84546202Y-128770110D01*
X84409204Y-128719011D01*
X84409196Y-128719009D01*
X84348649Y-128712500D01*
X84348638Y-128712500D01*
X82551362Y-128712500D01*
X82551350Y-128712500D01*
X82490803Y-128719009D01*
X82490795Y-128719011D01*
X82353797Y-128770110D01*
X82353792Y-128770112D01*
X82236738Y-128857738D01*
X82149112Y-128974792D01*
X82149110Y-128974797D01*
X82098011Y-129111795D01*
X82098009Y-129111803D01*
X82091500Y-129172350D01*
X82091500Y-130969649D01*
X82098009Y-131030196D01*
X82098011Y-131030204D01*
X82149110Y-131167202D01*
X82149112Y-131167207D01*
X82236738Y-131284261D01*
X82353792Y-131371887D01*
X82353796Y-131371889D01*
X82469312Y-131414975D01*
X82526148Y-131457522D01*
X82550958Y-131524042D01*
X82535866Y-131593416D01*
X82517981Y-131618367D01*
X82374674Y-131774041D01*
X82251580Y-131962451D01*
X82161179Y-132168543D01*
X82161176Y-132168550D01*
X82113455Y-132356999D01*
X82113456Y-132357000D01*
X83018884Y-132357000D01*
X82990507Y-132401156D01*
X82950000Y-132539111D01*
X82950000Y-132682889D01*
X82990507Y-132820844D01*
X83018884Y-132865000D01*
X82113455Y-132865000D01*
X82161176Y-133053449D01*
X82161179Y-133053456D01*
X82251580Y-133259548D01*
X82374674Y-133447958D01*
X82527097Y-133613534D01*
X82704698Y-133751767D01*
X82704704Y-133751771D01*
X82738207Y-133769902D01*
X82788597Y-133819915D01*
X82803949Y-133889232D01*
X82779388Y-133955845D01*
X82738207Y-133991528D01*
X82704430Y-134009807D01*
X82704424Y-134009811D01*
X82526762Y-134148091D01*
X82374279Y-134313729D01*
X82374275Y-134313734D01*
X82251141Y-134502206D01*
X82160703Y-134708386D01*
X82160702Y-134708387D01*
X82105437Y-134926624D01*
X82105436Y-134926630D01*
X82105436Y-134926632D01*
X82086844Y-135151000D01*
X82093723Y-135234021D01*
X82105437Y-135375375D01*
X82160702Y-135593612D01*
X82160703Y-135593613D01*
X82160704Y-135593616D01*
X82225851Y-135742138D01*
X82251141Y-135799793D01*
X82374275Y-135988265D01*
X82374279Y-135988270D01*
X82526762Y-136153908D01*
X82573001Y-136189897D01*
X82704424Y-136292189D01*
X82737680Y-136310186D01*
X82788071Y-136360200D01*
X82803423Y-136429516D01*
X82778862Y-136496129D01*
X82737680Y-136531813D01*
X82704426Y-136549810D01*
X82704424Y-136549811D01*
X82526762Y-136688091D01*
X82374279Y-136853729D01*
X82374275Y-136853734D01*
X82251141Y-137042206D01*
X82160703Y-137248386D01*
X82160702Y-137248387D01*
X82105437Y-137466624D01*
X82086844Y-137691000D01*
X79550500Y-137691000D01*
X79550500Y-98831000D01*
X91771950Y-98831000D01*
X91792117Y-99087246D01*
X91852121Y-99337183D01*
X91950486Y-99574657D01*
X92084791Y-99793824D01*
X92086253Y-99795536D01*
X92656806Y-99224982D01*
X92702316Y-99310822D01*
X92822009Y-99451735D01*
X92969195Y-99563623D01*
X93015268Y-99584939D01*
X92445462Y-100154745D01*
X92445462Y-100154746D01*
X92447174Y-100156207D01*
X92666342Y-100290513D01*
X92903816Y-100388878D01*
X93153753Y-100448882D01*
X93410000Y-100469049D01*
X93666246Y-100448882D01*
X93916183Y-100388878D01*
X94153657Y-100290513D01*
X94372825Y-100156207D01*
X94374535Y-100154746D01*
X94374536Y-100154745D01*
X93805077Y-99585286D01*
X93927431Y-99511669D01*
X94061658Y-99384523D01*
X94165413Y-99231495D01*
X94166635Y-99228426D01*
X94733745Y-99795536D01*
X94733746Y-99795535D01*
X94735207Y-99793825D01*
X94869513Y-99574657D01*
X94967878Y-99337183D01*
X95027882Y-99087246D01*
X95048049Y-98831000D01*
X96851950Y-98831000D01*
X96872117Y-99087246D01*
X96932121Y-99337183D01*
X97030486Y-99574657D01*
X97164791Y-99793824D01*
X97166253Y-99795536D01*
X97736806Y-99224982D01*
X97782316Y-99310822D01*
X97902009Y-99451735D01*
X98049195Y-99563623D01*
X98095268Y-99584939D01*
X97525462Y-100154745D01*
X97525462Y-100154746D01*
X97527174Y-100156207D01*
X97746342Y-100290513D01*
X97983816Y-100388878D01*
X98233753Y-100448882D01*
X98490000Y-100469049D01*
X98746246Y-100448882D01*
X98996183Y-100388878D01*
X99233657Y-100290513D01*
X99452825Y-100156207D01*
X99454535Y-100154746D01*
X99454536Y-100154745D01*
X98885077Y-99585286D01*
X99007431Y-99511669D01*
X99141658Y-99384523D01*
X99245413Y-99231495D01*
X99246635Y-99228426D01*
X99813745Y-99795536D01*
X99813746Y-99795535D01*
X99815207Y-99793825D01*
X99949513Y-99574657D01*
X100047878Y-99337183D01*
X100107882Y-99087246D01*
X100128049Y-98831000D01*
X100107882Y-98574753D01*
X100047878Y-98324816D01*
X99949513Y-98087342D01*
X99815207Y-97868174D01*
X99813745Y-97866462D01*
X99243192Y-98437015D01*
X99197684Y-98351178D01*
X99077991Y-98210265D01*
X98930805Y-98098377D01*
X98884729Y-98077060D01*
X99454536Y-97507253D01*
X99452824Y-97505791D01*
X99233657Y-97371486D01*
X98996183Y-97273121D01*
X98746246Y-97213117D01*
X98490000Y-97192950D01*
X98233753Y-97213117D01*
X97983816Y-97273121D01*
X97746342Y-97371486D01*
X97527177Y-97505790D01*
X97527174Y-97505793D01*
X97525462Y-97507253D01*
X98094922Y-98076713D01*
X97972569Y-98150331D01*
X97838342Y-98277477D01*
X97734587Y-98430505D01*
X97733364Y-98433573D01*
X97166253Y-97866462D01*
X97164793Y-97868174D01*
X97164790Y-97868177D01*
X97030486Y-98087342D01*
X96932121Y-98324816D01*
X96872117Y-98574753D01*
X96851950Y-98831000D01*
X95048049Y-98831000D01*
X95027882Y-98574753D01*
X94967878Y-98324816D01*
X94869513Y-98087342D01*
X94735207Y-97868174D01*
X94733745Y-97866462D01*
X94163192Y-98437015D01*
X94117684Y-98351178D01*
X93997991Y-98210265D01*
X93850805Y-98098377D01*
X93804729Y-98077060D01*
X94374536Y-97507253D01*
X94372824Y-97505791D01*
X94153657Y-97371486D01*
X93916183Y-97273121D01*
X93666246Y-97213117D01*
X93410000Y-97192950D01*
X93153753Y-97213117D01*
X92903816Y-97273121D01*
X92666342Y-97371486D01*
X92447177Y-97505790D01*
X92447174Y-97505793D01*
X92445462Y-97507253D01*
X93014922Y-98076713D01*
X92892569Y-98150331D01*
X92758342Y-98277477D01*
X92654587Y-98430505D01*
X92653364Y-98433573D01*
X92086253Y-97866462D01*
X92084793Y-97868174D01*
X92084790Y-97868177D01*
X91950486Y-98087342D01*
X91852121Y-98324816D01*
X91792117Y-98574753D01*
X91771950Y-98831000D01*
X79550500Y-98831000D01*
X79550500Y-96291000D01*
X94411758Y-96291000D01*
X94421490Y-96414665D01*
X94430696Y-96531633D01*
X94487044Y-96766341D01*
X94556262Y-96933447D01*
X94579416Y-96989347D01*
X94705536Y-97195156D01*
X94862299Y-97378701D01*
X95045844Y-97535464D01*
X95251653Y-97661584D01*
X95474657Y-97753955D01*
X95709366Y-97810304D01*
X95950000Y-97829242D01*
X96190634Y-97810304D01*
X96425343Y-97753955D01*
X96648347Y-97661584D01*
X96854156Y-97535464D01*
X97037701Y-97378701D01*
X97194464Y-97195156D01*
X97320584Y-96989347D01*
X97412955Y-96766343D01*
X97469304Y-96531634D01*
X97488242Y-96291000D01*
X97469304Y-96050366D01*
X97412955Y-95815657D01*
X97320584Y-95592653D01*
X97194464Y-95386844D01*
X97037701Y-95203299D01*
X96854156Y-95046536D01*
X96648347Y-94920416D01*
X96640050Y-94916979D01*
X96425341Y-94828044D01*
X96264783Y-94789497D01*
X96190634Y-94771696D01*
X95950000Y-94752758D01*
X95709366Y-94771696D01*
X95474658Y-94828044D01*
X95251654Y-94920415D01*
X95045845Y-95046535D01*
X94862299Y-95203299D01*
X94705535Y-95386845D01*
X94579415Y-95592654D01*
X94487044Y-95815658D01*
X94430696Y-96050366D01*
X94411758Y-96291000D01*
X79550500Y-96291000D01*
X79550500Y-93751000D01*
X91771950Y-93751000D01*
X91792117Y-94007246D01*
X91852121Y-94257183D01*
X91950486Y-94494657D01*
X92084791Y-94713824D01*
X92086253Y-94715536D01*
X92656806Y-94144982D01*
X92702316Y-94230822D01*
X92822009Y-94371735D01*
X92969195Y-94483623D01*
X93015268Y-94504939D01*
X92445462Y-95074745D01*
X92445462Y-95074746D01*
X92447174Y-95076207D01*
X92666342Y-95210513D01*
X92903816Y-95308878D01*
X93153753Y-95368882D01*
X93410000Y-95389049D01*
X93666246Y-95368882D01*
X93916183Y-95308878D01*
X94153657Y-95210513D01*
X94372825Y-95076207D01*
X94374535Y-95074746D01*
X94374536Y-95074745D01*
X93805077Y-94505286D01*
X93927431Y-94431669D01*
X94061658Y-94304523D01*
X94165413Y-94151495D01*
X94166635Y-94148426D01*
X94733745Y-94715536D01*
X94733746Y-94715535D01*
X94735207Y-94713825D01*
X94869513Y-94494657D01*
X94967878Y-94257183D01*
X95027882Y-94007246D01*
X95048049Y-93751000D01*
X96851950Y-93751000D01*
X96872117Y-94007246D01*
X96932121Y-94257183D01*
X97030486Y-94494657D01*
X97164791Y-94713824D01*
X97166253Y-94715536D01*
X97736806Y-94144982D01*
X97782316Y-94230822D01*
X97902009Y-94371735D01*
X98049195Y-94483623D01*
X98095268Y-94504939D01*
X97525462Y-95074745D01*
X97525462Y-95074746D01*
X97527174Y-95076207D01*
X97746342Y-95210513D01*
X97983816Y-95308878D01*
X98233753Y-95368882D01*
X98490000Y-95389049D01*
X98746246Y-95368882D01*
X98996183Y-95308878D01*
X99233657Y-95210513D01*
X99452825Y-95076207D01*
X99454535Y-95074746D01*
X99454536Y-95074745D01*
X98885077Y-94505286D01*
X99007431Y-94431669D01*
X99141658Y-94304523D01*
X99245413Y-94151495D01*
X99246635Y-94148426D01*
X99813745Y-94715536D01*
X99813746Y-94715535D01*
X99815207Y-94713825D01*
X99949513Y-94494657D01*
X100047878Y-94257183D01*
X100107882Y-94007246D01*
X100128049Y-93751000D01*
X100107882Y-93494753D01*
X100047878Y-93244816D01*
X99949513Y-93007342D01*
X99815207Y-92788174D01*
X99813745Y-92786462D01*
X99243192Y-93357015D01*
X99197684Y-93271178D01*
X99077991Y-93130265D01*
X98930805Y-93018377D01*
X98884729Y-92997060D01*
X99454536Y-92427253D01*
X99452824Y-92425791D01*
X99233657Y-92291486D01*
X98996183Y-92193121D01*
X98746246Y-92133117D01*
X98490000Y-92112950D01*
X98233753Y-92133117D01*
X97983816Y-92193121D01*
X97746342Y-92291486D01*
X97527177Y-92425790D01*
X97527174Y-92425793D01*
X97525462Y-92427253D01*
X98094922Y-92996713D01*
X97972569Y-93070331D01*
X97838342Y-93197477D01*
X97734587Y-93350505D01*
X97733364Y-93353573D01*
X97166253Y-92786462D01*
X97164793Y-92788174D01*
X97164790Y-92788177D01*
X97030486Y-93007342D01*
X96932121Y-93244816D01*
X96872117Y-93494753D01*
X96851950Y-93751000D01*
X95048049Y-93751000D01*
X95027882Y-93494753D01*
X94967878Y-93244816D01*
X94869513Y-93007342D01*
X94735207Y-92788174D01*
X94733745Y-92786462D01*
X94163192Y-93357015D01*
X94117684Y-93271178D01*
X93997991Y-93130265D01*
X93850805Y-93018377D01*
X93804729Y-92997060D01*
X94374536Y-92427253D01*
X94372824Y-92425791D01*
X94153657Y-92291486D01*
X93916183Y-92193121D01*
X93666246Y-92133117D01*
X93410000Y-92112950D01*
X93153753Y-92133117D01*
X92903816Y-92193121D01*
X92666342Y-92291486D01*
X92447177Y-92425790D01*
X92447174Y-92425793D01*
X92445462Y-92427253D01*
X93014922Y-92996713D01*
X92892569Y-93070331D01*
X92758342Y-93197477D01*
X92654587Y-93350505D01*
X92653364Y-93353573D01*
X92086253Y-92786462D01*
X92084793Y-92788174D01*
X92084790Y-92788177D01*
X91950486Y-93007342D01*
X91852121Y-93244816D01*
X91792117Y-93494753D01*
X91771950Y-93751000D01*
X79550500Y-93751000D01*
X79550500Y-91417500D01*
X79570502Y-91349379D01*
X79624158Y-91302886D01*
X79676500Y-91291500D01*
X135723500Y-91291500D01*
X135791621Y-91311502D01*
G37*
G04 #@! TD.AperFunction*
M02*
