G04 #@! TF.GenerationSoftware,KiCad,Pcbnew,7.0.10*
G04 #@! TF.CreationDate,2024-02-01T09:42:11+01:00*
G04 #@! TF.ProjectId,LoRa-APRS-Gateway-RPI-RA01,4c6f5261-2d41-4505-9253-2d4761746577,rev?*
G04 #@! TF.SameCoordinates,Original*
G04 #@! TF.FileFunction,Legend,Bot*
G04 #@! TF.FilePolarity,Positive*
%FSLAX46Y46*%
G04 Gerber Fmt 4.6, Leading zero omitted, Abs format (unit mm)*
G04 Created by KiCad (PCBNEW 7.0.10) date 2024-02-01 09:42:11*
%MOMM*%
%LPD*%
G01*
G04 APERTURE LIST*
G04 Aperture macros list*
%AMRoundRect*
0 Rectangle with rounded corners*
0 $1 Rounding radius*
0 $2 $3 $4 $5 $6 $7 $8 $9 X,Y pos of 4 corners*
0 Add a 4 corners polygon primitive as box body*
4,1,4,$2,$3,$4,$5,$6,$7,$8,$9,$2,$3,0*
0 Add four circle primitives for the rounded corners*
1,1,$1+$1,$2,$3*
1,1,$1+$1,$4,$5*
1,1,$1+$1,$6,$7*
1,1,$1+$1,$8,$9*
0 Add four rect primitives between the rounded corners*
20,1,$1+$1,$2,$3,$4,$5,0*
20,1,$1+$1,$4,$5,$6,$7,0*
20,1,$1+$1,$6,$7,$8,$9,0*
20,1,$1+$1,$8,$9,$2,$3,0*%
G04 Aperture macros list end*
%ADD10C,0.200000*%
%ADD11C,0.150000*%
%ADD12C,0.100000*%
%ADD13C,0.120000*%
%ADD14C,1.702000*%
%ADD15O,1.702000X1.702000*%
%ADD16C,2.102000*%
%ADD17C,2.152000*%
%ADD18C,2.352000*%
%ADD19RoundRect,0.051000X-0.850000X-0.850000X0.850000X-0.850000X0.850000X0.850000X-0.850000X0.850000X0*%
%ADD20O,1.802000X1.802000*%
%ADD21RoundRect,0.051000X0.850000X0.850000X-0.850000X0.850000X-0.850000X-0.850000X0.850000X-0.850000X0*%
%ADD22RoundRect,0.051000X1.000000X0.750000X-1.000000X0.750000X-1.000000X-0.750000X1.000000X-0.750000X0*%
%ADD23RoundRect,0.275500X0.500500X-0.275500X0.500500X0.275500X-0.500500X0.275500X-0.500500X-0.275500X0*%
G04 APERTURE END LIST*
D10*
X128909000Y-152691000D02*
X125909000Y-152691000D01*
X128950000Y-94707000D02*
X125950000Y-94707000D01*
X111909000Y-152691000D02*
X114909000Y-152691000D01*
X105950000Y-94707000D02*
X102950000Y-94707000D01*
X82950000Y-97707000D02*
X82950000Y-100707000D01*
X111950000Y-94707000D02*
X114950000Y-94707000D01*
X85950000Y-94707000D02*
X88950000Y-94707000D01*
X82950000Y-149707000D02*
X82950000Y-146707000D01*
X85909000Y-152691000D02*
X88909000Y-152691000D01*
X108909000Y-149691000D02*
X108909000Y-146691000D01*
X105909000Y-152691000D02*
X102909000Y-152691000D01*
X108960000Y-97687000D02*
X108960000Y-100687000D01*
X131009523Y-149643219D02*
X130390476Y-149643219D01*
X130390476Y-149643219D02*
X130723809Y-150024171D01*
X130723809Y-150024171D02*
X130580952Y-150024171D01*
X130580952Y-150024171D02*
X130485714Y-150071790D01*
X130485714Y-150071790D02*
X130438095Y-150119409D01*
X130438095Y-150119409D02*
X130390476Y-150214647D01*
X130390476Y-150214647D02*
X130390476Y-150452742D01*
X130390476Y-150452742D02*
X130438095Y-150547980D01*
X130438095Y-150547980D02*
X130485714Y-150595600D01*
X130485714Y-150595600D02*
X130580952Y-150643219D01*
X130580952Y-150643219D02*
X130866666Y-150643219D01*
X130866666Y-150643219D02*
X130961904Y-150595600D01*
X130961904Y-150595600D02*
X131009523Y-150547980D01*
X129914285Y-150643219D02*
X129723809Y-150643219D01*
X129723809Y-150643219D02*
X129628571Y-150595600D01*
X129628571Y-150595600D02*
X129580952Y-150547980D01*
X129580952Y-150547980D02*
X129485714Y-150405123D01*
X129485714Y-150405123D02*
X129438095Y-150214647D01*
X129438095Y-150214647D02*
X129438095Y-149833695D01*
X129438095Y-149833695D02*
X129485714Y-149738457D01*
X129485714Y-149738457D02*
X129533333Y-149690838D01*
X129533333Y-149690838D02*
X129628571Y-149643219D01*
X129628571Y-149643219D02*
X129819047Y-149643219D01*
X129819047Y-149643219D02*
X129914285Y-149690838D01*
X129914285Y-149690838D02*
X129961904Y-149738457D01*
X129961904Y-149738457D02*
X130009523Y-149833695D01*
X130009523Y-149833695D02*
X130009523Y-150071790D01*
X130009523Y-150071790D02*
X129961904Y-150167028D01*
X129961904Y-150167028D02*
X129914285Y-150214647D01*
X129914285Y-150214647D02*
X129819047Y-150262266D01*
X129819047Y-150262266D02*
X129628571Y-150262266D01*
X129628571Y-150262266D02*
X129533333Y-150214647D01*
X129533333Y-150214647D02*
X129485714Y-150167028D01*
X129485714Y-150167028D02*
X129438095Y-150071790D01*
X133485713Y-96838457D02*
X133438094Y-96790838D01*
X133438094Y-96790838D02*
X133342856Y-96743219D01*
X133342856Y-96743219D02*
X133104761Y-96743219D01*
X133104761Y-96743219D02*
X133009523Y-96790838D01*
X133009523Y-96790838D02*
X132961904Y-96838457D01*
X132961904Y-96838457D02*
X132914285Y-96933695D01*
X132914285Y-96933695D02*
X132914285Y-97028933D01*
X132914285Y-97028933D02*
X132961904Y-97171790D01*
X132961904Y-97171790D02*
X133533332Y-97743219D01*
X133533332Y-97743219D02*
X132914285Y-97743219D01*
X133985714Y-149976552D02*
X133985714Y-150643219D01*
X134223809Y-149595600D02*
X134461904Y-150309885D01*
X134461904Y-150309885D02*
X133842857Y-150309885D01*
X133271428Y-149643219D02*
X133176190Y-149643219D01*
X133176190Y-149643219D02*
X133080952Y-149690838D01*
X133080952Y-149690838D02*
X133033333Y-149738457D01*
X133033333Y-149738457D02*
X132985714Y-149833695D01*
X132985714Y-149833695D02*
X132938095Y-150024171D01*
X132938095Y-150024171D02*
X132938095Y-150262266D01*
X132938095Y-150262266D02*
X132985714Y-150452742D01*
X132985714Y-150452742D02*
X133033333Y-150547980D01*
X133033333Y-150547980D02*
X133080952Y-150595600D01*
X133080952Y-150595600D02*
X133176190Y-150643219D01*
X133176190Y-150643219D02*
X133271428Y-150643219D01*
X133271428Y-150643219D02*
X133366666Y-150595600D01*
X133366666Y-150595600D02*
X133414285Y-150547980D01*
X133414285Y-150547980D02*
X133461904Y-150452742D01*
X133461904Y-150452742D02*
X133509523Y-150262266D01*
X133509523Y-150262266D02*
X133509523Y-150024171D01*
X133509523Y-150024171D02*
X133461904Y-149833695D01*
X133461904Y-149833695D02*
X133414285Y-149738457D01*
X133414285Y-149738457D02*
X133366666Y-149690838D01*
X133366666Y-149690838D02*
X133271428Y-149643219D01*
X123421428Y-153235742D02*
X123821428Y-152664314D01*
X124107142Y-153235742D02*
X124107142Y-152035742D01*
X124107142Y-152035742D02*
X123649999Y-152035742D01*
X123649999Y-152035742D02*
X123535714Y-152092885D01*
X123535714Y-152092885D02*
X123478571Y-152150028D01*
X123478571Y-152150028D02*
X123421428Y-152264314D01*
X123421428Y-152264314D02*
X123421428Y-152435742D01*
X123421428Y-152435742D02*
X123478571Y-152550028D01*
X123478571Y-152550028D02*
X123535714Y-152607171D01*
X123535714Y-152607171D02*
X123649999Y-152664314D01*
X123649999Y-152664314D02*
X124107142Y-152664314D01*
X122907142Y-153235742D02*
X122907142Y-152035742D01*
X122907142Y-152035742D02*
X122449999Y-152035742D01*
X122449999Y-152035742D02*
X122335714Y-152092885D01*
X122335714Y-152092885D02*
X122278571Y-152150028D01*
X122278571Y-152150028D02*
X122221428Y-152264314D01*
X122221428Y-152264314D02*
X122221428Y-152435742D01*
X122221428Y-152435742D02*
X122278571Y-152550028D01*
X122278571Y-152550028D02*
X122335714Y-152607171D01*
X122335714Y-152607171D02*
X122449999Y-152664314D01*
X122449999Y-152664314D02*
X122907142Y-152664314D01*
X121707142Y-153235742D02*
X121707142Y-152035742D01*
X120335713Y-152035742D02*
X119535713Y-152035742D01*
X119535713Y-152035742D02*
X120335713Y-153235742D01*
X120335713Y-153235742D02*
X119535713Y-153235742D01*
X118621427Y-153178600D02*
X118735713Y-153235742D01*
X118735713Y-153235742D02*
X118964285Y-153235742D01*
X118964285Y-153235742D02*
X119078570Y-153178600D01*
X119078570Y-153178600D02*
X119135713Y-153064314D01*
X119135713Y-153064314D02*
X119135713Y-152607171D01*
X119135713Y-152607171D02*
X119078570Y-152492885D01*
X119078570Y-152492885D02*
X118964285Y-152435742D01*
X118964285Y-152435742D02*
X118735713Y-152435742D01*
X118735713Y-152435742D02*
X118621427Y-152492885D01*
X118621427Y-152492885D02*
X118564285Y-152607171D01*
X118564285Y-152607171D02*
X118564285Y-152721457D01*
X118564285Y-152721457D02*
X119135713Y-152835742D01*
X118049999Y-153235742D02*
X118049999Y-152435742D01*
X118049999Y-152664314D02*
X117992856Y-152550028D01*
X117992856Y-152550028D02*
X117935714Y-152492885D01*
X117935714Y-152492885D02*
X117821428Y-152435742D01*
X117821428Y-152435742D02*
X117707142Y-152435742D01*
X117135714Y-153235742D02*
X117249999Y-153178600D01*
X117249999Y-153178600D02*
X117307142Y-153121457D01*
X117307142Y-153121457D02*
X117364285Y-153007171D01*
X117364285Y-153007171D02*
X117364285Y-152664314D01*
X117364285Y-152664314D02*
X117307142Y-152550028D01*
X117307142Y-152550028D02*
X117249999Y-152492885D01*
X117249999Y-152492885D02*
X117135714Y-152435742D01*
X117135714Y-152435742D02*
X116964285Y-152435742D01*
X116964285Y-152435742D02*
X116849999Y-152492885D01*
X116849999Y-152492885D02*
X116792857Y-152550028D01*
X116792857Y-152550028D02*
X116735714Y-152664314D01*
X116735714Y-152664314D02*
X116735714Y-153007171D01*
X116735714Y-153007171D02*
X116792857Y-153121457D01*
X116792857Y-153121457D02*
X116849999Y-153178600D01*
X116849999Y-153178600D02*
X116964285Y-153235742D01*
X116964285Y-153235742D02*
X117135714Y-153235742D01*
D11*
X101717982Y-104830366D02*
X101784649Y-104797033D01*
X101784649Y-104797033D02*
X101884649Y-104797033D01*
X101884649Y-104797033D02*
X101984649Y-104830366D01*
X101984649Y-104830366D02*
X102051316Y-104897033D01*
X102051316Y-104897033D02*
X102084649Y-104963700D01*
X102084649Y-104963700D02*
X102117982Y-105097033D01*
X102117982Y-105097033D02*
X102117982Y-105197033D01*
X102117982Y-105197033D02*
X102084649Y-105330366D01*
X102084649Y-105330366D02*
X102051316Y-105397033D01*
X102051316Y-105397033D02*
X101984649Y-105463700D01*
X101984649Y-105463700D02*
X101884649Y-105497033D01*
X101884649Y-105497033D02*
X101817982Y-105497033D01*
X101817982Y-105497033D02*
X101717982Y-105463700D01*
X101717982Y-105463700D02*
X101684649Y-105430366D01*
X101684649Y-105430366D02*
X101684649Y-105197033D01*
X101684649Y-105197033D02*
X101817982Y-105197033D01*
X101384649Y-105497033D02*
X101384649Y-104797033D01*
X101384649Y-104797033D02*
X100984649Y-105497033D01*
X100984649Y-105497033D02*
X100984649Y-104797033D01*
X100651316Y-105497033D02*
X100651316Y-104797033D01*
X100651316Y-104797033D02*
X100484649Y-104797033D01*
X100484649Y-104797033D02*
X100384649Y-104830366D01*
X100384649Y-104830366D02*
X100317983Y-104897033D01*
X100317983Y-104897033D02*
X100284649Y-104963700D01*
X100284649Y-104963700D02*
X100251316Y-105097033D01*
X100251316Y-105097033D02*
X100251316Y-105197033D01*
X100251316Y-105197033D02*
X100284649Y-105330366D01*
X100284649Y-105330366D02*
X100317983Y-105397033D01*
X100317983Y-105397033D02*
X100384649Y-105463700D01*
X100384649Y-105463700D02*
X100484649Y-105497033D01*
X100484649Y-105497033D02*
X100651316Y-105497033D01*
D12*
X80499919Y-116867741D02*
X80476109Y-116820122D01*
X80476109Y-116820122D02*
X80476109Y-116748693D01*
X80476109Y-116748693D02*
X80499919Y-116677265D01*
X80499919Y-116677265D02*
X80547538Y-116629646D01*
X80547538Y-116629646D02*
X80595157Y-116605836D01*
X80595157Y-116605836D02*
X80690395Y-116582027D01*
X80690395Y-116582027D02*
X80761823Y-116582027D01*
X80761823Y-116582027D02*
X80857061Y-116605836D01*
X80857061Y-116605836D02*
X80904680Y-116629646D01*
X80904680Y-116629646D02*
X80952300Y-116677265D01*
X80952300Y-116677265D02*
X80976109Y-116748693D01*
X80976109Y-116748693D02*
X80976109Y-116796312D01*
X80976109Y-116796312D02*
X80952300Y-116867741D01*
X80952300Y-116867741D02*
X80928490Y-116891550D01*
X80928490Y-116891550D02*
X80761823Y-116891550D01*
X80761823Y-116891550D02*
X80761823Y-116796312D01*
X80976109Y-117105836D02*
X80476109Y-117105836D01*
X80476109Y-117105836D02*
X80976109Y-117391550D01*
X80976109Y-117391550D02*
X80476109Y-117391550D01*
X80976109Y-117629646D02*
X80476109Y-117629646D01*
X80476109Y-117629646D02*
X80476109Y-117748694D01*
X80476109Y-117748694D02*
X80499919Y-117820122D01*
X80499919Y-117820122D02*
X80547538Y-117867741D01*
X80547538Y-117867741D02*
X80595157Y-117891551D01*
X80595157Y-117891551D02*
X80690395Y-117915360D01*
X80690395Y-117915360D02*
X80761823Y-117915360D01*
X80761823Y-117915360D02*
X80857061Y-117891551D01*
X80857061Y-117891551D02*
X80904680Y-117867741D01*
X80904680Y-117867741D02*
X80952300Y-117820122D01*
X80952300Y-117820122D02*
X80976109Y-117748694D01*
X80976109Y-117748694D02*
X80976109Y-117629646D01*
X81006109Y-108486836D02*
X80506109Y-108486836D01*
X80506109Y-108486836D02*
X80863252Y-108653503D01*
X80863252Y-108653503D02*
X80506109Y-108820169D01*
X80506109Y-108820169D02*
X81006109Y-108820169D01*
X81006109Y-109058265D02*
X80506109Y-109058265D01*
X80982300Y-109272551D02*
X81006109Y-109343979D01*
X81006109Y-109343979D02*
X81006109Y-109463027D01*
X81006109Y-109463027D02*
X80982300Y-109510646D01*
X80982300Y-109510646D02*
X80958490Y-109534455D01*
X80958490Y-109534455D02*
X80910871Y-109558265D01*
X80910871Y-109558265D02*
X80863252Y-109558265D01*
X80863252Y-109558265D02*
X80815633Y-109534455D01*
X80815633Y-109534455D02*
X80791823Y-109510646D01*
X80791823Y-109510646D02*
X80768014Y-109463027D01*
X80768014Y-109463027D02*
X80744204Y-109367789D01*
X80744204Y-109367789D02*
X80720395Y-109320170D01*
X80720395Y-109320170D02*
X80696585Y-109296360D01*
X80696585Y-109296360D02*
X80648966Y-109272551D01*
X80648966Y-109272551D02*
X80601347Y-109272551D01*
X80601347Y-109272551D02*
X80553728Y-109296360D01*
X80553728Y-109296360D02*
X80529919Y-109320170D01*
X80529919Y-109320170D02*
X80506109Y-109367789D01*
X80506109Y-109367789D02*
X80506109Y-109486836D01*
X80506109Y-109486836D02*
X80529919Y-109558265D01*
X80506109Y-109867788D02*
X80506109Y-109963026D01*
X80506109Y-109963026D02*
X80529919Y-110010645D01*
X80529919Y-110010645D02*
X80577538Y-110058264D01*
X80577538Y-110058264D02*
X80672776Y-110082074D01*
X80672776Y-110082074D02*
X80839442Y-110082074D01*
X80839442Y-110082074D02*
X80934680Y-110058264D01*
X80934680Y-110058264D02*
X80982300Y-110010645D01*
X80982300Y-110010645D02*
X81006109Y-109963026D01*
X81006109Y-109963026D02*
X81006109Y-109867788D01*
X81006109Y-109867788D02*
X80982300Y-109820169D01*
X80982300Y-109820169D02*
X80934680Y-109772550D01*
X80934680Y-109772550D02*
X80839442Y-109748741D01*
X80839442Y-109748741D02*
X80672776Y-109748741D01*
X80672776Y-109748741D02*
X80577538Y-109772550D01*
X80577538Y-109772550D02*
X80529919Y-109820169D01*
X80529919Y-109820169D02*
X80506109Y-109867788D01*
X81006109Y-106327836D02*
X80506109Y-106327836D01*
X80506109Y-106327836D02*
X80863252Y-106494503D01*
X80863252Y-106494503D02*
X80506109Y-106661169D01*
X80506109Y-106661169D02*
X81006109Y-106661169D01*
X80506109Y-106994503D02*
X80506109Y-107089741D01*
X80506109Y-107089741D02*
X80529919Y-107137360D01*
X80529919Y-107137360D02*
X80577538Y-107184979D01*
X80577538Y-107184979D02*
X80672776Y-107208789D01*
X80672776Y-107208789D02*
X80839442Y-107208789D01*
X80839442Y-107208789D02*
X80934680Y-107184979D01*
X80934680Y-107184979D02*
X80982300Y-107137360D01*
X80982300Y-107137360D02*
X81006109Y-107089741D01*
X81006109Y-107089741D02*
X81006109Y-106994503D01*
X81006109Y-106994503D02*
X80982300Y-106946884D01*
X80982300Y-106946884D02*
X80934680Y-106899265D01*
X80934680Y-106899265D02*
X80839442Y-106875456D01*
X80839442Y-106875456D02*
X80672776Y-106875456D01*
X80672776Y-106875456D02*
X80577538Y-106899265D01*
X80577538Y-106899265D02*
X80529919Y-106946884D01*
X80529919Y-106946884D02*
X80506109Y-106994503D01*
X80982300Y-107399266D02*
X81006109Y-107470694D01*
X81006109Y-107470694D02*
X81006109Y-107589742D01*
X81006109Y-107589742D02*
X80982300Y-107637361D01*
X80982300Y-107637361D02*
X80958490Y-107661170D01*
X80958490Y-107661170D02*
X80910871Y-107684980D01*
X80910871Y-107684980D02*
X80863252Y-107684980D01*
X80863252Y-107684980D02*
X80815633Y-107661170D01*
X80815633Y-107661170D02*
X80791823Y-107637361D01*
X80791823Y-107637361D02*
X80768014Y-107589742D01*
X80768014Y-107589742D02*
X80744204Y-107494504D01*
X80744204Y-107494504D02*
X80720395Y-107446885D01*
X80720395Y-107446885D02*
X80696585Y-107423075D01*
X80696585Y-107423075D02*
X80648966Y-107399266D01*
X80648966Y-107399266D02*
X80601347Y-107399266D01*
X80601347Y-107399266D02*
X80553728Y-107423075D01*
X80553728Y-107423075D02*
X80529919Y-107446885D01*
X80529919Y-107446885D02*
X80506109Y-107494504D01*
X80506109Y-107494504D02*
X80506109Y-107613551D01*
X80506109Y-107613551D02*
X80529919Y-107684980D01*
X81006109Y-107899265D02*
X80506109Y-107899265D01*
X80952300Y-110482027D02*
X80976109Y-110553455D01*
X80976109Y-110553455D02*
X80976109Y-110672503D01*
X80976109Y-110672503D02*
X80952300Y-110720122D01*
X80952300Y-110720122D02*
X80928490Y-110743931D01*
X80928490Y-110743931D02*
X80880871Y-110767741D01*
X80880871Y-110767741D02*
X80833252Y-110767741D01*
X80833252Y-110767741D02*
X80785633Y-110743931D01*
X80785633Y-110743931D02*
X80761823Y-110720122D01*
X80761823Y-110720122D02*
X80738014Y-110672503D01*
X80738014Y-110672503D02*
X80714204Y-110577265D01*
X80714204Y-110577265D02*
X80690395Y-110529646D01*
X80690395Y-110529646D02*
X80666585Y-110505836D01*
X80666585Y-110505836D02*
X80618966Y-110482027D01*
X80618966Y-110482027D02*
X80571347Y-110482027D01*
X80571347Y-110482027D02*
X80523728Y-110505836D01*
X80523728Y-110505836D02*
X80499919Y-110529646D01*
X80499919Y-110529646D02*
X80476109Y-110577265D01*
X80476109Y-110577265D02*
X80476109Y-110696312D01*
X80476109Y-110696312D02*
X80499919Y-110767741D01*
X80928490Y-111267740D02*
X80952300Y-111243931D01*
X80952300Y-111243931D02*
X80976109Y-111172502D01*
X80976109Y-111172502D02*
X80976109Y-111124883D01*
X80976109Y-111124883D02*
X80952300Y-111053455D01*
X80952300Y-111053455D02*
X80904680Y-111005836D01*
X80904680Y-111005836D02*
X80857061Y-110982026D01*
X80857061Y-110982026D02*
X80761823Y-110958217D01*
X80761823Y-110958217D02*
X80690395Y-110958217D01*
X80690395Y-110958217D02*
X80595157Y-110982026D01*
X80595157Y-110982026D02*
X80547538Y-111005836D01*
X80547538Y-111005836D02*
X80499919Y-111053455D01*
X80499919Y-111053455D02*
X80476109Y-111124883D01*
X80476109Y-111124883D02*
X80476109Y-111172502D01*
X80476109Y-111172502D02*
X80499919Y-111243931D01*
X80499919Y-111243931D02*
X80523728Y-111267740D01*
X80976109Y-111482026D02*
X80476109Y-111482026D01*
X80976109Y-111767740D02*
X80690395Y-111553455D01*
X80476109Y-111767740D02*
X80761823Y-111482026D01*
X80499919Y-102767741D02*
X80476109Y-102720122D01*
X80476109Y-102720122D02*
X80476109Y-102648693D01*
X80476109Y-102648693D02*
X80499919Y-102577265D01*
X80499919Y-102577265D02*
X80547538Y-102529646D01*
X80547538Y-102529646D02*
X80595157Y-102505836D01*
X80595157Y-102505836D02*
X80690395Y-102482027D01*
X80690395Y-102482027D02*
X80761823Y-102482027D01*
X80761823Y-102482027D02*
X80857061Y-102505836D01*
X80857061Y-102505836D02*
X80904680Y-102529646D01*
X80904680Y-102529646D02*
X80952300Y-102577265D01*
X80952300Y-102577265D02*
X80976109Y-102648693D01*
X80976109Y-102648693D02*
X80976109Y-102696312D01*
X80976109Y-102696312D02*
X80952300Y-102767741D01*
X80952300Y-102767741D02*
X80928490Y-102791550D01*
X80928490Y-102791550D02*
X80761823Y-102791550D01*
X80761823Y-102791550D02*
X80761823Y-102696312D01*
X80976109Y-103005836D02*
X80476109Y-103005836D01*
X80476109Y-103005836D02*
X80976109Y-103291550D01*
X80976109Y-103291550D02*
X80476109Y-103291550D01*
X80976109Y-103529646D02*
X80476109Y-103529646D01*
X80476109Y-103529646D02*
X80476109Y-103648694D01*
X80476109Y-103648694D02*
X80499919Y-103720122D01*
X80499919Y-103720122D02*
X80547538Y-103767741D01*
X80547538Y-103767741D02*
X80595157Y-103791551D01*
X80595157Y-103791551D02*
X80690395Y-103815360D01*
X80690395Y-103815360D02*
X80761823Y-103815360D01*
X80761823Y-103815360D02*
X80857061Y-103791551D01*
X80857061Y-103791551D02*
X80904680Y-103767741D01*
X80904680Y-103767741D02*
X80952300Y-103720122D01*
X80952300Y-103720122D02*
X80976109Y-103648694D01*
X80976109Y-103648694D02*
X80976109Y-103529646D01*
D11*
X101450649Y-109507033D02*
X101683982Y-109173700D01*
X101850649Y-109507033D02*
X101850649Y-108807033D01*
X101850649Y-108807033D02*
X101583982Y-108807033D01*
X101583982Y-108807033D02*
X101517316Y-108840366D01*
X101517316Y-108840366D02*
X101483982Y-108873700D01*
X101483982Y-108873700D02*
X101450649Y-108940366D01*
X101450649Y-108940366D02*
X101450649Y-109040366D01*
X101450649Y-109040366D02*
X101483982Y-109107033D01*
X101483982Y-109107033D02*
X101517316Y-109140366D01*
X101517316Y-109140366D02*
X101583982Y-109173700D01*
X101583982Y-109173700D02*
X101850649Y-109173700D01*
X101183982Y-109473700D02*
X101083982Y-109507033D01*
X101083982Y-109507033D02*
X100917316Y-109507033D01*
X100917316Y-109507033D02*
X100850649Y-109473700D01*
X100850649Y-109473700D02*
X100817316Y-109440366D01*
X100817316Y-109440366D02*
X100783982Y-109373700D01*
X100783982Y-109373700D02*
X100783982Y-109307033D01*
X100783982Y-109307033D02*
X100817316Y-109240366D01*
X100817316Y-109240366D02*
X100850649Y-109207033D01*
X100850649Y-109207033D02*
X100917316Y-109173700D01*
X100917316Y-109173700D02*
X101050649Y-109140366D01*
X101050649Y-109140366D02*
X101117316Y-109107033D01*
X101117316Y-109107033D02*
X101150649Y-109073700D01*
X101150649Y-109073700D02*
X101183982Y-109007033D01*
X101183982Y-109007033D02*
X101183982Y-108940366D01*
X101183982Y-108940366D02*
X101150649Y-108873700D01*
X101150649Y-108873700D02*
X101117316Y-108840366D01*
X101117316Y-108840366D02*
X101050649Y-108807033D01*
X101050649Y-108807033D02*
X100883982Y-108807033D01*
X100883982Y-108807033D02*
X100783982Y-108840366D01*
X100583982Y-108807033D02*
X100183982Y-108807033D01*
X100383982Y-109507033D02*
X100383982Y-108807033D01*
D12*
X81006109Y-104549836D02*
X80506109Y-104549836D01*
X80506109Y-104549836D02*
X81006109Y-104835550D01*
X81006109Y-104835550D02*
X80506109Y-104835550D01*
X80982300Y-105049837D02*
X81006109Y-105121265D01*
X81006109Y-105121265D02*
X81006109Y-105240313D01*
X81006109Y-105240313D02*
X80982300Y-105287932D01*
X80982300Y-105287932D02*
X80958490Y-105311741D01*
X80958490Y-105311741D02*
X80910871Y-105335551D01*
X80910871Y-105335551D02*
X80863252Y-105335551D01*
X80863252Y-105335551D02*
X80815633Y-105311741D01*
X80815633Y-105311741D02*
X80791823Y-105287932D01*
X80791823Y-105287932D02*
X80768014Y-105240313D01*
X80768014Y-105240313D02*
X80744204Y-105145075D01*
X80744204Y-105145075D02*
X80720395Y-105097456D01*
X80720395Y-105097456D02*
X80696585Y-105073646D01*
X80696585Y-105073646D02*
X80648966Y-105049837D01*
X80648966Y-105049837D02*
X80601347Y-105049837D01*
X80601347Y-105049837D02*
X80553728Y-105073646D01*
X80553728Y-105073646D02*
X80529919Y-105097456D01*
X80529919Y-105097456D02*
X80506109Y-105145075D01*
X80506109Y-105145075D02*
X80506109Y-105264122D01*
X80506109Y-105264122D02*
X80529919Y-105335551D01*
X80982300Y-105526027D02*
X81006109Y-105597455D01*
X81006109Y-105597455D02*
X81006109Y-105716503D01*
X81006109Y-105716503D02*
X80982300Y-105764122D01*
X80982300Y-105764122D02*
X80958490Y-105787931D01*
X80958490Y-105787931D02*
X80910871Y-105811741D01*
X80910871Y-105811741D02*
X80863252Y-105811741D01*
X80863252Y-105811741D02*
X80815633Y-105787931D01*
X80815633Y-105787931D02*
X80791823Y-105764122D01*
X80791823Y-105764122D02*
X80768014Y-105716503D01*
X80768014Y-105716503D02*
X80744204Y-105621265D01*
X80744204Y-105621265D02*
X80720395Y-105573646D01*
X80720395Y-105573646D02*
X80696585Y-105549836D01*
X80696585Y-105549836D02*
X80648966Y-105526027D01*
X80648966Y-105526027D02*
X80601347Y-105526027D01*
X80601347Y-105526027D02*
X80553728Y-105549836D01*
X80553728Y-105549836D02*
X80529919Y-105573646D01*
X80529919Y-105573646D02*
X80506109Y-105621265D01*
X80506109Y-105621265D02*
X80506109Y-105740312D01*
X80506109Y-105740312D02*
X80529919Y-105811741D01*
D10*
X100749999Y-153235742D02*
X101149999Y-152664314D01*
X101435713Y-153235742D02*
X101435713Y-152035742D01*
X101435713Y-152035742D02*
X100978570Y-152035742D01*
X100978570Y-152035742D02*
X100864285Y-152092885D01*
X100864285Y-152092885D02*
X100807142Y-152150028D01*
X100807142Y-152150028D02*
X100749999Y-152264314D01*
X100749999Y-152264314D02*
X100749999Y-152435742D01*
X100749999Y-152435742D02*
X100807142Y-152550028D01*
X100807142Y-152550028D02*
X100864285Y-152607171D01*
X100864285Y-152607171D02*
X100978570Y-152664314D01*
X100978570Y-152664314D02*
X101435713Y-152664314D01*
X99721428Y-153235742D02*
X99721428Y-152607171D01*
X99721428Y-152607171D02*
X99778570Y-152492885D01*
X99778570Y-152492885D02*
X99892856Y-152435742D01*
X99892856Y-152435742D02*
X100121428Y-152435742D01*
X100121428Y-152435742D02*
X100235713Y-152492885D01*
X99721428Y-153178600D02*
X99835713Y-153235742D01*
X99835713Y-153235742D02*
X100121428Y-153235742D01*
X100121428Y-153235742D02*
X100235713Y-153178600D01*
X100235713Y-153178600D02*
X100292856Y-153064314D01*
X100292856Y-153064314D02*
X100292856Y-152950028D01*
X100292856Y-152950028D02*
X100235713Y-152835742D01*
X100235713Y-152835742D02*
X100121428Y-152778600D01*
X100121428Y-152778600D02*
X99835713Y-152778600D01*
X99835713Y-152778600D02*
X99721428Y-152721457D01*
X99207142Y-153178600D02*
X99092856Y-153235742D01*
X99092856Y-153235742D02*
X98864285Y-153235742D01*
X98864285Y-153235742D02*
X98749999Y-153178600D01*
X98749999Y-153178600D02*
X98692856Y-153064314D01*
X98692856Y-153064314D02*
X98692856Y-153007171D01*
X98692856Y-153007171D02*
X98749999Y-152892885D01*
X98749999Y-152892885D02*
X98864285Y-152835742D01*
X98864285Y-152835742D02*
X99035714Y-152835742D01*
X99035714Y-152835742D02*
X99149999Y-152778600D01*
X99149999Y-152778600D02*
X99207142Y-152664314D01*
X99207142Y-152664314D02*
X99207142Y-152607171D01*
X99207142Y-152607171D02*
X99149999Y-152492885D01*
X99149999Y-152492885D02*
X99035714Y-152435742D01*
X99035714Y-152435742D02*
X98864285Y-152435742D01*
X98864285Y-152435742D02*
X98749999Y-152492885D01*
X98178570Y-152435742D02*
X98178570Y-153635742D01*
X98178570Y-152492885D02*
X98064285Y-152435742D01*
X98064285Y-152435742D02*
X97835713Y-152435742D01*
X97835713Y-152435742D02*
X97721427Y-152492885D01*
X97721427Y-152492885D02*
X97664285Y-152550028D01*
X97664285Y-152550028D02*
X97607142Y-152664314D01*
X97607142Y-152664314D02*
X97607142Y-153007171D01*
X97607142Y-153007171D02*
X97664285Y-153121457D01*
X97664285Y-153121457D02*
X97721427Y-153178600D01*
X97721427Y-153178600D02*
X97835713Y-153235742D01*
X97835713Y-153235742D02*
X98064285Y-153235742D01*
X98064285Y-153235742D02*
X98178570Y-153178600D01*
X97092856Y-153235742D02*
X97092856Y-152035742D01*
X97092856Y-152492885D02*
X96978571Y-152435742D01*
X96978571Y-152435742D02*
X96749999Y-152435742D01*
X96749999Y-152435742D02*
X96635713Y-152492885D01*
X96635713Y-152492885D02*
X96578571Y-152550028D01*
X96578571Y-152550028D02*
X96521428Y-152664314D01*
X96521428Y-152664314D02*
X96521428Y-153007171D01*
X96521428Y-153007171D02*
X96578571Y-153121457D01*
X96578571Y-153121457D02*
X96635713Y-153178600D01*
X96635713Y-153178600D02*
X96749999Y-153235742D01*
X96749999Y-153235742D02*
X96978571Y-153235742D01*
X96978571Y-153235742D02*
X97092856Y-153178600D01*
X95549999Y-153178600D02*
X95664285Y-153235742D01*
X95664285Y-153235742D02*
X95892857Y-153235742D01*
X95892857Y-153235742D02*
X96007142Y-153178600D01*
X96007142Y-153178600D02*
X96064285Y-153064314D01*
X96064285Y-153064314D02*
X96064285Y-152607171D01*
X96064285Y-152607171D02*
X96007142Y-152492885D01*
X96007142Y-152492885D02*
X95892857Y-152435742D01*
X95892857Y-152435742D02*
X95664285Y-152435742D01*
X95664285Y-152435742D02*
X95549999Y-152492885D01*
X95549999Y-152492885D02*
X95492857Y-152607171D01*
X95492857Y-152607171D02*
X95492857Y-152721457D01*
X95492857Y-152721457D02*
X96064285Y-152835742D01*
X94978571Y-153235742D02*
X94978571Y-152435742D01*
X94978571Y-152664314D02*
X94921428Y-152550028D01*
X94921428Y-152550028D02*
X94864286Y-152492885D01*
X94864286Y-152492885D02*
X94750000Y-152435742D01*
X94750000Y-152435742D02*
X94635714Y-152435742D01*
X94235714Y-153235742D02*
X94235714Y-152435742D01*
X94235714Y-152664314D02*
X94178571Y-152550028D01*
X94178571Y-152550028D02*
X94121429Y-152492885D01*
X94121429Y-152492885D02*
X94007143Y-152435742D01*
X94007143Y-152435742D02*
X93892857Y-152435742D01*
X93607143Y-152435742D02*
X93321429Y-153235742D01*
X93035714Y-152435742D02*
X93321429Y-153235742D01*
X93321429Y-153235742D02*
X93435714Y-153521457D01*
X93435714Y-153521457D02*
X93492857Y-153578600D01*
X93492857Y-153578600D02*
X93607143Y-153635742D01*
X91664285Y-153235742D02*
X91664285Y-152035742D01*
X91664285Y-152035742D02*
X91207142Y-152035742D01*
X91207142Y-152035742D02*
X91092857Y-152092885D01*
X91092857Y-152092885D02*
X91035714Y-152150028D01*
X91035714Y-152150028D02*
X90978571Y-152264314D01*
X90978571Y-152264314D02*
X90978571Y-152435742D01*
X90978571Y-152435742D02*
X91035714Y-152550028D01*
X91035714Y-152550028D02*
X91092857Y-152607171D01*
X91092857Y-152607171D02*
X91207142Y-152664314D01*
X91207142Y-152664314D02*
X91664285Y-152664314D01*
X90464285Y-153235742D02*
X90464285Y-152435742D01*
X90464285Y-152035742D02*
X90521428Y-152092885D01*
X90521428Y-152092885D02*
X90464285Y-152150028D01*
X90464285Y-152150028D02*
X90407142Y-152092885D01*
X90407142Y-152092885D02*
X90464285Y-152035742D01*
X90464285Y-152035742D02*
X90464285Y-152150028D01*
D11*
X102298316Y-106775033D02*
X101864982Y-106775033D01*
X101864982Y-106775033D02*
X102098316Y-107041700D01*
X102098316Y-107041700D02*
X101998316Y-107041700D01*
X101998316Y-107041700D02*
X101931649Y-107075033D01*
X101931649Y-107075033D02*
X101898316Y-107108366D01*
X101898316Y-107108366D02*
X101864982Y-107175033D01*
X101864982Y-107175033D02*
X101864982Y-107341700D01*
X101864982Y-107341700D02*
X101898316Y-107408366D01*
X101898316Y-107408366D02*
X101931649Y-107441700D01*
X101931649Y-107441700D02*
X101998316Y-107475033D01*
X101998316Y-107475033D02*
X102198316Y-107475033D01*
X102198316Y-107475033D02*
X102264982Y-107441700D01*
X102264982Y-107441700D02*
X102298316Y-107408366D01*
X101531649Y-107441700D02*
X101531649Y-107475033D01*
X101531649Y-107475033D02*
X101564982Y-107541700D01*
X101564982Y-107541700D02*
X101598315Y-107575033D01*
X101298316Y-106775033D02*
X100864982Y-106775033D01*
X100864982Y-106775033D02*
X101098316Y-107041700D01*
X101098316Y-107041700D02*
X100998316Y-107041700D01*
X100998316Y-107041700D02*
X100931649Y-107075033D01*
X100931649Y-107075033D02*
X100898316Y-107108366D01*
X100898316Y-107108366D02*
X100864982Y-107175033D01*
X100864982Y-107175033D02*
X100864982Y-107341700D01*
X100864982Y-107341700D02*
X100898316Y-107408366D01*
X100898316Y-107408366D02*
X100931649Y-107441700D01*
X100931649Y-107441700D02*
X100998316Y-107475033D01*
X100998316Y-107475033D02*
X101198316Y-107475033D01*
X101198316Y-107475033D02*
X101264982Y-107441700D01*
X101264982Y-107441700D02*
X101298316Y-107408366D01*
X100664982Y-106775033D02*
X100431649Y-107475033D01*
X100431649Y-107475033D02*
X100198315Y-106775033D01*
X106498966Y-109574982D02*
X106498966Y-109974982D01*
X106498966Y-109774982D02*
X107198966Y-109774982D01*
X107198966Y-109774982D02*
X107098966Y-109841649D01*
X107098966Y-109841649D02*
X107032300Y-109908316D01*
X107032300Y-109908316D02*
X106998966Y-109974982D01*
X107198966Y-109141649D02*
X107198966Y-109074982D01*
X107198966Y-109074982D02*
X107165633Y-109008315D01*
X107165633Y-109008315D02*
X107132300Y-108974982D01*
X107132300Y-108974982D02*
X107065633Y-108941649D01*
X107065633Y-108941649D02*
X106932300Y-108908315D01*
X106932300Y-108908315D02*
X106765633Y-108908315D01*
X106765633Y-108908315D02*
X106632300Y-108941649D01*
X106632300Y-108941649D02*
X106565633Y-108974982D01*
X106565633Y-108974982D02*
X106532300Y-109008315D01*
X106532300Y-109008315D02*
X106498966Y-109074982D01*
X106498966Y-109074982D02*
X106498966Y-109141649D01*
X106498966Y-109141649D02*
X106532300Y-109208315D01*
X106532300Y-109208315D02*
X106565633Y-109241649D01*
X106565633Y-109241649D02*
X106632300Y-109274982D01*
X106632300Y-109274982D02*
X106765633Y-109308315D01*
X106765633Y-109308315D02*
X106932300Y-109308315D01*
X106932300Y-109308315D02*
X107065633Y-109274982D01*
X107065633Y-109274982D02*
X107132300Y-109241649D01*
X107132300Y-109241649D02*
X107165633Y-109208315D01*
X107165633Y-109208315D02*
X107198966Y-109141649D01*
X107198966Y-108474982D02*
X107198966Y-108408315D01*
X107198966Y-108408315D02*
X107165633Y-108341648D01*
X107165633Y-108341648D02*
X107132300Y-108308315D01*
X107132300Y-108308315D02*
X107065633Y-108274982D01*
X107065633Y-108274982D02*
X106932300Y-108241648D01*
X106932300Y-108241648D02*
X106765633Y-108241648D01*
X106765633Y-108241648D02*
X106632300Y-108274982D01*
X106632300Y-108274982D02*
X106565633Y-108308315D01*
X106565633Y-108308315D02*
X106532300Y-108341648D01*
X106532300Y-108341648D02*
X106498966Y-108408315D01*
X106498966Y-108408315D02*
X106498966Y-108474982D01*
X106498966Y-108474982D02*
X106532300Y-108541648D01*
X106532300Y-108541648D02*
X106565633Y-108574982D01*
X106565633Y-108574982D02*
X106632300Y-108608315D01*
X106632300Y-108608315D02*
X106765633Y-108641648D01*
X106765633Y-108641648D02*
X106932300Y-108641648D01*
X106932300Y-108641648D02*
X107065633Y-108608315D01*
X107065633Y-108608315D02*
X107132300Y-108574982D01*
X107132300Y-108574982D02*
X107165633Y-108541648D01*
X107165633Y-108541648D02*
X107198966Y-108474982D01*
X106965633Y-107941648D02*
X106498966Y-107941648D01*
X106898966Y-107941648D02*
X106932300Y-107908315D01*
X106932300Y-107908315D02*
X106965633Y-107841648D01*
X106965633Y-107841648D02*
X106965633Y-107741648D01*
X106965633Y-107741648D02*
X106932300Y-107674981D01*
X106932300Y-107674981D02*
X106865633Y-107641648D01*
X106865633Y-107641648D02*
X106498966Y-107641648D01*
X106865633Y-107074982D02*
X106865633Y-107308315D01*
X106498966Y-107308315D02*
X107198966Y-107308315D01*
X107198966Y-107308315D02*
X107198966Y-106974982D01*
X102358649Y-111539033D02*
X102358649Y-110839033D01*
X102358649Y-110839033D02*
X102191982Y-110839033D01*
X102191982Y-110839033D02*
X102091982Y-110872366D01*
X102091982Y-110872366D02*
X102025316Y-110939033D01*
X102025316Y-110939033D02*
X101991982Y-111005700D01*
X101991982Y-111005700D02*
X101958649Y-111139033D01*
X101958649Y-111139033D02*
X101958649Y-111239033D01*
X101958649Y-111239033D02*
X101991982Y-111372366D01*
X101991982Y-111372366D02*
X102025316Y-111439033D01*
X102025316Y-111439033D02*
X102091982Y-111505700D01*
X102091982Y-111505700D02*
X102191982Y-111539033D01*
X102191982Y-111539033D02*
X102358649Y-111539033D01*
X101658649Y-111539033D02*
X101658649Y-110839033D01*
X101191983Y-110839033D02*
X101058649Y-110839033D01*
X101058649Y-110839033D02*
X100991983Y-110872366D01*
X100991983Y-110872366D02*
X100925316Y-110939033D01*
X100925316Y-110939033D02*
X100891983Y-111072366D01*
X100891983Y-111072366D02*
X100891983Y-111305700D01*
X100891983Y-111305700D02*
X100925316Y-111439033D01*
X100925316Y-111439033D02*
X100991983Y-111505700D01*
X100991983Y-111505700D02*
X101058649Y-111539033D01*
X101058649Y-111539033D02*
X101191983Y-111539033D01*
X101191983Y-111539033D02*
X101258649Y-111505700D01*
X101258649Y-111505700D02*
X101325316Y-111439033D01*
X101325316Y-111439033D02*
X101358649Y-111305700D01*
X101358649Y-111305700D02*
X101358649Y-111072366D01*
X101358649Y-111072366D02*
X101325316Y-110939033D01*
X101325316Y-110939033D02*
X101258649Y-110872366D01*
X101258649Y-110872366D02*
X101191983Y-110839033D01*
X100458650Y-110839033D02*
X100391983Y-110839033D01*
X100391983Y-110839033D02*
X100325316Y-110872366D01*
X100325316Y-110872366D02*
X100291983Y-110905700D01*
X100291983Y-110905700D02*
X100258650Y-110972366D01*
X100258650Y-110972366D02*
X100225316Y-111105700D01*
X100225316Y-111105700D02*
X100225316Y-111272366D01*
X100225316Y-111272366D02*
X100258650Y-111405700D01*
X100258650Y-111405700D02*
X100291983Y-111472366D01*
X100291983Y-111472366D02*
X100325316Y-111505700D01*
X100325316Y-111505700D02*
X100391983Y-111539033D01*
X100391983Y-111539033D02*
X100458650Y-111539033D01*
X100458650Y-111539033D02*
X100525316Y-111505700D01*
X100525316Y-111505700D02*
X100558650Y-111472366D01*
X100558650Y-111472366D02*
X100591983Y-111405700D01*
X100591983Y-111405700D02*
X100625316Y-111272366D01*
X100625316Y-111272366D02*
X100625316Y-111105700D01*
X100625316Y-111105700D02*
X100591983Y-110972366D01*
X100591983Y-110972366D02*
X100558650Y-110905700D01*
X100558650Y-110905700D02*
X100525316Y-110872366D01*
X100525316Y-110872366D02*
X100458650Y-110839033D01*
X101949999Y-103221033D02*
X101616666Y-103221033D01*
X102016666Y-103421033D02*
X101783333Y-102721033D01*
X101783333Y-102721033D02*
X101549999Y-103421033D01*
X101316666Y-103421033D02*
X101316666Y-102721033D01*
X101316666Y-102721033D02*
X100916666Y-103421033D01*
X100916666Y-103421033D02*
X100916666Y-102721033D01*
X100683333Y-102721033D02*
X100283333Y-102721033D01*
X100483333Y-103421033D02*
X100483333Y-102721033D01*
D10*
X89201476Y-100753219D02*
X89534809Y-100277028D01*
X89772904Y-100753219D02*
X89772904Y-99753219D01*
X89772904Y-99753219D02*
X89391952Y-99753219D01*
X89391952Y-99753219D02*
X89296714Y-99800838D01*
X89296714Y-99800838D02*
X89249095Y-99848457D01*
X89249095Y-99848457D02*
X89201476Y-99943695D01*
X89201476Y-99943695D02*
X89201476Y-100086552D01*
X89201476Y-100086552D02*
X89249095Y-100181790D01*
X89249095Y-100181790D02*
X89296714Y-100229409D01*
X89296714Y-100229409D02*
X89391952Y-100277028D01*
X89391952Y-100277028D02*
X89772904Y-100277028D01*
X88820523Y-100467504D02*
X88344333Y-100467504D01*
X88915761Y-100753219D02*
X88582428Y-99753219D01*
X88582428Y-99753219D02*
X88249095Y-100753219D01*
X87915761Y-100372266D02*
X87153857Y-100372266D01*
X86487190Y-99753219D02*
X86391952Y-99753219D01*
X86391952Y-99753219D02*
X86296714Y-99800838D01*
X86296714Y-99800838D02*
X86249095Y-99848457D01*
X86249095Y-99848457D02*
X86201476Y-99943695D01*
X86201476Y-99943695D02*
X86153857Y-100134171D01*
X86153857Y-100134171D02*
X86153857Y-100372266D01*
X86153857Y-100372266D02*
X86201476Y-100562742D01*
X86201476Y-100562742D02*
X86249095Y-100657980D01*
X86249095Y-100657980D02*
X86296714Y-100705600D01*
X86296714Y-100705600D02*
X86391952Y-100753219D01*
X86391952Y-100753219D02*
X86487190Y-100753219D01*
X86487190Y-100753219D02*
X86582428Y-100705600D01*
X86582428Y-100705600D02*
X86630047Y-100657980D01*
X86630047Y-100657980D02*
X86677666Y-100562742D01*
X86677666Y-100562742D02*
X86725285Y-100372266D01*
X86725285Y-100372266D02*
X86725285Y-100134171D01*
X86725285Y-100134171D02*
X86677666Y-99943695D01*
X86677666Y-99943695D02*
X86630047Y-99848457D01*
X86630047Y-99848457D02*
X86582428Y-99800838D01*
X86582428Y-99800838D02*
X86487190Y-99753219D01*
X85201476Y-100753219D02*
X85772904Y-100753219D01*
X85487190Y-100753219D02*
X85487190Y-99753219D01*
X85487190Y-99753219D02*
X85582428Y-99896076D01*
X85582428Y-99896076D02*
X85677666Y-99991314D01*
X85677666Y-99991314D02*
X85772904Y-100038933D01*
X130414285Y-97775299D02*
X130985713Y-97775299D01*
X130699999Y-97775299D02*
X130699999Y-96775299D01*
X130699999Y-96775299D02*
X130795237Y-96918156D01*
X130795237Y-96918156D02*
X130890475Y-97013394D01*
X130890475Y-97013394D02*
X130985713Y-97061013D01*
D11*
X91461573Y-108596701D02*
X91461573Y-109406224D01*
X91461573Y-109406224D02*
X91413954Y-109501462D01*
X91413954Y-109501462D02*
X91366335Y-109549082D01*
X91366335Y-109549082D02*
X91271097Y-109596701D01*
X91271097Y-109596701D02*
X91080621Y-109596701D01*
X91080621Y-109596701D02*
X90985383Y-109549082D01*
X90985383Y-109549082D02*
X90937764Y-109501462D01*
X90937764Y-109501462D02*
X90890145Y-109406224D01*
X90890145Y-109406224D02*
X90890145Y-108596701D01*
X89890145Y-109596701D02*
X90461573Y-109596701D01*
X90175859Y-109596701D02*
X90175859Y-108596701D01*
X90175859Y-108596701D02*
X90271097Y-108739558D01*
X90271097Y-108739558D02*
X90366335Y-108834796D01*
X90366335Y-108834796D02*
X90461573Y-108882415D01*
X105406666Y-109040366D02*
X105439999Y-109073700D01*
X105439999Y-109073700D02*
X105539999Y-109107033D01*
X105539999Y-109107033D02*
X105606666Y-109107033D01*
X105606666Y-109107033D02*
X105706666Y-109073700D01*
X105706666Y-109073700D02*
X105773333Y-109007033D01*
X105773333Y-109007033D02*
X105806666Y-108940366D01*
X105806666Y-108940366D02*
X105839999Y-108807033D01*
X105839999Y-108807033D02*
X105839999Y-108707033D01*
X105839999Y-108707033D02*
X105806666Y-108573700D01*
X105806666Y-108573700D02*
X105773333Y-108507033D01*
X105773333Y-108507033D02*
X105706666Y-108440366D01*
X105706666Y-108440366D02*
X105606666Y-108407033D01*
X105606666Y-108407033D02*
X105539999Y-108407033D01*
X105539999Y-108407033D02*
X105439999Y-108440366D01*
X105439999Y-108440366D02*
X105406666Y-108473700D01*
X104739999Y-109107033D02*
X105139999Y-109107033D01*
X104939999Y-109107033D02*
X104939999Y-108407033D01*
X104939999Y-108407033D02*
X105006666Y-108507033D01*
X105006666Y-108507033D02*
X105073333Y-108573700D01*
X105073333Y-108573700D02*
X105139999Y-108607033D01*
D13*
X134557680Y-149163080D02*
X129357680Y-149163080D01*
X134557680Y-98243080D02*
X134557680Y-149163080D01*
X134557680Y-98243080D02*
X131957680Y-98243080D01*
X131957680Y-100843080D02*
X129357680Y-100843080D01*
X131957680Y-98243080D02*
X131957680Y-100843080D01*
X130687680Y-98243080D02*
X129357680Y-98243080D01*
X129357680Y-100843080D02*
X129357680Y-149163080D01*
X129357680Y-98243080D02*
X129357680Y-99573080D01*
D11*
X98949669Y-118891882D02*
X82449669Y-118891882D01*
X98949669Y-118141882D02*
X98949669Y-118891882D01*
X98949669Y-102141882D02*
X98949669Y-101391882D01*
X98949669Y-101391882D02*
X82449669Y-101391882D01*
X82449669Y-118891882D02*
X82449669Y-118141882D01*
X82449669Y-101391882D02*
X82449669Y-102141882D01*
D13*
X102905000Y-109052252D02*
X102905000Y-108529748D01*
X104375000Y-109052252D02*
X104375000Y-108529748D01*
%LPC*%
D14*
X100450000Y-140941000D03*
D15*
X100450000Y-148561000D03*
D14*
X107450000Y-140941000D03*
D15*
X107450000Y-148561000D03*
D16*
X114450000Y-133191000D03*
X120950000Y-133191000D03*
X114450000Y-137691000D03*
X120950000Y-137691000D03*
X122950000Y-124191000D03*
X122950000Y-117691000D03*
X127450000Y-124191000D03*
X127450000Y-117691000D03*
D17*
X95950000Y-96291000D03*
D18*
X93410000Y-98831000D03*
X98490000Y-98831000D03*
X93410000Y-93751000D03*
X98490000Y-93751000D03*
D16*
X93950000Y-133191000D03*
X100450000Y-133191000D03*
X93950000Y-137691000D03*
X100450000Y-137691000D03*
X122950000Y-114291000D03*
X122950000Y-107791000D03*
X127450000Y-114291000D03*
X127450000Y-107791000D03*
X104160000Y-133191000D03*
X110660000Y-133191000D03*
X104160000Y-137691000D03*
X110660000Y-137691000D03*
D14*
X103950000Y-140941000D03*
D15*
X103950000Y-148561000D03*
D14*
X110950000Y-140941000D03*
D15*
X110950000Y-148561000D03*
D14*
X114450000Y-140941000D03*
D15*
X114450000Y-148561000D03*
D19*
X83450000Y-130071000D03*
D20*
X83450000Y-132611000D03*
X83450000Y-135151000D03*
X83450000Y-137691000D03*
D14*
X87450000Y-148561000D03*
D15*
X87450000Y-140941000D03*
D14*
X90950000Y-148561000D03*
D15*
X90950000Y-140941000D03*
D19*
X103640000Y-104812857D03*
D20*
X106180000Y-104812857D03*
X108720000Y-104812857D03*
X111260000Y-104812857D03*
D16*
X95950000Y-128312857D03*
X118950000Y-128312857D03*
D21*
X130687680Y-99573080D03*
D20*
X133227680Y-99573080D03*
X130687680Y-102113080D03*
X133227680Y-102113080D03*
X130687680Y-104653080D03*
X133227680Y-104653080D03*
X130687680Y-107193080D03*
X133227680Y-107193080D03*
X130687680Y-109733080D03*
X133227680Y-109733080D03*
X130687680Y-112273080D03*
X133227680Y-112273080D03*
X130687680Y-114813080D03*
X133227680Y-114813080D03*
X130687680Y-117353080D03*
X133227680Y-117353080D03*
X130687680Y-119893080D03*
X133227680Y-119893080D03*
X130687680Y-122433080D03*
X133227680Y-122433080D03*
X130687680Y-124973080D03*
X133227680Y-124973080D03*
X130687680Y-127513080D03*
X133227680Y-127513080D03*
X130687680Y-130053080D03*
X133227680Y-130053080D03*
X130687680Y-132593080D03*
X133227680Y-132593080D03*
X130687680Y-135133080D03*
X133227680Y-135133080D03*
X130687680Y-137673080D03*
X133227680Y-137673080D03*
X130687680Y-140213080D03*
X133227680Y-140213080D03*
X130687680Y-142753080D03*
X133227680Y-142753080D03*
X130687680Y-145293080D03*
X133227680Y-145293080D03*
X130687680Y-147833080D03*
X133227680Y-147833080D03*
D22*
X98699669Y-103141882D03*
X98699669Y-105141882D03*
X98699669Y-107141882D03*
X98699669Y-109141882D03*
X98699669Y-111141882D03*
X98699669Y-113141882D03*
X98699669Y-115141882D03*
X98699669Y-117141882D03*
X82699669Y-117141882D03*
X82699669Y-115141882D03*
X82699669Y-113141882D03*
X82699669Y-111141882D03*
X82699669Y-109141882D03*
X82699669Y-107141882D03*
X82699669Y-105141882D03*
X82699669Y-103141882D03*
D23*
X103640000Y-109741000D03*
X103640000Y-107841000D03*
%LPD*%
M02*
