G04 #@! TF.GenerationSoftware,KiCad,Pcbnew,7.0.10*
G04 #@! TF.CreationDate,2024-02-01T09:42:09+01:00*
G04 #@! TF.ProjectId,LoRa-APRS-Gateway-RPI-RA01,4c6f5261-2d41-4505-9253-2d4761746577,rev?*
G04 #@! TF.SameCoordinates,Original*
G04 #@! TF.FileFunction,Copper,L2,Bot*
G04 #@! TF.FilePolarity,Positive*
%FSLAX46Y46*%
G04 Gerber Fmt 4.6, Leading zero omitted, Abs format (unit mm)*
G04 Created by KiCad (PCBNEW 7.0.10) date 2024-02-01 09:42:09*
%MOMM*%
%LPD*%
G01*
G04 APERTURE LIST*
G04 Aperture macros list*
%AMRoundRect*
0 Rectangle with rounded corners*
0 $1 Rounding radius*
0 $2 $3 $4 $5 $6 $7 $8 $9 X,Y pos of 4 corners*
0 Add a 4 corners polygon primitive as box body*
4,1,4,$2,$3,$4,$5,$6,$7,$8,$9,$2,$3,0*
0 Add four circle primitives for the rounded corners*
1,1,$1+$1,$2,$3*
1,1,$1+$1,$4,$5*
1,1,$1+$1,$6,$7*
1,1,$1+$1,$8,$9*
0 Add four rect primitives between the rounded corners*
20,1,$1+$1,$2,$3,$4,$5,0*
20,1,$1+$1,$4,$5,$6,$7,0*
20,1,$1+$1,$6,$7,$8,$9,0*
20,1,$1+$1,$8,$9,$2,$3,0*%
G04 Aperture macros list end*
G04 #@! TA.AperFunction,ComponentPad*
%ADD10C,1.600000*%
G04 #@! TD*
G04 #@! TA.AperFunction,ComponentPad*
%ADD11O,1.600000X1.600000*%
G04 #@! TD*
G04 #@! TA.AperFunction,ComponentPad*
%ADD12C,2.000000*%
G04 #@! TD*
G04 #@! TA.AperFunction,ComponentPad*
%ADD13C,2.050000*%
G04 #@! TD*
G04 #@! TA.AperFunction,ComponentPad*
%ADD14C,2.250000*%
G04 #@! TD*
G04 #@! TA.AperFunction,ComponentPad*
%ADD15R,1.700000X1.700000*%
G04 #@! TD*
G04 #@! TA.AperFunction,ComponentPad*
%ADD16O,1.700000X1.700000*%
G04 #@! TD*
G04 #@! TA.AperFunction,SMDPad,CuDef*
%ADD17R,2.000000X1.500000*%
G04 #@! TD*
G04 #@! TA.AperFunction,SMDPad,CuDef*
%ADD18RoundRect,0.250000X0.475000X-0.250000X0.475000X0.250000X-0.475000X0.250000X-0.475000X-0.250000X0*%
G04 #@! TD*
G04 #@! TA.AperFunction,ViaPad*
%ADD19C,0.800000*%
G04 #@! TD*
G04 #@! TA.AperFunction,Conductor*
%ADD20C,0.250000*%
G04 #@! TD*
G04 #@! TA.AperFunction,Conductor*
%ADD21C,0.500000*%
G04 #@! TD*
G04 APERTURE END LIST*
D10*
X100450000Y-140941000D03*
D11*
X100450000Y-148561000D03*
D10*
X107450000Y-140941000D03*
D11*
X107450000Y-148561000D03*
D12*
X114450000Y-133191000D03*
X120950000Y-133191000D03*
X114450000Y-137691000D03*
X120950000Y-137691000D03*
X122950000Y-124191000D03*
X122950000Y-117691000D03*
X127450000Y-124191000D03*
X127450000Y-117691000D03*
D13*
X95950000Y-96291000D03*
D14*
X93410000Y-98831000D03*
X98490000Y-98831000D03*
X93410000Y-93751000D03*
X98490000Y-93751000D03*
D12*
X93950000Y-133191000D03*
X100450000Y-133191000D03*
X93950000Y-137691000D03*
X100450000Y-137691000D03*
X122950000Y-114291000D03*
X122950000Y-107791000D03*
X127450000Y-114291000D03*
X127450000Y-107791000D03*
X104160000Y-133191000D03*
X110660000Y-133191000D03*
X104160000Y-137691000D03*
X110660000Y-137691000D03*
D10*
X103950000Y-140941000D03*
D11*
X103950000Y-148561000D03*
D10*
X110950000Y-140941000D03*
D11*
X110950000Y-148561000D03*
D10*
X114450000Y-140941000D03*
D11*
X114450000Y-148561000D03*
D15*
X83450000Y-130071000D03*
D16*
X83450000Y-132611000D03*
X83450000Y-135151000D03*
X83450000Y-137691000D03*
D10*
X87450000Y-148561000D03*
D11*
X87450000Y-140941000D03*
D10*
X90950000Y-148561000D03*
D11*
X90950000Y-140941000D03*
D15*
X103640000Y-104812857D03*
D16*
X106180000Y-104812857D03*
X108720000Y-104812857D03*
X111260000Y-104812857D03*
D12*
X95950000Y-128312857D03*
X118950000Y-128312857D03*
D15*
X130687680Y-99573080D03*
D16*
X133227680Y-99573080D03*
X130687680Y-102113080D03*
X133227680Y-102113080D03*
X130687680Y-104653080D03*
X133227680Y-104653080D03*
X130687680Y-107193080D03*
X133227680Y-107193080D03*
X130687680Y-109733080D03*
X133227680Y-109733080D03*
X130687680Y-112273080D03*
X133227680Y-112273080D03*
X130687680Y-114813080D03*
X133227680Y-114813080D03*
X130687680Y-117353080D03*
X133227680Y-117353080D03*
X130687680Y-119893080D03*
X133227680Y-119893080D03*
X130687680Y-122433080D03*
X133227680Y-122433080D03*
X130687680Y-124973080D03*
X133227680Y-124973080D03*
X130687680Y-127513080D03*
X133227680Y-127513080D03*
X130687680Y-130053080D03*
X133227680Y-130053080D03*
X130687680Y-132593080D03*
X133227680Y-132593080D03*
X130687680Y-135133080D03*
X133227680Y-135133080D03*
X130687680Y-137673080D03*
X133227680Y-137673080D03*
X130687680Y-140213080D03*
X133227680Y-140213080D03*
X130687680Y-142753080D03*
X133227680Y-142753080D03*
X130687680Y-145293080D03*
X133227680Y-145293080D03*
X130687680Y-147833080D03*
X133227680Y-147833080D03*
D17*
X98699669Y-103141882D03*
X98699669Y-105141882D03*
X98699669Y-107141882D03*
X98699669Y-109141882D03*
X98699669Y-111141882D03*
X98699669Y-113141882D03*
X98699669Y-115141882D03*
X98699669Y-117141882D03*
X82699669Y-117141882D03*
X82699669Y-115141882D03*
X82699669Y-113141882D03*
X82699669Y-111141882D03*
X82699669Y-109141882D03*
X82699669Y-107141882D03*
X82699669Y-105141882D03*
X82699669Y-103141882D03*
D18*
X103640000Y-109741000D03*
X103640000Y-107841000D03*
D19*
X110950000Y-142973000D03*
X113262000Y-105021000D03*
X104880000Y-102227000D03*
X109990000Y-106336857D03*
X102370000Y-130019000D03*
X104910000Y-131162000D03*
X94750000Y-119986000D03*
X93480000Y-121891000D03*
X92210000Y-124177000D03*
X96020000Y-123161000D03*
X128270000Y-141491000D03*
X124470000Y-142753080D03*
D20*
X104160000Y-140731000D02*
X103950000Y-140941000D01*
X104160000Y-137691000D02*
X104160000Y-140731000D01*
D21*
X97163000Y-142348000D02*
X97163000Y-133191000D01*
X90950000Y-148561000D02*
X97163000Y-142348000D01*
X97163000Y-133191000D02*
X100450000Y-133191000D01*
X93950000Y-133191000D02*
X97163000Y-133191000D01*
X86410000Y-137691000D02*
X87450000Y-138731000D01*
X112300471Y-102113080D02*
X111260000Y-103153551D01*
X87450000Y-138731000D02*
X87450000Y-140941000D01*
X130687680Y-102113080D02*
X112300471Y-102113080D01*
X83450000Y-137691000D02*
X86410000Y-137691000D01*
X111260000Y-103153551D02*
X111260000Y-104812857D01*
X83450000Y-135151000D02*
X89450000Y-135151000D01*
X90950000Y-136651000D02*
X90950000Y-140941000D01*
X109740000Y-107941000D02*
X108720000Y-106921000D01*
X119412471Y-104653080D02*
X116124551Y-107941000D01*
X89450000Y-135151000D02*
X90950000Y-136651000D01*
X108720000Y-106921000D02*
X108720000Y-104812857D01*
X130687680Y-104653080D02*
X119412471Y-104653080D01*
X116124551Y-107941000D02*
X109740000Y-107941000D01*
D20*
X99099669Y-111141882D02*
X102370000Y-114412213D01*
X102370000Y-114412213D02*
X102370000Y-129892000D01*
X99099669Y-109141882D02*
X104910000Y-114952213D01*
X104910000Y-114952213D02*
X104910000Y-131162000D01*
X82699669Y-107141882D02*
X91811882Y-107141882D01*
X91811882Y-107141882D02*
X94750000Y-110080000D01*
X94750000Y-110080000D02*
X94750000Y-119986000D01*
X91525882Y-109141882D02*
X93480000Y-111096000D01*
X93480000Y-111096000D02*
X93480000Y-121891000D01*
X91525882Y-109141882D02*
X82699669Y-109141882D01*
X92210000Y-124177000D02*
X92210000Y-112112000D01*
X91239882Y-111141882D02*
X92210000Y-112112000D01*
X91239882Y-111141882D02*
X82699669Y-111141882D01*
X82699669Y-105141882D02*
X93240882Y-105141882D01*
X96020000Y-107921000D02*
X96020000Y-123161000D01*
X93240882Y-105141882D02*
X96020000Y-107921000D01*
X112650000Y-139491000D02*
X114450000Y-137691000D01*
X112572000Y-146571000D02*
X131965600Y-146571000D01*
X114450000Y-137691000D02*
X120950000Y-137691000D01*
X107450000Y-141449000D02*
X112572000Y-146571000D01*
X107450000Y-140941000D02*
X108900000Y-139491000D01*
X108900000Y-139491000D02*
X112650000Y-139491000D01*
X131965600Y-146571000D02*
X133227680Y-147833080D01*
X131610000Y-141491000D02*
X128270000Y-141491000D01*
X104160000Y-137691000D02*
X110660000Y-137691000D01*
X131960000Y-141841000D02*
X131610000Y-141491000D01*
X131960000Y-144025400D02*
X131960000Y-141841000D01*
X133227680Y-145293080D02*
X131960000Y-144025400D01*
X100450000Y-137691000D02*
X100450000Y-140941000D01*
X124470000Y-142753080D02*
X124470000Y-117271000D01*
X124470000Y-142753080D02*
X116262080Y-142753080D01*
X116262080Y-142753080D02*
X114450000Y-140941000D01*
X124470000Y-117271000D02*
X127450000Y-114291000D01*
X127450000Y-107791000D02*
X127450000Y-114291000D01*
X127450000Y-137691000D02*
X126450000Y-138691000D01*
X114760000Y-144751000D02*
X129272080Y-144751000D01*
X110950000Y-140941000D02*
X114760000Y-144751000D01*
X126450000Y-138691000D02*
X126450000Y-144693080D01*
X127450000Y-124191000D02*
X127450000Y-137691000D01*
X129814160Y-145293080D02*
X130687680Y-145293080D01*
X127450000Y-124191000D02*
X127450000Y-117691000D01*
X129272080Y-144751000D02*
X129814160Y-145293080D01*
D21*
X95950000Y-100392213D02*
X98699669Y-103141882D01*
X95950000Y-96291000D02*
X95950000Y-100392213D01*
X122950000Y-109826000D02*
X122950000Y-107791000D01*
X83450000Y-130071000D02*
X90830000Y-130071000D01*
D20*
X122865000Y-109741000D02*
X122950000Y-109826000D01*
D21*
X110660000Y-133191000D02*
X114450000Y-133191000D01*
X100450000Y-133191000D02*
X104160000Y-133191000D01*
X122450000Y-126191000D02*
X122450000Y-131691000D01*
X122950000Y-124191000D02*
X122950000Y-125691000D01*
X122950000Y-124191000D02*
X122950000Y-117691000D01*
X122950000Y-114291000D02*
X122950000Y-109826000D01*
X102158000Y-109741000D02*
X103640000Y-109741000D01*
X122950000Y-117691000D02*
X122950000Y-114291000D01*
X122950000Y-125691000D02*
X122450000Y-126191000D01*
X122450000Y-131691000D02*
X120950000Y-133191000D01*
X90830000Y-130071000D02*
X93950000Y-133191000D01*
X103640000Y-109741000D02*
X122865000Y-109741000D01*
X104160000Y-133191000D02*
X110660000Y-133191000D01*
X99558882Y-107141882D02*
X102158000Y-109741000D01*
X114450000Y-133191000D02*
X120950000Y-133191000D01*
X87450000Y-148561000D02*
X90950000Y-148561000D01*
G04 #@! TA.AperFunction,Conductor*
G36*
X109757311Y-140144502D02*
G01*
X109803804Y-140198158D01*
X109813908Y-140268432D01*
X109803385Y-140303747D01*
X109772390Y-140370216D01*
X109715717Y-140491753D01*
X109715715Y-140491759D01*
X109665039Y-140680886D01*
X109656457Y-140712913D01*
X109636502Y-140941000D01*
X109656457Y-141169087D01*
X109668924Y-141215614D01*
X109715715Y-141390240D01*
X109715717Y-141390246D01*
X109782463Y-141533383D01*
X109812477Y-141597749D01*
X109943802Y-141785300D01*
X110105700Y-141947198D01*
X110293251Y-142078523D01*
X110500757Y-142175284D01*
X110721913Y-142234543D01*
X110950000Y-142254498D01*
X111178087Y-142234543D01*
X111241541Y-142217540D01*
X111312516Y-142219228D01*
X111363247Y-142250151D01*
X114252753Y-145139657D01*
X114262720Y-145152097D01*
X114262947Y-145151910D01*
X114267999Y-145158017D01*
X114317666Y-145204657D01*
X114320510Y-145207414D01*
X114340230Y-145227134D01*
X114343416Y-145229605D01*
X114352447Y-145237318D01*
X114384678Y-145267585D01*
X114384682Y-145267588D01*
X114402430Y-145277345D01*
X114418957Y-145288201D01*
X114434960Y-145300614D01*
X114475539Y-145318174D01*
X114486187Y-145323391D01*
X114524934Y-145344692D01*
X114524936Y-145344693D01*
X114524940Y-145344695D01*
X114544562Y-145349733D01*
X114563263Y-145356135D01*
X114575814Y-145361567D01*
X114581852Y-145364180D01*
X114581853Y-145364180D01*
X114581855Y-145364181D01*
X114625530Y-145371098D01*
X114637141Y-145373502D01*
X114679970Y-145384500D01*
X114700224Y-145384500D01*
X114719934Y-145386051D01*
X114722141Y-145386400D01*
X114739943Y-145389220D01*
X114783961Y-145385058D01*
X114795819Y-145384500D01*
X128957485Y-145384500D01*
X129025606Y-145404502D01*
X129046581Y-145421405D01*
X129306917Y-145681742D01*
X129316879Y-145694176D01*
X129317106Y-145693989D01*
X129322160Y-145700098D01*
X129342981Y-145719650D01*
X129378946Y-145780862D01*
X129376109Y-145851802D01*
X129335368Y-145909946D01*
X129269660Y-145936835D01*
X129256728Y-145937500D01*
X112886594Y-145937500D01*
X112818473Y-145917498D01*
X112797499Y-145900595D01*
X108620374Y-141723469D01*
X108586348Y-141661157D01*
X108591413Y-141590341D01*
X108595262Y-141581151D01*
X108684284Y-141390243D01*
X108743543Y-141169087D01*
X108763498Y-140941000D01*
X108743543Y-140712913D01*
X108726540Y-140649457D01*
X108728229Y-140578483D01*
X108759149Y-140527753D01*
X109125500Y-140161404D01*
X109187812Y-140127379D01*
X109214595Y-140124500D01*
X109689190Y-140124500D01*
X109757311Y-140144502D01*
G37*
G04 #@! TD.AperFunction*
G04 #@! TA.AperFunction,Conductor*
G36*
X129560429Y-102891582D02*
G01*
X129597790Y-102928663D01*
X129611958Y-102950348D01*
X129737750Y-103086993D01*
X129764442Y-103115988D01*
X129819011Y-103158461D01*
X129942104Y-103254269D01*
X129975360Y-103272266D01*
X130025751Y-103322280D01*
X130041103Y-103391596D01*
X130016542Y-103458209D01*
X129975360Y-103493893D01*
X129942106Y-103511890D01*
X129942104Y-103511891D01*
X129764442Y-103650171D01*
X129611957Y-103815813D01*
X129597790Y-103837497D01*
X129543785Y-103883585D01*
X129492308Y-103894580D01*
X119476912Y-103894580D01*
X119458652Y-103893250D01*
X119434683Y-103889739D01*
X119434682Y-103889739D01*
X119394552Y-103893250D01*
X119384825Y-103894101D01*
X119373844Y-103894580D01*
X119368285Y-103894580D01*
X119337180Y-103898215D01*
X119333538Y-103898587D01*
X119258048Y-103905192D01*
X119250857Y-103906677D01*
X119250843Y-103906612D01*
X119243479Y-103908245D01*
X119243495Y-103908309D01*
X119236358Y-103910000D01*
X119165129Y-103935924D01*
X119161673Y-103937125D01*
X119089739Y-103960963D01*
X119083086Y-103964066D01*
X119083057Y-103964005D01*
X119076263Y-103967294D01*
X119076293Y-103967353D01*
X119069740Y-103970643D01*
X119006391Y-104012309D01*
X119003301Y-104014277D01*
X118938822Y-104054048D01*
X118933059Y-104058605D01*
X118933018Y-104058553D01*
X118927175Y-104063313D01*
X118927217Y-104063363D01*
X118921599Y-104068076D01*
X118869558Y-104123236D01*
X118867005Y-104125863D01*
X115847275Y-107145595D01*
X115784963Y-107179620D01*
X115758180Y-107182500D01*
X110106371Y-107182500D01*
X110038250Y-107162498D01*
X110017276Y-107145595D01*
X109515405Y-106643724D01*
X109481379Y-106581412D01*
X109478500Y-106554629D01*
X109478500Y-106005583D01*
X109498502Y-105937462D01*
X109527106Y-105906154D01*
X109643240Y-105815763D01*
X109795722Y-105650125D01*
X109884518Y-105514211D01*
X109938520Y-105468125D01*
X110008868Y-105458549D01*
X110073225Y-105488526D01*
X110095480Y-105514210D01*
X110128607Y-105564915D01*
X110184275Y-105650122D01*
X110184279Y-105650127D01*
X110252511Y-105724245D01*
X110333278Y-105811981D01*
X110336762Y-105815765D01*
X110378116Y-105847952D01*
X110514424Y-105954046D01*
X110712426Y-106061199D01*
X110712427Y-106061199D01*
X110712428Y-106061200D01*
X110817101Y-106097134D01*
X110925365Y-106134301D01*
X111147431Y-106171357D01*
X111147435Y-106171357D01*
X111372565Y-106171357D01*
X111372569Y-106171357D01*
X111594635Y-106134301D01*
X111807574Y-106061199D01*
X112005576Y-105954046D01*
X112183240Y-105815763D01*
X112335722Y-105650125D01*
X112458860Y-105461648D01*
X112549296Y-105255473D01*
X112604564Y-105037225D01*
X112623156Y-104812857D01*
X112604564Y-104588489D01*
X112587437Y-104520855D01*
X112549297Y-104370244D01*
X112549296Y-104370243D01*
X112549296Y-104370241D01*
X112458860Y-104164066D01*
X112452140Y-104153781D01*
X112335724Y-103975591D01*
X112335720Y-103975586D01*
X112264689Y-103898427D01*
X112183240Y-103809951D01*
X112183234Y-103809946D01*
X112067109Y-103719561D01*
X112025638Y-103661936D01*
X112018500Y-103620130D01*
X112018500Y-103519922D01*
X112038502Y-103451801D01*
X112055405Y-103430827D01*
X112577747Y-102908485D01*
X112640059Y-102874459D01*
X112666842Y-102871580D01*
X129492308Y-102871580D01*
X129560429Y-102891582D01*
G37*
G04 #@! TD.AperFunction*
G04 #@! TA.AperFunction,Conductor*
G36*
X135791621Y-91311502D02*
G01*
X135838114Y-91365158D01*
X135849500Y-91417500D01*
X135849500Y-155964500D01*
X135829498Y-156032621D01*
X135775842Y-156079114D01*
X135723500Y-156090500D01*
X79676500Y-156090500D01*
X79608379Y-156070498D01*
X79561886Y-156016842D01*
X79550500Y-155964500D01*
X79550500Y-137691000D01*
X82086844Y-137691000D01*
X82104696Y-137906440D01*
X82105437Y-137915375D01*
X82160702Y-138133612D01*
X82160703Y-138133613D01*
X82160704Y-138133616D01*
X82212434Y-138251549D01*
X82251141Y-138339793D01*
X82374275Y-138528265D01*
X82374279Y-138528270D01*
X82478187Y-138641142D01*
X82520241Y-138686825D01*
X82526762Y-138693908D01*
X82552021Y-138713568D01*
X82704424Y-138832189D01*
X82902426Y-138939342D01*
X82902427Y-138939342D01*
X82902428Y-138939343D01*
X82943387Y-138953404D01*
X83115365Y-139012444D01*
X83337431Y-139049500D01*
X83337435Y-139049500D01*
X83562565Y-139049500D01*
X83562569Y-139049500D01*
X83784635Y-139012444D01*
X83997574Y-138939342D01*
X84195576Y-138832189D01*
X84373240Y-138693906D01*
X84525722Y-138528268D01*
X84536565Y-138511670D01*
X84539890Y-138506583D01*
X84593895Y-138460495D01*
X84645372Y-138449500D01*
X86043629Y-138449500D01*
X86111750Y-138469502D01*
X86132724Y-138486405D01*
X86654595Y-139008276D01*
X86688621Y-139070588D01*
X86691500Y-139097371D01*
X86691500Y-139809132D01*
X86671498Y-139877253D01*
X86637772Y-139912344D01*
X86605706Y-139934797D01*
X86605697Y-139934804D01*
X86443804Y-140096697D01*
X86443799Y-140096703D01*
X86312477Y-140284250D01*
X86215717Y-140491753D01*
X86215715Y-140491759D01*
X86165039Y-140680886D01*
X86156457Y-140712913D01*
X86136502Y-140941000D01*
X86156457Y-141169087D01*
X86168924Y-141215614D01*
X86215715Y-141390240D01*
X86215717Y-141390246D01*
X86282463Y-141533383D01*
X86312477Y-141597749D01*
X86443802Y-141785300D01*
X86605700Y-141947198D01*
X86793251Y-142078523D01*
X87000757Y-142175284D01*
X87221913Y-142234543D01*
X87450000Y-142254498D01*
X87678087Y-142234543D01*
X87899243Y-142175284D01*
X88106749Y-142078523D01*
X88294300Y-141947198D01*
X88456198Y-141785300D01*
X88587523Y-141597749D01*
X88684284Y-141390243D01*
X88743543Y-141169087D01*
X88763498Y-140941000D01*
X88743543Y-140712913D01*
X88684284Y-140491757D01*
X88587523Y-140284251D01*
X88456198Y-140096700D01*
X88294300Y-139934802D01*
X88276590Y-139922401D01*
X88262228Y-139912344D01*
X88217900Y-139856887D01*
X88208500Y-139809132D01*
X88208500Y-138795435D01*
X88209831Y-138777172D01*
X88209920Y-138776562D01*
X88213341Y-138753211D01*
X88208979Y-138703351D01*
X88208500Y-138692371D01*
X88208500Y-138686825D01*
X88208500Y-138686820D01*
X88204863Y-138655712D01*
X88204492Y-138652080D01*
X88204392Y-138650933D01*
X88197887Y-138576573D01*
X88197886Y-138576569D01*
X88196403Y-138569387D01*
X88196469Y-138569373D01*
X88194839Y-138562019D01*
X88194773Y-138562035D01*
X88193079Y-138554890D01*
X88193079Y-138554887D01*
X88167122Y-138483572D01*
X88165973Y-138480264D01*
X88142114Y-138408262D01*
X88142113Y-138408260D01*
X88139014Y-138401614D01*
X88139075Y-138401585D01*
X88135788Y-138394795D01*
X88135728Y-138394826D01*
X88132433Y-138388265D01*
X88107232Y-138349950D01*
X88090776Y-138324930D01*
X88088812Y-138321846D01*
X88049032Y-138257351D01*
X88044478Y-138251592D01*
X88044531Y-138251549D01*
X88039766Y-138245700D01*
X88039715Y-138245744D01*
X88034998Y-138240122D01*
X87979826Y-138188070D01*
X87977197Y-138185516D01*
X86991908Y-137200227D01*
X86979936Y-137186375D01*
X86965469Y-137166942D01*
X86965467Y-137166940D01*
X86927129Y-137134770D01*
X86919027Y-137127345D01*
X86915106Y-137123424D01*
X86890528Y-137103989D01*
X86887691Y-137101678D01*
X86829635Y-137052964D01*
X86823506Y-137048933D01*
X86823541Y-137048878D01*
X86817187Y-137044829D01*
X86817153Y-137044886D01*
X86810906Y-137041033D01*
X86742205Y-137008996D01*
X86738909Y-137007401D01*
X86671188Y-136973391D01*
X86671186Y-136973390D01*
X86671183Y-136973389D01*
X86664289Y-136970880D01*
X86664311Y-136970817D01*
X86657189Y-136968341D01*
X86657169Y-136968404D01*
X86650211Y-136966098D01*
X86575942Y-136950762D01*
X86572367Y-136949969D01*
X86498656Y-136932500D01*
X86491367Y-136931648D01*
X86491374Y-136931580D01*
X86483877Y-136930814D01*
X86483872Y-136930881D01*
X86476559Y-136930241D01*
X86476558Y-136930241D01*
X86430539Y-136931580D01*
X86400741Y-136932447D01*
X86397077Y-136932500D01*
X84645372Y-136932500D01*
X84577251Y-136912498D01*
X84539890Y-136875417D01*
X84525723Y-136853734D01*
X84525722Y-136853732D01*
X84373240Y-136688094D01*
X84373239Y-136688093D01*
X84373237Y-136688091D01*
X84268820Y-136606820D01*
X84195576Y-136549811D01*
X84162319Y-136531813D01*
X84111929Y-136481802D01*
X84096576Y-136412485D01*
X84121136Y-136345872D01*
X84162320Y-136310186D01*
X84195576Y-136292189D01*
X84373240Y-136153906D01*
X84525722Y-135988268D01*
X84536565Y-135971670D01*
X84539890Y-135966583D01*
X84593895Y-135920495D01*
X84645372Y-135909500D01*
X89083629Y-135909500D01*
X89151750Y-135929502D01*
X89172724Y-135946405D01*
X90154595Y-136928276D01*
X90188621Y-136990588D01*
X90191500Y-137017371D01*
X90191500Y-139809132D01*
X90171498Y-139877253D01*
X90137772Y-139912344D01*
X90105706Y-139934797D01*
X90105697Y-139934804D01*
X89943804Y-140096697D01*
X89943799Y-140096703D01*
X89812477Y-140284250D01*
X89715717Y-140491753D01*
X89715715Y-140491759D01*
X89665039Y-140680886D01*
X89656457Y-140712913D01*
X89636502Y-140941000D01*
X89656457Y-141169087D01*
X89668924Y-141215614D01*
X89715715Y-141390240D01*
X89715717Y-141390246D01*
X89782463Y-141533383D01*
X89812477Y-141597749D01*
X89943802Y-141785300D01*
X90105700Y-141947198D01*
X90293251Y-142078523D01*
X90500757Y-142175284D01*
X90721913Y-142234543D01*
X90950000Y-142254498D01*
X91178087Y-142234543D01*
X91399243Y-142175284D01*
X91606749Y-142078523D01*
X91794300Y-141947198D01*
X91956198Y-141785300D01*
X92087523Y-141597749D01*
X92184284Y-141390243D01*
X92243543Y-141169087D01*
X92263498Y-140941000D01*
X92243543Y-140712913D01*
X92184284Y-140491757D01*
X92087523Y-140284251D01*
X91956198Y-140096700D01*
X91794300Y-139934802D01*
X91776590Y-139922401D01*
X91762228Y-139912344D01*
X91717900Y-139856887D01*
X91708500Y-139809132D01*
X91708500Y-137691000D01*
X92436835Y-137691000D01*
X92450855Y-137869143D01*
X92455465Y-137927710D01*
X92510894Y-138158592D01*
X92585950Y-138339793D01*
X92601760Y-138377963D01*
X92719065Y-138569387D01*
X92725825Y-138580417D01*
X92725826Y-138580419D01*
X92880030Y-138760969D01*
X93048647Y-138904981D01*
X93060584Y-138915176D01*
X93263037Y-139039240D01*
X93482406Y-139130105D01*
X93713289Y-139185535D01*
X93950000Y-139204165D01*
X94186711Y-139185535D01*
X94417594Y-139130105D01*
X94636963Y-139039240D01*
X94839416Y-138915176D01*
X95019969Y-138760969D01*
X95174176Y-138580416D01*
X95298240Y-138377963D01*
X95389105Y-138158594D01*
X95444535Y-137927711D01*
X95463165Y-137691000D01*
X95444535Y-137454289D01*
X95389105Y-137223406D01*
X95298240Y-137004037D01*
X95174176Y-136801584D01*
X95085000Y-136697172D01*
X95019969Y-136621030D01*
X94839419Y-136466826D01*
X94839417Y-136466825D01*
X94839416Y-136466824D01*
X94636963Y-136342760D01*
X94635805Y-136342280D01*
X94417592Y-136251894D01*
X94259651Y-136213976D01*
X94186711Y-136196465D01*
X93950000Y-136177835D01*
X93713289Y-136196465D01*
X93482407Y-136251894D01*
X93263038Y-136342759D01*
X93060582Y-136466825D01*
X93060580Y-136466826D01*
X92880030Y-136621030D01*
X92725826Y-136801580D01*
X92725825Y-136801582D01*
X92601759Y-137004038D01*
X92510894Y-137223407D01*
X92457809Y-137444526D01*
X92455465Y-137454289D01*
X92436835Y-137691000D01*
X91708500Y-137691000D01*
X91708500Y-136715435D01*
X91709831Y-136697172D01*
X91713340Y-136673216D01*
X91713341Y-136673211D01*
X91708979Y-136623351D01*
X91708500Y-136612371D01*
X91708500Y-136606825D01*
X91708500Y-136606820D01*
X91704863Y-136575712D01*
X91704492Y-136572080D01*
X91702544Y-136549810D01*
X91697887Y-136496573D01*
X91697886Y-136496569D01*
X91696403Y-136489387D01*
X91696469Y-136489373D01*
X91694839Y-136482019D01*
X91694773Y-136482035D01*
X91693079Y-136474890D01*
X91693079Y-136474887D01*
X91667137Y-136403612D01*
X91665963Y-136400234D01*
X91665667Y-136399342D01*
X91642114Y-136328261D01*
X91642112Y-136328258D01*
X91639014Y-136321615D01*
X91639076Y-136321586D01*
X91635791Y-136314800D01*
X91635731Y-136314831D01*
X91632434Y-136308267D01*
X91590775Y-136244925D01*
X91588807Y-136241836D01*
X91549031Y-136177351D01*
X91549030Y-136177349D01*
X91549027Y-136177346D01*
X91544477Y-136171591D01*
X91544530Y-136171548D01*
X91539766Y-136165700D01*
X91539715Y-136165744D01*
X91534998Y-136160122D01*
X91479826Y-136108070D01*
X91477197Y-136105516D01*
X90031908Y-134660227D01*
X90019936Y-134646375D01*
X90005469Y-134626942D01*
X90005467Y-134626940D01*
X89967129Y-134594770D01*
X89959027Y-134587345D01*
X89955106Y-134583424D01*
X89930528Y-134563989D01*
X89927691Y-134561678D01*
X89869635Y-134512964D01*
X89863506Y-134508933D01*
X89863541Y-134508878D01*
X89857187Y-134504829D01*
X89857153Y-134504886D01*
X89850906Y-134501033D01*
X89782205Y-134468996D01*
X89778909Y-134467401D01*
X89759923Y-134457866D01*
X89711188Y-134433391D01*
X89711186Y-134433390D01*
X89711183Y-134433389D01*
X89704289Y-134430880D01*
X89704311Y-134430817D01*
X89697189Y-134428341D01*
X89697169Y-134428404D01*
X89690211Y-134426098D01*
X89615942Y-134410762D01*
X89612367Y-134409969D01*
X89538656Y-134392500D01*
X89531367Y-134391648D01*
X89531374Y-134391580D01*
X89523877Y-134390814D01*
X89523872Y-134390881D01*
X89516559Y-134390241D01*
X89516558Y-134390241D01*
X89470539Y-134391580D01*
X89440741Y-134392447D01*
X89437077Y-134392500D01*
X84645372Y-134392500D01*
X84577251Y-134372498D01*
X84539890Y-134335417D01*
X84525723Y-134313734D01*
X84525722Y-134313732D01*
X84373240Y-134148094D01*
X84373239Y-134148093D01*
X84373237Y-134148091D01*
X84279972Y-134075500D01*
X84195576Y-134009811D01*
X84161792Y-133991528D01*
X84111402Y-133941516D01*
X84096050Y-133872199D01*
X84120610Y-133805586D01*
X84161793Y-133769901D01*
X84195300Y-133751767D01*
X84195301Y-133751767D01*
X84372902Y-133613534D01*
X84525325Y-133447958D01*
X84648419Y-133259548D01*
X84738820Y-133053456D01*
X84738823Y-133053449D01*
X84786544Y-132865000D01*
X83881116Y-132865000D01*
X83909493Y-132820844D01*
X83950000Y-132682889D01*
X83950000Y-132539111D01*
X83909493Y-132401156D01*
X83881116Y-132357000D01*
X84786544Y-132357000D01*
X84786544Y-132356999D01*
X84738823Y-132168550D01*
X84738820Y-132168543D01*
X84648419Y-131962451D01*
X84525325Y-131774041D01*
X84382018Y-131618367D01*
X84350598Y-131554702D01*
X84358585Y-131484156D01*
X84403444Y-131429127D01*
X84430679Y-131414977D01*
X84546204Y-131371889D01*
X84663261Y-131284261D01*
X84730626Y-131194272D01*
X84750887Y-131167207D01*
X84750887Y-131167206D01*
X84750889Y-131167204D01*
X84801989Y-131030201D01*
X84808239Y-130972072D01*
X84808499Y-130969649D01*
X84808500Y-130969632D01*
X84808500Y-130955500D01*
X84828502Y-130887379D01*
X84882158Y-130840886D01*
X84934500Y-130829500D01*
X90463629Y-130829500D01*
X90531750Y-130849502D01*
X90552724Y-130866405D01*
X92441412Y-132755093D01*
X92475438Y-132817405D01*
X92474835Y-132873601D01*
X92455465Y-132954289D01*
X92436835Y-133191000D01*
X92455465Y-133427711D01*
X92456098Y-133430348D01*
X92510894Y-133658592D01*
X92571781Y-133805586D01*
X92601760Y-133877963D01*
X92722811Y-134075500D01*
X92725825Y-134080417D01*
X92725826Y-134080419D01*
X92880030Y-134260969D01*
X93060580Y-134415173D01*
X93060584Y-134415176D01*
X93263037Y-134539240D01*
X93482406Y-134630105D01*
X93713289Y-134685535D01*
X93950000Y-134704165D01*
X94186711Y-134685535D01*
X94417594Y-134630105D01*
X94636963Y-134539240D01*
X94839416Y-134415176D01*
X95019969Y-134260969D01*
X95174176Y-134080416D01*
X95217533Y-134009663D01*
X95270180Y-133962034D01*
X95324965Y-133949500D01*
X96278500Y-133949500D01*
X96346621Y-133969502D01*
X96393114Y-134023158D01*
X96404500Y-134075500D01*
X96404500Y-141981628D01*
X96384498Y-142049749D01*
X96367595Y-142070723D01*
X91212989Y-147225328D01*
X91150677Y-147259354D01*
X91112913Y-147261754D01*
X90950000Y-147247502D01*
X90721913Y-147267457D01*
X90500759Y-147326715D01*
X90500753Y-147326717D01*
X90293250Y-147423477D01*
X90105703Y-147554799D01*
X90105697Y-147554804D01*
X89943804Y-147716697D01*
X89943797Y-147716706D01*
X89921344Y-147748772D01*
X89865887Y-147793100D01*
X89818132Y-147802500D01*
X88581868Y-147802500D01*
X88513747Y-147782498D01*
X88478656Y-147748772D01*
X88460414Y-147722721D01*
X88456198Y-147716700D01*
X88294300Y-147554802D01*
X88121367Y-147433713D01*
X88106749Y-147423477D01*
X87899246Y-147326717D01*
X87899240Y-147326715D01*
X87718023Y-147278158D01*
X87678087Y-147267457D01*
X87450000Y-147247502D01*
X87221913Y-147267457D01*
X87000759Y-147326715D01*
X87000753Y-147326717D01*
X86793250Y-147423477D01*
X86605703Y-147554799D01*
X86605697Y-147554804D01*
X86443804Y-147716697D01*
X86443799Y-147716703D01*
X86312477Y-147904250D01*
X86215717Y-148111753D01*
X86215715Y-148111759D01*
X86163400Y-148307000D01*
X86156457Y-148332913D01*
X86136502Y-148561000D01*
X86156457Y-148789087D01*
X86168924Y-148835614D01*
X86215715Y-149010240D01*
X86215717Y-149010246D01*
X86312477Y-149217749D01*
X86397729Y-149339502D01*
X86443802Y-149405300D01*
X86605700Y-149567198D01*
X86793251Y-149698523D01*
X87000757Y-149795284D01*
X87221913Y-149854543D01*
X87450000Y-149874498D01*
X87678087Y-149854543D01*
X87899243Y-149795284D01*
X88106749Y-149698523D01*
X88294300Y-149567198D01*
X88456198Y-149405300D01*
X88467618Y-149388990D01*
X88478656Y-149373228D01*
X88534113Y-149328900D01*
X88581868Y-149319500D01*
X89818132Y-149319500D01*
X89886253Y-149339502D01*
X89921344Y-149373228D01*
X89943574Y-149404974D01*
X89943802Y-149405300D01*
X90105700Y-149567198D01*
X90293251Y-149698523D01*
X90500757Y-149795284D01*
X90721913Y-149854543D01*
X90950000Y-149874498D01*
X91178087Y-149854543D01*
X91399243Y-149795284D01*
X91606749Y-149698523D01*
X91794300Y-149567198D01*
X91956198Y-149405300D01*
X92087523Y-149217749D01*
X92184284Y-149010243D01*
X92243543Y-148789087D01*
X92263498Y-148561000D01*
X92249244Y-148398083D01*
X92263233Y-148328481D01*
X92279049Y-148307000D01*
X99163917Y-148307000D01*
X100138314Y-148307000D01*
X100122359Y-148322955D01*
X100064835Y-148435852D01*
X100045014Y-148561000D01*
X100064835Y-148686148D01*
X100122359Y-148799045D01*
X100138314Y-148815000D01*
X99163918Y-148815000D01*
X99216186Y-149010068D01*
X99216188Y-149010073D01*
X99312912Y-149217498D01*
X99444184Y-149404974D01*
X99444189Y-149404980D01*
X99606019Y-149566810D01*
X99606025Y-149566815D01*
X99793501Y-149698087D01*
X100000926Y-149794811D01*
X100000931Y-149794813D01*
X100196000Y-149847081D01*
X100196000Y-148872686D01*
X100211955Y-148888641D01*
X100324852Y-148946165D01*
X100418519Y-148961000D01*
X100481481Y-148961000D01*
X100575148Y-148946165D01*
X100688045Y-148888641D01*
X100704000Y-148872686D01*
X100704000Y-149847081D01*
X100899068Y-149794813D01*
X100899073Y-149794811D01*
X101106498Y-149698087D01*
X101293974Y-149566815D01*
X101293980Y-149566810D01*
X101455810Y-149404980D01*
X101455815Y-149404974D01*
X101587087Y-149217498D01*
X101683811Y-149010073D01*
X101683813Y-149010068D01*
X101736082Y-148815000D01*
X100761686Y-148815000D01*
X100777641Y-148799045D01*
X100835165Y-148686148D01*
X100854986Y-148561000D01*
X100835165Y-148435852D01*
X100777641Y-148322955D01*
X100761686Y-148307000D01*
X101736082Y-148307000D01*
X102663917Y-148307000D01*
X103638314Y-148307000D01*
X103622359Y-148322955D01*
X103564835Y-148435852D01*
X103545014Y-148561000D01*
X103564835Y-148686148D01*
X103622359Y-148799045D01*
X103638314Y-148815000D01*
X102663918Y-148815000D01*
X102716186Y-149010068D01*
X102716188Y-149010073D01*
X102812912Y-149217498D01*
X102944184Y-149404974D01*
X102944189Y-149404980D01*
X103106019Y-149566810D01*
X103106025Y-149566815D01*
X103293501Y-149698087D01*
X103500926Y-149794811D01*
X103500931Y-149794813D01*
X103696000Y-149847081D01*
X103696000Y-148872686D01*
X103711955Y-148888641D01*
X103824852Y-148946165D01*
X103918519Y-148961000D01*
X103981481Y-148961000D01*
X104075148Y-148946165D01*
X104188045Y-148888641D01*
X104204000Y-148872686D01*
X104204000Y-149847081D01*
X104399068Y-149794813D01*
X104399073Y-149794811D01*
X104606498Y-149698087D01*
X104793974Y-149566815D01*
X104793980Y-149566810D01*
X104955810Y-149404980D01*
X104955815Y-149404974D01*
X105087087Y-149217498D01*
X105183811Y-149010073D01*
X105183813Y-149010068D01*
X105236082Y-148815000D01*
X104261686Y-148815000D01*
X104277641Y-148799045D01*
X104335165Y-148686148D01*
X104354986Y-148561000D01*
X104335165Y-148435852D01*
X104277641Y-148322955D01*
X104261686Y-148307000D01*
X105236082Y-148307000D01*
X106163917Y-148307000D01*
X107138314Y-148307000D01*
X107122359Y-148322955D01*
X107064835Y-148435852D01*
X107045014Y-148561000D01*
X107064835Y-148686148D01*
X107122359Y-148799045D01*
X107138314Y-148815000D01*
X106163918Y-148815000D01*
X106216186Y-149010068D01*
X106216188Y-149010073D01*
X106312912Y-149217498D01*
X106444184Y-149404974D01*
X106444189Y-149404980D01*
X106606019Y-149566810D01*
X106606025Y-149566815D01*
X106793501Y-149698087D01*
X107000926Y-149794811D01*
X107000931Y-149794813D01*
X107196000Y-149847081D01*
X107196000Y-148872686D01*
X107211955Y-148888641D01*
X107324852Y-148946165D01*
X107418519Y-148961000D01*
X107481481Y-148961000D01*
X107575148Y-148946165D01*
X107688045Y-148888641D01*
X107704000Y-148872686D01*
X107704000Y-149847081D01*
X107899068Y-149794813D01*
X107899073Y-149794811D01*
X108106498Y-149698087D01*
X108293974Y-149566815D01*
X108293980Y-149566810D01*
X108455810Y-149404980D01*
X108455815Y-149404974D01*
X108587087Y-149217498D01*
X108683811Y-149010073D01*
X108683813Y-149010068D01*
X108736082Y-148815000D01*
X107761686Y-148815000D01*
X107777641Y-148799045D01*
X107835165Y-148686148D01*
X107854986Y-148561000D01*
X107835165Y-148435852D01*
X107777641Y-148322955D01*
X107761686Y-148307000D01*
X108736082Y-148307000D01*
X109663917Y-148307000D01*
X110638314Y-148307000D01*
X110622359Y-148322955D01*
X110564835Y-148435852D01*
X110545014Y-148561000D01*
X110564835Y-148686148D01*
X110622359Y-148799045D01*
X110638314Y-148815000D01*
X109663918Y-148815000D01*
X109716186Y-149010068D01*
X109716188Y-149010073D01*
X109812912Y-149217498D01*
X109944184Y-149404974D01*
X109944189Y-149404980D01*
X110106019Y-149566810D01*
X110106025Y-149566815D01*
X110293501Y-149698087D01*
X110500926Y-149794811D01*
X110500931Y-149794813D01*
X110696000Y-149847081D01*
X110696000Y-148872686D01*
X110711955Y-148888641D01*
X110824852Y-148946165D01*
X110918519Y-148961000D01*
X110981481Y-148961000D01*
X111075148Y-148946165D01*
X111188045Y-148888641D01*
X111204000Y-148872686D01*
X111204000Y-149847081D01*
X111399068Y-149794813D01*
X111399073Y-149794811D01*
X111606498Y-149698087D01*
X111793974Y-149566815D01*
X111793980Y-149566810D01*
X111955810Y-149404980D01*
X111955815Y-149404974D01*
X112087087Y-149217498D01*
X112183811Y-149010073D01*
X112183813Y-149010068D01*
X112236082Y-148815000D01*
X111261686Y-148815000D01*
X111277641Y-148799045D01*
X111335165Y-148686148D01*
X111354986Y-148561000D01*
X111335165Y-148435852D01*
X111277641Y-148322955D01*
X111261686Y-148307000D01*
X112236082Y-148307000D01*
X112183813Y-148111931D01*
X112183811Y-148111926D01*
X112087087Y-147904501D01*
X111955815Y-147717025D01*
X111955810Y-147717019D01*
X111793980Y-147555189D01*
X111793974Y-147555184D01*
X111606498Y-147423912D01*
X111399073Y-147327188D01*
X111399071Y-147327187D01*
X111204000Y-147274917D01*
X111204000Y-148249314D01*
X111188045Y-148233359D01*
X111075148Y-148175835D01*
X110981481Y-148161000D01*
X110918519Y-148161000D01*
X110824852Y-148175835D01*
X110711955Y-148233359D01*
X110696000Y-148249314D01*
X110696000Y-147274917D01*
X110695999Y-147274917D01*
X110500928Y-147327187D01*
X110500926Y-147327188D01*
X110293501Y-147423912D01*
X110106025Y-147555184D01*
X110106019Y-147555189D01*
X109944189Y-147717019D01*
X109944184Y-147717025D01*
X109812912Y-147904501D01*
X109716188Y-148111926D01*
X109716186Y-148111931D01*
X109663917Y-148307000D01*
X108736082Y-148307000D01*
X108683813Y-148111931D01*
X108683811Y-148111926D01*
X108587087Y-147904501D01*
X108455815Y-147717025D01*
X108455810Y-147717019D01*
X108293980Y-147555189D01*
X108293974Y-147555184D01*
X108106498Y-147423912D01*
X107899073Y-147327188D01*
X107899071Y-147327187D01*
X107704000Y-147274917D01*
X107704000Y-148249314D01*
X107688045Y-148233359D01*
X107575148Y-148175835D01*
X107481481Y-148161000D01*
X107418519Y-148161000D01*
X107324852Y-148175835D01*
X107211955Y-148233359D01*
X107196000Y-148249314D01*
X107196000Y-147274917D01*
X107195999Y-147274917D01*
X107000928Y-147327187D01*
X107000926Y-147327188D01*
X106793501Y-147423912D01*
X106606025Y-147555184D01*
X106606019Y-147555189D01*
X106444189Y-147717019D01*
X106444184Y-147717025D01*
X106312912Y-147904501D01*
X106216188Y-148111926D01*
X106216186Y-148111931D01*
X106163917Y-148307000D01*
X105236082Y-148307000D01*
X105183813Y-148111931D01*
X105183811Y-148111926D01*
X105087087Y-147904501D01*
X104955815Y-147717025D01*
X104955810Y-147717019D01*
X104793980Y-147555189D01*
X104793974Y-147555184D01*
X104606498Y-147423912D01*
X104399073Y-147327188D01*
X104399071Y-147327187D01*
X104204000Y-147274917D01*
X104204000Y-148249314D01*
X104188045Y-148233359D01*
X104075148Y-148175835D01*
X103981481Y-148161000D01*
X103918519Y-148161000D01*
X103824852Y-148175835D01*
X103711955Y-148233359D01*
X103696000Y-148249314D01*
X103696000Y-147274917D01*
X103695999Y-147274917D01*
X103500928Y-147327187D01*
X103500926Y-147327188D01*
X103293501Y-147423912D01*
X103106025Y-147555184D01*
X103106019Y-147555189D01*
X102944189Y-147717019D01*
X102944184Y-147717025D01*
X102812912Y-147904501D01*
X102716188Y-148111926D01*
X102716186Y-148111931D01*
X102663917Y-148307000D01*
X101736082Y-148307000D01*
X101683813Y-148111931D01*
X101683811Y-148111926D01*
X101587087Y-147904501D01*
X101455815Y-147717025D01*
X101455810Y-147717019D01*
X101293980Y-147555189D01*
X101293974Y-147555184D01*
X101106498Y-147423912D01*
X100899073Y-147327188D01*
X100899071Y-147327187D01*
X100704000Y-147274917D01*
X100704000Y-148249314D01*
X100688045Y-148233359D01*
X100575148Y-148175835D01*
X100481481Y-148161000D01*
X100418519Y-148161000D01*
X100324852Y-148175835D01*
X100211955Y-148233359D01*
X100196000Y-148249314D01*
X100196000Y-147274917D01*
X100195999Y-147274917D01*
X100000928Y-147327187D01*
X100000926Y-147327188D01*
X99793501Y-147423912D01*
X99606025Y-147555184D01*
X99606019Y-147555189D01*
X99444189Y-147717019D01*
X99444184Y-147717025D01*
X99312912Y-147904501D01*
X99216188Y-148111926D01*
X99216186Y-148111931D01*
X99163917Y-148307000D01*
X92279049Y-148307000D01*
X92285667Y-148298012D01*
X97653778Y-142929901D01*
X97667617Y-142917941D01*
X97687058Y-142903469D01*
X97719227Y-142865130D01*
X97726645Y-142857034D01*
X97730581Y-142853100D01*
X97750025Y-142828507D01*
X97752265Y-142825757D01*
X97801032Y-142767640D01*
X97801033Y-142767636D01*
X97801036Y-142767634D01*
X97805070Y-142761502D01*
X97805127Y-142761539D01*
X97809171Y-142755191D01*
X97809112Y-142755155D01*
X97812965Y-142748907D01*
X97812967Y-142748905D01*
X97845035Y-142680132D01*
X97846557Y-142676989D01*
X97880609Y-142609188D01*
X97880609Y-142609184D01*
X97880611Y-142609182D01*
X97883119Y-142602291D01*
X97883184Y-142602314D01*
X97885658Y-142595197D01*
X97885594Y-142595176D01*
X97887903Y-142588207D01*
X97903238Y-142513936D01*
X97904022Y-142510397D01*
X97921500Y-142436656D01*
X97921500Y-142436655D01*
X97922352Y-142429368D01*
X97922419Y-142429375D01*
X97923185Y-142421877D01*
X97923119Y-142421872D01*
X97923757Y-142414565D01*
X97923759Y-142414558D01*
X97921553Y-142338740D01*
X97921500Y-142335076D01*
X97921500Y-137691000D01*
X98936835Y-137691000D01*
X98950855Y-137869143D01*
X98955465Y-137927710D01*
X99010894Y-138158592D01*
X99085950Y-138339793D01*
X99101760Y-138377963D01*
X99219065Y-138569387D01*
X99225825Y-138580417D01*
X99225826Y-138580419D01*
X99380030Y-138760969D01*
X99548647Y-138904981D01*
X99560584Y-138915176D01*
X99756337Y-139035134D01*
X99803966Y-139087780D01*
X99816500Y-139142565D01*
X99816500Y-139721606D01*
X99796498Y-139789727D01*
X99762771Y-139824819D01*
X99605703Y-139934799D01*
X99605697Y-139934804D01*
X99443804Y-140096697D01*
X99443799Y-140096703D01*
X99312477Y-140284250D01*
X99215717Y-140491753D01*
X99215715Y-140491759D01*
X99165039Y-140680886D01*
X99156457Y-140712913D01*
X99136502Y-140941000D01*
X99156457Y-141169087D01*
X99168924Y-141215614D01*
X99215715Y-141390240D01*
X99215717Y-141390246D01*
X99282463Y-141533383D01*
X99312477Y-141597749D01*
X99443802Y-141785300D01*
X99605700Y-141947198D01*
X99793251Y-142078523D01*
X100000757Y-142175284D01*
X100221913Y-142234543D01*
X100450000Y-142254498D01*
X100678087Y-142234543D01*
X100899243Y-142175284D01*
X101106749Y-142078523D01*
X101294300Y-141947198D01*
X101456198Y-141785300D01*
X101587523Y-141597749D01*
X101684284Y-141390243D01*
X101743543Y-141169087D01*
X101763498Y-140941000D01*
X101743543Y-140712913D01*
X101684284Y-140491757D01*
X101587523Y-140284251D01*
X101456198Y-140096700D01*
X101294300Y-139934802D01*
X101276590Y-139922401D01*
X101137229Y-139824819D01*
X101092901Y-139769362D01*
X101083500Y-139721606D01*
X101083500Y-139142565D01*
X101103502Y-139074444D01*
X101143662Y-139035134D01*
X101339416Y-138915176D01*
X101519969Y-138760969D01*
X101674176Y-138580416D01*
X101798240Y-138377963D01*
X101889105Y-138158594D01*
X101944535Y-137927711D01*
X101963165Y-137691000D01*
X101944535Y-137454289D01*
X101889105Y-137223406D01*
X101798240Y-137004037D01*
X101674176Y-136801584D01*
X101585000Y-136697172D01*
X101519969Y-136621030D01*
X101339419Y-136466826D01*
X101339417Y-136466825D01*
X101339416Y-136466824D01*
X101136963Y-136342760D01*
X101135805Y-136342280D01*
X100917592Y-136251894D01*
X100759651Y-136213976D01*
X100686711Y-136196465D01*
X100450000Y-136177835D01*
X100213289Y-136196465D01*
X99982407Y-136251894D01*
X99763038Y-136342759D01*
X99560582Y-136466825D01*
X99560580Y-136466826D01*
X99380030Y-136621030D01*
X99225826Y-136801580D01*
X99225825Y-136801582D01*
X99101759Y-137004038D01*
X99010894Y-137223407D01*
X98957809Y-137444526D01*
X98955465Y-137454289D01*
X98936835Y-137691000D01*
X97921500Y-137691000D01*
X97921500Y-134075500D01*
X97941502Y-134007379D01*
X97995158Y-133960886D01*
X98047500Y-133949500D01*
X99075035Y-133949500D01*
X99143156Y-133969502D01*
X99182466Y-134009663D01*
X99225824Y-134080416D01*
X99225825Y-134080417D01*
X99225826Y-134080419D01*
X99380030Y-134260969D01*
X99560580Y-134415173D01*
X99560584Y-134415176D01*
X99763037Y-134539240D01*
X99982406Y-134630105D01*
X100213289Y-134685535D01*
X100450000Y-134704165D01*
X100686711Y-134685535D01*
X100917594Y-134630105D01*
X101136963Y-134539240D01*
X101339416Y-134415176D01*
X101519969Y-134260969D01*
X101674176Y-134080416D01*
X101717533Y-134009663D01*
X101770180Y-133962034D01*
X101824965Y-133949500D01*
X102785035Y-133949500D01*
X102853156Y-133969502D01*
X102892466Y-134009663D01*
X102935824Y-134080416D01*
X102935825Y-134080417D01*
X102935826Y-134080419D01*
X103090030Y-134260969D01*
X103270580Y-134415173D01*
X103270584Y-134415176D01*
X103473037Y-134539240D01*
X103692406Y-134630105D01*
X103923289Y-134685535D01*
X104160000Y-134704165D01*
X104396711Y-134685535D01*
X104627594Y-134630105D01*
X104846963Y-134539240D01*
X105049416Y-134415176D01*
X105229969Y-134260969D01*
X105384176Y-134080416D01*
X105427533Y-134009663D01*
X105480180Y-133962034D01*
X105534965Y-133949500D01*
X109285035Y-133949500D01*
X109353156Y-133969502D01*
X109392466Y-134009663D01*
X109435824Y-134080416D01*
X109435825Y-134080417D01*
X109435826Y-134080419D01*
X109590030Y-134260969D01*
X109770580Y-134415173D01*
X109770584Y-134415176D01*
X109973037Y-134539240D01*
X110192406Y-134630105D01*
X110423289Y-134685535D01*
X110660000Y-134704165D01*
X110896711Y-134685535D01*
X111127594Y-134630105D01*
X111346963Y-134539240D01*
X111549416Y-134415176D01*
X111729969Y-134260969D01*
X111884176Y-134080416D01*
X111927533Y-134009663D01*
X111980180Y-133962034D01*
X112034965Y-133949500D01*
X113075035Y-133949500D01*
X113143156Y-133969502D01*
X113182466Y-134009663D01*
X113225824Y-134080416D01*
X113225825Y-134080417D01*
X113225826Y-134080419D01*
X113380030Y-134260969D01*
X113560580Y-134415173D01*
X113560584Y-134415176D01*
X113763037Y-134539240D01*
X113982406Y-134630105D01*
X114213289Y-134685535D01*
X114450000Y-134704165D01*
X114686711Y-134685535D01*
X114917594Y-134630105D01*
X115136963Y-134539240D01*
X115339416Y-134415176D01*
X115519969Y-134260969D01*
X115674176Y-134080416D01*
X115717533Y-134009663D01*
X115770180Y-133962034D01*
X115824965Y-133949500D01*
X119575035Y-133949500D01*
X119643156Y-133969502D01*
X119682466Y-134009663D01*
X119725824Y-134080416D01*
X119725825Y-134080417D01*
X119725826Y-134080419D01*
X119880030Y-134260969D01*
X120060580Y-134415173D01*
X120060584Y-134415176D01*
X120263037Y-134539240D01*
X120482406Y-134630105D01*
X120713289Y-134685535D01*
X120950000Y-134704165D01*
X121186711Y-134685535D01*
X121417594Y-134630105D01*
X121636963Y-134539240D01*
X121839416Y-134415176D01*
X122019969Y-134260969D01*
X122174176Y-134080416D01*
X122298240Y-133877963D01*
X122389105Y-133658594D01*
X122444535Y-133427711D01*
X122463165Y-133191000D01*
X122444535Y-132954289D01*
X122425163Y-132873599D01*
X122428710Y-132802693D01*
X122458585Y-132755094D01*
X122940778Y-132272901D01*
X122954617Y-132260941D01*
X122974058Y-132246469D01*
X123006227Y-132208130D01*
X123013645Y-132200034D01*
X123017580Y-132196101D01*
X123037044Y-132171483D01*
X123039241Y-132168785D01*
X123088032Y-132110640D01*
X123088034Y-132110634D01*
X123088037Y-132110632D01*
X123092066Y-132104508D01*
X123092122Y-132104545D01*
X123096171Y-132098190D01*
X123096113Y-132098154D01*
X123099963Y-132091911D01*
X123099962Y-132091911D01*
X123099967Y-132091906D01*
X123132022Y-132023159D01*
X123133571Y-132019960D01*
X123167609Y-131952188D01*
X123167610Y-131952181D01*
X123170120Y-131945289D01*
X123170183Y-131945312D01*
X123172657Y-131938196D01*
X123172593Y-131938175D01*
X123174899Y-131931211D01*
X123174902Y-131931207D01*
X123190237Y-131856931D01*
X123191004Y-131853468D01*
X123208500Y-131779656D01*
X123208500Y-131779653D01*
X123209352Y-131772368D01*
X123209418Y-131772375D01*
X123210184Y-131764877D01*
X123210118Y-131764872D01*
X123210756Y-131757565D01*
X123210758Y-131757558D01*
X123208553Y-131681774D01*
X123208500Y-131678110D01*
X123208500Y-126557371D01*
X123228502Y-126489250D01*
X123245400Y-126468280D01*
X123440781Y-126272898D01*
X123454620Y-126260938D01*
X123474058Y-126246469D01*
X123506227Y-126208130D01*
X123513645Y-126200034D01*
X123517581Y-126196100D01*
X123537025Y-126171507D01*
X123539265Y-126168757D01*
X123588032Y-126110640D01*
X123588033Y-126110636D01*
X123588036Y-126110634D01*
X123592070Y-126104502D01*
X123592127Y-126104539D01*
X123596168Y-126098195D01*
X123596110Y-126098159D01*
X123603257Y-126086571D01*
X123656041Y-126039091D01*
X123726116Y-126027685D01*
X123791232Y-126055976D01*
X123830717Y-126114980D01*
X123836500Y-126152714D01*
X123836500Y-141993580D01*
X123816498Y-142061701D01*
X123762842Y-142108194D01*
X123710500Y-142119580D01*
X116576675Y-142119580D01*
X116508554Y-142099578D01*
X116487579Y-142082675D01*
X115759150Y-141354245D01*
X115725125Y-141291933D01*
X115726539Y-141232542D01*
X115743543Y-141169087D01*
X115763498Y-140941000D01*
X115743543Y-140712913D01*
X115684284Y-140491757D01*
X115587523Y-140284251D01*
X115456198Y-140096700D01*
X115294300Y-139934802D01*
X115270057Y-139917827D01*
X115106749Y-139803477D01*
X114899246Y-139706717D01*
X114899240Y-139706715D01*
X114805771Y-139681670D01*
X114678087Y-139647457D01*
X114450000Y-139627502D01*
X114221913Y-139647457D01*
X114000759Y-139706715D01*
X114000753Y-139706717D01*
X113793250Y-139803477D01*
X113605703Y-139934799D01*
X113605697Y-139934804D01*
X113443804Y-140096697D01*
X113443799Y-140096703D01*
X113312477Y-140284250D01*
X113215717Y-140491753D01*
X113215715Y-140491759D01*
X113165039Y-140680886D01*
X113156457Y-140712913D01*
X113136502Y-140941000D01*
X113156457Y-141169087D01*
X113168924Y-141215614D01*
X113215715Y-141390240D01*
X113215717Y-141390246D01*
X113282463Y-141533383D01*
X113312477Y-141597749D01*
X113443802Y-141785300D01*
X113605700Y-141947198D01*
X113793251Y-142078523D01*
X114000757Y-142175284D01*
X114221913Y-142234543D01*
X114450000Y-142254498D01*
X114678087Y-142234543D01*
X114741541Y-142217540D01*
X114812514Y-142219228D01*
X114863246Y-142250151D01*
X115754835Y-143141740D01*
X115764800Y-143154177D01*
X115765027Y-143153990D01*
X115770079Y-143160097D01*
X115819730Y-143206722D01*
X115822574Y-143209479D01*
X115842303Y-143229209D01*
X115842304Y-143229210D01*
X115842308Y-143229213D01*
X115842310Y-143229215D01*
X115845515Y-143231701D01*
X115854522Y-143239394D01*
X115886759Y-143269666D01*
X115904508Y-143279423D01*
X115921033Y-143290278D01*
X115937039Y-143302694D01*
X115977622Y-143320255D01*
X115988273Y-143325473D01*
X116027020Y-143346775D01*
X116027028Y-143346777D01*
X116046638Y-143351812D01*
X116065347Y-143358217D01*
X116083935Y-143366261D01*
X116127610Y-143373178D01*
X116139221Y-143375582D01*
X116182050Y-143386580D01*
X116202304Y-143386580D01*
X116222014Y-143388131D01*
X116224221Y-143388480D01*
X116242023Y-143391300D01*
X116286041Y-143387138D01*
X116297899Y-143386580D01*
X123761800Y-143386580D01*
X123829921Y-143406582D01*
X123855437Y-143428270D01*
X123858747Y-143431946D01*
X124013248Y-143544198D01*
X124187712Y-143621874D01*
X124374513Y-143661580D01*
X124565487Y-143661580D01*
X124752288Y-143621874D01*
X124926752Y-143544198D01*
X125081253Y-143431946D01*
X125120704Y-143388131D01*
X125209034Y-143290031D01*
X125209035Y-143290029D01*
X125209040Y-143290024D01*
X125304527Y-143124636D01*
X125363542Y-142943008D01*
X125383504Y-142753080D01*
X125363542Y-142563152D01*
X125304527Y-142381524D01*
X125209040Y-142216136D01*
X125135863Y-142134864D01*
X125105146Y-142070856D01*
X125103500Y-142050554D01*
X125103500Y-117585593D01*
X125123502Y-117517472D01*
X125140400Y-117496503D01*
X126871541Y-115765361D01*
X126933851Y-115731338D01*
X126990045Y-115731938D01*
X127213289Y-115785535D01*
X127450000Y-115804165D01*
X127686711Y-115785535D01*
X127917594Y-115730105D01*
X128136963Y-115639240D01*
X128339416Y-115515176D01*
X128519969Y-115360969D01*
X128674176Y-115180416D01*
X128798240Y-114977963D01*
X128889105Y-114758594D01*
X128944535Y-114527711D01*
X128963165Y-114291000D01*
X128944535Y-114054289D01*
X128889105Y-113823406D01*
X128798240Y-113604037D01*
X128674176Y-113401584D01*
X128657753Y-113382355D01*
X128519969Y-113221030D01*
X128339419Y-113066826D01*
X128339408Y-113066818D01*
X128143665Y-112946866D01*
X128096034Y-112894219D01*
X128083500Y-112839434D01*
X128083500Y-109242565D01*
X128103502Y-109174444D01*
X128143662Y-109135134D01*
X128339416Y-109015176D01*
X128519969Y-108860969D01*
X128674176Y-108680416D01*
X128798240Y-108477963D01*
X128889105Y-108258594D01*
X128944535Y-108027711D01*
X128963165Y-107791000D01*
X128944535Y-107554289D01*
X128889105Y-107323406D01*
X128798240Y-107104037D01*
X128674176Y-106901584D01*
X128674173Y-106901580D01*
X128519969Y-106721030D01*
X128339419Y-106566826D01*
X128339417Y-106566825D01*
X128339416Y-106566824D01*
X128136963Y-106442760D01*
X128117563Y-106434724D01*
X127917592Y-106351894D01*
X127759651Y-106313976D01*
X127686711Y-106296465D01*
X127450000Y-106277835D01*
X127213289Y-106296465D01*
X126982407Y-106351894D01*
X126763038Y-106442759D01*
X126560582Y-106566825D01*
X126560580Y-106566826D01*
X126380030Y-106721030D01*
X126225826Y-106901580D01*
X126225825Y-106901582D01*
X126101759Y-107104038D01*
X126010894Y-107323407D01*
X125955465Y-107554289D01*
X125936835Y-107791000D01*
X125955465Y-108027711D01*
X125956098Y-108030348D01*
X126010894Y-108258592D01*
X126098262Y-108469517D01*
X126101760Y-108477963D01*
X126216930Y-108665903D01*
X126225825Y-108680417D01*
X126225826Y-108680419D01*
X126380030Y-108860969D01*
X126518953Y-108979620D01*
X126560584Y-109015176D01*
X126756337Y-109135134D01*
X126803966Y-109187780D01*
X126816500Y-109242565D01*
X126816500Y-112839434D01*
X126796498Y-112907555D01*
X126756335Y-112946866D01*
X126560591Y-113066818D01*
X126560580Y-113066826D01*
X126380030Y-113221030D01*
X126225826Y-113401580D01*
X126225825Y-113401582D01*
X126101759Y-113604038D01*
X126010894Y-113823407D01*
X125955465Y-114054289D01*
X125936835Y-114291000D01*
X125955465Y-114527711D01*
X126009059Y-114750950D01*
X126005511Y-114821858D01*
X125975635Y-114869458D01*
X124210367Y-116634726D01*
X124148055Y-116668752D01*
X124077240Y-116663687D01*
X124025461Y-116627461D01*
X124019969Y-116621031D01*
X124019966Y-116621028D01*
X124019964Y-116621026D01*
X123839419Y-116466826D01*
X123839417Y-116466825D01*
X123839416Y-116466824D01*
X123768663Y-116423466D01*
X123721034Y-116370820D01*
X123708500Y-116316035D01*
X123708500Y-115665964D01*
X123728502Y-115597843D01*
X123768664Y-115558532D01*
X123839416Y-115515176D01*
X124019969Y-115360969D01*
X124174176Y-115180416D01*
X124298240Y-114977963D01*
X124389105Y-114758594D01*
X124444535Y-114527711D01*
X124463165Y-114291000D01*
X124444535Y-114054289D01*
X124389105Y-113823406D01*
X124298240Y-113604037D01*
X124174176Y-113401584D01*
X124157753Y-113382355D01*
X124019969Y-113221030D01*
X123839419Y-113066826D01*
X123839417Y-113066825D01*
X123839416Y-113066824D01*
X123768663Y-113023466D01*
X123721034Y-112970820D01*
X123708500Y-112916035D01*
X123708500Y-109165964D01*
X123728502Y-109097843D01*
X123768664Y-109058532D01*
X123839416Y-109015176D01*
X124019969Y-108860969D01*
X124174176Y-108680416D01*
X124298240Y-108477963D01*
X124389105Y-108258594D01*
X124444535Y-108027711D01*
X124463165Y-107791000D01*
X124444535Y-107554289D01*
X124389105Y-107323406D01*
X124298240Y-107104037D01*
X124174176Y-106901584D01*
X124174173Y-106901580D01*
X124019969Y-106721030D01*
X123839419Y-106566826D01*
X123839417Y-106566825D01*
X123839416Y-106566824D01*
X123636963Y-106442760D01*
X123617563Y-106434724D01*
X123417592Y-106351894D01*
X123259651Y-106313976D01*
X123186711Y-106296465D01*
X122950000Y-106277835D01*
X122713289Y-106296465D01*
X122482407Y-106351894D01*
X122263038Y-106442759D01*
X122060582Y-106566825D01*
X122060580Y-106566826D01*
X121880030Y-106721030D01*
X121725826Y-106901580D01*
X121725825Y-106901582D01*
X121601759Y-107104038D01*
X121510894Y-107323407D01*
X121455465Y-107554289D01*
X121436835Y-107791000D01*
X121455465Y-108027711D01*
X121456098Y-108030348D01*
X121510894Y-108258592D01*
X121598262Y-108469517D01*
X121601760Y-108477963D01*
X121716930Y-108665903D01*
X121725825Y-108680417D01*
X121725826Y-108680419D01*
X121806324Y-108774670D01*
X121835355Y-108839459D01*
X121824750Y-108909659D01*
X121777875Y-108962982D01*
X121710513Y-108982500D01*
X104731372Y-108982500D01*
X104663251Y-108962498D01*
X104642281Y-108945599D01*
X104588652Y-108891970D01*
X104588651Y-108891969D01*
X104585547Y-108889515D01*
X104583970Y-108887288D01*
X104583462Y-108886780D01*
X104583548Y-108886693D01*
X104544518Y-108831575D01*
X104541326Y-108760650D01*
X104576986Y-108699259D01*
X104585558Y-108691832D01*
X104588350Y-108689624D01*
X104713629Y-108564345D01*
X104713634Y-108564339D01*
X104806657Y-108413525D01*
X104862393Y-108245321D01*
X104862394Y-108245318D01*
X104872999Y-108141516D01*
X104873000Y-108141516D01*
X104873000Y-108095000D01*
X102407000Y-108095000D01*
X102407000Y-108141516D01*
X102417605Y-108245318D01*
X102417606Y-108245321D01*
X102473342Y-108413525D01*
X102566365Y-108564339D01*
X102566370Y-108564345D01*
X102691657Y-108689632D01*
X102694446Y-108691837D01*
X102695863Y-108693838D01*
X102696850Y-108694825D01*
X102696681Y-108694993D01*
X102735479Y-108749775D01*
X102738674Y-108820700D01*
X102703017Y-108882093D01*
X102694457Y-108889511D01*
X102691350Y-108891967D01*
X102673659Y-108909659D01*
X102637721Y-108945596D01*
X102575412Y-108979620D01*
X102548628Y-108982500D01*
X102524371Y-108982500D01*
X102456250Y-108962498D01*
X102435276Y-108945595D01*
X101076681Y-107587000D01*
X102407000Y-107587000D01*
X103386000Y-107587000D01*
X103386000Y-106833000D01*
X103894000Y-106833000D01*
X103894000Y-107587000D01*
X104873000Y-107587000D01*
X104873000Y-107540483D01*
X104862394Y-107436681D01*
X104862393Y-107436678D01*
X104806657Y-107268474D01*
X104713634Y-107117660D01*
X104713629Y-107117654D01*
X104588345Y-106992370D01*
X104588339Y-106992365D01*
X104437525Y-106899342D01*
X104269321Y-106843606D01*
X104269318Y-106843605D01*
X104165516Y-106833000D01*
X103894000Y-106833000D01*
X103386000Y-106833000D01*
X103114483Y-106833000D01*
X103010681Y-106843605D01*
X103010678Y-106843606D01*
X102842474Y-106899342D01*
X102691660Y-106992365D01*
X102691654Y-106992370D01*
X102566370Y-107117654D01*
X102566365Y-107117660D01*
X102473342Y-107268474D01*
X102417606Y-107436678D01*
X102417605Y-107436681D01*
X102407000Y-107540483D01*
X102407000Y-107587000D01*
X101076681Y-107587000D01*
X100245074Y-106755393D01*
X100211048Y-106693081D01*
X100208169Y-106666298D01*
X100208169Y-106343249D01*
X100208168Y-106343232D01*
X100201659Y-106282685D01*
X100201657Y-106282677D01*
X100165299Y-106185200D01*
X100160233Y-106114385D01*
X100165298Y-106097134D01*
X100201163Y-106000974D01*
X100207668Y-105940479D01*
X100207669Y-105940467D01*
X100207669Y-105711506D01*
X102281500Y-105711506D01*
X102288009Y-105772053D01*
X102288011Y-105772061D01*
X102339110Y-105909059D01*
X102339112Y-105909064D01*
X102426738Y-106026118D01*
X102543792Y-106113744D01*
X102543794Y-106113745D01*
X102543796Y-106113746D01*
X102598900Y-106134299D01*
X102680795Y-106164845D01*
X102680803Y-106164847D01*
X102741350Y-106171356D01*
X102741355Y-106171356D01*
X102741362Y-106171357D01*
X102741368Y-106171357D01*
X104538632Y-106171357D01*
X104538638Y-106171357D01*
X104538645Y-106171356D01*
X104538649Y-106171356D01*
X104599196Y-106164847D01*
X104599199Y-106164846D01*
X104599201Y-106164846D01*
X104736204Y-106113746D01*
X104806399Y-106061199D01*
X104853261Y-106026118D01*
X104940886Y-105909065D01*
X104940885Y-105909065D01*
X104940889Y-105909061D01*
X104984999Y-105790796D01*
X105027545Y-105733964D01*
X105094066Y-105709153D01*
X105163440Y-105724245D01*
X105195753Y-105749492D01*
X105253279Y-105811982D01*
X105256762Y-105815765D01*
X105298116Y-105847952D01*
X105434424Y-105954046D01*
X105632426Y-106061199D01*
X105632427Y-106061199D01*
X105632428Y-106061200D01*
X105737101Y-106097134D01*
X105845365Y-106134301D01*
X106067431Y-106171357D01*
X106067435Y-106171357D01*
X106292565Y-106171357D01*
X106292569Y-106171357D01*
X106514635Y-106134301D01*
X106727574Y-106061199D01*
X106925576Y-105954046D01*
X107103240Y-105815763D01*
X107255722Y-105650125D01*
X107344518Y-105514211D01*
X107398520Y-105468125D01*
X107468868Y-105458549D01*
X107533225Y-105488526D01*
X107555480Y-105514210D01*
X107588607Y-105564915D01*
X107644275Y-105650122D01*
X107644279Y-105650127D01*
X107700784Y-105711506D01*
X107796760Y-105815763D01*
X107912892Y-105906153D01*
X107954362Y-105963776D01*
X107961500Y-106005583D01*
X107961500Y-106856559D01*
X107960170Y-106874819D01*
X107956659Y-106898786D01*
X107956659Y-106898795D01*
X107961020Y-106948633D01*
X107961500Y-106959616D01*
X107961500Y-106965185D01*
X107965135Y-106996289D01*
X107965507Y-106999932D01*
X107972111Y-107075418D01*
X107973596Y-107082606D01*
X107973531Y-107082619D01*
X107975165Y-107089989D01*
X107975229Y-107089975D01*
X107976921Y-107097116D01*
X108002846Y-107168342D01*
X108004049Y-107171804D01*
X108027884Y-107243735D01*
X108030987Y-107250388D01*
X108030926Y-107250416D01*
X108034211Y-107257202D01*
X108034270Y-107257173D01*
X108037563Y-107263730D01*
X108079232Y-107327084D01*
X108081171Y-107330127D01*
X108120970Y-107394651D01*
X108120972Y-107394654D01*
X108125522Y-107400408D01*
X108125468Y-107400450D01*
X108130228Y-107406292D01*
X108130279Y-107406250D01*
X108134997Y-107411872D01*
X108190155Y-107463911D01*
X108192784Y-107466465D01*
X109158092Y-108431773D01*
X109170065Y-108445627D01*
X109184531Y-108465058D01*
X109222874Y-108497231D01*
X109230967Y-108504648D01*
X109234900Y-108508581D01*
X109234903Y-108508583D01*
X109259455Y-108527997D01*
X109262295Y-108530311D01*
X109314574Y-108574177D01*
X109320360Y-108579032D01*
X109320364Y-108579034D01*
X109326495Y-108583067D01*
X109326458Y-108583122D01*
X109332811Y-108587169D01*
X109332847Y-108587113D01*
X109339092Y-108590965D01*
X109339095Y-108590967D01*
X109391777Y-108615533D01*
X109407786Y-108622998D01*
X109411084Y-108624595D01*
X109421994Y-108630074D01*
X109478812Y-108658609D01*
X109478814Y-108658609D01*
X109485713Y-108661121D01*
X109485689Y-108661185D01*
X109492805Y-108663659D01*
X109492827Y-108663595D01*
X109499791Y-108665903D01*
X109574063Y-108681238D01*
X109577630Y-108682029D01*
X109651344Y-108699500D01*
X109651351Y-108699500D01*
X109658633Y-108700352D01*
X109658625Y-108700419D01*
X109666122Y-108701185D01*
X109666128Y-108701119D01*
X109673435Y-108701757D01*
X109673442Y-108701759D01*
X109748189Y-108699584D01*
X109749259Y-108699553D01*
X109752923Y-108699500D01*
X116060110Y-108699500D01*
X116078370Y-108700830D01*
X116084040Y-108701660D01*
X116102340Y-108704341D01*
X116152197Y-108699978D01*
X116163178Y-108699500D01*
X116168726Y-108699500D01*
X116168731Y-108699500D01*
X116199838Y-108695863D01*
X116203440Y-108695495D01*
X116278977Y-108688887D01*
X116278981Y-108688885D01*
X116286169Y-108687402D01*
X116286182Y-108687468D01*
X116293538Y-108685836D01*
X116293523Y-108685771D01*
X116300653Y-108684080D01*
X116300664Y-108684079D01*
X116371951Y-108658132D01*
X116375320Y-108656961D01*
X116447289Y-108633114D01*
X116447298Y-108633108D01*
X116453940Y-108630012D01*
X116453969Y-108630074D01*
X116460754Y-108626789D01*
X116460724Y-108626729D01*
X116467275Y-108623437D01*
X116467283Y-108623435D01*
X116530642Y-108581761D01*
X116533712Y-108579806D01*
X116534967Y-108579032D01*
X116598202Y-108540030D01*
X116598210Y-108540021D01*
X116603959Y-108535477D01*
X116604001Y-108535531D01*
X116609840Y-108530775D01*
X116609797Y-108530723D01*
X116615415Y-108526007D01*
X116615425Y-108526001D01*
X116667512Y-108470790D01*
X116669999Y-108468231D01*
X119689747Y-105448485D01*
X119752059Y-105414459D01*
X119778842Y-105411580D01*
X129492308Y-105411580D01*
X129560429Y-105431582D01*
X129597790Y-105468663D01*
X129611958Y-105490348D01*
X129764098Y-105655614D01*
X129764442Y-105655988D01*
X129819011Y-105698461D01*
X129942104Y-105794269D01*
X129974833Y-105811981D01*
X129975360Y-105812266D01*
X130025751Y-105862280D01*
X130041103Y-105931596D01*
X130016542Y-105998209D01*
X129975360Y-106033893D01*
X129942106Y-106051890D01*
X129942104Y-106051891D01*
X129764442Y-106190171D01*
X129611959Y-106355809D01*
X129611955Y-106355814D01*
X129488821Y-106544286D01*
X129398383Y-106750466D01*
X129398382Y-106750467D01*
X129343117Y-106968704D01*
X129343116Y-106968710D01*
X129343116Y-106968712D01*
X129324524Y-107193080D01*
X129342654Y-107411874D01*
X129343117Y-107417455D01*
X129398382Y-107635692D01*
X129398383Y-107635693D01*
X129398384Y-107635696D01*
X129485043Y-107833261D01*
X129488821Y-107841873D01*
X129611955Y-108030345D01*
X129611959Y-108030350D01*
X129764442Y-108195988D01*
X129780917Y-108208811D01*
X129942104Y-108334269D01*
X129975885Y-108352550D01*
X130026276Y-108402562D01*
X130041629Y-108471879D01*
X130017069Y-108538492D01*
X129975889Y-108574176D01*
X129942384Y-108592308D01*
X129942378Y-108592312D01*
X129764777Y-108730545D01*
X129612354Y-108896121D01*
X129489260Y-109084531D01*
X129398859Y-109290623D01*
X129398856Y-109290630D01*
X129351135Y-109479079D01*
X129351136Y-109479080D01*
X130256564Y-109479080D01*
X130228187Y-109523236D01*
X130187680Y-109661191D01*
X130187680Y-109804969D01*
X130228187Y-109942924D01*
X130256564Y-109987080D01*
X129351135Y-109987080D01*
X129398856Y-110175529D01*
X129398859Y-110175536D01*
X129489260Y-110381628D01*
X129612354Y-110570038D01*
X129764777Y-110735614D01*
X129942378Y-110873847D01*
X129942384Y-110873851D01*
X129975887Y-110891982D01*
X130026277Y-110941995D01*
X130041629Y-111011312D01*
X130017068Y-111077925D01*
X129975887Y-111113608D01*
X129942110Y-111131887D01*
X129942104Y-111131891D01*
X129764442Y-111270171D01*
X129611959Y-111435809D01*
X129611955Y-111435814D01*
X129488821Y-111624286D01*
X129398383Y-111830466D01*
X129398382Y-111830467D01*
X129343117Y-112048704D01*
X129343116Y-112048710D01*
X129343116Y-112048712D01*
X129324524Y-112273080D01*
X129335025Y-112399811D01*
X129343117Y-112497455D01*
X129398382Y-112715692D01*
X129398383Y-112715693D01*
X129398384Y-112715696D01*
X129486260Y-112916035D01*
X129488821Y-112921873D01*
X129611955Y-113110345D01*
X129611959Y-113110350D01*
X129764442Y-113275988D01*
X129819011Y-113318461D01*
X129942104Y-113414269D01*
X129975360Y-113432266D01*
X130025751Y-113482280D01*
X130041103Y-113551596D01*
X130016542Y-113618209D01*
X129975360Y-113653893D01*
X129942106Y-113671890D01*
X129942104Y-113671891D01*
X129764442Y-113810171D01*
X129611959Y-113975809D01*
X129611955Y-113975814D01*
X129488821Y-114164286D01*
X129398383Y-114370466D01*
X129398382Y-114370467D01*
X129343117Y-114588704D01*
X129343116Y-114588710D01*
X129343116Y-114588712D01*
X129324524Y-114813080D01*
X129343001Y-115036066D01*
X129343117Y-115037455D01*
X129398382Y-115255692D01*
X129398383Y-115255693D01*
X129398384Y-115255696D01*
X129488820Y-115461871D01*
X129488821Y-115461873D01*
X129611955Y-115650345D01*
X129611959Y-115650350D01*
X129764442Y-115815988D01*
X129819011Y-115858461D01*
X129942104Y-115954269D01*
X129974833Y-115971981D01*
X129975360Y-115972266D01*
X130025751Y-116022280D01*
X130041103Y-116091596D01*
X130016542Y-116158209D01*
X129975360Y-116193893D01*
X129942106Y-116211890D01*
X129942104Y-116211891D01*
X129764442Y-116350171D01*
X129611959Y-116515809D01*
X129611955Y-116515814D01*
X129488821Y-116704286D01*
X129398383Y-116910466D01*
X129398382Y-116910467D01*
X129343117Y-117128704D01*
X129343116Y-117128710D01*
X129343116Y-117128712D01*
X129324524Y-117353080D01*
X129339466Y-117533404D01*
X129343117Y-117577455D01*
X129398382Y-117795692D01*
X129398383Y-117795693D01*
X129488821Y-118001873D01*
X129611955Y-118190345D01*
X129611959Y-118190350D01*
X129764442Y-118355988D01*
X129812478Y-118393376D01*
X129942104Y-118494269D01*
X129975360Y-118512266D01*
X130025751Y-118562280D01*
X130041103Y-118631596D01*
X130016542Y-118698209D01*
X129975360Y-118733893D01*
X129942106Y-118751890D01*
X129942104Y-118751891D01*
X129764442Y-118890171D01*
X129611959Y-119055809D01*
X129611955Y-119055814D01*
X129488821Y-119244286D01*
X129398383Y-119450466D01*
X129398382Y-119450467D01*
X129343117Y-119668704D01*
X129324524Y-119893080D01*
X129343117Y-120117455D01*
X129398382Y-120335692D01*
X129398383Y-120335693D01*
X129488821Y-120541873D01*
X129611955Y-120730345D01*
X129611959Y-120730350D01*
X129764442Y-120895988D01*
X129819011Y-120938461D01*
X129942104Y-121034269D01*
X129975360Y-121052266D01*
X130025751Y-121102280D01*
X130041103Y-121171596D01*
X130016542Y-121238209D01*
X129975360Y-121273893D01*
X129942106Y-121291890D01*
X129942104Y-121291891D01*
X129764442Y-121430171D01*
X129611959Y-121595809D01*
X129611955Y-121595814D01*
X129488821Y-121784286D01*
X129398383Y-121990466D01*
X129398382Y-121990467D01*
X129343117Y-122208704D01*
X129343116Y-122208710D01*
X129343116Y-122208712D01*
X129324524Y-122433080D01*
X129341912Y-122642924D01*
X129343117Y-122657455D01*
X129398382Y-122875692D01*
X129398383Y-122875693D01*
X129398384Y-122875696D01*
X129488820Y-123081871D01*
X129488821Y-123081873D01*
X129611955Y-123270345D01*
X129611959Y-123270350D01*
X129764442Y-123435988D01*
X129813889Y-123474474D01*
X129942104Y-123574269D01*
X129974833Y-123591981D01*
X129975360Y-123592266D01*
X130025751Y-123642280D01*
X130041103Y-123711596D01*
X130016542Y-123778209D01*
X129975360Y-123813893D01*
X129942106Y-123831890D01*
X129942104Y-123831891D01*
X129764442Y-123970171D01*
X129611959Y-124135809D01*
X129611955Y-124135814D01*
X129488821Y-124324286D01*
X129398383Y-124530466D01*
X129398382Y-124530467D01*
X129343117Y-124748704D01*
X129343116Y-124748710D01*
X129343116Y-124748712D01*
X129324524Y-124973080D01*
X129333418Y-125080417D01*
X129343117Y-125197455D01*
X129398382Y-125415692D01*
X129398383Y-125415693D01*
X129398384Y-125415696D01*
X129483215Y-125609092D01*
X129488821Y-125621873D01*
X129611955Y-125810345D01*
X129611959Y-125810350D01*
X129764442Y-125975988D01*
X129819011Y-126018461D01*
X129942104Y-126114269D01*
X129975360Y-126132266D01*
X130025751Y-126182280D01*
X130041103Y-126251596D01*
X130016542Y-126318209D01*
X129975360Y-126353893D01*
X129942106Y-126371890D01*
X129942104Y-126371891D01*
X129764442Y-126510171D01*
X129611959Y-126675809D01*
X129611955Y-126675814D01*
X129488821Y-126864286D01*
X129398383Y-127070466D01*
X129398382Y-127070467D01*
X129343117Y-127288704D01*
X129324524Y-127513080D01*
X129343117Y-127737455D01*
X129398382Y-127955692D01*
X129398383Y-127955693D01*
X129488821Y-128161873D01*
X129611955Y-128350345D01*
X129611959Y-128350350D01*
X129764442Y-128515988D01*
X129807584Y-128549567D01*
X129942104Y-128654269D01*
X129975885Y-128672550D01*
X130026276Y-128722562D01*
X130041629Y-128791879D01*
X130017069Y-128858492D01*
X129975889Y-128894176D01*
X129942384Y-128912308D01*
X129942378Y-128912312D01*
X129764777Y-129050545D01*
X129612354Y-129216121D01*
X129489260Y-129404531D01*
X129398859Y-129610623D01*
X129398856Y-129610630D01*
X129351135Y-129799079D01*
X129351136Y-129799080D01*
X130256564Y-129799080D01*
X130228187Y-129843236D01*
X130187680Y-129981191D01*
X130187680Y-130124969D01*
X130228187Y-130262924D01*
X130256564Y-130307080D01*
X129351135Y-130307080D01*
X129398856Y-130495529D01*
X129398859Y-130495536D01*
X129489260Y-130701628D01*
X129612354Y-130890038D01*
X129764777Y-131055614D01*
X129942378Y-131193847D01*
X129942384Y-131193851D01*
X129975887Y-131211982D01*
X130026277Y-131261995D01*
X130041629Y-131331312D01*
X130017068Y-131397925D01*
X129975887Y-131433608D01*
X129942110Y-131451887D01*
X129942104Y-131451891D01*
X129764442Y-131590171D01*
X129611959Y-131755809D01*
X129611955Y-131755814D01*
X129488821Y-131944286D01*
X129398383Y-132150466D01*
X129398382Y-132150467D01*
X129343117Y-132368704D01*
X129343116Y-132368710D01*
X129343116Y-132368712D01*
X129324524Y-132593080D01*
X129343112Y-132817405D01*
X129343117Y-132817455D01*
X129398382Y-133035692D01*
X129398383Y-133035693D01*
X129398384Y-133035696D01*
X129406171Y-133053449D01*
X129488821Y-133241873D01*
X129611955Y-133430345D01*
X129611959Y-133430350D01*
X129764442Y-133595988D01*
X129786985Y-133613534D01*
X129942104Y-133734269D01*
X129974438Y-133751767D01*
X129975360Y-133752266D01*
X130025751Y-133802280D01*
X130041103Y-133871596D01*
X130016542Y-133938209D01*
X129975360Y-133973893D01*
X129942106Y-133991890D01*
X129942104Y-133991891D01*
X129764442Y-134130171D01*
X129611959Y-134295809D01*
X129611955Y-134295814D01*
X129488821Y-134484286D01*
X129398383Y-134690466D01*
X129398382Y-134690467D01*
X129343117Y-134908704D01*
X129343116Y-134908710D01*
X129343116Y-134908712D01*
X129324524Y-135133080D01*
X129341912Y-135342924D01*
X129343117Y-135357455D01*
X129398382Y-135575692D01*
X129398383Y-135575693D01*
X129398384Y-135575696D01*
X129488820Y-135781871D01*
X129488821Y-135781873D01*
X129611955Y-135970345D01*
X129611959Y-135970350D01*
X129764442Y-136135988D01*
X129810185Y-136171591D01*
X129942104Y-136274269D01*
X129975223Y-136292192D01*
X129975360Y-136292266D01*
X130025751Y-136342280D01*
X130041103Y-136411596D01*
X130016542Y-136478209D01*
X129975360Y-136513893D01*
X129942106Y-136531890D01*
X129942104Y-136531891D01*
X129764442Y-136670171D01*
X129611959Y-136835809D01*
X129611955Y-136835814D01*
X129488821Y-137024286D01*
X129398383Y-137230466D01*
X129398382Y-137230467D01*
X129343117Y-137448704D01*
X129343116Y-137448710D01*
X129343116Y-137448712D01*
X129324524Y-137673080D01*
X129332640Y-137771028D01*
X129343117Y-137897455D01*
X129398382Y-138115692D01*
X129398383Y-138115693D01*
X129398384Y-138115696D01*
X129471961Y-138283436D01*
X129488821Y-138321873D01*
X129611955Y-138510345D01*
X129611959Y-138510350D01*
X129764442Y-138675988D01*
X129819011Y-138718461D01*
X129942104Y-138814269D01*
X129975360Y-138832266D01*
X130025751Y-138882280D01*
X130041103Y-138951596D01*
X130016542Y-139018209D01*
X129975360Y-139053893D01*
X129942106Y-139071890D01*
X129942104Y-139071891D01*
X129764442Y-139210171D01*
X129611959Y-139375809D01*
X129611955Y-139375814D01*
X129488821Y-139564286D01*
X129398383Y-139770466D01*
X129398382Y-139770467D01*
X129343117Y-139988704D01*
X129343116Y-139988710D01*
X129343116Y-139988712D01*
X129324524Y-140213080D01*
X129341912Y-140422924D01*
X129343117Y-140437455D01*
X129398382Y-140655692D01*
X129398385Y-140655699D01*
X129409433Y-140680886D01*
X129418480Y-140751304D01*
X129388019Y-140815434D01*
X129327723Y-140852916D01*
X129294046Y-140857500D01*
X128978200Y-140857500D01*
X128910079Y-140837498D01*
X128884563Y-140815810D01*
X128881252Y-140812133D01*
X128726752Y-140699882D01*
X128552288Y-140622206D01*
X128365487Y-140582500D01*
X128174513Y-140582500D01*
X127987711Y-140622206D01*
X127813247Y-140699882D01*
X127658744Y-140812135D01*
X127530965Y-140954048D01*
X127530958Y-140954058D01*
X127435476Y-141119438D01*
X127435473Y-141119445D01*
X127376457Y-141301072D01*
X127356496Y-141491000D01*
X127376457Y-141680927D01*
X127406526Y-141773470D01*
X127435473Y-141862556D01*
X127435476Y-141862561D01*
X127530958Y-142027941D01*
X127530965Y-142027951D01*
X127658744Y-142169864D01*
X127658747Y-142169866D01*
X127813248Y-142282118D01*
X127987712Y-142359794D01*
X128174513Y-142399500D01*
X128365487Y-142399500D01*
X128552288Y-142359794D01*
X128726752Y-142282118D01*
X128881253Y-142169866D01*
X128884563Y-142166190D01*
X128945009Y-142128950D01*
X128978200Y-142124500D01*
X129287098Y-142124500D01*
X129355219Y-142144502D01*
X129401712Y-142198158D01*
X129411816Y-142268432D01*
X129402485Y-142301114D01*
X129398385Y-142310460D01*
X129398382Y-142310467D01*
X129343117Y-142528704D01*
X129343116Y-142528710D01*
X129343116Y-142528712D01*
X129324524Y-142753080D01*
X129340262Y-142943008D01*
X129343117Y-142977455D01*
X129398382Y-143195692D01*
X129398383Y-143195693D01*
X129398384Y-143195696D01*
X129464652Y-143346773D01*
X129488821Y-143401873D01*
X129611955Y-143590345D01*
X129611959Y-143590350D01*
X129764442Y-143755988D01*
X129819011Y-143798461D01*
X129942104Y-143894269D01*
X129975360Y-143912266D01*
X130025751Y-143962280D01*
X130041103Y-144031596D01*
X130016542Y-144098209D01*
X129975360Y-144133893D01*
X129942106Y-144151890D01*
X129942103Y-144151891D01*
X129817976Y-144248504D01*
X129751933Y-144274560D01*
X129682288Y-144260775D01*
X129654334Y-144240924D01*
X129647404Y-144234417D01*
X129647401Y-144234414D01*
X129644075Y-144232586D01*
X129629643Y-144224651D01*
X129613127Y-144213802D01*
X129597121Y-144201386D01*
X129556544Y-144183827D01*
X129545887Y-144178605D01*
X129507143Y-144157306D01*
X129507140Y-144157305D01*
X129487516Y-144152266D01*
X129468816Y-144145864D01*
X129450225Y-144137819D01*
X129450223Y-144137818D01*
X129450221Y-144137818D01*
X129406554Y-144130901D01*
X129394935Y-144128495D01*
X129352110Y-144117500D01*
X129331856Y-144117500D01*
X129312146Y-144115949D01*
X129292137Y-144112780D01*
X129248119Y-144116941D01*
X129236261Y-144117500D01*
X127209500Y-144117500D01*
X127141379Y-144097498D01*
X127094886Y-144043842D01*
X127083500Y-143991500D01*
X127083500Y-139005594D01*
X127103502Y-138937473D01*
X127120400Y-138916503D01*
X127838659Y-138198243D01*
X127851093Y-138188284D01*
X127850905Y-138188057D01*
X127857016Y-138183001D01*
X127857015Y-138183001D01*
X127857018Y-138183000D01*
X127903676Y-138133312D01*
X127906367Y-138130535D01*
X127926135Y-138110769D01*
X127928614Y-138107571D01*
X127936299Y-138098571D01*
X127966586Y-138066321D01*
X127976345Y-138048567D01*
X127987204Y-138032038D01*
X127999614Y-138016040D01*
X128017177Y-137975451D01*
X128022396Y-137964801D01*
X128042787Y-137927711D01*
X128043695Y-137926060D01*
X128048733Y-137906435D01*
X128055138Y-137887730D01*
X128063181Y-137869145D01*
X128070096Y-137825481D01*
X128072504Y-137813852D01*
X128083500Y-137771030D01*
X128083500Y-137750775D01*
X128085051Y-137731063D01*
X128088220Y-137711057D01*
X128084059Y-137667036D01*
X128083500Y-137655179D01*
X128083500Y-125642565D01*
X128103502Y-125574444D01*
X128143662Y-125535134D01*
X128339416Y-125415176D01*
X128519969Y-125260969D01*
X128674176Y-125080416D01*
X128798240Y-124877963D01*
X128889105Y-124658594D01*
X128944535Y-124427711D01*
X128963165Y-124191000D01*
X128944535Y-123954289D01*
X128889105Y-123723406D01*
X128798240Y-123504037D01*
X128674176Y-123301584D01*
X128647498Y-123270348D01*
X128519969Y-123121030D01*
X128339419Y-122966826D01*
X128339408Y-122966818D01*
X128143665Y-122846866D01*
X128096034Y-122794219D01*
X128083500Y-122739434D01*
X128083500Y-119142565D01*
X128103502Y-119074444D01*
X128143662Y-119035134D01*
X128339416Y-118915176D01*
X128519969Y-118760969D01*
X128674176Y-118580416D01*
X128798240Y-118377963D01*
X128889105Y-118158594D01*
X128944535Y-117927711D01*
X128963165Y-117691000D01*
X128944535Y-117454289D01*
X128889105Y-117223406D01*
X128798240Y-117004037D01*
X128674176Y-116801584D01*
X128613985Y-116731109D01*
X128519969Y-116621030D01*
X128339419Y-116466826D01*
X128339417Y-116466825D01*
X128339416Y-116466824D01*
X128136963Y-116342760D01*
X127992180Y-116282789D01*
X127917592Y-116251894D01*
X127750948Y-116211887D01*
X127686711Y-116196465D01*
X127450000Y-116177835D01*
X127213289Y-116196465D01*
X126982407Y-116251894D01*
X126763038Y-116342759D01*
X126560582Y-116466825D01*
X126560580Y-116466826D01*
X126380030Y-116621030D01*
X126225826Y-116801580D01*
X126225825Y-116801582D01*
X126101759Y-117004038D01*
X126010894Y-117223407D01*
X125979763Y-117353080D01*
X125955465Y-117454289D01*
X125936835Y-117691000D01*
X125955465Y-117927711D01*
X125958539Y-117940514D01*
X126010894Y-118158592D01*
X126050887Y-118255143D01*
X126101760Y-118377963D01*
X126214710Y-118562280D01*
X126225825Y-118580417D01*
X126225826Y-118580419D01*
X126380030Y-118760969D01*
X126531310Y-118890174D01*
X126560584Y-118915176D01*
X126756337Y-119035134D01*
X126803966Y-119087780D01*
X126816500Y-119142565D01*
X126816500Y-122739434D01*
X126796498Y-122807555D01*
X126756335Y-122846866D01*
X126560591Y-122966818D01*
X126560580Y-122966826D01*
X126380030Y-123121030D01*
X126225826Y-123301580D01*
X126225825Y-123301582D01*
X126101759Y-123504038D01*
X126010894Y-123723407D01*
X125984851Y-123831887D01*
X125955465Y-123954289D01*
X125936835Y-124191000D01*
X125955465Y-124427711D01*
X125972976Y-124500651D01*
X126010894Y-124658592D01*
X126048220Y-124748704D01*
X126101760Y-124877963D01*
X126157007Y-124968118D01*
X126225825Y-125080417D01*
X126225826Y-125080419D01*
X126380030Y-125260969D01*
X126506857Y-125369289D01*
X126560584Y-125415176D01*
X126756337Y-125535134D01*
X126803966Y-125587780D01*
X126816500Y-125642565D01*
X126816500Y-137376405D01*
X126796498Y-137444526D01*
X126779599Y-137465495D01*
X126419613Y-137825482D01*
X126061340Y-138183755D01*
X126048903Y-138193719D01*
X126049091Y-138193946D01*
X126042982Y-138198999D01*
X125996370Y-138248635D01*
X125993620Y-138251473D01*
X125973863Y-138271231D01*
X125971374Y-138274439D01*
X125963688Y-138283436D01*
X125933418Y-138315673D01*
X125933411Y-138315683D01*
X125923651Y-138333435D01*
X125912803Y-138349950D01*
X125900386Y-138365958D01*
X125882824Y-138406540D01*
X125877604Y-138417195D01*
X125856305Y-138455939D01*
X125856303Y-138455944D01*
X125851267Y-138475559D01*
X125844864Y-138494262D01*
X125836819Y-138512852D01*
X125829901Y-138556525D01*
X125827495Y-138568142D01*
X125816500Y-138610968D01*
X125816500Y-138631223D01*
X125814949Y-138650933D01*
X125811780Y-138670942D01*
X125811780Y-138670943D01*
X125815809Y-138713568D01*
X125815941Y-138714961D01*
X125816500Y-138726819D01*
X125816500Y-143991500D01*
X125796498Y-144059621D01*
X125742842Y-144106114D01*
X125690500Y-144117500D01*
X115074594Y-144117500D01*
X115006473Y-144097498D01*
X114985499Y-144080595D01*
X112259151Y-141354246D01*
X112225125Y-141291934D01*
X112226539Y-141232541D01*
X112243543Y-141169087D01*
X112263498Y-140941000D01*
X112243543Y-140712913D01*
X112184284Y-140491757D01*
X112096614Y-140303748D01*
X112085954Y-140233558D01*
X112114934Y-140168746D01*
X112174354Y-140129889D01*
X112210810Y-140124500D01*
X112566147Y-140124500D01*
X112581988Y-140126249D01*
X112582016Y-140125956D01*
X112589902Y-140126700D01*
X112589909Y-140126702D01*
X112657986Y-140124562D01*
X112661945Y-140124500D01*
X112689851Y-140124500D01*
X112689856Y-140124500D01*
X112693867Y-140123992D01*
X112705699Y-140123061D01*
X112749889Y-140121673D01*
X112769347Y-140116019D01*
X112788694Y-140112013D01*
X112808797Y-140109474D01*
X112849910Y-140093195D01*
X112861130Y-140089353D01*
X112885913Y-140082154D01*
X112903591Y-140077019D01*
X112903595Y-140077017D01*
X112921026Y-140066708D01*
X112938780Y-140058009D01*
X112957617Y-140050552D01*
X112993392Y-140024558D01*
X113003298Y-140018051D01*
X113041362Y-139995542D01*
X113055685Y-139981218D01*
X113070724Y-139968374D01*
X113087107Y-139956472D01*
X113115303Y-139922386D01*
X113123272Y-139913630D01*
X113871541Y-139165361D01*
X113933851Y-139131337D01*
X113990045Y-139131938D01*
X114213289Y-139185535D01*
X114450000Y-139204165D01*
X114686711Y-139185535D01*
X114917594Y-139130105D01*
X115136963Y-139039240D01*
X115339416Y-138915176D01*
X115519969Y-138760969D01*
X115674176Y-138580416D01*
X115794134Y-138384662D01*
X115846780Y-138337034D01*
X115901565Y-138324500D01*
X119498435Y-138324500D01*
X119566556Y-138344502D01*
X119605865Y-138384662D01*
X119723467Y-138576569D01*
X119725825Y-138580417D01*
X119725826Y-138580419D01*
X119880030Y-138760969D01*
X120048647Y-138904981D01*
X120060584Y-138915176D01*
X120263037Y-139039240D01*
X120482406Y-139130105D01*
X120713289Y-139185535D01*
X120950000Y-139204165D01*
X121186711Y-139185535D01*
X121417594Y-139130105D01*
X121636963Y-139039240D01*
X121839416Y-138915176D01*
X122019969Y-138760969D01*
X122174176Y-138580416D01*
X122298240Y-138377963D01*
X122389105Y-138158594D01*
X122444535Y-137927711D01*
X122463165Y-137691000D01*
X122444535Y-137454289D01*
X122389105Y-137223406D01*
X122298240Y-137004037D01*
X122174176Y-136801584D01*
X122085000Y-136697172D01*
X122019969Y-136621030D01*
X121839419Y-136466826D01*
X121839417Y-136466825D01*
X121839416Y-136466824D01*
X121636963Y-136342760D01*
X121635805Y-136342280D01*
X121417592Y-136251894D01*
X121259651Y-136213976D01*
X121186711Y-136196465D01*
X120950000Y-136177835D01*
X120713289Y-136196465D01*
X120482407Y-136251894D01*
X120263038Y-136342759D01*
X120060582Y-136466825D01*
X120060580Y-136466826D01*
X119880030Y-136621030D01*
X119725826Y-136801580D01*
X119725825Y-136801582D01*
X119725824Y-136801584D01*
X119605865Y-136997337D01*
X119553220Y-137044966D01*
X119498435Y-137057500D01*
X115901565Y-137057500D01*
X115833444Y-137037498D01*
X115794134Y-136997337D01*
X115674176Y-136801584D01*
X115585000Y-136697172D01*
X115519969Y-136621030D01*
X115339419Y-136466826D01*
X115339417Y-136466825D01*
X115339416Y-136466824D01*
X115136963Y-136342760D01*
X115135805Y-136342280D01*
X114917592Y-136251894D01*
X114759651Y-136213976D01*
X114686711Y-136196465D01*
X114450000Y-136177835D01*
X114213289Y-136196465D01*
X113982407Y-136251894D01*
X113763038Y-136342759D01*
X113560582Y-136466825D01*
X113560580Y-136466826D01*
X113380030Y-136621030D01*
X113225826Y-136801580D01*
X113225825Y-136801582D01*
X113101759Y-137004038D01*
X113010894Y-137223407D01*
X112957809Y-137444526D01*
X112955465Y-137454289D01*
X112936835Y-137691000D01*
X112950855Y-137869143D01*
X112955465Y-137927710D01*
X113009059Y-138150948D01*
X113005511Y-138221856D01*
X112975636Y-138269457D01*
X112424500Y-138820595D01*
X112362187Y-138854620D01*
X112335404Y-138857500D01*
X111920839Y-138857500D01*
X111852718Y-138837498D01*
X111806225Y-138783842D01*
X111796121Y-138713568D01*
X111825028Y-138649670D01*
X111884173Y-138580419D01*
X111884176Y-138580416D01*
X112008240Y-138377963D01*
X112099105Y-138158594D01*
X112154535Y-137927711D01*
X112173165Y-137691000D01*
X112154535Y-137454289D01*
X112099105Y-137223406D01*
X112008240Y-137004037D01*
X111884176Y-136801584D01*
X111795000Y-136697172D01*
X111729969Y-136621030D01*
X111549419Y-136466826D01*
X111549417Y-136466825D01*
X111549416Y-136466824D01*
X111346963Y-136342760D01*
X111345805Y-136342280D01*
X111127592Y-136251894D01*
X110969651Y-136213976D01*
X110896711Y-136196465D01*
X110660000Y-136177835D01*
X110423289Y-136196465D01*
X110192407Y-136251894D01*
X109973038Y-136342759D01*
X109770582Y-136466825D01*
X109770580Y-136466826D01*
X109590030Y-136621030D01*
X109435826Y-136801580D01*
X109435825Y-136801582D01*
X109435824Y-136801584D01*
X109315865Y-136997337D01*
X109263220Y-137044966D01*
X109208435Y-137057500D01*
X105611565Y-137057500D01*
X105543444Y-137037498D01*
X105504134Y-136997337D01*
X105384176Y-136801584D01*
X105295000Y-136697172D01*
X105229969Y-136621030D01*
X105049419Y-136466826D01*
X105049417Y-136466825D01*
X105049416Y-136466824D01*
X104846963Y-136342760D01*
X104845805Y-136342280D01*
X104627592Y-136251894D01*
X104469651Y-136213976D01*
X104396711Y-136196465D01*
X104160000Y-136177835D01*
X103923289Y-136196465D01*
X103692407Y-136251894D01*
X103473038Y-136342759D01*
X103270582Y-136466825D01*
X103270580Y-136466826D01*
X103090030Y-136621030D01*
X102935826Y-136801580D01*
X102935825Y-136801582D01*
X102811759Y-137004038D01*
X102720894Y-137223407D01*
X102667809Y-137444526D01*
X102665465Y-137454289D01*
X102646835Y-137691000D01*
X102660855Y-137869143D01*
X102665465Y-137927710D01*
X102720894Y-138158592D01*
X102795950Y-138339793D01*
X102811760Y-138377963D01*
X102929065Y-138569387D01*
X102935825Y-138580417D01*
X102935826Y-138580419D01*
X103090030Y-138760969D01*
X103258647Y-138904981D01*
X103270584Y-138915176D01*
X103466337Y-139035134D01*
X103513966Y-139087780D01*
X103526500Y-139142565D01*
X103526500Y-139614440D01*
X103506498Y-139682561D01*
X103453750Y-139728635D01*
X103293250Y-139803477D01*
X103105703Y-139934799D01*
X103105697Y-139934804D01*
X102943804Y-140096697D01*
X102943799Y-140096703D01*
X102812477Y-140284250D01*
X102715717Y-140491753D01*
X102715715Y-140491759D01*
X102665039Y-140680886D01*
X102656457Y-140712913D01*
X102636502Y-140941000D01*
X102656457Y-141169087D01*
X102668924Y-141215614D01*
X102715715Y-141390240D01*
X102715717Y-141390246D01*
X102782463Y-141533383D01*
X102812477Y-141597749D01*
X102943802Y-141785300D01*
X103105700Y-141947198D01*
X103293251Y-142078523D01*
X103500757Y-142175284D01*
X103721913Y-142234543D01*
X103950000Y-142254498D01*
X104178087Y-142234543D01*
X104399243Y-142175284D01*
X104606749Y-142078523D01*
X104794300Y-141947198D01*
X104956198Y-141785300D01*
X105087523Y-141597749D01*
X105184284Y-141390243D01*
X105243543Y-141169087D01*
X105263498Y-140941000D01*
X105243543Y-140712913D01*
X105184284Y-140491757D01*
X105087523Y-140284251D01*
X104956198Y-140096700D01*
X104830404Y-139970906D01*
X104796379Y-139908594D01*
X104793500Y-139881811D01*
X104793500Y-139142565D01*
X104813502Y-139074444D01*
X104853662Y-139035134D01*
X105049416Y-138915176D01*
X105229969Y-138760969D01*
X105384176Y-138580416D01*
X105504134Y-138384662D01*
X105556780Y-138337034D01*
X105611565Y-138324500D01*
X109208435Y-138324500D01*
X109276556Y-138344502D01*
X109315865Y-138384662D01*
X109433467Y-138576569D01*
X109435825Y-138580417D01*
X109435826Y-138580419D01*
X109494972Y-138649670D01*
X109524003Y-138714460D01*
X109513398Y-138784660D01*
X109466523Y-138837982D01*
X109399161Y-138857500D01*
X108983854Y-138857500D01*
X108968012Y-138855750D01*
X108967985Y-138856044D01*
X108960092Y-138855297D01*
X108892002Y-138857438D01*
X108888044Y-138857500D01*
X108860144Y-138857500D01*
X108860138Y-138857500D01*
X108860132Y-138857501D01*
X108856133Y-138858006D01*
X108844313Y-138858936D01*
X108800111Y-138860325D01*
X108780650Y-138865979D01*
X108761304Y-138869985D01*
X108741204Y-138872525D01*
X108741203Y-138872525D01*
X108700095Y-138888800D01*
X108688870Y-138892643D01*
X108646413Y-138904978D01*
X108646404Y-138904982D01*
X108628962Y-138915297D01*
X108611215Y-138923991D01*
X108592383Y-138931447D01*
X108592381Y-138931448D01*
X108556614Y-138957434D01*
X108546700Y-138963947D01*
X108508636Y-138986459D01*
X108508633Y-138986461D01*
X108494312Y-139000783D01*
X108479283Y-139013619D01*
X108462893Y-139025527D01*
X108434705Y-139059599D01*
X108426718Y-139068375D01*
X107863246Y-139631847D01*
X107800934Y-139665873D01*
X107741540Y-139664459D01*
X107678090Y-139647457D01*
X107450000Y-139627502D01*
X107221913Y-139647457D01*
X107000759Y-139706715D01*
X107000753Y-139706717D01*
X106793250Y-139803477D01*
X106605703Y-139934799D01*
X106605697Y-139934804D01*
X106443804Y-140096697D01*
X106443799Y-140096703D01*
X106312477Y-140284250D01*
X106215717Y-140491753D01*
X106215715Y-140491759D01*
X106165039Y-140680886D01*
X106156457Y-140712913D01*
X106136502Y-140941000D01*
X106156457Y-141169087D01*
X106168924Y-141215614D01*
X106215715Y-141390240D01*
X106215717Y-141390246D01*
X106282463Y-141533383D01*
X106312477Y-141597749D01*
X106443802Y-141785300D01*
X106605700Y-141947198D01*
X106793251Y-142078523D01*
X107000757Y-142175284D01*
X107221913Y-142234543D01*
X107305243Y-142241833D01*
X107371358Y-142267695D01*
X107383354Y-142278258D01*
X112064755Y-146959660D01*
X112074720Y-146972097D01*
X112074947Y-146971910D01*
X112079999Y-146978017D01*
X112129649Y-147024641D01*
X112132493Y-147027398D01*
X112152223Y-147047129D01*
X112152224Y-147047130D01*
X112152228Y-147047133D01*
X112152230Y-147047135D01*
X112155435Y-147049621D01*
X112164442Y-147057314D01*
X112196679Y-147087586D01*
X112214428Y-147097343D01*
X112230953Y-147108198D01*
X112246959Y-147120614D01*
X112287542Y-147138175D01*
X112298193Y-147143393D01*
X112336940Y-147164695D01*
X112336948Y-147164697D01*
X112356558Y-147169732D01*
X112375267Y-147176137D01*
X112393855Y-147184181D01*
X112437530Y-147191098D01*
X112449141Y-147193502D01*
X112491970Y-147204500D01*
X112512224Y-147204500D01*
X112531934Y-147206051D01*
X112534141Y-147206400D01*
X112551943Y-147209220D01*
X112595961Y-147205058D01*
X112607819Y-147204500D01*
X113707234Y-147204500D01*
X113775355Y-147224502D01*
X113821848Y-147278158D01*
X113831952Y-147348432D01*
X113802458Y-147413012D01*
X113779505Y-147433713D01*
X113606025Y-147555184D01*
X113606019Y-147555189D01*
X113444189Y-147717019D01*
X113444184Y-147717025D01*
X113312912Y-147904501D01*
X113216188Y-148111926D01*
X113216186Y-148111931D01*
X113163917Y-148307000D01*
X114138314Y-148307000D01*
X114122359Y-148322955D01*
X114064835Y-148435852D01*
X114045014Y-148561000D01*
X114064835Y-148686148D01*
X114122359Y-148799045D01*
X114138314Y-148815000D01*
X113163918Y-148815000D01*
X113216186Y-149010068D01*
X113216188Y-149010073D01*
X113312912Y-149217498D01*
X113444184Y-149404974D01*
X113444189Y-149404980D01*
X113606019Y-149566810D01*
X113606025Y-149566815D01*
X113793501Y-149698087D01*
X114000926Y-149794811D01*
X114000931Y-149794813D01*
X114196000Y-149847081D01*
X114196000Y-148872686D01*
X114211955Y-148888641D01*
X114324852Y-148946165D01*
X114418519Y-148961000D01*
X114481481Y-148961000D01*
X114575148Y-148946165D01*
X114688045Y-148888641D01*
X114704000Y-148872686D01*
X114704000Y-149847081D01*
X114899068Y-149794813D01*
X114899073Y-149794811D01*
X115106498Y-149698087D01*
X115293974Y-149566815D01*
X115293980Y-149566810D01*
X115455810Y-149404980D01*
X115455815Y-149404974D01*
X115587087Y-149217498D01*
X115683811Y-149010073D01*
X115683813Y-149010068D01*
X115736082Y-148815000D01*
X114761686Y-148815000D01*
X114777641Y-148799045D01*
X114835165Y-148686148D01*
X114854986Y-148561000D01*
X114835165Y-148435852D01*
X114777641Y-148322955D01*
X114761686Y-148307000D01*
X115736082Y-148307000D01*
X115683813Y-148111931D01*
X115683811Y-148111926D01*
X115587087Y-147904501D01*
X115455815Y-147717025D01*
X115455810Y-147717019D01*
X115293980Y-147555189D01*
X115293974Y-147555184D01*
X115120495Y-147433713D01*
X115076167Y-147378256D01*
X115068858Y-147307637D01*
X115100889Y-147244276D01*
X115162090Y-147208291D01*
X115192766Y-147204500D01*
X129287643Y-147204500D01*
X129355764Y-147224502D01*
X129402257Y-147278158D01*
X129412361Y-147348432D01*
X129403032Y-147381111D01*
X129398857Y-147390629D01*
X129398856Y-147390630D01*
X129351135Y-147579079D01*
X129351136Y-147579080D01*
X130256564Y-147579080D01*
X130228187Y-147623236D01*
X130187680Y-147761191D01*
X130187680Y-147904969D01*
X130228187Y-148042924D01*
X130256564Y-148087080D01*
X129351135Y-148087080D01*
X129398856Y-148275529D01*
X129398859Y-148275536D01*
X129489260Y-148481628D01*
X129612354Y-148670038D01*
X129764777Y-148835614D01*
X129942378Y-148973847D01*
X129942379Y-148973848D01*
X130140308Y-149080962D01*
X130140310Y-149080963D01*
X130353163Y-149154035D01*
X130353172Y-149154037D01*
X130433680Y-149167471D01*
X130433680Y-148266754D01*
X130545365Y-148317760D01*
X130651917Y-148333080D01*
X130723443Y-148333080D01*
X130829995Y-148317760D01*
X130941680Y-148266754D01*
X130941680Y-149167470D01*
X131022187Y-149154037D01*
X131022196Y-149154035D01*
X131235049Y-149080963D01*
X131235051Y-149080962D01*
X131432980Y-148973848D01*
X131432981Y-148973847D01*
X131610582Y-148835614D01*
X131763007Y-148670035D01*
X131851897Y-148533979D01*
X131905900Y-148487890D01*
X131976248Y-148478315D01*
X132040605Y-148508292D01*
X132062863Y-148533978D01*
X132151959Y-148670350D01*
X132304442Y-148835988D01*
X132359011Y-148878461D01*
X132482104Y-148974269D01*
X132680106Y-149081422D01*
X132680107Y-149081422D01*
X132680108Y-149081423D01*
X132791907Y-149119803D01*
X132893045Y-149154524D01*
X133115111Y-149191580D01*
X133115115Y-149191580D01*
X133340245Y-149191580D01*
X133340249Y-149191580D01*
X133562315Y-149154524D01*
X133775254Y-149081422D01*
X133973256Y-148974269D01*
X134150920Y-148835986D01*
X134303402Y-148670348D01*
X134303607Y-148670035D01*
X134310121Y-148660063D01*
X134426540Y-148481871D01*
X134516976Y-148275696D01*
X134572244Y-148057448D01*
X134590836Y-147833080D01*
X134572244Y-147608712D01*
X134527928Y-147433713D01*
X134516977Y-147390467D01*
X134516976Y-147390466D01*
X134516976Y-147390464D01*
X134426540Y-147184289D01*
X134376828Y-147108199D01*
X134303404Y-146995814D01*
X134303400Y-146995809D01*
X134150917Y-146830171D01*
X134069062Y-146766461D01*
X133973256Y-146691891D01*
X133939999Y-146673893D01*
X133889609Y-146623882D01*
X133874256Y-146554565D01*
X133898816Y-146487952D01*
X133940000Y-146452266D01*
X133973256Y-146434269D01*
X134150920Y-146295986D01*
X134303402Y-146130348D01*
X134426540Y-145941871D01*
X134516976Y-145735696D01*
X134572244Y-145517448D01*
X134590836Y-145293080D01*
X134572244Y-145068712D01*
X134516976Y-144850464D01*
X134426540Y-144644289D01*
X134419820Y-144634004D01*
X134303404Y-144455814D01*
X134303400Y-144455809D01*
X134150917Y-144290171D01*
X134060606Y-144219879D01*
X133973256Y-144151891D01*
X133939999Y-144133893D01*
X133889609Y-144083882D01*
X133874256Y-144014565D01*
X133898816Y-143947952D01*
X133940000Y-143912266D01*
X133973256Y-143894269D01*
X134150920Y-143755986D01*
X134303402Y-143590348D01*
X134426540Y-143401871D01*
X134516976Y-143195696D01*
X134572244Y-142977448D01*
X134590836Y-142753080D01*
X134572244Y-142528712D01*
X134548932Y-142436655D01*
X134516977Y-142310467D01*
X134516976Y-142310466D01*
X134516976Y-142310464D01*
X134426540Y-142104289D01*
X134376666Y-142027951D01*
X134303404Y-141915814D01*
X134303400Y-141915809D01*
X134150917Y-141750171D01*
X134025264Y-141652371D01*
X133973256Y-141611891D01*
X133939472Y-141593608D01*
X133889082Y-141543596D01*
X133873730Y-141474279D01*
X133898290Y-141407666D01*
X133939473Y-141371981D01*
X133972980Y-141353847D01*
X133972981Y-141353847D01*
X134150582Y-141215614D01*
X134303005Y-141050038D01*
X134426099Y-140861628D01*
X134516500Y-140655536D01*
X134516503Y-140655529D01*
X134564224Y-140467080D01*
X133658796Y-140467080D01*
X133687173Y-140422924D01*
X133727680Y-140284969D01*
X133727680Y-140141191D01*
X133687173Y-140003236D01*
X133658796Y-139959080D01*
X134564224Y-139959080D01*
X134564224Y-139959079D01*
X134516503Y-139770630D01*
X134516500Y-139770623D01*
X134426099Y-139564531D01*
X134303005Y-139376121D01*
X134150582Y-139210545D01*
X133972981Y-139072312D01*
X133972980Y-139072311D01*
X133939471Y-139054177D01*
X133889081Y-139004163D01*
X133873730Y-138934846D01*
X133898292Y-138868233D01*
X133939470Y-138832552D01*
X133973256Y-138814269D01*
X134150920Y-138675986D01*
X134303402Y-138510348D01*
X134426540Y-138321871D01*
X134516976Y-138115696D01*
X134572244Y-137897448D01*
X134590836Y-137673080D01*
X134572244Y-137448712D01*
X134521515Y-137248387D01*
X134516977Y-137230467D01*
X134516976Y-137230466D01*
X134516976Y-137230464D01*
X134426540Y-137024289D01*
X134413309Y-137004037D01*
X134303404Y-136835814D01*
X134303400Y-136835809D01*
X134150917Y-136670171D01*
X133996279Y-136549811D01*
X133973256Y-136531891D01*
X133939472Y-136513608D01*
X133889082Y-136463596D01*
X133873730Y-136394279D01*
X133898290Y-136327666D01*
X133939473Y-136291981D01*
X133972980Y-136273847D01*
X133972981Y-136273847D01*
X134150582Y-136135614D01*
X134303005Y-135970038D01*
X134426099Y-135781628D01*
X134516500Y-135575536D01*
X134516503Y-135575529D01*
X134564224Y-135387080D01*
X133658796Y-135387080D01*
X133687173Y-135342924D01*
X133727680Y-135204969D01*
X133727680Y-135061191D01*
X133687173Y-134923236D01*
X133658796Y-134879080D01*
X134564224Y-134879080D01*
X134564224Y-134879079D01*
X134516503Y-134690630D01*
X134516500Y-134690623D01*
X134426099Y-134484531D01*
X134303005Y-134296121D01*
X134150582Y-134130545D01*
X133972981Y-133992312D01*
X133972980Y-133992311D01*
X133939471Y-133974177D01*
X133889081Y-133924163D01*
X133873730Y-133854846D01*
X133898292Y-133788233D01*
X133939470Y-133752552D01*
X133973256Y-133734269D01*
X134150920Y-133595986D01*
X134303402Y-133430348D01*
X134305126Y-133427710D01*
X134310121Y-133420063D01*
X134426540Y-133241871D01*
X134516976Y-133035696D01*
X134572244Y-132817448D01*
X134590836Y-132593080D01*
X134572244Y-132368712D01*
X134522318Y-132171559D01*
X134516977Y-132150467D01*
X134516976Y-132150466D01*
X134516976Y-132150464D01*
X134426540Y-131944289D01*
X134417992Y-131931205D01*
X134303404Y-131755814D01*
X134303400Y-131755809D01*
X134159674Y-131599683D01*
X134150920Y-131590174D01*
X134150919Y-131590173D01*
X134150917Y-131590171D01*
X134065955Y-131524042D01*
X133973256Y-131451891D01*
X133939999Y-131433893D01*
X133889609Y-131383882D01*
X133874256Y-131314565D01*
X133898816Y-131247952D01*
X133940000Y-131212266D01*
X133940527Y-131211981D01*
X133973256Y-131194269D01*
X134150920Y-131055986D01*
X134303402Y-130890348D01*
X134303607Y-130890035D01*
X134355819Y-130810117D01*
X134426540Y-130701871D01*
X134516976Y-130495696D01*
X134572244Y-130277448D01*
X134590836Y-130053080D01*
X134572244Y-129828712D01*
X134517018Y-129610630D01*
X134516977Y-129610467D01*
X134516976Y-129610466D01*
X134516976Y-129610464D01*
X134426540Y-129404289D01*
X134393287Y-129353391D01*
X134303404Y-129215814D01*
X134303400Y-129215809D01*
X134187250Y-129089639D01*
X134150920Y-129050174D01*
X134150919Y-129050173D01*
X134150917Y-129050171D01*
X134054070Y-128974792D01*
X133973256Y-128911891D01*
X133939999Y-128893893D01*
X133889609Y-128843882D01*
X133874256Y-128774565D01*
X133898816Y-128707952D01*
X133940000Y-128672266D01*
X133973256Y-128654269D01*
X134150920Y-128515986D01*
X134303402Y-128350348D01*
X134426540Y-128161871D01*
X134516976Y-127955696D01*
X134572244Y-127737448D01*
X134590836Y-127513080D01*
X134572244Y-127288712D01*
X134521590Y-127088683D01*
X134516977Y-127070467D01*
X134516976Y-127070466D01*
X134516976Y-127070464D01*
X134426540Y-126864289D01*
X134419820Y-126854004D01*
X134303404Y-126675814D01*
X134303400Y-126675809D01*
X134150917Y-126510171D01*
X134069062Y-126446461D01*
X133973256Y-126371891D01*
X133939999Y-126353893D01*
X133889609Y-126303882D01*
X133874256Y-126234565D01*
X133898816Y-126167952D01*
X133940000Y-126132266D01*
X133973256Y-126114269D01*
X134150920Y-125975986D01*
X134303402Y-125810348D01*
X134426540Y-125621871D01*
X134516976Y-125415696D01*
X134572244Y-125197448D01*
X134590836Y-124973080D01*
X134572244Y-124748712D01*
X134549423Y-124658594D01*
X134516977Y-124530467D01*
X134516976Y-124530466D01*
X134516976Y-124530464D01*
X134426540Y-124324289D01*
X134419820Y-124314004D01*
X134303404Y-124135814D01*
X134303400Y-124135809D01*
X134150917Y-123970171D01*
X134069062Y-123906461D01*
X133973256Y-123831891D01*
X133939472Y-123813608D01*
X133889082Y-123763596D01*
X133873730Y-123694279D01*
X133898290Y-123627666D01*
X133939473Y-123591981D01*
X133972980Y-123573847D01*
X133972981Y-123573847D01*
X134150582Y-123435614D01*
X134303005Y-123270038D01*
X134426099Y-123081628D01*
X134516500Y-122875536D01*
X134516503Y-122875529D01*
X134564224Y-122687080D01*
X133658796Y-122687080D01*
X133687173Y-122642924D01*
X133727680Y-122504969D01*
X133727680Y-122361191D01*
X133687173Y-122223236D01*
X133658796Y-122179080D01*
X134564224Y-122179080D01*
X134564224Y-122179079D01*
X134516503Y-121990630D01*
X134516500Y-121990623D01*
X134426099Y-121784531D01*
X134303005Y-121596121D01*
X134150582Y-121430545D01*
X133972981Y-121292312D01*
X133972980Y-121292311D01*
X133939471Y-121274177D01*
X133889081Y-121224163D01*
X133873730Y-121154846D01*
X133898292Y-121088233D01*
X133939470Y-121052552D01*
X133973256Y-121034269D01*
X134150920Y-120895986D01*
X134303402Y-120730348D01*
X134426540Y-120541871D01*
X134516976Y-120335696D01*
X134572244Y-120117448D01*
X134590836Y-119893080D01*
X134572244Y-119668712D01*
X134516976Y-119450464D01*
X134426540Y-119244289D01*
X134419820Y-119234004D01*
X134303404Y-119055814D01*
X134303400Y-119055809D01*
X134150917Y-118890171D01*
X134069062Y-118826461D01*
X133973256Y-118751891D01*
X133939999Y-118733893D01*
X133889609Y-118683882D01*
X133874256Y-118614565D01*
X133898816Y-118547952D01*
X133940000Y-118512266D01*
X133973256Y-118494269D01*
X134150920Y-118355986D01*
X134303402Y-118190348D01*
X134426540Y-118001871D01*
X134516976Y-117795696D01*
X134572244Y-117577448D01*
X134590836Y-117353080D01*
X134572244Y-117128712D01*
X134516976Y-116910464D01*
X134426540Y-116704289D01*
X134419820Y-116694004D01*
X134303404Y-116515814D01*
X134303400Y-116515809D01*
X134150917Y-116350171D01*
X134064201Y-116282677D01*
X133973256Y-116211891D01*
X133939472Y-116193608D01*
X133889082Y-116143596D01*
X133873730Y-116074279D01*
X133898290Y-116007666D01*
X133939473Y-115971981D01*
X133972980Y-115953847D01*
X133972981Y-115953847D01*
X134150582Y-115815614D01*
X134303005Y-115650038D01*
X134426099Y-115461628D01*
X134516500Y-115255536D01*
X134516503Y-115255529D01*
X134564224Y-115067080D01*
X133658796Y-115067080D01*
X133687173Y-115022924D01*
X133727680Y-114884969D01*
X133727680Y-114741191D01*
X133687173Y-114603236D01*
X133658796Y-114559080D01*
X134564224Y-114559080D01*
X134564224Y-114559079D01*
X134516503Y-114370630D01*
X134516500Y-114370623D01*
X134426099Y-114164531D01*
X134303005Y-113976121D01*
X134150582Y-113810545D01*
X133972981Y-113672312D01*
X133972980Y-113672311D01*
X133939471Y-113654177D01*
X133889081Y-113604163D01*
X133873730Y-113534846D01*
X133898292Y-113468233D01*
X133939470Y-113432552D01*
X133973256Y-113414269D01*
X134150920Y-113275986D01*
X134303402Y-113110348D01*
X134426540Y-112921871D01*
X134516976Y-112715696D01*
X134572244Y-112497448D01*
X134590836Y-112273080D01*
X134572244Y-112048712D01*
X134562975Y-112012111D01*
X134516977Y-111830467D01*
X134516976Y-111830466D01*
X134516976Y-111830464D01*
X134426540Y-111624289D01*
X134419820Y-111614004D01*
X134303404Y-111435814D01*
X134303400Y-111435809D01*
X134150917Y-111270171D01*
X134069062Y-111206461D01*
X133973256Y-111131891D01*
X133939999Y-111113893D01*
X133889609Y-111063882D01*
X133874256Y-110994565D01*
X133898816Y-110927952D01*
X133940000Y-110892266D01*
X133943134Y-110890570D01*
X133973256Y-110874269D01*
X134150920Y-110735986D01*
X134303402Y-110570348D01*
X134303607Y-110570035D01*
X134343886Y-110508382D01*
X134426540Y-110381871D01*
X134516976Y-110175696D01*
X134572244Y-109957448D01*
X134590836Y-109733080D01*
X134572244Y-109508712D01*
X134533186Y-109354477D01*
X134516977Y-109290467D01*
X134516976Y-109290466D01*
X134516976Y-109290464D01*
X134426540Y-109084289D01*
X134419044Y-109072816D01*
X134303404Y-108895814D01*
X134303400Y-108895809D01*
X134153061Y-108732500D01*
X134150920Y-108730174D01*
X134150919Y-108730173D01*
X134150917Y-108730171D01*
X134055063Y-108655565D01*
X133973256Y-108591891D01*
X133964530Y-108587169D01*
X133950925Y-108579806D01*
X133939999Y-108573893D01*
X133889609Y-108523882D01*
X133874256Y-108454565D01*
X133898816Y-108387952D01*
X133940000Y-108352266D01*
X133973256Y-108334269D01*
X134150920Y-108195986D01*
X134303402Y-108030348D01*
X134305126Y-108027710D01*
X134330426Y-107988985D01*
X134426540Y-107841871D01*
X134516976Y-107635696D01*
X134572244Y-107417448D01*
X134590836Y-107193080D01*
X134572244Y-106968712D01*
X134516976Y-106750464D01*
X134426540Y-106544289D01*
X134410264Y-106519377D01*
X134303404Y-106355814D01*
X134303400Y-106355809D01*
X134150917Y-106190171D01*
X134032302Y-106097849D01*
X133973256Y-106051891D01*
X133939472Y-106033608D01*
X133889082Y-105983596D01*
X133873730Y-105914279D01*
X133898290Y-105847666D01*
X133939473Y-105811981D01*
X133972980Y-105793847D01*
X133972981Y-105793847D01*
X134150582Y-105655614D01*
X134303005Y-105490038D01*
X134426099Y-105301628D01*
X134516500Y-105095536D01*
X134516503Y-105095529D01*
X134564224Y-104907080D01*
X133658796Y-104907080D01*
X133687173Y-104862924D01*
X133727680Y-104724969D01*
X133727680Y-104581191D01*
X133687173Y-104443236D01*
X133658796Y-104399080D01*
X134564224Y-104399080D01*
X134564224Y-104399079D01*
X134516503Y-104210630D01*
X134516500Y-104210623D01*
X134426099Y-104004531D01*
X134303005Y-103816121D01*
X134150582Y-103650545D01*
X133972981Y-103512312D01*
X133972980Y-103512311D01*
X133939471Y-103494177D01*
X133889081Y-103444163D01*
X133873730Y-103374846D01*
X133898292Y-103308233D01*
X133939470Y-103272552D01*
X133973256Y-103254269D01*
X134150920Y-103115986D01*
X134303402Y-102950348D01*
X134426540Y-102761871D01*
X134516976Y-102555696D01*
X134572244Y-102337448D01*
X134590836Y-102113080D01*
X134572244Y-101888712D01*
X134516976Y-101670464D01*
X134426540Y-101464289D01*
X134419820Y-101454004D01*
X134303404Y-101275814D01*
X134303400Y-101275809D01*
X134150917Y-101110171D01*
X134042687Y-101025932D01*
X133973256Y-100971891D01*
X133939999Y-100953893D01*
X133889609Y-100903882D01*
X133874256Y-100834565D01*
X133898816Y-100767952D01*
X133940000Y-100732266D01*
X133947116Y-100728415D01*
X133973256Y-100714269D01*
X134150920Y-100575986D01*
X134303402Y-100410348D01*
X134426540Y-100221871D01*
X134516976Y-100015696D01*
X134572244Y-99797448D01*
X134590836Y-99573080D01*
X134572244Y-99348712D01*
X134516976Y-99130464D01*
X134426540Y-98924289D01*
X134409180Y-98897717D01*
X134303404Y-98735814D01*
X134303400Y-98735809D01*
X134187250Y-98609639D01*
X134150920Y-98570174D01*
X134150919Y-98570173D01*
X134150917Y-98570171D01*
X134031047Y-98476872D01*
X133973256Y-98431891D01*
X133775254Y-98324738D01*
X133775252Y-98324737D01*
X133775251Y-98324736D01*
X133562319Y-98251637D01*
X133562310Y-98251635D01*
X133518156Y-98244267D01*
X133340249Y-98214580D01*
X133115111Y-98214580D01*
X132966891Y-98239313D01*
X132893049Y-98251635D01*
X132893040Y-98251637D01*
X132680108Y-98324736D01*
X132680106Y-98324738D01*
X132482106Y-98431890D01*
X132482104Y-98431891D01*
X132304442Y-98570171D01*
X132243434Y-98636443D01*
X132182581Y-98673013D01*
X132111616Y-98670878D01*
X132053071Y-98630716D01*
X132032679Y-98595137D01*
X131988569Y-98476877D01*
X131988567Y-98476872D01*
X131900941Y-98359818D01*
X131783887Y-98272192D01*
X131783882Y-98272190D01*
X131646884Y-98221091D01*
X131646876Y-98221089D01*
X131586329Y-98214580D01*
X131586318Y-98214580D01*
X129789042Y-98214580D01*
X129789030Y-98214580D01*
X129728483Y-98221089D01*
X129728475Y-98221091D01*
X129591477Y-98272190D01*
X129591472Y-98272192D01*
X129474418Y-98359818D01*
X129386792Y-98476872D01*
X129386790Y-98476877D01*
X129335691Y-98613875D01*
X129335689Y-98613883D01*
X129329180Y-98674430D01*
X129329180Y-100471729D01*
X129335689Y-100532276D01*
X129335691Y-100532284D01*
X129386790Y-100669282D01*
X129386792Y-100669287D01*
X129474418Y-100786341D01*
X129591471Y-100873966D01*
X129591472Y-100873966D01*
X129591476Y-100873969D01*
X129706490Y-100916867D01*
X129763322Y-100959412D01*
X129788133Y-101025932D01*
X129773042Y-101095306D01*
X129755155Y-101120258D01*
X129611959Y-101275810D01*
X129597790Y-101297497D01*
X129543785Y-101343585D01*
X129492308Y-101354580D01*
X112364912Y-101354580D01*
X112346652Y-101353250D01*
X112322683Y-101349739D01*
X112322682Y-101349739D01*
X112282552Y-101353250D01*
X112272825Y-101354101D01*
X112261844Y-101354580D01*
X112256285Y-101354580D01*
X112225180Y-101358215D01*
X112221538Y-101358587D01*
X112146048Y-101365192D01*
X112138857Y-101366677D01*
X112138843Y-101366612D01*
X112131485Y-101368243D01*
X112131501Y-101368308D01*
X112124362Y-101370000D01*
X112124359Y-101370000D01*
X112124358Y-101370001D01*
X112094627Y-101380821D01*
X112053125Y-101395926D01*
X112049669Y-101397127D01*
X111977730Y-101420966D01*
X111971084Y-101424066D01*
X111971056Y-101424006D01*
X111964272Y-101427290D01*
X111964302Y-101427349D01*
X111957739Y-101430645D01*
X111894402Y-101472301D01*
X111891315Y-101474267D01*
X111826822Y-101514048D01*
X111821063Y-101518602D01*
X111821022Y-101518550D01*
X111815175Y-101523313D01*
X111815217Y-101523363D01*
X111809599Y-101528076D01*
X111757558Y-101583236D01*
X111755005Y-101585863D01*
X110769225Y-102571643D01*
X110755376Y-102583613D01*
X110735943Y-102598080D01*
X110703771Y-102636421D01*
X110696360Y-102644509D01*
X110692420Y-102648449D01*
X110692414Y-102648456D01*
X110672997Y-102673011D01*
X110670689Y-102675845D01*
X110621964Y-102733915D01*
X110617935Y-102740042D01*
X110617880Y-102740006D01*
X110613825Y-102746371D01*
X110613882Y-102746406D01*
X110610030Y-102752649D01*
X110577996Y-102821345D01*
X110576401Y-102824638D01*
X110542394Y-102892356D01*
X110539882Y-102899258D01*
X110539820Y-102899235D01*
X110537343Y-102906361D01*
X110537404Y-102906382D01*
X110535096Y-102913346D01*
X110519759Y-102987615D01*
X110518967Y-102991188D01*
X110501500Y-103064891D01*
X110500648Y-103072185D01*
X110500581Y-103072177D01*
X110499814Y-103079677D01*
X110499881Y-103079683D01*
X110499241Y-103086993D01*
X110501447Y-103162809D01*
X110501500Y-103166473D01*
X110501500Y-103620130D01*
X110481498Y-103688251D01*
X110452891Y-103719561D01*
X110336765Y-103809946D01*
X110336760Y-103809951D01*
X110184279Y-103975586D01*
X110095483Y-104111500D01*
X110041479Y-104157588D01*
X109971131Y-104167163D01*
X109906774Y-104137186D01*
X109884517Y-104111500D01*
X109795720Y-103975586D01*
X109666220Y-103834914D01*
X109643240Y-103809951D01*
X109643239Y-103809950D01*
X109643237Y-103809948D01*
X109523367Y-103716649D01*
X109465576Y-103671668D01*
X109267574Y-103564515D01*
X109267572Y-103564514D01*
X109267571Y-103564513D01*
X109054639Y-103491414D01*
X109054630Y-103491412D01*
X109010476Y-103484044D01*
X108832569Y-103454357D01*
X108607431Y-103454357D01*
X108459211Y-103479090D01*
X108385369Y-103491412D01*
X108385360Y-103491414D01*
X108172428Y-103564513D01*
X108172426Y-103564515D01*
X107974426Y-103671667D01*
X107974424Y-103671668D01*
X107796762Y-103809948D01*
X107644279Y-103975586D01*
X107555483Y-104111500D01*
X107501479Y-104157588D01*
X107431131Y-104167163D01*
X107366774Y-104137186D01*
X107344517Y-104111500D01*
X107255720Y-103975586D01*
X107126220Y-103834914D01*
X107103240Y-103809951D01*
X107103239Y-103809950D01*
X107103237Y-103809948D01*
X106983367Y-103716649D01*
X106925576Y-103671668D01*
X106727574Y-103564515D01*
X106727572Y-103564514D01*
X106727571Y-103564513D01*
X106514639Y-103491414D01*
X106514630Y-103491412D01*
X106470476Y-103484044D01*
X106292569Y-103454357D01*
X106067431Y-103454357D01*
X105919211Y-103479090D01*
X105845369Y-103491412D01*
X105845360Y-103491414D01*
X105632428Y-103564513D01*
X105632426Y-103564515D01*
X105434426Y-103671667D01*
X105434424Y-103671668D01*
X105256762Y-103809948D01*
X105195754Y-103876220D01*
X105134901Y-103912790D01*
X105063936Y-103910655D01*
X105005391Y-103870493D01*
X104984999Y-103834914D01*
X104960265Y-103768601D01*
X104940889Y-103716653D01*
X104940888Y-103716651D01*
X104940887Y-103716649D01*
X104853261Y-103599595D01*
X104736207Y-103511969D01*
X104736202Y-103511967D01*
X104599204Y-103460868D01*
X104599196Y-103460866D01*
X104538649Y-103454357D01*
X104538638Y-103454357D01*
X102741362Y-103454357D01*
X102741350Y-103454357D01*
X102680803Y-103460866D01*
X102680795Y-103460868D01*
X102543797Y-103511967D01*
X102543792Y-103511969D01*
X102426738Y-103599595D01*
X102339112Y-103716649D01*
X102339110Y-103716654D01*
X102288011Y-103853652D01*
X102288009Y-103853660D01*
X102281500Y-103914207D01*
X102281500Y-105711506D01*
X100207669Y-105711506D01*
X100207669Y-105395882D01*
X97191669Y-105395882D01*
X97191669Y-105940479D01*
X97198174Y-106000976D01*
X97234039Y-106097134D01*
X97239103Y-106167950D01*
X97234039Y-106185198D01*
X97197679Y-106282681D01*
X97197678Y-106282685D01*
X97191169Y-106343232D01*
X97191169Y-107940531D01*
X97197678Y-108001078D01*
X97197680Y-108001086D01*
X97233772Y-108097849D01*
X97238838Y-108168665D01*
X97233772Y-108185915D01*
X97197680Y-108282677D01*
X97197678Y-108282685D01*
X97191169Y-108343232D01*
X97191169Y-109940531D01*
X97197678Y-110001078D01*
X97197680Y-110001086D01*
X97233772Y-110097849D01*
X97238838Y-110168665D01*
X97233772Y-110185915D01*
X97197680Y-110282677D01*
X97197678Y-110282685D01*
X97191169Y-110343232D01*
X97191169Y-111940531D01*
X97197678Y-112001078D01*
X97197680Y-112001086D01*
X97233772Y-112097849D01*
X97238838Y-112168665D01*
X97233772Y-112185915D01*
X97197680Y-112282677D01*
X97197678Y-112282685D01*
X97191169Y-112343232D01*
X97191169Y-113940531D01*
X97197678Y-114001078D01*
X97197680Y-114001086D01*
X97233772Y-114097849D01*
X97238838Y-114168665D01*
X97233772Y-114185915D01*
X97197680Y-114282677D01*
X97197678Y-114282685D01*
X97191169Y-114343232D01*
X97191169Y-115940531D01*
X97197678Y-116001078D01*
X97197680Y-116001086D01*
X97233772Y-116097849D01*
X97238838Y-116168665D01*
X97233772Y-116185915D01*
X97197680Y-116282677D01*
X97197678Y-116282685D01*
X97191169Y-116343232D01*
X97191169Y-117940531D01*
X97197678Y-118001078D01*
X97197680Y-118001086D01*
X97248779Y-118138084D01*
X97248781Y-118138089D01*
X97336407Y-118255143D01*
X97453461Y-118342769D01*
X97453463Y-118342770D01*
X97453465Y-118342771D01*
X97488901Y-118355988D01*
X97590464Y-118393870D01*
X97590472Y-118393872D01*
X97651019Y-118400381D01*
X97651024Y-118400381D01*
X97651031Y-118400382D01*
X97651037Y-118400382D01*
X99748301Y-118400382D01*
X99748307Y-118400382D01*
X99748314Y-118400381D01*
X99748318Y-118400381D01*
X99808865Y-118393872D01*
X99808868Y-118393871D01*
X99808870Y-118393871D01*
X99945873Y-118342771D01*
X99946468Y-118342326D01*
X100062930Y-118255143D01*
X100150556Y-118138089D01*
X100150556Y-118138088D01*
X100150558Y-118138086D01*
X100201658Y-118001083D01*
X100201907Y-117998772D01*
X100208168Y-117940531D01*
X100208169Y-117940514D01*
X100208169Y-116343249D01*
X100208168Y-116343232D01*
X100201659Y-116282685D01*
X100201657Y-116282677D01*
X100165566Y-116185915D01*
X100160500Y-116115099D01*
X100165566Y-116097849D01*
X100201657Y-116001086D01*
X100201659Y-116001078D01*
X100208168Y-115940531D01*
X100208169Y-115940514D01*
X100208169Y-114343249D01*
X100208168Y-114343232D01*
X100201659Y-114282685D01*
X100201657Y-114282677D01*
X100165566Y-114185915D01*
X100160500Y-114115099D01*
X100165566Y-114097849D01*
X100201657Y-114001086D01*
X100201659Y-114001078D01*
X100208168Y-113940531D01*
X100208169Y-113940514D01*
X100208169Y-113450476D01*
X100228171Y-113382355D01*
X100281827Y-113335862D01*
X100352101Y-113325758D01*
X100416681Y-113355252D01*
X100423264Y-113361381D01*
X101699595Y-114637712D01*
X101733621Y-114700024D01*
X101736500Y-114726807D01*
X101736500Y-129316474D01*
X101716498Y-129384595D01*
X101704137Y-129400784D01*
X101630957Y-129482059D01*
X101535476Y-129647438D01*
X101535473Y-129647445D01*
X101476457Y-129829072D01*
X101456496Y-130019000D01*
X101476457Y-130208927D01*
X101498722Y-130277448D01*
X101535473Y-130390556D01*
X101535476Y-130390561D01*
X101630958Y-130555941D01*
X101630965Y-130555951D01*
X101758744Y-130697864D01*
X101758747Y-130697866D01*
X101913248Y-130810118D01*
X102087712Y-130887794D01*
X102274513Y-130927500D01*
X102465487Y-130927500D01*
X102652288Y-130887794D01*
X102826752Y-130810118D01*
X102981253Y-130697866D01*
X103046809Y-130625059D01*
X103109034Y-130555951D01*
X103109035Y-130555949D01*
X103109040Y-130555944D01*
X103204527Y-130390556D01*
X103263542Y-130208928D01*
X103283504Y-130019000D01*
X103263542Y-129829072D01*
X103204527Y-129647444D01*
X103140779Y-129537030D01*
X103109042Y-129482059D01*
X103109041Y-129482058D01*
X103109040Y-129482056D01*
X103035863Y-129400784D01*
X103005146Y-129336776D01*
X103003500Y-129316474D01*
X103003500Y-114496062D01*
X103005249Y-114480225D01*
X103004955Y-114480198D01*
X103005701Y-114472305D01*
X103003562Y-114404244D01*
X103003500Y-114400286D01*
X103003500Y-114372364D01*
X103003500Y-114372357D01*
X103002991Y-114368336D01*
X103002061Y-114356509D01*
X103000673Y-114312323D01*
X102995022Y-114292876D01*
X102991012Y-114273513D01*
X102988474Y-114253416D01*
X102988473Y-114253413D01*
X102987480Y-114245552D01*
X102990622Y-114245155D01*
X102992523Y-114188900D01*
X103032901Y-114130503D01*
X103098441Y-114103207D01*
X103168334Y-114115678D01*
X103201247Y-114139364D01*
X104239595Y-115177712D01*
X104273621Y-115240024D01*
X104276500Y-115266807D01*
X104276500Y-130459474D01*
X104256498Y-130527595D01*
X104244137Y-130543784D01*
X104170957Y-130625059D01*
X104075476Y-130790438D01*
X104075473Y-130790444D01*
X104062783Y-130829500D01*
X104016457Y-130972072D01*
X103996496Y-131162000D01*
X104016457Y-131351928D01*
X104073900Y-131528716D01*
X104075928Y-131599683D01*
X104039265Y-131660481D01*
X103975553Y-131691807D01*
X103963956Y-131693263D01*
X103923295Y-131696464D01*
X103923291Y-131696464D01*
X103923289Y-131696465D01*
X103838573Y-131716803D01*
X103692407Y-131751894D01*
X103473038Y-131842759D01*
X103270582Y-131966825D01*
X103270580Y-131966826D01*
X103090030Y-132121030D01*
X102935826Y-132301580D01*
X102935825Y-132301582D01*
X102935824Y-132301584D01*
X102892466Y-132372336D01*
X102839820Y-132419966D01*
X102785035Y-132432500D01*
X101824965Y-132432500D01*
X101756844Y-132412498D01*
X101717533Y-132372336D01*
X101674176Y-132301584D01*
X101655914Y-132280202D01*
X101519969Y-132121030D01*
X101339419Y-131966826D01*
X101339417Y-131966825D01*
X101339416Y-131966824D01*
X101136963Y-131842760D01*
X101132391Y-131840866D01*
X100917592Y-131751894D01*
X100752619Y-131712288D01*
X100686711Y-131696465D01*
X100450000Y-131677835D01*
X100213289Y-131696465D01*
X99982407Y-131751894D01*
X99763038Y-131842759D01*
X99560582Y-131966825D01*
X99560580Y-131966826D01*
X99380030Y-132121030D01*
X99225826Y-132301580D01*
X99225825Y-132301582D01*
X99225824Y-132301584D01*
X99182466Y-132372336D01*
X99129820Y-132419966D01*
X99075035Y-132432500D01*
X97188744Y-132432500D01*
X97181419Y-132432287D01*
X97168621Y-132431541D01*
X97118601Y-132428628D01*
X97118593Y-132428628D01*
X97107491Y-132430586D01*
X97085613Y-132432500D01*
X95324965Y-132432500D01*
X95256844Y-132412498D01*
X95217533Y-132372336D01*
X95174176Y-132301584D01*
X95155914Y-132280202D01*
X95019969Y-132121030D01*
X94839419Y-131966826D01*
X94839417Y-131966825D01*
X94839416Y-131966824D01*
X94636963Y-131842760D01*
X94632391Y-131840866D01*
X94417592Y-131751894D01*
X94252619Y-131712288D01*
X94186711Y-131696465D01*
X93950000Y-131677835D01*
X93713288Y-131696465D01*
X93632601Y-131715836D01*
X93561693Y-131712288D01*
X93514093Y-131682412D01*
X91411908Y-129580227D01*
X91399936Y-129566375D01*
X91385469Y-129546942D01*
X91385467Y-129546940D01*
X91347129Y-129514770D01*
X91339027Y-129507345D01*
X91335106Y-129503424D01*
X91310528Y-129483989D01*
X91307691Y-129481678D01*
X91249635Y-129432964D01*
X91243506Y-129428933D01*
X91243541Y-129428878D01*
X91237187Y-129424829D01*
X91237153Y-129424886D01*
X91230906Y-129421033D01*
X91162205Y-129388996D01*
X91158909Y-129387401D01*
X91113987Y-129364841D01*
X91091188Y-129353391D01*
X91091186Y-129353390D01*
X91091183Y-129353389D01*
X91084289Y-129350880D01*
X91084311Y-129350817D01*
X91077189Y-129348341D01*
X91077169Y-129348404D01*
X91070211Y-129346098D01*
X90995942Y-129330762D01*
X90992367Y-129329969D01*
X90918656Y-129312500D01*
X90911367Y-129311648D01*
X90911374Y-129311580D01*
X90903877Y-129310814D01*
X90903872Y-129310881D01*
X90896559Y-129310241D01*
X90896558Y-129310241D01*
X90850539Y-129311580D01*
X90820741Y-129312447D01*
X90817077Y-129312500D01*
X84934500Y-129312500D01*
X84866379Y-129292498D01*
X84819886Y-129238842D01*
X84808500Y-129186500D01*
X84808500Y-129172367D01*
X84808499Y-129172350D01*
X84801990Y-129111803D01*
X84801988Y-129111795D01*
X84772924Y-129033875D01*
X84750889Y-128974796D01*
X84750888Y-128974794D01*
X84750887Y-128974792D01*
X84663261Y-128857738D01*
X84546207Y-128770112D01*
X84546202Y-128770110D01*
X84409204Y-128719011D01*
X84409196Y-128719009D01*
X84348649Y-128712500D01*
X84348638Y-128712500D01*
X82551362Y-128712500D01*
X82551350Y-128712500D01*
X82490803Y-128719009D01*
X82490795Y-128719011D01*
X82353797Y-128770110D01*
X82353792Y-128770112D01*
X82236738Y-128857738D01*
X82149112Y-128974792D01*
X82149110Y-128974797D01*
X82098011Y-129111795D01*
X82098009Y-129111803D01*
X82091500Y-129172350D01*
X82091500Y-130969649D01*
X82098009Y-131030196D01*
X82098011Y-131030204D01*
X82149110Y-131167202D01*
X82149112Y-131167207D01*
X82236738Y-131284261D01*
X82353792Y-131371887D01*
X82353796Y-131371889D01*
X82469312Y-131414975D01*
X82526148Y-131457522D01*
X82550958Y-131524042D01*
X82535866Y-131593416D01*
X82517981Y-131618367D01*
X82374674Y-131774041D01*
X82251580Y-131962451D01*
X82161179Y-132168543D01*
X82161176Y-132168550D01*
X82113455Y-132356999D01*
X82113456Y-132357000D01*
X83018884Y-132357000D01*
X82990507Y-132401156D01*
X82950000Y-132539111D01*
X82950000Y-132682889D01*
X82990507Y-132820844D01*
X83018884Y-132865000D01*
X82113455Y-132865000D01*
X82161176Y-133053449D01*
X82161179Y-133053456D01*
X82251580Y-133259548D01*
X82374674Y-133447958D01*
X82527097Y-133613534D01*
X82704698Y-133751767D01*
X82704704Y-133751771D01*
X82738207Y-133769902D01*
X82788597Y-133819915D01*
X82803949Y-133889232D01*
X82779388Y-133955845D01*
X82738207Y-133991528D01*
X82704430Y-134009807D01*
X82704424Y-134009811D01*
X82526762Y-134148091D01*
X82374279Y-134313729D01*
X82374275Y-134313734D01*
X82251141Y-134502206D01*
X82160703Y-134708386D01*
X82160702Y-134708387D01*
X82105437Y-134926624D01*
X82105436Y-134926630D01*
X82105436Y-134926632D01*
X82094286Y-135061191D01*
X82086844Y-135151000D01*
X82105437Y-135375375D01*
X82160702Y-135593612D01*
X82160703Y-135593613D01*
X82160704Y-135593616D01*
X82241720Y-135778315D01*
X82251141Y-135799793D01*
X82374275Y-135988265D01*
X82374279Y-135988270D01*
X82526762Y-136153908D01*
X82581331Y-136196381D01*
X82704424Y-136292189D01*
X82737680Y-136310186D01*
X82788071Y-136360200D01*
X82803423Y-136429516D01*
X82778862Y-136496129D01*
X82737680Y-136531813D01*
X82704426Y-136549810D01*
X82704424Y-136549811D01*
X82526762Y-136688091D01*
X82374279Y-136853729D01*
X82374275Y-136853734D01*
X82251141Y-137042206D01*
X82160703Y-137248386D01*
X82160702Y-137248387D01*
X82105437Y-137466624D01*
X82105436Y-137466630D01*
X82105436Y-137466632D01*
X82086844Y-137691000D01*
X79550500Y-137691000D01*
X79550500Y-128312857D01*
X94436835Y-128312857D01*
X94455465Y-128549567D01*
X94510894Y-128780449D01*
X94565512Y-128912308D01*
X94601760Y-128999820D01*
X94716158Y-129186500D01*
X94725825Y-129202274D01*
X94725826Y-129202276D01*
X94880030Y-129382826D01*
X95030384Y-129511240D01*
X95060584Y-129537033D01*
X95263037Y-129661097D01*
X95482406Y-129751962D01*
X95713289Y-129807392D01*
X95950000Y-129826022D01*
X96186711Y-129807392D01*
X96417594Y-129751962D01*
X96636963Y-129661097D01*
X96839416Y-129537033D01*
X97019969Y-129382826D01*
X97174176Y-129202273D01*
X97298240Y-128999820D01*
X97389105Y-128780451D01*
X97444535Y-128549568D01*
X97463165Y-128312857D01*
X97444535Y-128076146D01*
X97389105Y-127845263D01*
X97298240Y-127625894D01*
X97174176Y-127423441D01*
X97174173Y-127423437D01*
X97019969Y-127242887D01*
X96839419Y-127088683D01*
X96839417Y-127088682D01*
X96839416Y-127088681D01*
X96636963Y-126964617D01*
X96417594Y-126873752D01*
X96417592Y-126873751D01*
X96259651Y-126835833D01*
X96186711Y-126818322D01*
X95950000Y-126799692D01*
X95713289Y-126818322D01*
X95482407Y-126873751D01*
X95263038Y-126964616D01*
X95060582Y-127088682D01*
X95060580Y-127088683D01*
X94880030Y-127242887D01*
X94725826Y-127423437D01*
X94725825Y-127423439D01*
X94601759Y-127625895D01*
X94510894Y-127845264D01*
X94455465Y-128076146D01*
X94436835Y-128312857D01*
X79550500Y-128312857D01*
X79550500Y-117395882D01*
X81191669Y-117395882D01*
X81191669Y-117940479D01*
X81198174Y-118000975D01*
X81249224Y-118137846D01*
X81249224Y-118137847D01*
X81336764Y-118254786D01*
X81453703Y-118342326D01*
X81590575Y-118393376D01*
X81651071Y-118399881D01*
X81651084Y-118399882D01*
X82445669Y-118399882D01*
X82445669Y-117395882D01*
X82953669Y-117395882D01*
X82953669Y-118399882D01*
X83748254Y-118399882D01*
X83748266Y-118399881D01*
X83808762Y-118393376D01*
X83945633Y-118342326D01*
X83945634Y-118342326D01*
X84062573Y-118254786D01*
X84150113Y-118137847D01*
X84150113Y-118137846D01*
X84201163Y-118000975D01*
X84207668Y-117940479D01*
X84207669Y-117940467D01*
X84207669Y-117395882D01*
X82953669Y-117395882D01*
X82445669Y-117395882D01*
X81191669Y-117395882D01*
X79550500Y-117395882D01*
X79550500Y-115940531D01*
X81191169Y-115940531D01*
X81197678Y-116001078D01*
X81197679Y-116001079D01*
X81197679Y-116001081D01*
X81197680Y-116001083D01*
X81234039Y-116098563D01*
X81239104Y-116169379D01*
X81234039Y-116186627D01*
X81198174Y-116282786D01*
X81191669Y-116343284D01*
X81191669Y-116887882D01*
X84207669Y-116887882D01*
X84207669Y-116343296D01*
X84207668Y-116343284D01*
X84201163Y-116282789D01*
X84165298Y-116186630D01*
X84160233Y-116115814D01*
X84165299Y-116098564D01*
X84201657Y-116001086D01*
X84201659Y-116001078D01*
X84208168Y-115940531D01*
X84208169Y-115940514D01*
X84208169Y-114343249D01*
X84208168Y-114343232D01*
X84201659Y-114282685D01*
X84201657Y-114282677D01*
X84165566Y-114185915D01*
X84160500Y-114115099D01*
X84165566Y-114097849D01*
X84201657Y-114001086D01*
X84201659Y-114001078D01*
X84208168Y-113940531D01*
X84208169Y-113940514D01*
X84208169Y-112343249D01*
X84208168Y-112343232D01*
X84201659Y-112282685D01*
X84201657Y-112282677D01*
X84165566Y-112185915D01*
X84160500Y-112115099D01*
X84165566Y-112097849D01*
X84201657Y-112001086D01*
X84201659Y-112001078D01*
X84208168Y-111940531D01*
X84208169Y-111940514D01*
X84208169Y-111901382D01*
X84228171Y-111833261D01*
X84281827Y-111786768D01*
X84334169Y-111775382D01*
X90925288Y-111775382D01*
X90993409Y-111795384D01*
X91014383Y-111812287D01*
X91539595Y-112337499D01*
X91573621Y-112399811D01*
X91576500Y-112426594D01*
X91576500Y-123474474D01*
X91556498Y-123542595D01*
X91544137Y-123558784D01*
X91470957Y-123640059D01*
X91391361Y-123777925D01*
X91375473Y-123805444D01*
X91366881Y-123831887D01*
X91316457Y-123987072D01*
X91296496Y-124177000D01*
X91316457Y-124366927D01*
X91336207Y-124427710D01*
X91375473Y-124548556D01*
X91375476Y-124548561D01*
X91470958Y-124713941D01*
X91470965Y-124713951D01*
X91598744Y-124855864D01*
X91598747Y-124855866D01*
X91753248Y-124968118D01*
X91927712Y-125045794D01*
X92114513Y-125085500D01*
X92305487Y-125085500D01*
X92492288Y-125045794D01*
X92666752Y-124968118D01*
X92821253Y-124855866D01*
X92949040Y-124713944D01*
X93044527Y-124548556D01*
X93103542Y-124366928D01*
X93123504Y-124177000D01*
X93103542Y-123987072D01*
X93044527Y-123805444D01*
X92950324Y-123642280D01*
X92949042Y-123640059D01*
X92949041Y-123640058D01*
X92949040Y-123640056D01*
X92875863Y-123558784D01*
X92845146Y-123494776D01*
X92843500Y-123474474D01*
X92843500Y-122796111D01*
X92863502Y-122727990D01*
X92917158Y-122681497D01*
X92987432Y-122671393D01*
X93020749Y-122681004D01*
X93023243Y-122682114D01*
X93023248Y-122682118D01*
X93197712Y-122759794D01*
X93384513Y-122799500D01*
X93575487Y-122799500D01*
X93762288Y-122759794D01*
X93936752Y-122682118D01*
X94091253Y-122569866D01*
X94115638Y-122542784D01*
X94219034Y-122427951D01*
X94219035Y-122427949D01*
X94219040Y-122427944D01*
X94314527Y-122262556D01*
X94373542Y-122080928D01*
X94393504Y-121891000D01*
X94373542Y-121701072D01*
X94314527Y-121519444D01*
X94219040Y-121354056D01*
X94145863Y-121272784D01*
X94115146Y-121208776D01*
X94113500Y-121188474D01*
X94113500Y-120891111D01*
X94133502Y-120822990D01*
X94187158Y-120776497D01*
X94257432Y-120766393D01*
X94290749Y-120776004D01*
X94293243Y-120777114D01*
X94293248Y-120777118D01*
X94467712Y-120854794D01*
X94654513Y-120894500D01*
X94845487Y-120894500D01*
X95032288Y-120854794D01*
X95206752Y-120777118D01*
X95206756Y-120777114D01*
X95209251Y-120776004D01*
X95279618Y-120766570D01*
X95343915Y-120796676D01*
X95381728Y-120856765D01*
X95386500Y-120891111D01*
X95386500Y-122458474D01*
X95366498Y-122526595D01*
X95354137Y-122542784D01*
X95280957Y-122624059D01*
X95185476Y-122789438D01*
X95185473Y-122789444D01*
X95176833Y-122816035D01*
X95126457Y-122971072D01*
X95106496Y-123161000D01*
X95126457Y-123350927D01*
X95153974Y-123435614D01*
X95185473Y-123532556D01*
X95209556Y-123574269D01*
X95280958Y-123697941D01*
X95280965Y-123697951D01*
X95408744Y-123839864D01*
X95408747Y-123839866D01*
X95563248Y-123952118D01*
X95737712Y-124029794D01*
X95924513Y-124069500D01*
X96115487Y-124069500D01*
X96302288Y-124029794D01*
X96476752Y-123952118D01*
X96631253Y-123839866D01*
X96638435Y-123831890D01*
X96759034Y-123697951D01*
X96759035Y-123697949D01*
X96759040Y-123697944D01*
X96854527Y-123532556D01*
X96913542Y-123350928D01*
X96933504Y-123161000D01*
X96913542Y-122971072D01*
X96854527Y-122789444D01*
X96778319Y-122657448D01*
X96759042Y-122624059D01*
X96759041Y-122624058D01*
X96759040Y-122624056D01*
X96685863Y-122542784D01*
X96655146Y-122478776D01*
X96653500Y-122458474D01*
X96653500Y-108004849D01*
X96655249Y-107989012D01*
X96654955Y-107988985D01*
X96655701Y-107981092D01*
X96653562Y-107913031D01*
X96653500Y-107909073D01*
X96653500Y-107881151D01*
X96653500Y-107881144D01*
X96652991Y-107877123D01*
X96652061Y-107865296D01*
X96650673Y-107821110D01*
X96645022Y-107801663D01*
X96641012Y-107782300D01*
X96638474Y-107762203D01*
X96622192Y-107721081D01*
X96618358Y-107709882D01*
X96606018Y-107667406D01*
X96595700Y-107649961D01*
X96587005Y-107632209D01*
X96579553Y-107613385D01*
X96579550Y-107613379D01*
X96553564Y-107577613D01*
X96547045Y-107567689D01*
X96524541Y-107529635D01*
X96510218Y-107515312D01*
X96497377Y-107500279D01*
X96485471Y-107483892D01*
X96451405Y-107455710D01*
X96442626Y-107447721D01*
X93748126Y-104753221D01*
X93738161Y-104740783D01*
X93737934Y-104740972D01*
X93732883Y-104734866D01*
X93732882Y-104734864D01*
X93683230Y-104688238D01*
X93680387Y-104685482D01*
X93660659Y-104665753D01*
X93660653Y-104665748D01*
X93657449Y-104663262D01*
X93648438Y-104655565D01*
X93616207Y-104625299D01*
X93616201Y-104625295D01*
X93598445Y-104615533D01*
X93581929Y-104604684D01*
X93565923Y-104592268D01*
X93525346Y-104574709D01*
X93514689Y-104569487D01*
X93475945Y-104548188D01*
X93475942Y-104548187D01*
X93456318Y-104543148D01*
X93437618Y-104536746D01*
X93419027Y-104528701D01*
X93419025Y-104528700D01*
X93419023Y-104528700D01*
X93375356Y-104521783D01*
X93363737Y-104519377D01*
X93320912Y-104508382D01*
X93300658Y-104508382D01*
X93280948Y-104506831D01*
X93260939Y-104503662D01*
X93216921Y-104507823D01*
X93205063Y-104508382D01*
X84334169Y-104508382D01*
X84266048Y-104488380D01*
X84219555Y-104434724D01*
X84208169Y-104382382D01*
X84208169Y-104343249D01*
X84208168Y-104343232D01*
X84201659Y-104282685D01*
X84201657Y-104282677D01*
X84165299Y-104185200D01*
X84160233Y-104114385D01*
X84165298Y-104097134D01*
X84201163Y-104000974D01*
X84207668Y-103940479D01*
X84207669Y-103940467D01*
X84207669Y-103395882D01*
X81191669Y-103395882D01*
X81191669Y-103940479D01*
X81198174Y-104000976D01*
X81234039Y-104097134D01*
X81239103Y-104167950D01*
X81234039Y-104185198D01*
X81197679Y-104282681D01*
X81197678Y-104282685D01*
X81191169Y-104343232D01*
X81191169Y-105940531D01*
X81197678Y-106001078D01*
X81197680Y-106001086D01*
X81233772Y-106097849D01*
X81238838Y-106168665D01*
X81233772Y-106185915D01*
X81197680Y-106282677D01*
X81197678Y-106282685D01*
X81191169Y-106343232D01*
X81191169Y-107940531D01*
X81197678Y-108001078D01*
X81197680Y-108001086D01*
X81233772Y-108097849D01*
X81238838Y-108168665D01*
X81233772Y-108185915D01*
X81197680Y-108282677D01*
X81197678Y-108282685D01*
X81191169Y-108343232D01*
X81191169Y-109940531D01*
X81197678Y-110001078D01*
X81197680Y-110001086D01*
X81233772Y-110097849D01*
X81238838Y-110168665D01*
X81233772Y-110185915D01*
X81197680Y-110282677D01*
X81197678Y-110282685D01*
X81191169Y-110343232D01*
X81191169Y-111940531D01*
X81197678Y-112001078D01*
X81197680Y-112001086D01*
X81233772Y-112097849D01*
X81238838Y-112168665D01*
X81233772Y-112185915D01*
X81197680Y-112282677D01*
X81197678Y-112282685D01*
X81191169Y-112343232D01*
X81191169Y-113940531D01*
X81197678Y-114001078D01*
X81197680Y-114001086D01*
X81233772Y-114097849D01*
X81238838Y-114168665D01*
X81233772Y-114185915D01*
X81197680Y-114282677D01*
X81197678Y-114282685D01*
X81191169Y-114343232D01*
X81191169Y-115940531D01*
X79550500Y-115940531D01*
X79550500Y-102887882D01*
X81191669Y-102887882D01*
X82445669Y-102887882D01*
X82445669Y-101883882D01*
X82953669Y-101883882D01*
X82953669Y-102887882D01*
X84207669Y-102887882D01*
X84207669Y-102343296D01*
X84207668Y-102343284D01*
X84201163Y-102282788D01*
X84150113Y-102145917D01*
X84150113Y-102145916D01*
X84062573Y-102028977D01*
X83945634Y-101941437D01*
X83808762Y-101890387D01*
X83748266Y-101883882D01*
X82953669Y-101883882D01*
X82445669Y-101883882D01*
X81651071Y-101883882D01*
X81590575Y-101890387D01*
X81453704Y-101941437D01*
X81453703Y-101941437D01*
X81336764Y-102028977D01*
X81249224Y-102145916D01*
X81249224Y-102145917D01*
X81198174Y-102282788D01*
X81191669Y-102343284D01*
X81191669Y-102887882D01*
X79550500Y-102887882D01*
X79550500Y-98831000D01*
X91771950Y-98831000D01*
X91792117Y-99087246D01*
X91852121Y-99337183D01*
X91950486Y-99574657D01*
X92084791Y-99793824D01*
X92086253Y-99795536D01*
X92656806Y-99224982D01*
X92702316Y-99310822D01*
X92822009Y-99451735D01*
X92969195Y-99563623D01*
X93015268Y-99584939D01*
X92445462Y-100154745D01*
X92445462Y-100154746D01*
X92447174Y-100156207D01*
X92666342Y-100290513D01*
X92903816Y-100388878D01*
X93153753Y-100448882D01*
X93410000Y-100469049D01*
X93666246Y-100448882D01*
X93916183Y-100388878D01*
X94153657Y-100290513D01*
X94372825Y-100156207D01*
X94374535Y-100154746D01*
X94374536Y-100154745D01*
X93805077Y-99585286D01*
X93927431Y-99511669D01*
X94061658Y-99384523D01*
X94165413Y-99231495D01*
X94166635Y-99228426D01*
X94733745Y-99795536D01*
X94733746Y-99795535D01*
X94735207Y-99793825D01*
X94869513Y-99574657D01*
X94949091Y-99382539D01*
X94993639Y-99327258D01*
X95061003Y-99304837D01*
X95129794Y-99322395D01*
X95178172Y-99374357D01*
X95191500Y-99430757D01*
X95191500Y-100327772D01*
X95190170Y-100346032D01*
X95186659Y-100369999D01*
X95186659Y-100370008D01*
X95191020Y-100419846D01*
X95191500Y-100430829D01*
X95191500Y-100436398D01*
X95195135Y-100467502D01*
X95195507Y-100471145D01*
X95202111Y-100546631D01*
X95203596Y-100553819D01*
X95203531Y-100553832D01*
X95205165Y-100561202D01*
X95205229Y-100561188D01*
X95206921Y-100568329D01*
X95232846Y-100639555D01*
X95234049Y-100643017D01*
X95257884Y-100714948D01*
X95260987Y-100721601D01*
X95260926Y-100721629D01*
X95264211Y-100728415D01*
X95264270Y-100728386D01*
X95267563Y-100734943D01*
X95309232Y-100798297D01*
X95311171Y-100801340D01*
X95350970Y-100865864D01*
X95350972Y-100865867D01*
X95355522Y-100871621D01*
X95355468Y-100871663D01*
X95360228Y-100877505D01*
X95360279Y-100877463D01*
X95364997Y-100883085D01*
X95420155Y-100935124D01*
X95422784Y-100937678D01*
X97154264Y-102669158D01*
X97188290Y-102731470D01*
X97191169Y-102758253D01*
X97191169Y-103940531D01*
X97197678Y-104001078D01*
X97197679Y-104001079D01*
X97197679Y-104001081D01*
X97197680Y-104001083D01*
X97233506Y-104097134D01*
X97234039Y-104098563D01*
X97239104Y-104169379D01*
X97234039Y-104186627D01*
X97198174Y-104282786D01*
X97191669Y-104343284D01*
X97191669Y-104887882D01*
X100207669Y-104887882D01*
X100207669Y-104343296D01*
X100207668Y-104343284D01*
X100201163Y-104282789D01*
X100165298Y-104186630D01*
X100160233Y-104115814D01*
X100165299Y-104098564D01*
X100201657Y-104001086D01*
X100201659Y-104001078D01*
X100208168Y-103940531D01*
X100208169Y-103940514D01*
X100208169Y-102343249D01*
X100208168Y-102343232D01*
X100201659Y-102282685D01*
X100201657Y-102282677D01*
X100150647Y-102145917D01*
X100150558Y-102145678D01*
X100150557Y-102145676D01*
X100150556Y-102145674D01*
X100062930Y-102028620D01*
X99945876Y-101940994D01*
X99945871Y-101940992D01*
X99808873Y-101889893D01*
X99808865Y-101889891D01*
X99748318Y-101883382D01*
X99748307Y-101883382D01*
X98566040Y-101883382D01*
X98497919Y-101863380D01*
X98476945Y-101846477D01*
X96745405Y-100114937D01*
X96711379Y-100052625D01*
X96708500Y-100025842D01*
X96708500Y-99430757D01*
X96728502Y-99362636D01*
X96782158Y-99316143D01*
X96852432Y-99306039D01*
X96917012Y-99335533D01*
X96950909Y-99382539D01*
X97030486Y-99574657D01*
X97164791Y-99793824D01*
X97166253Y-99795536D01*
X97736806Y-99224982D01*
X97782316Y-99310822D01*
X97902009Y-99451735D01*
X98049195Y-99563623D01*
X98095268Y-99584939D01*
X97525462Y-100154745D01*
X97525462Y-100154746D01*
X97527174Y-100156207D01*
X97746342Y-100290513D01*
X97983816Y-100388878D01*
X98233753Y-100448882D01*
X98490000Y-100469049D01*
X98746246Y-100448882D01*
X98996183Y-100388878D01*
X99233657Y-100290513D01*
X99452825Y-100156207D01*
X99454535Y-100154746D01*
X99454536Y-100154745D01*
X98885077Y-99585286D01*
X99007431Y-99511669D01*
X99141658Y-99384523D01*
X99245413Y-99231495D01*
X99246635Y-99228426D01*
X99813745Y-99795536D01*
X99813746Y-99795535D01*
X99815207Y-99793825D01*
X99949513Y-99574657D01*
X100047878Y-99337183D01*
X100107882Y-99087246D01*
X100128049Y-98831000D01*
X100107882Y-98574753D01*
X100047878Y-98324816D01*
X99949513Y-98087342D01*
X99815207Y-97868174D01*
X99813745Y-97866462D01*
X99243192Y-98437015D01*
X99197684Y-98351178D01*
X99077991Y-98210265D01*
X98930805Y-98098377D01*
X98884729Y-98077060D01*
X99454536Y-97507253D01*
X99452824Y-97505791D01*
X99233657Y-97371486D01*
X98996183Y-97273121D01*
X98746246Y-97213117D01*
X98490000Y-97192950D01*
X98233753Y-97213117D01*
X97983816Y-97273121D01*
X97746342Y-97371486D01*
X97527177Y-97505790D01*
X97527174Y-97505793D01*
X97525462Y-97507253D01*
X98094922Y-98076713D01*
X97972569Y-98150331D01*
X97838342Y-98277477D01*
X97734587Y-98430505D01*
X97733364Y-98433573D01*
X97166253Y-97866462D01*
X97164793Y-97868174D01*
X97164790Y-97868177D01*
X97030486Y-98087342D01*
X96950909Y-98279460D01*
X96906361Y-98334741D01*
X96838997Y-98357162D01*
X96770206Y-98339604D01*
X96721828Y-98287642D01*
X96708500Y-98231242D01*
X96708500Y-97695285D01*
X96728502Y-97627164D01*
X96768666Y-97587852D01*
X96854156Y-97535464D01*
X97037701Y-97378701D01*
X97194464Y-97195156D01*
X97320584Y-96989347D01*
X97412955Y-96766343D01*
X97469304Y-96531634D01*
X97488242Y-96291000D01*
X97469304Y-96050366D01*
X97412955Y-95815657D01*
X97320584Y-95592653D01*
X97194464Y-95386844D01*
X97037701Y-95203299D01*
X96854156Y-95046536D01*
X96648347Y-94920416D01*
X96425343Y-94828045D01*
X96425341Y-94828044D01*
X96264783Y-94789497D01*
X96190634Y-94771696D01*
X95950000Y-94752758D01*
X95709366Y-94771696D01*
X95474658Y-94828044D01*
X95251654Y-94920415D01*
X95045845Y-95046535D01*
X94862299Y-95203299D01*
X94705535Y-95386845D01*
X94579415Y-95592654D01*
X94487044Y-95815658D01*
X94430696Y-96050366D01*
X94411758Y-96291000D01*
X94430696Y-96531633D01*
X94487044Y-96766341D01*
X94487045Y-96766343D01*
X94579416Y-96989347D01*
X94705536Y-97195156D01*
X94862299Y-97378701D01*
X95045844Y-97535464D01*
X95045846Y-97535465D01*
X95045847Y-97535466D01*
X95131334Y-97587852D01*
X95178966Y-97640499D01*
X95191500Y-97695285D01*
X95191500Y-98231242D01*
X95171498Y-98299363D01*
X95117842Y-98345856D01*
X95047568Y-98355960D01*
X94982988Y-98326466D01*
X94949091Y-98279460D01*
X94869513Y-98087342D01*
X94735207Y-97868174D01*
X94733745Y-97866462D01*
X94163192Y-98437015D01*
X94117684Y-98351178D01*
X93997991Y-98210265D01*
X93850805Y-98098377D01*
X93804729Y-98077060D01*
X94374536Y-97507253D01*
X94372824Y-97505791D01*
X94153657Y-97371486D01*
X93916183Y-97273121D01*
X93666246Y-97213117D01*
X93410000Y-97192950D01*
X93153753Y-97213117D01*
X92903816Y-97273121D01*
X92666342Y-97371486D01*
X92447177Y-97505790D01*
X92447174Y-97505793D01*
X92445462Y-97507253D01*
X93014922Y-98076713D01*
X92892569Y-98150331D01*
X92758342Y-98277477D01*
X92654587Y-98430505D01*
X92653364Y-98433573D01*
X92086253Y-97866462D01*
X92084793Y-97868174D01*
X92084790Y-97868177D01*
X91950486Y-98087342D01*
X91852121Y-98324816D01*
X91792117Y-98574753D01*
X91771950Y-98831000D01*
X79550500Y-98831000D01*
X79550500Y-93751000D01*
X91771950Y-93751000D01*
X91792117Y-94007246D01*
X91852121Y-94257183D01*
X91950486Y-94494657D01*
X92084791Y-94713824D01*
X92086253Y-94715536D01*
X92656806Y-94144982D01*
X92702316Y-94230822D01*
X92822009Y-94371735D01*
X92969195Y-94483623D01*
X93015268Y-94504939D01*
X92445462Y-95074745D01*
X92445462Y-95074746D01*
X92447174Y-95076207D01*
X92666342Y-95210513D01*
X92903816Y-95308878D01*
X93153753Y-95368882D01*
X93410000Y-95389049D01*
X93666246Y-95368882D01*
X93916183Y-95308878D01*
X94153657Y-95210513D01*
X94372825Y-95076207D01*
X94374535Y-95074746D01*
X94374536Y-95074745D01*
X93805077Y-94505286D01*
X93927431Y-94431669D01*
X94061658Y-94304523D01*
X94165413Y-94151495D01*
X94166635Y-94148426D01*
X94733745Y-94715536D01*
X94733746Y-94715535D01*
X94735207Y-94713825D01*
X94869513Y-94494657D01*
X94967878Y-94257183D01*
X95027882Y-94007246D01*
X95048049Y-93751000D01*
X96851950Y-93751000D01*
X96872117Y-94007246D01*
X96932121Y-94257183D01*
X97030486Y-94494657D01*
X97164791Y-94713824D01*
X97166253Y-94715536D01*
X97736806Y-94144982D01*
X97782316Y-94230822D01*
X97902009Y-94371735D01*
X98049195Y-94483623D01*
X98095268Y-94504939D01*
X97525462Y-95074745D01*
X97525462Y-95074746D01*
X97527174Y-95076207D01*
X97746342Y-95210513D01*
X97983816Y-95308878D01*
X98233753Y-95368882D01*
X98490000Y-95389049D01*
X98746246Y-95368882D01*
X98996183Y-95308878D01*
X99233657Y-95210513D01*
X99452825Y-95076207D01*
X99454535Y-95074746D01*
X99454536Y-95074745D01*
X98885077Y-94505286D01*
X99007431Y-94431669D01*
X99141658Y-94304523D01*
X99245413Y-94151495D01*
X99246635Y-94148426D01*
X99813745Y-94715536D01*
X99813746Y-94715535D01*
X99815207Y-94713825D01*
X99949513Y-94494657D01*
X100047878Y-94257183D01*
X100107882Y-94007246D01*
X100128049Y-93751000D01*
X100107882Y-93494753D01*
X100047878Y-93244816D01*
X99949513Y-93007342D01*
X99815207Y-92788174D01*
X99813745Y-92786462D01*
X99243192Y-93357015D01*
X99197684Y-93271178D01*
X99077991Y-93130265D01*
X98930805Y-93018377D01*
X98884729Y-92997060D01*
X99454536Y-92427253D01*
X99452824Y-92425791D01*
X99233657Y-92291486D01*
X98996183Y-92193121D01*
X98746246Y-92133117D01*
X98490000Y-92112950D01*
X98233753Y-92133117D01*
X97983816Y-92193121D01*
X97746342Y-92291486D01*
X97527177Y-92425790D01*
X97527174Y-92425793D01*
X97525462Y-92427253D01*
X98094922Y-92996713D01*
X97972569Y-93070331D01*
X97838342Y-93197477D01*
X97734587Y-93350505D01*
X97733364Y-93353573D01*
X97166253Y-92786462D01*
X97164793Y-92788174D01*
X97164790Y-92788177D01*
X97030486Y-93007342D01*
X96932121Y-93244816D01*
X96872117Y-93494753D01*
X96851950Y-93751000D01*
X95048049Y-93751000D01*
X95027882Y-93494753D01*
X94967878Y-93244816D01*
X94869513Y-93007342D01*
X94735207Y-92788174D01*
X94733745Y-92786462D01*
X94163192Y-93357015D01*
X94117684Y-93271178D01*
X93997991Y-93130265D01*
X93850805Y-93018377D01*
X93804729Y-92997060D01*
X94374536Y-92427253D01*
X94372824Y-92425791D01*
X94153657Y-92291486D01*
X93916183Y-92193121D01*
X93666246Y-92133117D01*
X93410000Y-92112950D01*
X93153753Y-92133117D01*
X92903816Y-92193121D01*
X92666342Y-92291486D01*
X92447177Y-92425790D01*
X92447174Y-92425793D01*
X92445462Y-92427253D01*
X93014922Y-92996713D01*
X92892569Y-93070331D01*
X92758342Y-93197477D01*
X92654587Y-93350505D01*
X92653364Y-93353573D01*
X92086253Y-92786462D01*
X92084793Y-92788174D01*
X92084790Y-92788177D01*
X91950486Y-93007342D01*
X91852121Y-93244816D01*
X91792117Y-93494753D01*
X91771950Y-93751000D01*
X79550500Y-93751000D01*
X79550500Y-91417500D01*
X79570502Y-91349379D01*
X79624158Y-91302886D01*
X79676500Y-91291500D01*
X135723500Y-91291500D01*
X135791621Y-91311502D01*
G37*
G04 #@! TD.AperFunction*
M02*
