M48
; DRILL file {KiCad 7.0.10} date Thu Feb  1 09:42:19 2024
; FORMAT={-:-/ absolute / inch / decimal}
; #@! TF.CreationDate,2024-02-01T09:42:19+01:00
; #@! TF.GenerationSoftware,Kicad,Pcbnew,7.0.10
; #@! TF.FileFunction,Plated,1,2,PTH
FMAT,2
INCH
; #@! TA.AperFunction,Plated,PTH,ViaDrill
T1C0.0157
; #@! TA.AperFunction,Plated,PTH,ComponentDrill
T2C0.0315
; #@! TA.AperFunction,Plated,PTH,ComponentDrill
T3C0.0394
; #@! TA.AperFunction,Plated,PTH,ComponentDrill
T4C0.0433
; #@! TA.AperFunction,Plated,PTH,ComponentDrill
T5C0.0591
; #@! TA.AperFunction,Plated,PTH,ComponentDrill
T6C0.0669
%
G90
G05
T1
X3.6303Y-4.8889
X3.6803Y-4.7989
X3.7303Y-4.7239
X3.7803Y-4.8489
X4.0303Y-5.1189
X4.1291Y-4.0247
X4.1303Y-5.1639
X4.3303Y-4.1865
X4.3681Y-5.6289
X4.4591Y-4.1347
X4.9004Y-5.6202
X5.05Y-5.5705
T2
X3.4429Y-5.5489
X3.4429Y-5.8489
X3.5807Y-5.5489
X3.5807Y-5.8489
X3.9547Y-5.5489
X3.9547Y-5.8489
X4.0925Y-5.5489
X4.0925Y-5.8489
X4.2303Y-5.5489
X4.2303Y-5.8489
X4.3681Y-5.5489
X4.3681Y-5.8489
X4.5059Y-5.5489
X4.5059Y-5.8489
T3
X3.2854Y-5.1209
X3.2854Y-5.2209
X3.2854Y-5.3209
X3.2854Y-5.4209
X4.0803Y-4.1265
X4.1803Y-4.1265
X4.2803Y-4.1265
X4.3803Y-4.1265
X5.1452Y-3.9202
X5.1452Y-4.0202
X5.1452Y-4.1202
X5.1452Y-4.2202
X5.1452Y-4.3202
X5.1452Y-4.4202
X5.1452Y-4.5202
X5.1452Y-4.6202
X5.1452Y-4.7202
X5.1452Y-4.8202
X5.1452Y-4.9202
X5.1452Y-5.0202
X5.1452Y-5.1202
X5.1452Y-5.2202
X5.1452Y-5.3202
X5.1452Y-5.4202
X5.1452Y-5.5202
X5.1452Y-5.6202
X5.1452Y-5.7202
X5.1452Y-5.8202
X5.2452Y-3.9202
X5.2452Y-4.0202
X5.2452Y-4.1202
X5.2452Y-4.2202
X5.2452Y-4.3202
X5.2452Y-4.4202
X5.2452Y-4.5202
X5.2452Y-4.6202
X5.2452Y-4.7202
X5.2452Y-4.8202
X5.2452Y-4.9202
X5.2452Y-5.0202
X5.2452Y-5.1202
X5.2452Y-5.2202
X5.2452Y-5.3202
X5.2452Y-5.4202
X5.2452Y-5.5202
X5.2452Y-5.6202
X5.2452Y-5.7202
X5.2452Y-5.8202
T4
X3.6988Y-5.2437
X3.6988Y-5.4209
X3.9547Y-5.2437
X3.9547Y-5.4209
X4.1008Y-5.2437
X4.1008Y-5.4209
X4.3567Y-5.2437
X4.3567Y-5.4209
X4.5059Y-5.2437
X4.5059Y-5.4209
X4.7618Y-5.2437
X4.7618Y-5.4209
X4.8406Y-4.2437
X4.8406Y-4.4996
X4.8406Y-4.6335
X4.8406Y-4.8894
X5.0177Y-4.2437
X5.0177Y-4.4996
X5.0177Y-4.6335
X5.0177Y-4.8894
T5
X3.7776Y-3.791
X3.7776Y-5.0517
X4.6831Y-5.0517
T6
X3.6776Y-3.691
X3.6776Y-3.891
X3.8776Y-3.691
X3.8776Y-3.891
M30
